<svg width="19" height="17" viewBox="0 0 19 17" fill="none" xmlns="http://www.w3.org/2000/svg">
<g clip-path="url(#clip0_629_34635)">
<path fill-rule="evenodd" clip-rule="evenodd" d="M17.3969 11.9738C16.9623 11.7565 14.8317 10.7094 14.435 10.5636C14.0383 10.4192 13.7496 10.3478 13.4594 10.7823C13.1706 11.214 12.3408 12.1911 12.0885 12.4799C11.8348 12.7701 11.5825 12.8051 11.1494 12.5892C10.7162 12.3705 9.3192 11.914 7.664 10.4382C6.3762 9.289 5.5056 7.8701 5.2533 7.4355C5.001 7.0024 5.2256 6.7676 5.4429 6.5517C5.6383 6.3578 5.876 6.0457 6.0933 5.7934C6.3106 5.5396 6.3821 5.3588 6.5265 5.0686C6.6723 4.7799 6.5994 4.5276 6.49 4.3103C6.3821 4.093 5.5158 1.9594 5.1542 1.0917C4.8027 0.24735 4.4454 0.36256 4.18 0.34798C3.9262 0.33631 3.6375 0.33339 3.3487 0.33339C3.06 0.33339 2.5904 0.44131 2.1937 0.87589C1.79562 1.309 0.67708 2.3576 0.67708 4.4911C0.67708 6.6232 2.2287 8.6838 2.446 8.974C2.6633 9.2628 5.5012 13.6407 9.8485 15.5176C10.884 15.9638 11.6904 16.2307 12.319 16.429C13.3573 16.7601 14.3023 16.7134 15.049 16.6011C15.8802 16.4771 17.6127 15.5526 17.9744 14.5405C18.3346 13.5284 18.3346 12.6607 18.2267 12.4799C18.1187 12.299 17.83 12.1911 17.3954 11.9738H17.3969ZM9.4898 22.7698H9.484C6.9019 22.7703 4.3672 22.0762 2.1456 20.7603L1.62062 20.4482L-3.83646 21.8803L-2.37958 16.5603L-2.72229 16.0148C-4.16584 13.717 -4.92978 11.0577 -4.92583 8.344C-4.92292 0.3961 1.54333 -6.07015 9.4956 -6.07015C13.3456 -6.07015 16.9652 -4.56807 19.6865 -1.8439C21.0287 -0.50722 22.0925 1.0823 22.8164 2.8328C23.5404 4.5833 23.91 6.46 23.904 8.3542C23.901 16.3021 17.4348 22.7698 9.4898 22.7698ZM21.7573 -3.91327C20.1505 -5.53068 18.2387 -6.81312 16.1326 -7.68627C14.0266 -8.55943 11.7682 -9.00594 9.4883 -8.99994C-0.0695801 -8.99994 -7.85125 -1.21973 -7.85417 8.3426C-7.8586 11.3857 -7.06029 14.3762 -5.53979 17.0123L-8 26.0001L1.19333 23.588C3.7365 24.9736 6.5864 25.6996 9.4825 25.6996H9.4898C19.0477 25.6996 26.8294 17.9194 26.8323 8.3557C26.8393 6.0767 26.3944 3.819 25.5233 1.713C24.6522 -0.39291 23.3722 -2.30521 21.7573 -3.91327Z" fill="#EF5026"/>
</g>
<defs>
<clipPath id="clip0_629_34635">
<rect width="19" height="17" fill="white"/>
</clipPath>
</defs>
</svg>
