<svg width="18" height="18" viewBox="0 0 18 18" fill="none" xmlns="http://www.w3.org/2000/svg">
<path d="M1.37076 1.39217L2.26421 0.700904C3.10223 0.0532246 4.29341 0.174107 5.04754 0.982961L6.54929 2.59452C7.20274 3.29635 7.36264 4.34383 6.9446 5.18345L5.77883 7.52115C6.25679 8.49224 6.95916 9.36356 7.885 10.1355C8.77056 10.886 9.79772 11.4512 10.9056 11.7976L12.7844 10.305C13.4963 9.74046 14.4928 9.73 15.2547 10.2796L17.0324 11.5587C17.9195 12.1978 18.2414 13.4066 17.7864 14.3874L17.2994 15.4383C16.814 16.4845 15.8227 17.1613 14.6976 17.2133C12.0399 17.3377 9.0435 15.9265 5.70466 12.9808C2.36094 10.0305 0.51648 7.16446 0.173576 4.38619C0.029016 3.21713 0.483796 2.07788 1.37076 1.39217V1.39217Z" fill="#EF5026"/>
</svg>
