<svg width="147" height="163" viewBox="0 0 147 163" fill="none" xmlns="http://www.w3.org/2000/svg">
<path d="M1.84906 19.075L1.27699 17.1586L-0.561747 17.7074L-0.089399 19.5673L1.84906 19.075ZM3.92906 27.265L1.9906 27.7573L2.47919 29.6811L4.40664 29.2071L3.92906 27.265ZM11.8591 25.315H13.8591V22.7636L11.3815 23.3729L11.8591 25.315ZM11.8591 61H9.85906V63H11.8591V61ZM21.7391 61V63H23.7391V61H21.7391ZM21.7391 15.175H23.7391V13.175H21.7391V15.175ZM14.9141 15.175V13.175H14.6219L14.342 13.2586L14.9141 15.175ZM-0.089399 19.5673L1.9906 27.7573L5.86752 26.7727L3.78752 18.5827L-0.089399 19.5673ZM4.40664 29.2071L12.3366 27.2571L11.3815 23.3729L3.45149 25.3229L4.40664 29.2071ZM9.85906 25.315V61H13.8591V25.315H9.85906ZM11.8591 63H21.7391V59H11.8591V63ZM23.7391 61V15.175H19.7391V61H23.7391ZM21.7391 13.175H14.9141V17.175H21.7391V13.175ZM14.342 13.2586L1.27699 17.1586L2.42113 20.9914L15.4861 17.0914L14.342 13.2586Z" fill="black" fill-opacity="0.1"/>
<g clip-path="url(#clip0_266_1908)">
<path d="M50.6823 64.0371C50.6823 64.0371 60.4315 61.761 60.922 61.8327C61.4124 61.9043 107.965 41.2817 109.833 41.9321C111.701 42.5824 118.53 57.6993 120.232 61.502C121.935 65.3047 127.469 78.5864 127.628 78.8234C127.788 79.0604 144.123 116.117 145.181 118.31C146.239 120.504 147.05 124.406 144.63 126.357C142.211 128.308 90.5166 147.889 88.0807 149.503C85.6448 151.118 55.3337 163.154 54.1984 162.664C53.0631 162.173 50.9468 161.688 48.4283 156.409C45.9097 151.129 27.0617 106.925 27.0617 106.925C27.0617 106.925 36.4857 69.6309 36.7282 69.6309C36.9707 69.6309 50.6823 64.0371 50.6823 64.0371Z" fill="white"/>
<path d="M39.7923 55.054C41.7505 56.035 43.7419 56.9535 45.7663 57.8095L44.113 43.7176C44.1027 43.5604 44.148 43.4045 44.2409 43.2773C44.3339 43.15 44.4686 43.0595 44.6215 43.0214C44.7744 42.9833 44.9358 43.0002 45.0776 43.069C45.2193 43.1379 45.3324 43.2543 45.3971 43.398C47.4778 48.1612 49.9036 52.766 52.6552 57.1758C52.9206 55.7219 53.0333 54.2442 52.9914 52.7669C52.9914 52.2158 53.6031 51.7473 54.0936 52.1607L56.3972 54.2273C58.5162 48.7488 60.0387 43.0579 60.9384 37.2531C61.0321 36.6414 62.0406 36.4375 62.2059 37.1043C63.8475 43.0684 65.1229 49.1272 66.0251 55.2469C68.2598 52.5443 70.2048 49.6147 71.8283 46.5063C72.1535 45.878 73.2226 46.0764 73.0849 46.8535C72.4786 50.263 71.8687 53.6707 71.2552 57.0766C71.2303 57.2476 71.1386 57.4017 71.0001 57.5051C70.8616 57.6084 70.6877 57.6525 70.5167 57.6277C70.3457 57.6028 70.1915 57.5111 70.0882 57.3726C69.9848 57.2341 69.9407 57.0602 69.9656 56.8892L71.1229 50.3861C69.6413 52.792 67.9619 55.0705 66.1023 57.1978C66.0199 57.2973 65.9105 57.3708 65.7872 57.4092C65.6639 57.4477 65.5321 57.4496 65.4077 57.4145C65.2834 57.3795 65.1719 57.3091 65.0868 57.212C65.0018 57.1148 64.9467 56.995 64.9284 56.8671C64.168 51.3374 63.099 45.8545 61.7265 40.444C60.7396 45.6347 59.2634 50.7203 57.3176 55.6327C57.2773 55.7266 57.2161 55.8101 57.1387 55.8768C57.0614 55.9436 56.9698 55.9918 56.8709 56.0178C56.7721 56.0438 56.6687 56.047 56.5684 56.0271C56.4682 56.0071 56.3738 55.9646 56.2925 55.9027L54.3416 54.1667C54.2876 55.8005 54.0528 57.4233 53.6417 59.0055C53.5149 59.507 52.793 59.8487 52.4458 59.3086C50.0471 55.5872 47.879 51.7222 45.9537 47.7352C46.3835 51.4093 46.8153 55.0834 47.2488 58.7575C47.26 58.8724 47.2414 58.9884 47.1947 59.0941C47.1481 59.1998 47.075 59.2917 46.9825 59.3609C46.89 59.4302 46.7812 59.4744 46.6667 59.4894C46.5521 59.5043 46.4356 59.4895 46.3284 59.4463C44.5428 58.7115 42.7811 57.9363 41.0433 57.1207C42.4505 59.8872 43.854 62.6575 45.2538 65.4314C45.3153 65.596 45.3099 65.7781 45.2389 65.9388C45.1678 66.0995 45.0367 66.2259 44.8735 66.2911C44.7095 66.3515 44.5286 66.3463 44.3684 66.2764C44.2082 66.2066 44.0811 66.0776 44.0138 65.9164C42.3164 62.5766 40.6226 59.2351 38.9325 55.8917C38.6515 55.4067 39.2963 54.806 39.7923 55.054Z" fill="#EF5026" fill-opacity="0.3"/>
<path d="M61.4895 111.995C61.5383 112.009 61.588 112.02 61.6383 112.028C61.6823 112.105 61.5776 112.072 61.4784 112.028L61.4895 111.995Z" fill="#253139"/>
<path d="M53.3718 66.7376C56.1993 66.4388 59.0573 66.8166 61.7101 67.8398C64.1985 68.6589 66.4964 69.971 68.4667 71.6976C70.3253 73.5542 71.7255 75.8186 72.5559 78.3109C73.5333 80.9882 74.3233 83.7301 74.9202 86.517C75.5559 89.3523 76.0069 92.226 76.2704 95.1198C76.5239 97.8754 76.5625 100.741 75.6036 103.386C74.8143 105.412 73.552 107.219 71.9222 108.657C70.2924 110.095 68.3423 111.122 66.2347 111.653C65.1838 111.926 64.1021 112.063 63.0162 112.061C62.7517 112.061 62.4651 112.061 62.2171 112.061C62.0407 112.061 61.8148 112.061 61.6164 112.028C61.5896 111.988 61.5581 111.951 61.5227 111.918C61.5059 111.944 61.4875 111.97 61.4676 111.995H61.3849C61.2526 111.94 61.3463 111.995 61.4566 112.05C61.4566 112.127 61.3904 112.21 61.3629 112.287C61.2361 112.656 61.1314 113.031 61.0157 113.389C60.1118 116.277 59.2025 119.159 58.3097 122.047C58.205 122.378 58.1058 122.708 58.0011 123.039C57.968 123.155 57.9184 123.287 57.8688 123.419C57.9785 123.551 58.0498 123.71 58.0751 123.879C58.1004 124.048 58.0786 124.221 58.0121 124.378C57.9317 124.535 57.8074 124.664 57.6545 124.751C57.5016 124.838 57.3267 124.878 57.1512 124.867C56.9757 124.856 56.8072 124.794 56.6665 124.688C56.5258 124.583 56.4188 124.439 56.3588 124.274C56.2756 123.933 56.3167 123.573 56.4745 123.26L56.8217 122.119C57.0587 121.358 57.2957 120.598 57.5271 119.837L58.8663 115.428L59.5607 113.147C59.7016 112.462 59.9371 111.799 60.2606 111.179C60.4177 110.933 60.6466 110.74 60.9165 110.628C61.2218 110.548 61.5426 110.548 61.8478 110.628C62.3782 110.69 62.9126 110.71 63.4461 110.689C64.4968 110.646 65.5369 110.46 66.5378 110.138C68.5926 109.477 70.4417 108.296 71.9056 106.71C73.4609 105.028 74.4698 102.914 74.7989 100.647C75.2288 97.721 74.8265 94.6899 74.4077 91.7856C73.9998 88.8188 73.3959 85.8823 72.6 82.9954C71.856 80.3721 71.0514 77.6441 69.6075 75.3129C68.2004 73.123 66.2017 71.3765 63.8429 70.2757C61.3032 68.9452 58.5099 68.1694 55.6479 67.9997C54.9444 67.9768 54.2403 68.0118 53.5426 68.1044C53.3614 68.127 53.1785 68.0767 53.0344 67.9646C52.8902 67.8525 52.7965 67.6877 52.7738 67.5064C52.7512 67.3252 52.8014 67.1423 52.9136 66.9982C53.0257 66.854 53.1905 66.7603 53.3718 66.7376Z" fill="#253139"/>
<path d="M65.0497 83.5465C64.4389 81.9247 64.2493 80.1746 64.4985 78.4597C64.7576 76.9331 65.4409 75.3074 66.8187 74.4807C68.1965 73.654 70.2411 73.7973 71.0898 75.2578C71.188 75.3996 71.2289 75.5732 71.2043 75.7439C71.1798 75.9146 71.0917 76.0697 70.9576 76.1781C70.8167 76.2789 70.6423 76.3214 70.4708 76.2967C70.2994 76.2721 70.144 76.1822 70.0372 76.0459C69.8898 75.8492 69.7048 75.6838 69.4929 75.5592C69.2811 75.4346 69.0466 75.3533 68.8031 75.32C68.5596 75.2867 68.312 75.302 68.0744 75.3651C67.8369 75.4282 67.6143 75.5379 67.4194 75.6876C66.3172 76.4537 65.9094 77.859 65.7661 79.1211C65.4575 82.0034 66.7746 84.781 68.6098 86.9248C69.6879 88.1371 70.9009 89.2225 72.2251 90.1598C72.3107 90.224 72.3801 90.3072 72.4279 90.4028C72.4758 90.4985 72.5007 90.604 72.5007 90.7109C72.5007 90.8179 72.4758 90.9233 72.4279 91.019C72.3801 91.1146 72.3107 91.1979 72.2251 91.262C71.3302 91.8918 70.343 92.3789 69.2987 92.7059C68.4831 92.9539 67.9816 91.7415 68.8082 91.4549C69.4347 91.2418 70.0414 90.9744 70.6214 90.6558C68.2296 88.7545 66.0913 86.4508 65.0497 83.5465Z" fill="#253139"/>
<path d="M49.1832 80.449C49.8544 79.6532 50.5919 78.9157 51.3876 78.2445C52.1336 77.5656 52.9545 76.9739 53.8346 76.481C55.8076 75.4394 57.8467 75.9299 59.8527 76.6022C60.6739 76.8723 60.1448 78.0902 59.3291 77.8312C58.4702 77.517 57.5764 77.3079 56.6673 77.2084C55.8254 77.161 54.9886 77.3663 54.2644 77.7981C52.7103 78.6854 51.4703 80.0356 50.2193 81.2867C50.1084 81.4197 49.9511 81.5057 49.7792 81.5271C49.6073 81.5486 49.4337 81.504 49.2934 81.4024C49.2222 81.348 49.1628 81.2798 49.1185 81.202C49.0742 81.1241 49.0461 81.0381 49.0358 80.9491C49.0256 80.8601 49.0333 80.77 49.0586 80.684C49.0839 80.5981 49.1263 80.5182 49.1832 80.449Z" fill="#253139"/>
<path d="M54.474 83.5467C54.505 83.3776 54.5991 83.2266 54.7372 83.1243C54.8754 83.022 55.0472 82.976 55.218 82.9956C55.4197 83.0094 55.6162 83.0657 55.7948 83.1607C55.9733 83.2556 56.1298 83.3872 56.2541 83.5467C56.3184 83.6365 56.3596 83.7409 56.374 83.8505C56.3885 83.96 56.3756 84.0715 56.3367 84.1749C56.4362 84.3491 56.5157 84.534 56.5737 84.7261C56.6498 84.9877 56.6905 85.2583 56.6949 85.5307C56.6953 85.8517 56.6489 86.171 56.5572 86.4786C56.5169 86.5705 56.4562 86.652 56.3798 86.717C56.3034 86.782 56.2131 86.8287 56.116 86.8537C56.0188 86.8786 55.9172 86.8811 55.8189 86.861C55.7206 86.8409 55.6282 86.7987 55.5486 86.7376C55.1123 86.3415 54.7844 85.8404 54.5964 85.2819C54.4083 84.7234 54.3661 84.1261 54.474 83.5467Z" fill="#253139"/>
<path d="M66.6148 81.9373C66.6296 81.8229 66.6755 81.7146 66.7473 81.6243C66.8192 81.534 66.9144 81.465 67.0226 81.4248C67.2243 81.357 67.4392 81.3376 67.6499 81.3682C67.8605 81.3989 68.061 81.4787 68.235 81.6012C68.3939 81.711 68.526 81.8552 68.6214 82.0232C68.7168 82.1911 68.7732 82.3784 68.7861 82.5711C68.7921 82.6782 68.7752 82.7853 68.7366 82.8853C68.9082 83.333 69.005 83.8059 69.0231 84.2851C69.0375 84.4118 69.0143 84.5401 68.9564 84.6537C68.8985 84.7674 68.8084 84.8616 68.6974 84.9244C68.5863 84.9873 68.4593 85.0161 68.332 85.0073C68.2047 84.9984 68.0828 84.9524 67.9815 84.8748C67.5131 84.5509 67.1395 84.108 66.8992 83.5917C66.659 83.0753 66.5608 82.5043 66.6148 81.9373Z" fill="#253139"/>
<path d="M60.5637 93.6647C63.3918 94.0062 66.2006 94.4918 68.9791 95.1197C69.1088 95.1509 69.2271 95.2177 69.3208 95.3125C69.4403 95.2849 69.5651 95.291 69.6812 95.3302C69.7974 95.3693 69.9004 95.44 69.9788 95.5344C70.0571 95.6287 70.1076 95.743 70.1248 95.8644C70.1419 95.9858 70.125 96.1095 70.0759 96.2219C69.398 98.531 66.4275 99.4183 64.2947 98.9774C63.1771 98.7376 62.1551 98.1737 61.3562 97.3562C60.5573 96.5388 60.0171 95.504 59.8032 94.3812C59.7967 94.2816 59.8123 94.1818 59.8489 94.0889C59.8855 93.996 59.9421 93.9124 60.0148 93.8439C60.0875 93.7755 60.1743 93.7239 60.2692 93.693C60.3641 93.662 60.4646 93.6523 60.5637 93.6647ZM64.4821 97.6713C65.8433 97.9524 67.6785 97.6052 68.5107 96.4092C66.163 95.8581 63.7987 95.4613 61.4179 95.1362C61.6943 95.7693 62.1157 96.3285 62.6479 96.7689C63.1802 97.2092 63.8084 97.5183 64.4821 97.6713Z" fill="#253139"/>
<path d="M44.8293 87.724C47.177 85.7542 49.1017 83.3295 50.4874 80.5961C51.873 77.8626 52.691 74.8769 52.892 71.8189C53.0063 70.0948 52.9156 68.3633 52.622 66.6605C52.4842 65.8283 53.7683 65.6906 53.9226 66.5117C54.4619 69.7078 54.3437 72.9802 53.5752 76.129C52.8067 79.2779 51.4041 82.2369 49.4531 84.8251C48.347 86.3021 47.0665 87.6399 45.6394 88.8097C44.9671 89.3608 44.1569 88.2751 44.8293 87.724Z" fill="#253139"/>
<path d="M46.8961 116.288C47.8482 116.78 48.9211 116.989 49.9883 116.892C51.0556 116.794 52.0726 116.393 52.9197 115.737C52.1666 115.391 51.4938 114.892 50.9444 114.271C50.395 113.65 49.981 112.922 49.7288 112.133C49.393 111.16 49.3264 110.114 49.5359 109.107C49.828 107.845 50.6381 106.903 51.3546 105.861C52.2341 104.512 52.7024 102.936 52.7024 101.325C52.7024 99.7147 52.2341 98.1389 51.3546 96.7897C50.6947 95.8619 49.88 95.0547 48.9462 94.4033C47.8071 93.6597 46.8027 92.7279 45.9757 91.6478C45.1491 90.3349 44.7899 88.7814 44.9562 87.2389C45.0278 86.4012 46.2899 86.5996 46.2403 87.4208C46.1259 88.6594 46.4285 89.9008 47.1 90.9479C47.7963 91.8252 48.6279 92.5861 49.5634 93.2019C50.5112 93.8571 51.3643 94.6397 52.0986 95.5276C52.7535 96.3748 53.2519 97.3323 53.57 98.3548C54.2347 100.444 54.1842 102.696 53.4267 104.753C52.9374 105.842 52.3155 106.865 51.575 107.801C51.0017 108.561 50.7061 109.495 50.7373 110.446C50.8475 112.419 52.2419 114.403 54.2534 114.778C54.367 114.797 54.4738 114.845 54.5637 114.917C54.6535 114.989 54.7234 115.082 54.7665 115.189C54.8097 115.296 54.8247 115.412 54.8101 115.526C54.7955 115.64 54.7518 115.749 54.6833 115.842C53.6777 117.002 52.3144 117.794 50.8085 118.093C49.3026 118.393 47.7399 118.182 46.367 117.495C46.2094 117.422 46.0852 117.293 46.0197 117.132C45.9542 116.971 45.9522 116.792 46.0143 116.63C46.0496 116.549 46.1004 116.476 46.1639 116.416C46.2273 116.355 46.3022 116.307 46.3841 116.275C46.4661 116.244 46.5535 116.228 46.6414 116.231C46.7292 116.233 46.8158 116.252 46.8961 116.288Z" fill="#253139"/>
<path d="M105.567 123.497C105.65 123.882 106.317 123.728 106.576 123.679C107.134 123.576 107.686 123.443 108.229 123.282C109.203 123.004 110.156 122.661 111.084 122.257C110.989 120.864 110.738 119.487 110.335 118.151C110.27 117.986 110.273 117.801 110.344 117.639C110.414 117.476 110.547 117.348 110.712 117.283C110.877 117.218 111.061 117.221 111.224 117.292C111.387 117.363 111.515 117.495 111.58 117.66C112.097 119.266 112.392 120.935 112.456 122.62C112.468 122.767 112.433 122.914 112.357 123.041C112.281 123.167 112.167 123.267 112.032 123.326C110.679 123.947 109.269 124.436 107.821 124.786C107.113 125.029 106.363 125.124 105.617 125.067C105.257 125.026 104.922 124.863 104.666 124.605C104.411 124.348 104.251 124.011 104.212 123.651C104.191 123.471 104.243 123.291 104.356 123.149C104.468 123.007 104.633 122.916 104.812 122.896C104.992 122.875 105.173 122.927 105.314 123.04C105.456 123.153 105.547 123.317 105.567 123.497Z" fill="#253139"/>
<path d="M104.415 121.331C104.942 120.403 105.794 119.704 106.807 119.369H106.873C106.873 119.308 106.873 119.192 106.873 119.126C106.873 118.829 106.873 118.526 106.873 118.222C106.873 117.6 106.906 116.977 106.934 116.36C106.962 116.188 107.057 116.035 107.197 115.932C107.337 115.829 107.511 115.785 107.683 115.809C107.854 115.84 108.005 115.935 108.108 116.074C108.21 116.213 108.256 116.386 108.235 116.558C108.235 117.197 108.196 117.837 108.174 118.47C108.152 119.104 108.251 119.81 107.816 120.267C107.463 120.653 106.84 120.724 106.46 120.972C106.054 121.232 105.714 121.583 105.468 121.998C105.372 122.119 105.234 122.202 105.082 122.231C104.929 122.26 104.771 122.232 104.637 122.154C104.503 122.076 104.401 121.951 104.352 121.804C104.302 121.657 104.307 121.497 104.366 121.353L104.415 121.331Z" fill="#253139"/>
<path d="M107.369 124.984C107.403 126.142 108.885 126.335 109.772 126.434C111.02 126.577 112.282 126.489 113.498 126.175C113.769 126.139 114.029 126.043 114.258 125.894C114.397 125.675 114.476 125.425 114.49 125.166C114.57 124.576 114.586 123.98 114.539 123.386C114.479 122.069 114.413 120.757 114.352 119.446C114.313 118.603 115.614 118.443 115.658 119.297C115.741 120.873 115.879 122.455 115.89 124.036C115.934 124.817 115.812 125.599 115.531 126.329C115.179 127.101 114.429 127.305 113.68 127.486C112.171 127.862 110.602 127.927 109.067 127.679C107.706 127.459 106.091 126.737 106.052 125.133C106.03 124.285 107.32 124.125 107.369 124.984Z" fill="#253139"/>
<path d="M109.668 126.792C109.737 126.633 109.866 126.508 110.027 126.443C110.187 126.378 110.367 126.378 110.527 126.445C110.684 126.517 110.807 126.646 110.871 126.806C110.936 126.966 110.937 127.144 110.875 127.305C110.588 128.275 111.602 128.958 112.429 129.123C113.484 129.267 114.557 129.103 115.521 128.649C115.973 128.466 116.38 128.185 116.713 127.829C117.046 127.472 117.297 127.047 117.449 126.583C117.668 125.531 117.655 124.444 117.411 123.397C117.15 122.147 117.104 120.861 117.273 119.595C117.433 118.779 118.706 118.955 118.557 119.782C118.083 122.372 119.659 125.1 118.474 127.608C117.866 128.766 116.83 129.642 115.587 130.049C114.321 130.555 112.926 130.64 111.608 130.292C110.208 129.84 109.084 128.291 109.668 126.792Z" fill="#253139"/>
<path d="M30.5502 116.927L32.0437 120.234C36.0888 129.195 40.0183 138.206 43.9973 147.194L46.9457 153.857C47.7462 155.899 48.6663 157.892 49.7013 159.826C50.6657 161.479 52.0876 162.802 54.0661 162.945C56.3091 163.11 58.4749 161.964 60.5196 161.148L73.7462 155.803L75.6365 155.037L84.7629 151.355L86.5816 150.622L87.8602 150.104L100.883 144.847L102.492 144.202L115.311 139.021L134.142 131.444C137.151 130.231 140.177 128.837 143.247 127.845C145.528 127.084 146.807 125.74 147 123.138C147.165 120.471 145.898 117.925 144.795 115.511C143.693 113.031 142.591 110.546 141.489 108.054L141.274 107.558L140.723 106.28C140.469 106.781 140.205 107.266 139.913 107.746C140.139 108.264 140.364 108.782 140.596 109.3C140.596 109.344 140.635 109.399 140.662 109.443C141.79 112.015 142.922 114.587 144.057 117.159C145.038 119.363 146.228 122.009 145.291 124.445C145.276 124.49 145.263 124.536 145.253 124.582L144.669 125.729L138.943 128.016C129.952 131.62 120.969 135.239 111.993 138.873L102.955 142.521L101.384 143.155L87.4799 148.826L85.6557 149.564L85.1046 149.785L76.4577 153.284L74.7107 153.99C69.1996 156.216 63.6885 158.441 58.1773 160.663C56.276 161.43 54.0109 162.262 52.2198 160.801C50.8035 159.644 50.1422 157.693 49.4312 156.073C47.4766 151.664 45.5238 147.255 43.5729 142.846C39.6711 134.028 35.7416 125.211 31.9004 116.393C31.8295 116.214 31.6904 116.07 31.5137 115.994C31.3369 115.917 31.137 115.914 30.958 115.985C30.7789 116.056 30.6354 116.195 30.5589 116.372C30.4824 116.548 30.4793 116.748 30.5502 116.927Z" fill="#253139"/>
<path d="M126.515 74.1778C126.558 74.1863 126.601 74.1973 126.642 74.2108C126.4 73.6597 126.163 73.1086 125.92 72.5575C124.083 68.347 122.23 64.1384 120.36 59.9316C118.03 54.6225 115.693 49.3209 113.349 44.0265C113.318 43.9644 113.281 43.9054 113.239 43.8502C113.238 43.83 113.238 43.8097 113.239 43.7896C113.01 43.2894 112.679 42.8422 112.269 42.4761C111.858 42.11 111.376 41.8329 110.853 41.6623C109.873 41.3055 108.793 41.341 107.838 41.7615L107.75 41.789C104.006 43.3101 100.27 44.8367 96.5406 46.3687L76.5793 54.5583L60.4098 61.1716C59.5886 61.5022 58.7564 61.8439 57.9628 62.1746C58.795 62.2903 59.6161 62.4446 60.4483 62.6375L62.5921 61.7558L68.3733 59.386L88.3235 51.1799C94.9038 48.5089 101.482 45.8085 108.059 43.0786C108.114 43.0738 108.168 43.0608 108.219 43.04C108.411 42.9629 108.599 42.8802 108.803 42.8196H108.902H109.018C109.125 42.8029 109.234 42.7918 109.343 42.7865H109.563C109.661 42.7918 109.759 42.8028 109.855 42.8196C109.965 42.834 110.073 42.8542 110.181 42.8802L110.368 42.9353C110.557 43.0071 110.741 43.0918 110.919 43.1888L111.101 43.3101L111.365 43.5085L111.476 43.6077C111.554 43.6835 111.628 43.7645 111.696 43.8502C111.768 43.9384 111.828 44.0265 111.889 44.1147L111.922 44.1753L111.988 44.3076C112.017 44.3631 112.052 44.415 112.093 44.4619C112.087 44.491 112.087 44.521 112.093 44.5501L112.958 46.5396C115.284 51.7384 117.598 56.9556 119.902 62.1911L124.311 72.2599C124.537 72.778 124.768 73.3015 125 73.8196C125.507 73.9243 126.025 74.04 126.515 74.1778Z" fill="#253139"/>
<g clip-path="url(#clip1_266_1908)">
<path d="M102.518 74.3881L138.716 84.7979C139.96 85.1557 140.685 86.4666 140.328 87.7109L129.918 123.909L89.208 112.153L99.6048 75.9999C99.9626 74.7556 101.273 74.0303 102.518 74.3881ZM110.917 79.2529L104.44 84.7389L106.702 85.3895L113.179 79.9036L110.917 79.2529ZM119.966 81.8554L117.704 81.2048L111.227 86.6907L113.49 87.3413L119.966 81.8554ZM126.753 83.8072L124.491 83.1566L118.014 88.6425L120.277 89.2932L126.753 83.8072ZM133.54 85.7591L131.278 85.1085L124.802 90.5944L127.064 91.245L133.54 85.7591ZM126.694 118.083L133.2 95.4592L101.527 86.3506L95.021 108.974L126.694 118.083ZM112.188 91.8661L123.16 104.819L106.983 109.965L112.188 91.8661Z" fill="#EF5026"/>
</g>
<circle r="13.7778" transform="matrix(-1 0 0 1 106.218 82.9957)" fill="#EF5026" fill-opacity="0.3"/>
<path d="M84.7848 151.372L86.6035 150.639C86.8956 150.033 87.1876 149.432 87.4742 148.826C89.4417 144.698 91.332 140.526 92.9412 136.233C94.8873 131.221 96.2358 125.997 96.9588 120.669C97.0315 119.446 97.1713 118.229 97.3777 117.021C97.4669 116.543 97.6928 116.101 98.028 115.748C98.4691 115.388 98.9712 115.11 99.5105 114.927C100.685 114.399 101.717 113.598 102.52 112.59C102.854 112.171 103.144 111.719 103.385 111.24C103.574 110.862 103.727 110.467 103.842 110.06C103.92 109.61 104.082 109.177 104.322 108.787C104.581 108.473 104.939 108.848 105.159 109.08C105.842 109.856 106.216 110.856 106.212 111.89C106.225 112.494 106.144 113.097 105.969 113.676C105.821 114.209 105.623 114.727 105.38 115.224L105.33 115.329C105.038 115.924 104.713 116.503 104.366 117.065C103.993 117.588 103.689 118.157 103.462 118.757C103.31 119.423 103.396 120.121 103.704 120.73C103.888 121.199 104.028 121.684 104.123 122.179C104.413 123.725 104.309 125.319 103.82 126.813C103.332 128.308 102.475 129.656 101.329 130.733C100.712 131.284 101.489 132.347 102.117 131.78C102.551 131.394 102.953 130.974 103.319 130.523C104.736 128.725 105.536 126.518 105.6 124.23C105.636 123.067 105.478 121.907 105.132 120.796C104.966 120.284 104.581 119.694 104.724 119.143C104.98 118.519 105.313 117.93 105.716 117.39C105.975 116.949 106.229 116.492 106.454 116.023C106.695 115.538 106.903 115.038 107.077 114.524C107.623 113.077 107.674 111.49 107.221 110.011C106.873 108.975 106.085 107.74 105.016 107.404C103.737 107.013 103.032 108.203 102.74 109.239C102.657 109.535 102.557 109.825 102.442 110.11C102.24 110.631 101.976 111.125 101.654 111.582C101.505 111.797 101.341 112.001 101.164 112.193C100.796 112.592 100.38 112.941 99.9238 113.235C99.4171 113.525 98.8925 113.783 98.3532 114.006C97.7642 114.258 97.2429 114.645 96.8321 115.136C96.4738 115.629 96.2256 116.193 96.1046 116.79C95.8843 118.066 95.7335 119.354 95.6527 120.647C94.8758 126.2 93.4249 131.637 91.332 136.839C89.6511 141.176 87.6836 145.392 85.6831 149.586L84.7848 151.372Z" fill="#253139"/>
<path d="M100.905 144.863L102.514 144.218C102.514 144.108 102.58 143.992 102.614 143.888C102.746 143.447 102.873 143.006 102.994 142.559C103.181 141.898 103.358 141.226 103.545 140.559C103.603 140.069 103.834 139.616 104.195 139.28C104.596 139.064 105.02 138.89 105.457 138.762C107.237 138.041 108.823 136.91 110.085 135.463C111.348 134.015 112.253 132.291 112.726 130.43C112.749 130.26 112.703 130.088 112.6 129.951C112.497 129.814 112.345 129.723 112.175 129.697C112.006 129.676 111.834 129.722 111.698 129.824C111.561 129.927 111.47 130.079 111.442 130.248C110.894 132.225 109.806 134.011 108.301 135.406C107.647 136.007 106.926 136.531 106.152 136.966C105.7 137.213 105.23 137.425 104.746 137.6C104.271 137.746 103.816 137.949 103.391 138.206C102.498 138.834 102.321 139.958 102.062 140.961C101.87 141.716 101.666 142.466 101.44 143.21C101.324 143.601 101.208 143.987 101.081 144.378C101.015 144.527 100.96 144.72 100.905 144.863Z" fill="#253139"/>
<path d="M30.7979 67.8841C30.9043 68.026 31.0625 68.1201 31.238 68.1459C31.4135 68.1717 31.592 68.1271 31.7348 68.0219C32.3057 67.4719 32.9153 66.9636 33.559 66.5008C38.7835 62.7092 45.6448 61.9431 51.9165 61.8715C53.943 61.8302 55.9696 61.9445 57.9787 62.2132C58.8108 62.3289 59.632 62.4832 60.4642 62.6761C61.2908 62.8668 62.1059 63.1041 62.9056 63.387C64.7554 64.0388 66.522 64.9063 68.1687 65.9718C68.6151 66.2583 69.056 66.5614 69.4859 66.8811C70.07 67.3165 70.6432 67.7739 71.1943 68.2589C73.7155 70.5118 75.7495 73.2565 77.1711 76.3244C78.5927 79.3922 79.3719 82.7183 79.461 86.0983C79.5546 89.6585 78.8382 93.2076 79.1578 96.7678C79.2893 98.5455 79.7806 100.278 80.6018 101.86C81.445 103.431 82.4921 104.869 83.0652 106.578C83.5945 108.174 83.7731 109.866 83.5888 111.538C83.3849 113.221 82.8432 114.846 81.9961 116.316C81.219 117.738 80.3758 119.259 80.5907 120.94C80.6566 121.491 80.8327 122.023 81.1088 122.505C79.4836 122.175 78.0396 121.251 77.0581 119.914C76.9926 119.831 76.909 119.763 76.8135 119.717C76.718 119.67 76.6132 119.646 76.507 119.646C76.4008 119.646 76.296 119.67 76.2005 119.717C76.105 119.763 76.0214 119.831 75.9559 119.914C75.013 121.222 73.7809 122.294 72.3556 123.047C70.9303 123.801 69.3504 124.215 67.7388 124.257C67.5993 122.699 67.1831 121.178 66.5099 119.766C66.4637 119.653 66.3887 119.554 66.2924 119.478C66.1961 119.403 66.0818 119.355 65.9609 119.337C65.84 119.32 65.7166 119.335 65.6031 119.38C65.4896 119.425 65.3899 119.499 65.314 119.595C64.4708 120.758 63.6331 121.926 62.7899 123.094L59.4446 118.421C58.9321 117.699 57.8354 118.526 58.3424 119.248L62.2002 124.698C62.2657 124.782 62.3493 124.849 62.4448 124.896C62.5403 124.942 62.6451 124.967 62.7513 124.967C62.8575 124.967 62.9623 124.942 63.0578 124.896C63.1533 124.849 63.2369 124.782 63.3024 124.698L65.6612 121.43C66.076 122.581 66.3121 123.789 66.3611 125.012C66.3771 125.166 66.4445 125.31 66.5525 125.421C66.6605 125.532 66.8027 125.604 66.9563 125.624C68.7557 125.686 70.5458 125.339 72.1916 124.608C73.8373 123.878 75.2959 122.784 76.4574 121.408C77.3084 122.338 78.365 123.057 79.5428 123.506C80.7206 123.956 81.9872 124.124 83.2416 123.998C83.4087 123.969 83.56 123.881 83.6691 123.751C83.7781 123.621 83.8379 123.457 83.8379 123.287C83.8379 123.118 83.7781 122.953 83.6691 122.823C83.56 122.693 83.4087 122.606 83.2416 122.576C82.9992 122.501 82.7771 122.371 82.5919 122.198C82.4067 122.024 82.2633 121.81 82.1724 121.573C81.5497 120.146 82.2386 118.713 82.9219 117.451C83.354 116.704 83.744 115.933 84.0903 115.142C85.0596 112.701 85.2803 110.026 84.7241 107.459C84.293 105.73 83.5778 104.083 82.6078 102.588C81.6396 101.102 80.973 99.4415 80.6458 97.6992C80.4116 95.9529 80.3673 94.1864 80.5136 92.4306C80.6238 90.6119 80.7946 88.7988 80.8167 86.9746C80.841 85.2177 80.6822 83.463 80.3427 81.739C79.1455 75.6549 75.837 70.1895 71.0014 66.3079C70.5991 65.9883 70.1858 65.6742 69.7614 65.3821L69.3756 65.112C67.2693 63.6891 64.9698 62.5755 62.5474 61.8054C61.8309 61.5794 61.098 61.381 60.3429 61.2212L60.1941 61.1881C56.4281 60.4632 52.5811 60.2537 48.7586 60.5654C42.3933 60.9291 35.6036 62.3895 30.8695 66.9582C30.7432 67.0752 30.6656 67.2355 30.6523 67.4071C30.639 67.5788 30.691 67.7491 30.7979 67.8841Z" fill="#253139"/>
<path d="M35.7248 114.343C35.8663 114.239 36.0428 114.196 36.216 114.222C36.3892 114.248 36.5454 114.34 36.6507 114.48C37.7664 116.322 39.315 117.864 41.162 118.971C43.0089 120.079 45.0982 120.718 47.2485 120.835C46.4136 119.668 45.9438 118.279 45.8983 116.845C45.8708 116.012 47.1604 115.853 47.1934 116.696C47.2444 118.311 47.9248 119.842 49.0893 120.961C49.1901 121.045 49.2645 121.155 49.3034 121.28C49.3423 121.405 49.3441 121.538 49.3084 121.664C49.2727 121.789 49.2012 121.902 49.1026 121.988C49.004 122.073 48.8825 122.129 48.7531 122.146C46.7226 122.27 44.6889 121.964 42.7849 121.248C40.8808 120.532 39.1493 119.422 37.7033 117.991C36.8807 117.177 36.1624 116.265 35.565 115.274C35.4679 115.128 35.4303 114.95 35.46 114.777C35.4897 114.603 35.5845 114.448 35.7248 114.343Z" fill="#253139"/>
<path d="M13.5318 106.192C13.9323 105.443 14.4067 104.736 14.9481 104.081C15.5544 103.365 16.2432 102.731 16.8495 102.02C18.1005 100.554 18.4532 98.8125 18.6351 96.9387C19.3736 89.2232 18.5855 81.0171 22.6196 74.0786C24.4658 70.9042 27.1993 68.1762 30.765 67.052C31.5586 66.7985 32.0436 68.0054 31.239 68.2699C28.3219 69.3238 25.8551 71.347 24.2509 74.0015C22.4886 76.8956 21.3738 80.1369 20.9828 83.5026C20.3986 87.5698 20.4317 91.6921 20.1341 95.7814C19.9963 97.6331 19.8751 99.6006 19.0319 101.292C18.1887 102.984 16.7503 104.004 15.6756 105.431C14.7075 106.74 14.0252 108.238 13.6729 109.827C13.3207 111.416 13.3064 113.062 13.631 114.657C14.8235 113.373 16.2201 112.295 17.7643 111.466C17.9347 111.401 18.1238 111.405 18.2909 111.479C18.458 111.552 18.5895 111.688 18.6571 111.857C20.2663 117.175 25.3586 119.953 30.2304 121.899C29.8606 119.397 30.2564 116.841 31.3657 114.569C31.4287 114.433 31.5338 114.321 31.6655 114.25C31.7971 114.179 31.9482 114.152 32.0962 114.174C32.2443 114.196 32.3814 114.265 32.4871 114.37C32.5928 114.476 32.6615 114.614 32.6829 114.762C33.0687 116.757 34.6007 118.162 36.3092 119.248C35.6317 117.837 35.348 116.27 35.488 114.712C35.5707 113.836 36.9209 114.034 36.8382 114.905C36.7412 115.986 36.889 117.075 37.2706 118.091C37.6523 119.107 38.258 120.024 39.0427 120.774C39.5662 121.265 39.1033 122.317 38.3593 121.943C35.9344 120.708 33.256 119.187 31.9609 116.762C31.3478 118.698 31.2791 120.764 31.7625 122.736C31.8071 122.862 31.8146 122.998 31.7843 123.128C31.754 123.258 31.6871 123.377 31.5914 123.47C31.4958 123.564 31.3755 123.628 31.2447 123.655C31.1139 123.682 30.978 123.671 30.8532 123.623C26.4167 121.937 21.826 119.81 19.0429 115.776C18.4707 114.946 17.9972 114.053 17.632 113.114C16.1751 114.014 14.8926 115.17 13.8459 116.525C13.7706 116.621 13.6714 116.695 13.5582 116.741C13.4451 116.786 13.322 116.801 13.2014 116.783C13.0808 116.766 12.9668 116.717 12.871 116.642C12.7752 116.567 12.7009 116.467 12.6555 116.354C12.1108 114.689 11.9077 112.93 12.0582 111.184C12.2088 109.438 12.71 107.74 13.5318 106.192Z" fill="#253139"/>
<path d="M74.6556 123.326C78.6677 128.271 82.5751 133.301 86.3778 138.415C87.48 139.885 88.5565 141.355 89.6073 142.824C90.0922 143.508 89.0562 144.285 88.5602 143.607C84.8126 138.463 80.9695 133.387 77.0309 128.38C75.9287 126.947 74.7548 125.525 73.6085 124.103C73.0519 123.453 74.1155 122.676 74.6556 123.326Z" fill="#253139"/>
<path d="M41.1866 83.6239C41.4676 82.8248 42.6746 83.3428 42.399 84.1364C41.486 86.5609 41.1648 89.1682 41.4621 91.7418C41.6178 92.8508 41.9392 93.9302 42.4155 94.9437C42.9192 95.9315 43.5634 96.8411 44.3279 97.6442C44.8239 98.1953 43.9587 99.044 43.3965 98.559C41.5338 96.9498 40.4922 94.343 40.1395 91.9457C39.8142 89.1279 40.1734 86.2733 41.1866 83.6239Z" fill="#253139"/>
<path d="M37.2242 84.8746C37.859 84.4923 38.588 84.2949 39.329 84.3047C40.07 84.3144 40.7935 84.5309 41.4181 84.9297C42.0023 85.3485 41.4181 86.4067 40.7678 86.0319C40.355 85.7812 39.8844 85.6414 39.4016 85.6259C38.9189 85.6105 38.4403 85.72 38.0123 85.9437C37.5558 86.1786 37.1603 86.5165 36.8571 86.9307C36.5539 87.3449 36.3512 87.824 36.2652 88.33C35.8188 90.5731 36.9872 92.8106 38.7673 94.1277C39.7681 94.8366 40.9323 95.2803 42.1511 95.4173C43.0108 95.5496 42.7794 96.729 41.9637 96.7179C40.6007 96.6327 39.2897 96.1626 38.1831 95.3622C37.0574 94.586 36.1487 93.5351 35.5433 92.3091C34.3419 89.8511 34.6229 86.3295 37.2242 84.8746Z" fill="#253139"/>
<path d="M37.6978 89.1018C37.7671 88.9427 37.8956 88.8169 38.0561 88.751C38.2167 88.6852 38.3965 88.6845 38.5576 88.7491L40.8447 90.0276C41.0042 90.0997 41.1303 90.2297 41.1974 90.3914C41.2447 90.5107 41.2556 90.6413 41.2287 90.7668C41.2019 90.8923 41.1385 91.0071 41.0466 91.0967C40.9547 91.1862 40.8383 91.2466 40.7122 91.2702C40.586 91.2937 40.4557 91.2794 40.3377 91.2291L38.045 89.9615C37.8853 89.8879 37.7579 89.7586 37.6868 89.5978C37.6271 89.4371 37.6311 89.2597 37.6978 89.1018Z" fill="#253139"/>
<path d="M28.9907 64.5387C29.1094 64.4555 29.2508 64.4108 29.3958 64.4108C29.5407 64.4108 29.6821 64.4555 29.8008 64.5387C30.1768 64.7983 30.5358 65.0818 30.8755 65.3874C30.9381 64.9836 31.0396 64.5868 31.1786 64.2025C31.2372 64.0685 31.3383 63.9574 31.4662 63.8864C31.5942 63.8155 31.742 63.7886 31.8867 63.8099C32.0315 63.8312 32.1652 63.8995 32.2673 64.0043C32.3694 64.1092 32.4342 64.2446 32.4517 64.3899C32.4517 65.3543 32.4847 66.3188 32.4958 67.2887C32.5121 67.4564 32.4644 67.6241 32.3621 67.758C32.2599 67.892 32.1107 67.9822 31.9446 68.0107C31.8207 68.0176 31.697 67.9929 31.5851 67.9389C31.4733 67.885 31.3771 67.8035 31.3054 67.7021C31.1865 67.7924 31.0413 67.8412 30.892 67.8412C30.7427 67.8412 30.5976 67.7924 30.4787 67.7021C29.6722 67.1039 29.0807 66.261 28.7923 65.2992C28.7447 65.1673 28.7381 65.024 28.7735 64.8882C28.809 64.7524 28.8847 64.6306 28.9907 64.5387Z" fill="#253139"/>
<path d="M36.0335 125.431C37.7051 126.926 39.639 128.1 41.7375 128.892C43.8717 129.676 46.0918 130.203 48.3508 130.462C50.662 130.762 52.9922 130.89 55.3223 130.848C57.5984 130.798 60.128 130.495 61.9357 128.958C63.4402 127.663 64.4983 125.205 63.3906 123.342C63.2935 123.203 63.2531 123.032 63.2777 122.864C63.3023 122.696 63.3899 122.544 63.5229 122.438C63.6607 122.337 63.8328 122.294 64.0019 122.319C64.1711 122.344 64.3237 122.434 64.4267 122.57C65.6336 124.554 65.1872 126.979 63.8756 128.781C62.3821 130.837 59.9021 131.741 57.4606 132.027C54.8816 132.265 52.2849 132.236 49.712 131.939C47.2336 131.738 44.7849 131.265 42.4098 130.528C39.7513 129.725 37.3044 128.342 35.2454 126.478C34.6281 125.91 35.3997 124.88 36.0335 125.431Z" fill="#253139"/>
<path d="M32.1318 116.844L34.5732 122.675C34.621 122.832 34.6079 123 34.5367 123.148C34.4655 123.295 34.3413 123.41 34.1889 123.47C34.0365 123.53 33.8672 123.53 33.7147 123.471C33.5622 123.411 33.4378 123.296 33.3663 123.149C32.5506 121.198 31.7331 119.249 30.9138 117.302C30.8772 117.146 30.8983 116.983 30.9734 116.842C31.0484 116.702 31.1722 116.593 31.3215 116.537C31.4708 116.481 31.6355 116.481 31.7846 116.538C31.9338 116.594 32.0572 116.703 32.1318 116.844Z" fill="#253139"/>
<path d="M68.1523 65.9717C68.5987 66.2583 69.0396 66.5614 69.4695 66.881L71.0456 66.2913C76.9866 64.0869 82.878 61.7594 88.7198 59.3088C97.2877 55.7265 105.738 51.8963 114.071 47.8181C114.809 47.4544 114.341 46.253 113.597 46.6167C108.92 48.8946 104.204 51.0991 99.4499 53.23C90.9738 57.029 82.3967 60.5837 73.7185 63.894C72.4069 64.3955 71.0952 64.886 69.7781 65.3765L68.1523 65.9717Z" fill="#253139"/>
<path d="M68.8084 134.552C69.3595 132.457 69.9768 130.38 70.561 128.297C70.6282 128.139 70.7554 128.014 70.9145 127.95C71.0737 127.886 71.2518 127.888 71.4097 127.955C71.5675 128.022 71.6922 128.149 71.7563 128.308C71.8204 128.468 71.8186 128.646 71.7514 128.804C71.2003 130.832 70.6491 132.876 70.0539 134.899C69.8445 135.599 68.6155 135.268 68.8084 134.552Z" fill="#253139"/>
<path d="M69.0344 135.676C70.4404 136.491 71.6967 137.54 72.7489 138.779C74.6389 140.997 75.7942 143.747 76.0556 146.649C76.2585 149.173 75.7888 151.706 74.6943 153.99C74.4534 154.51 74.1791 155.014 73.8732 155.5C73.8146 155.598 73.7753 155.706 73.7575 155.819L75.6478 155.053C75.9503 154.481 76.2154 153.89 76.4414 153.284C76.715 152.541 76.9342 151.778 77.0972 151.003C77.7839 147.74 77.3812 144.342 75.9509 141.331C74.5898 138.493 72.4015 136.133 69.6737 134.563C69.051 134.194 68.4062 135.301 69.0344 135.676Z" fill="#253139"/>
<path d="M107 45.0132C107.178 44.6726 107.463 44.3996 107.81 44.2361C108.133 44.0947 108.492 44.06 108.835 44.1369C109.26 44.2367 109.645 44.4635 109.938 44.7872C110.198 45.0792 110.347 45.4542 110.357 45.8453C110.365 45.9204 110.365 45.9962 110.357 46.0713C110.365 46.1316 110.365 46.1928 110.357 46.2532C110.299 46.4669 110.204 46.6685 110.075 46.8484C109.981 46.9867 109.868 47.111 109.739 47.2176C109.477 47.4315 109.164 47.5739 108.83 47.6309C108.501 47.6992 108.159 47.6681 107.848 47.5415C107.537 47.4149 107.271 47.1985 107.083 46.92C106.891 46.6399 106.782 46.3113 106.769 45.9721C106.762 45.6378 106.842 45.3074 107 45.0132ZM108.102 46.165C108.121 46.1917 108.142 46.2175 108.163 46.2421L108.24 46.3028L108.306 46.3358H108.455H108.598C108.659 46.3196 108.718 46.2974 108.775 46.2697L108.885 46.1925L108.973 46.0713C108.973 46.0217 109.017 45.9721 109.034 45.9225C109.036 45.8784 109.036 45.8343 109.034 45.7902L109.001 45.7076C108.974 45.6591 108.941 45.6146 108.902 45.5753C108.852 45.5287 108.798 45.4863 108.742 45.4485L108.604 45.3934C108.569 45.3881 108.534 45.3881 108.499 45.3934H108.378H108.317L108.24 45.4485C108.21 45.4829 108.182 45.5198 108.158 45.5588C108.136 45.5995 108.117 45.6419 108.102 45.6855C108.102 45.7461 108.102 45.8012 108.102 45.8619C108.099 45.9151 108.099 45.9685 108.102 46.0217V46.165Z" fill="#253139"/>
<path d="M101.869 47.3494C102.042 46.9575 102.335 46.6306 102.705 46.4156C103.076 46.2007 103.505 46.1089 103.931 46.1535C104.059 46.1741 104.179 46.2306 104.276 46.3164C104.374 46.4022 104.445 46.5139 104.482 46.6384C104.607 46.6044 104.74 46.6082 104.864 46.6493C104.987 46.6905 105.096 46.7672 105.176 46.8699C105.373 47.1364 105.5 47.4481 105.545 47.7765C105.591 48.1048 105.553 48.4393 105.435 48.7492C105.327 49.0604 105.139 49.3374 104.889 49.5523C104.639 49.7672 104.337 49.9122 104.013 49.9727C103.675 50.0193 103.33 49.9807 103.011 49.8604C102.691 49.7401 102.407 49.5419 102.184 49.2838C101.95 49.026 101.796 48.7062 101.741 48.363C101.685 48.0198 101.73 47.6677 101.869 47.3494ZM103.021 48.1871C103.037 48.2383 103.058 48.288 103.082 48.3359L103.137 48.4075L103.181 48.4626L103.352 48.5949L103.512 48.661C103.573 48.6783 103.636 48.6893 103.699 48.6941H103.842C103.877 48.6823 103.91 48.6676 103.942 48.65L103.997 48.6114C104.057 48.5534 104.112 48.4907 104.162 48.424C104.195 48.3359 104.212 48.2863 104.234 48.2367C104.256 48.1871 104.234 48.0989 104.234 48.0438C104.234 47.9887 104.234 47.9115 104.234 47.8619C104.234 47.8123 104.173 47.7351 104.151 47.6855C104.245 47.895 104.151 47.7296 104.151 47.6855C104.097 47.622 104.059 47.5464 104.041 47.4651C103.952 47.4847 103.86 47.4847 103.771 47.4651C103.712 47.4608 103.653 47.4608 103.594 47.4651C103.385 47.5533 103.368 47.5643 103.352 47.5808L103.258 47.658C103.207 47.709 103.163 47.7664 103.126 47.8288C103.095 47.8934 103.067 47.9597 103.043 48.0272C103.104 47.8674 103.043 47.9611 103.043 48.0272C103.039 48.049 103.039 48.0716 103.043 48.0934C103.031 48.1231 103.023 48.1548 103.021 48.1871Z" fill="#253139"/>
<path d="M103.087 48.3417C103.073 48.3195 103.062 48.2954 103.054 48.27L103.087 48.3417Z" fill="#253139"/>
<path d="M14.1824 106.142C16.6183 103.133 19.2196 101.998 19.4621 95.9023C19.7045 89.8071 19.5447 76.6465 25.155 71.2016C30.7653 65.7566 31.818 67.3658 31.818 67.3658C31.818 67.3658 40.8396 59.4023 52.7602 60.7029C64.6807 62.0035 73.1512 65.7897 78.3096 77.1976C80.6629 82.4001 80.0126 89.7079 79.963 93.6097C79.9134 97.5116 79.715 99.4625 81.5061 102.306C83.2972 105.15 85.4851 109.471 83.8648 113.841C82.2446 118.211 81.3407 119.352 81.5832 120.504C81.8522 121.442 82.2354 122.343 82.724 123.188C82.724 123.188 80.5196 123.739 79.23 122.863C78.296 122.184 77.4254 121.422 76.6288 120.587C76.6288 120.587 73.3221 123.755 70.6988 124.406C68.0755 125.056 67.2048 124.891 67.2048 124.891L65.9041 119.854C65.9041 119.854 62.9006 123.921 62.6526 123.673C62.4046 123.425 58.6736 118.393 58.6736 118.393L60.7072 111.89C60.7072 111.89 70.5335 112.54 74.1102 105.392C77.6869 98.2446 74.1928 86.787 73.8677 84.836C73.5425 82.8851 71.3987 73.6264 66.0419 70.7001C60.6851 67.7737 56.8549 67.1233 55.8023 67.2005C54.7497 67.2777 53.5978 67.4485 53.5978 67.4485C53.5978 67.4485 54.7331 75.9797 50.9139 81.5073C47.0947 87.035 45.7941 88.0876 45.7941 88.0876C45.7277 88.8486 45.8575 89.6139 46.1711 90.3105C46.4846 91.0071 46.9715 91.6117 47.5852 92.0666C49.696 93.6097 54.408 96.9439 53.5152 101.987C52.6224 107.029 49.9385 107.024 50.3463 109.867C50.7541 112.711 50.8974 113.521 51.8894 114.276C52.5654 114.738 53.3495 115.018 54.1655 115.086C53.9571 115.706 53.566 116.249 53.0437 116.642C52.5214 117.035 51.8923 117.262 51.2391 117.291C49.7471 117.334 48.2542 117.254 46.7751 117.054C46.8194 117.953 47.0384 118.835 47.4199 119.65C47.7164 120.177 48.0714 120.668 48.478 121.116C48.478 121.116 47.1774 122.411 43.4409 120.625C39.7043 118.84 36.1276 115.423 36.1276 115.423C36.2939 116.436 36.511 117.44 36.7779 118.432C37.0182 119.301 37.4019 120.124 37.9132 120.868C37.9132 120.868 34.6066 119.815 33.5043 118.432C32.7881 117.442 32.2304 116.347 31.851 115.186C31.2031 116.356 30.8423 117.663 30.7984 118.999C30.8074 120.306 30.9142 121.61 31.118 122.901C31.118 122.901 23.4797 120.383 20.9611 116.966C18.4425 113.549 18.0402 112.094 18.0402 112.094C18.0402 112.094 15.6043 113.152 14.6288 114.298C13.6534 115.445 13.1629 116.652 13.0857 116.326C13.0085 116.001 11.763 109.129 14.1824 106.142ZM41.9694 96.222C41.2309 94.4492 40.6876 92.6013 40.3491 90.7109C39.8587 87.79 41.4018 84.9628 41.4018 84.9628C41.4018 84.9628 36.0395 83.8055 35.3891 88.6828C34.4082 96.1173 41.9859 96.222 41.9859 96.222H41.9694Z" fill="#253139"/>
<path d="M86.9619 65.3595C90.1088 64.4171 93.2336 63.4361 96.1434 61.8765C97.5763 61.1049 98.9872 60.2948 100.464 59.6004C101.941 58.906 103.462 58.2777 104.989 57.7046C106.708 57.0542 108.45 56.459 110.197 55.8804C110.979 55.6158 111.459 56.8062 110.665 57.0873C107.579 58.1895 104.482 59.2311 101.5 60.5924C98.5187 61.9536 95.7742 63.7447 92.6825 64.9021C90.9575 65.5469 89.1939 66.0759 87.4304 66.605C86.6258 66.853 86.1298 65.602 86.9619 65.3595Z" fill="#253139"/>
<path d="M105.275 61.8493C107.303 60.9455 109.324 60.049 111.338 59.1599C112.104 58.8182 112.578 60.0306 111.812 60.3723L105.749 63.0672C104.978 63.4089 104.504 62.191 105.275 61.8493Z" fill="#253139"/>
<path d="M88.6921 69.3941C93.1781 67.4762 97.6623 65.562 102.145 63.6515C102.911 63.3264 103.379 64.5278 102.619 64.8529C98.14 66.7892 93.6594 68.7125 89.1771 70.6231C88.3945 70.9537 87.915 69.7303 88.6921 69.3941Z" fill="#253139"/>
</g>
<defs>
<clipPath id="clip0_266_1908">
<rect width="135" height="126.276" fill="white" transform="matrix(-1 0 0 1 147 36.7021)"/>
</clipPath>
<clipPath id="clip1_266_1908">
<rect width="47.0815" height="47.0815" fill="white" transform="translate(98.6439 70.8247) rotate(16.0441)"/>
</clipPath>
</defs>
</svg>
