<svg width="165" height="176" viewBox="0 0 165 176" fill="none" xmlns="http://www.w3.org/2000/svg">
<path d="M18.581 40.655L19.8489 42.2017L19.8561 42.1958L18.581 40.655ZM3.43598 53.07L2.16806 51.5233L1.43598 52.1234V53.07H3.43598ZM3.43598 61H1.43598V63H3.43598V61ZM37.106 61V63H39.106V61H37.106ZM37.106 52.355H39.106V50.355H37.106V52.355ZM17.281 52.355L16.0589 50.7718L11.417 54.355H17.281V52.355ZM24.691 46.635L25.9131 48.2182L25.9153 48.2164L24.691 46.635ZM4.02098 24.275L2.40871 23.0915L1.27723 24.633L2.76632 25.8325L4.02098 24.275ZM11.041 29.93L9.78632 31.4875L11.3373 32.7369L12.5932 31.1912L11.041 29.93ZM20.336 25.82C21.7454 25.82 22.7454 26.2267 23.3737 26.8077C23.9792 27.3677 24.446 28.2787 24.446 29.735H28.446C28.446 27.3563 27.6453 25.3098 26.0895 23.871C24.5566 22.4533 22.5015 21.82 20.336 21.82V25.82ZM24.446 29.735C24.446 32.4398 23.066 34.3472 17.3058 39.1142L19.8561 42.1958C25.406 37.6028 28.446 34.5702 28.446 29.735H24.446ZM17.3131 39.1083L2.16806 51.5233L4.7039 54.6167L19.8489 42.2017L17.3131 39.1083ZM1.43598 53.07V61H5.43598V53.07H1.43598ZM3.43598 63H37.106V59H3.43598V63ZM39.106 61V52.355H35.106V61H39.106ZM37.106 50.355H17.281V54.355H37.106V50.355ZM18.5031 53.9382L25.9131 48.2182L23.4689 45.0518L16.0589 50.7718L18.5031 53.9382ZM25.9153 48.2164C29.9305 45.108 33.1343 42.436 35.3033 39.4936C37.5493 36.4468 38.651 33.1674 38.651 28.955H34.651C34.651 32.3476 33.8027 34.7882 32.0836 37.1201C30.2876 39.5565 27.5115 41.922 23.4666 45.0536L25.9153 48.2164ZM38.651 28.955C38.651 24.2066 36.9691 20.117 33.7964 17.2301C30.6427 14.3606 26.2067 12.85 20.986 12.85V16.85C25.4502 16.85 28.8467 18.1344 31.1043 20.1887C33.3428 22.2255 34.651 25.1884 34.651 28.955H38.651ZM20.986 12.85C16.6307 12.85 13.1416 13.7444 10.1126 15.5544C7.11791 17.3439 4.72065 19.9419 2.40871 23.0915L5.63324 25.4585C7.80631 22.4981 9.82905 20.3836 12.1644 18.9881C14.4653 17.6131 17.2162 16.85 20.986 16.85V12.85ZM2.76632 25.8325L9.78632 31.4875L12.2956 28.3725L5.27564 22.7175L2.76632 25.8325ZM12.5932 31.1912C15.9376 27.075 17.8176 25.82 20.336 25.82V21.82C15.8344 21.82 12.9043 24.465 9.48875 28.6688L12.5932 31.1912Z" fill="black" fill-opacity="0.1"/>
<g clip-path="url(#clip0_266_1909)">
<path d="M159.807 131.505C158.62 129.583 155.609 125.745 155.609 125.745L163.906 124.282L154.336 118.082L155.337 111.882L149.415 115.602C149.415 115.602 148.506 112.316 147.412 109.402C146.318 106.488 141.23 99.6178 141.23 99.6178L120.723 67.3771L83.0615 68.3257C83.0615 68.3257 50.3393 68.5985 49.4305 68.5985C49.2406 68.5903 49.0512 68.6233 48.8751 68.6952C48.699 68.7671 48.5405 68.8762 48.4103 69.015C48.28 69.1539 48.1812 69.3192 48.1204 69.4999C48.0596 69.6805 48.0383 69.8721 48.0581 70.0617C48.0581 70.8864 47.8788 83.2246 47.8788 83.2246C47.8788 83.2246 45.5048 85.1467 43.3163 86.6967C41.1278 88.2467 38.488 92.562 35.3908 98.136C32.2935 103.71 27.354 118.249 27.0016 128.579C26.6492 138.908 24.9058 153.72 31.564 159.468C38.2222 165.215 48.3301 160.931 51.4273 159.741C54.5246 158.55 59.6373 153.801 59.6373 153.801C59.6373 153.801 101.107 154.26 109.49 154.421C117.873 154.582 117.057 154.148 118.968 152.319C120.878 150.49 119.883 140.805 119.883 140.805C119.883 140.805 122.071 146.652 122.893 149.392C123.715 152.133 125.44 160.733 125.898 162.655C126.355 164.577 128.544 172.798 137.749 174.075C146.954 175.352 150.967 163.473 152.426 154.334C153.885 145.195 153.044 134.314 153.044 134.314L161.792 135.864C161.276 134.348 160.612 132.888 159.807 131.505ZM48.3301 136.254L42.6919 140.917C42.6919 140.917 42.0737 138.995 42.0737 132.417C42.0737 125.838 41.8944 121.814 42.1664 120.078C42.4385 118.342 42.5312 115.875 42.5312 115.875C43.3793 114.828 44.113 113.693 44.7197 112.489C45.5357 110.753 46.8154 107.827 46.8154 107.827L48.633 108.286L48.3301 136.254Z" fill="white"/>
<path d="M114.64 97.9686C114.597 96.0403 114.448 94.1245 114.461 92.2024C114.461 89.555 114.56 86.9137 114.535 84.2725C114.535 83.1068 114.492 81.9474 114.442 80.788C114.458 79.9058 114.286 79.0305 113.935 78.2211C112.965 76.3177 110.69 76.3301 108.841 76.5347C107.852 76.6463 106.869 76.8385 105.88 76.9377C104.613 77.0617 103.333 77.1423 102.059 77.2167C99.4567 77.3593 96.854 77.4151 94.2451 77.4089C93.3937 77.4358 92.5415 77.4192 91.6918 77.3593C91.154 77.3035 90.6223 77.2167 90.0845 77.1361C88.7667 76.9062 87.4341 76.7715 86.097 76.7331C84.9471 76.7331 83.519 76.7331 82.6164 77.5763C82.4061 77.7665 82.238 77.9989 82.123 78.2585C82.008 78.518 81.9486 78.7989 81.9487 79.0829C81.9466 79.2016 81.9676 79.3196 82.0106 79.4301C82.0106 84.6445 82.0106 89.8588 81.9487 95.0731C81.9487 97.3485 81.9055 99.6116 81.9858 101.893C82.0415 103.332 82.0847 105.055 83.4139 105.923C84.6194 106.698 86.165 106.835 87.556 106.872C89.1139 106.915 90.6471 106.798 92.2173 106.686C92.5141 106.686 92.8355 106.636 93.1076 106.624H93.429H93.6083C95.0117 106.624 96.3532 106.624 97.6886 106.624C100.242 106.624 102.795 106.519 105.348 106.469C106.9 106.432 108.588 106.742 110.189 106.55C111.023 106.493 111.825 106.201 112.501 105.708C113.177 105.214 113.7 104.539 114.009 103.759C114.702 101.912 114.683 99.8658 114.64 97.9686ZM113.076 101.069C113.015 101.878 112.823 102.672 112.507 103.418C112.245 103.985 111.776 104.429 111.197 104.659C109.96 105.179 108.347 104.969 106.974 104.882C104.866 104.758 102.746 104.925 100.637 104.962C98.2573 105 95.871 104.962 93.4909 105.012C90.8511 105.074 88.1927 105.632 85.5715 105.093C85.3247 105.052 85.0824 104.988 84.8482 104.9L84.5143 104.758L84.4031 104.702C84.3418 104.671 84.2838 104.633 84.23 104.59L84.0507 104.454L83.8899 104.249L83.8343 104.144C83.8343 104.069 83.7725 103.995 83.7478 103.914C83.723 103.834 83.6797 103.598 83.655 103.474C83.5435 102.671 83.4898 101.861 83.4943 101.05C83.4943 100.083 83.4263 99.1218 83.4263 98.1546C83.4263 93.1014 83.4263 88.0545 83.4263 83.0076V79.4983C83.4655 79.4237 83.4866 79.3409 83.4881 79.2565C83.4881 79.2007 83.4881 79.0271 83.4881 79.0085C83.4881 78.9899 83.5561 78.8721 83.5561 78.8659L83.6056 78.7977L83.7663 78.6737L83.9456 78.5869L84.199 78.5001C84.447 78.4387 84.6991 78.3952 84.9533 78.3699C85.5227 78.3139 86.0963 78.3139 86.6657 78.3699C87.321 78.4071 87.9702 78.4815 88.6255 78.5621C89.6765 78.6923 90.7336 78.9031 91.7908 78.9651C92.8479 79.0271 93.8494 78.9651 94.8818 78.9651C96.1183 78.9651 97.3547 78.9403 98.5912 78.8907C101.064 78.8163 103.487 78.6799 105.929 78.4443C106.888 78.3513 107.834 78.1715 108.792 78.0537C109.691 77.8863 110.613 77.8863 111.512 78.0537C113.051 78.4505 112.928 80.3044 112.977 81.6064C113.082 84.0864 113.051 86.6099 113.014 89.1148C113.014 91.229 112.952 93.3433 113.051 95.4575C113.202 97.3204 113.21 99.1921 113.076 101.056V101.069Z" fill="black"/>
<path d="M97.2929 94.7197C96.514 94.8499 95.8092 95.4699 95.0488 95.7179C95.7968 93.5045 96.8354 91.3158 96.9776 88.9722C97.0642 87.4531 97.0518 85.5559 96.211 84.2291C95.9943 83.8595 95.6497 83.5827 95.2428 83.4512C94.8359 83.3198 94.395 83.3428 94.004 83.516C93.2065 83.8322 93.7258 85.0537 94.5233 84.7561C94.5984 84.7246 94.6774 84.7037 94.7582 84.6941C94.7088 84.6941 94.7582 84.6941 94.8077 84.6941L94.888 84.7313L94.9684 84.7871C95.1353 85.0165 95.0982 84.9297 95.1724 85.0971C95.4292 85.7069 95.5757 86.3578 95.6052 87.0191C95.7187 88.6708 95.4892 90.3281 94.9313 91.8862C94.4553 93.3371 93.868 94.7445 93.4538 96.2263C93.4189 96.3248 93.4062 96.4299 93.4166 96.5339C93.4271 96.638 93.4604 96.7384 93.5142 96.8279C93.568 96.9175 93.641 96.9939 93.7278 97.0518C93.8146 97.1097 93.9132 97.1475 94.0164 97.1625C95.3702 97.3981 96.4398 96.3937 97.6453 95.9969C98.381 95.7675 98.0348 94.5895 97.2929 94.7197Z" fill="black"/>
<path d="M105.188 87.4345C105.189 87.2341 105.143 87.0363 105.052 86.8579C104.978 86.7264 104.881 86.6089 104.767 86.5107C104.615 86.3511 104.426 86.2318 104.217 86.1635C104.054 86.0986 103.873 86.0986 103.71 86.1635C103.58 86.2215 103.472 86.3191 103.401 86.4425L103.29 86.5169C103.082 86.7317 102.925 86.9898 102.829 87.2728C102.732 87.5558 102.7 87.8566 102.733 88.1537C102.744 88.3517 102.779 88.5475 102.838 88.7365C102.835 88.7716 102.835 88.8069 102.838 88.8419C102.865 88.9836 102.932 89.1148 103.03 89.2201L103.117 89.3504C103.239 89.5017 103.393 89.6245 103.568 89.71C103.676 89.7554 103.795 89.7707 103.911 89.7543C104.028 89.738 104.137 89.6905 104.229 89.617C104.752 89.1834 105.092 88.5677 105.181 87.8933C105.204 87.7414 105.207 87.587 105.188 87.4345Z" fill="black"/>
<path d="M91.63 87.4903C91.5992 87.2261 91.5261 86.9686 91.4137 86.7277C91.3736 86.6316 91.3112 86.5465 91.2316 86.4797C91.152 86.4128 91.0575 86.366 90.9562 86.3433C90.8595 86.3139 90.7571 86.3087 90.658 86.3281C90.5588 86.3476 90.4659 86.3911 90.3874 86.4549C90.2051 86.4783 90.0389 86.5717 89.9238 86.7153C89.642 87.0773 89.4531 87.5031 89.3735 87.9553C89.2995 88.3643 89.2807 88.7814 89.3179 89.1954C89.3405 89.3464 89.4143 89.485 89.5269 89.5878C89.6395 89.6906 89.7841 89.7513 89.9361 89.7596C90.2362 89.7799 90.5364 89.7222 90.8078 89.5922C90.9592 89.5616 91.0937 89.4754 91.1849 89.3504C91.2016 89.327 91.2161 89.3021 91.2282 89.276C91.292 89.2095 91.3461 89.1344 91.3889 89.0528C91.6439 88.5745 91.729 88.0235 91.63 87.4903Z" fill="black"/>
<path d="M102.239 98.2476C100.953 97.6275 99.3949 98.0987 98.078 98.3654C96.3471 98.6422 94.5936 98.7522 92.8418 98.694C92.6626 98.6801 92.4852 98.7373 92.3476 98.8533C92.2101 98.9692 92.1233 99.1346 92.1061 99.314C92.0813 99.4242 92.0813 99.5386 92.1061 99.6488C92.4708 101.744 95.1972 102.792 97.0518 102.879C99.3639 102.984 102.041 101.527 102.616 99.159C102.684 98.9877 102.682 98.7966 102.612 98.6263C102.542 98.4561 102.408 98.3202 102.239 98.2476ZM97.2064 101.484C96.3938 101.437 95.599 101.226 94.8695 100.864C94.4375 100.671 94.0517 100.388 93.7382 100.033C95.14 100.084 96.5436 100.001 97.9297 99.7852C98.6097 99.6612 99.2836 99.5 99.9636 99.407C100.333 99.345 100.709 99.3263 101.083 99.3512C100.687 100.023 100.119 100.576 99.4366 100.952C98.7544 101.327 97.984 101.511 97.2064 101.484Z" fill="black"/>
<path d="M52.9358 105.384C52.7888 105.938 52.5288 106.455 52.1724 106.904C51.8159 107.352 51.3707 107.721 50.8648 107.988C50.3771 108.259 49.8455 108.442 49.2945 108.527C48.7951 108.611 48.2854 108.611 47.7861 108.527C47.1885 108.453 46.6277 108.197 46.1783 107.795C45.7289 107.393 45.4121 106.864 45.2699 106.277C45.1426 105.738 45.1547 105.175 45.3051 104.643C45.4555 104.11 45.7392 103.624 46.1292 103.232C46.2974 103.063 46.5013 102.933 46.7259 102.853C46.9505 102.772 47.1902 102.743 47.4275 102.767C47.5032 102.779 47.5776 102.798 47.65 102.823C47.8791 102.91 48.0881 103.043 48.2645 103.214C48.4409 103.384 48.581 103.589 48.6763 103.815C48.7445 103.981 48.7451 104.166 48.678 104.332C48.6109 104.498 48.4815 104.631 48.3177 104.702C48.2189 104.748 48.1097 104.767 48.0011 104.757C47.8925 104.748 47.7885 104.709 47.6995 104.646C47.5794 104.572 47.4812 104.467 47.4151 104.342C47.378 104.286 47.2667 104.15 47.2667 104.15C47.2228 104.134 47.1747 104.134 47.1307 104.15C46.8697 104.359 46.6849 104.649 46.6053 104.975C46.4792 105.364 46.4967 105.786 46.6543 106.164C46.812 106.541 47.0995 106.85 47.4646 107.033L47.7551 107.139C48.2478 107.266 48.7647 107.266 49.2574 107.139C49.728 107.048 50.1713 106.849 50.5522 106.558C50.9331 106.266 51.2411 105.89 51.4521 105.458C51.7521 104.746 51.8338 103.96 51.687 103.201C51.5392 102.672 51.2557 102.191 50.8648 101.806C50.3135 101.315 49.6873 100.915 49.0101 100.622C48.513 100.387 48.0032 100.18 47.4831 100.002L46.8649 99.779C45.4328 99.3864 44.0368 98.872 42.6919 98.2413C42.5438 98.1658 42.4291 98.0375 42.3703 97.8817C42.3114 97.7258 42.3127 97.5535 42.3737 97.3985C42.4348 97.2435 42.5513 97.1169 42.7004 97.0435C42.8496 96.97 43.0207 96.955 43.1803 97.0013C44.5493 97.642 45.9701 98.1647 47.4275 98.5637C47.9159 98.7188 48.4043 98.8924 48.8741 99.0846L48.9483 99.1156C50.5371 99.7356 52.2805 100.746 52.8925 102.457C53.2001 103.406 53.2152 104.426 52.9358 105.384Z" fill="black"/>
<path d="M60.6821 97.5593C60.6141 96.4309 60.8923 94.9429 60.0639 94.0129C59.2354 93.0828 57.7888 93.1263 56.6328 93.2255C56.1876 93.2751 55.7487 93.3557 55.3098 93.4363C54.8708 93.5169 54.4072 93.6099 53.9497 93.6719C54.061 94.8127 53.5911 95.8171 53.2078 96.8773C52.8369 96.6169 52.5031 96.3875 52.1569 96.1829C52.1569 96.4061 52.1569 96.6231 52.1569 96.8463C52.1569 97.1997 52.2001 97.5531 52.2249 97.9004L52.3052 97.9624C52.394 98.0295 52.4786 98.102 52.5587 98.1794C52.6463 98.2478 52.7271 98.3246 52.7998 98.4088C52.9433 98.571 53.0755 98.7429 53.1955 98.9234C53.2324 98.9811 53.2654 99.0411 53.2944 99.1032C53.346 99.2057 53.3914 99.3113 53.4304 99.4194C53.4328 99.4545 53.4328 99.4897 53.4304 99.5248L53.4675 99.6798C53.489 99.7965 53.5014 99.9146 53.5046 100.033C53.5046 100.033 53.5046 100.263 53.5046 100.312C53.4925 100.433 53.474 100.553 53.4489 100.672C53.4462 100.711 53.4462 100.75 53.4489 100.79C53.4489 100.876 53.3871 100.969 53.35 101.056C53.3129 101.143 53.2326 101.335 53.1646 101.472C53.1271 101.553 53.0838 101.632 53.0347 101.707C53.1617 101.935 53.3394 102.13 53.554 102.278C53.7286 102.396 53.915 102.496 54.1104 102.575C54.7786 102.824 55.4816 102.967 56.1938 102.997C57.2288 103.094 58.2726 103.023 59.2849 102.786C60.206 102.544 61.0406 102.104 61.189 101.075C61.3868 99.8658 60.7563 98.7436 60.6821 97.5593Z" fill="#EF5026"/>
<path d="M54.129 102.575C54.0015 102.777 53.8632 102.971 53.7147 103.158C53.6065 103.303 53.4454 103.398 53.2669 103.424C53.0883 103.45 52.907 103.403 52.7627 103.294C52.6184 103.186 52.523 103.024 52.4975 102.845C52.472 102.666 52.5185 102.484 52.6267 102.34C52.7689 102.135 52.9296 101.912 53.0533 101.72C53.1023 101.644 53.1457 101.566 53.1831 101.484C53.2511 101.348 53.3129 101.211 53.3685 101.069C53.4242 100.926 53.4365 100.889 53.4675 100.802C53.4647 100.763 53.4647 100.723 53.4675 100.684C53.4925 100.565 53.5111 100.445 53.5231 100.325C53.5231 100.275 53.5231 100.058 53.5231 100.046C53.5199 99.927 53.5075 99.8088 53.486 99.6922L53.4489 99.5372C53.4514 99.5021 53.4514 99.4669 53.4489 99.4318C53.41 99.3237 53.3645 99.2181 53.3129 99.1156C53.3129 99.0722 53.2696 99.0288 53.2511 98.9916C53.1206 98.7913 52.976 98.6007 52.8183 98.4212C52.7456 98.337 52.6649 98.2601 52.5772 98.1918C52.4972 98.1144 52.4125 98.0419 52.3238 97.9747L52.2434 97.9127C52.0703 97.7825 51.8848 97.6523 51.6994 97.5283C51.2568 97.257 50.7937 97.0207 50.3146 96.8215C49.7414 96.5819 49.1552 96.3749 48.5588 96.2015C46.4935 95.5742 44.3544 95.224 42.1974 95.1599C42.1062 95.1567 42.0167 95.1346 41.9345 95.0951C41.8523 95.0555 41.7791 94.9994 41.7195 94.9301C41.66 94.8608 41.6153 94.7799 41.5884 94.6925C41.5616 94.6052 41.553 94.5131 41.5632 94.4223C41.5735 94.3314 41.6024 94.2436 41.6481 94.1645C41.6938 94.0853 41.7553 94.0165 41.8288 93.9623C41.9022 93.9082 41.9861 93.8698 42.0751 93.8497C42.164 93.8296 42.2562 93.8281 42.3457 93.8455C43.5511 93.8495 44.7536 93.9657 45.9376 94.1927C48.102 94.4876 50.196 95.1702 52.1197 96.2077C52.4776 96.3974 52.8225 96.6107 53.1522 96.8463C53.4918 97.1129 53.8007 97.4165 54.0733 97.7515C54.5078 98.2734 54.794 98.9031 54.9017 99.5744C55.0092 100.635 54.7351 101.699 54.129 102.575Z" fill="black"/>
<path d="M55.3468 93.9323C55.3748 95.2005 55.0355 96.4496 54.3701 97.5283C54.3015 97.6405 54.1968 97.7259 54.0733 97.7701C53.953 97.8044 53.8258 97.8059 53.7048 97.7745C53.5837 97.7432 53.4732 97.6801 53.3844 97.5917C53.2957 97.5034 53.232 97.3929 53.1999 97.2718C53.1678 97.1506 53.1684 97.023 53.2016 96.9021C53.5973 95.8171 54.0671 94.8127 53.9559 93.6719C53.9439 93.227 53.7851 92.7987 53.5043 92.4542C53.2234 92.1097 52.8365 91.8685 52.4041 91.7684C51.9218 91.6609 51.432 91.5904 50.939 91.5576C50.3207 91.4956 49.7582 91.446 49.1647 91.4026C47.9074 91.3065 46.6446 91.3065 45.3874 91.4026C44.7948 91.4446 44.2071 91.5401 43.6316 91.6878C43.4211 91.7492 43.2146 91.8237 43.0134 91.911C42.8455 91.9878 42.6824 92.0747 42.525 92.1714C42.3873 92.2783 42.2129 92.3259 42.0401 92.3038C41.8674 92.2818 41.7104 92.1917 41.6039 92.0536C41.4973 91.9155 41.4498 91.7406 41.4718 91.5673C41.4939 91.3941 41.5836 91.2367 41.7213 91.1298C42.2477 90.7187 42.8646 90.4402 43.5203 90.3176C44.2636 90.1485 45.0213 90.0509 45.783 90.0262C47.2257 89.9529 48.6716 89.9799 50.1105 90.1068C51.347 90.206 52.7071 90.237 53.8198 90.8818C54.2624 91.1582 54.6341 91.5351 54.9047 91.982C55.1753 92.429 55.3373 92.9335 55.3778 93.4548C55.3791 93.6145 55.3687 93.7741 55.3468 93.9323Z" fill="black"/>
<path d="M51.9652 94.2175C51.9064 94.0824 51.8041 93.971 51.6746 93.9013C51.5503 93.8265 51.4036 93.798 51.2604 93.8207C51.0925 93.8475 50.9405 93.9359 50.8339 94.0687C50.7825 94.1173 50.7266 94.161 50.6669 94.1989C50.47 94.3045 50.2629 94.3897 50.0487 94.4531H49.9374C49.7649 94.4846 49.6092 94.577 49.4985 94.7135C49.397 94.8576 49.3529 95.0345 49.3749 95.2095C49.3871 95.2956 49.4163 95.3783 49.4609 95.4528C49.5055 95.5274 49.5645 95.5922 49.6345 95.6435C49.7759 95.7504 49.9536 95.7972 50.1291 95.7737C50.4768 95.706 50.8137 95.5913 51.1306 95.4327C51.2921 95.3554 51.4453 95.2619 51.5881 95.1537C51.6701 95.09 51.7466 95.0195 51.8168 94.9429C51.8758 94.8663 51.9256 94.7831 51.9652 94.6949C51.9967 94.6193 52.0128 94.5381 52.0128 94.4562C52.0128 94.3742 51.9967 94.2931 51.9652 94.2175Z" fill="black"/>
<path d="M61.5847 83.454C61.5352 84.4647 61.3745 85.4629 61.2755 86.4673C61.2675 87.6548 61.0455 88.8311 60.6202 89.9394C60.0329 91.105 58.5739 91.0368 57.4488 90.9624C56.8306 90.919 56.2123 90.8322 55.5941 90.7578C54.9906 90.709 54.3949 90.5883 53.8198 90.3982C51.9652 89.6914 51.8539 87.8747 51.9219 86.1263C51.9219 85.5435 51.9961 84.9731 52.0023 84.4461C52.6576 84.012 53.3314 83.5966 54.03 83.206C54.5593 82.9521 55.1095 82.7447 55.6745 82.586C56.213 82.4727 56.6858 82.1522 56.9913 81.6932C57.1397 81.4328 57.0717 81.3336 56.8306 81.191C56.4498 80.9932 56.0218 80.9052 55.5941 80.9368H55.3963H55.6498C55.8207 80.9273 55.992 80.9273 56.1629 80.9368H56.6575C57.1768 80.9368 57.7084 80.8686 58.2339 80.8376C58.8905 80.7738 59.5529 80.8072 60.1998 80.9368C60.4665 80.9699 60.7201 81.0711 60.9366 81.2307C61.1531 81.3903 61.3251 81.6029 61.4363 81.8482C61.5839 82.3697 61.6342 82.9142 61.5847 83.454Z" fill="#EF5026" fill-opacity="0.3"/>
<path d="M62.3389 153.385C62.1905 153.528 62.036 153.671 61.8814 153.801C61.5022 154.135 61.106 154.45 60.6944 154.743C59.5507 155.562 58.3143 156.262 57.1149 156.975C55.2232 158.097 53.4366 159.368 51.4706 160.367C47.3977 162.506 42.778 163.37 38.2099 162.847C34.2842 162.345 30.2658 160.633 28.3184 156.969C27.1499 154.749 26.6801 152.083 26.4019 149.616C26.1052 146.999 26.0928 144.364 26.0248 141.735C25.8687 135.775 26.1684 129.812 26.9212 123.898C27.2699 120.975 27.7943 118.076 28.4915 115.217C29.2153 112.461 30.0862 109.745 31.1004 107.083C32.0833 104.454 33.1528 101.856 34.278 99.2892C35.1941 97.1735 36.2602 95.1263 37.468 93.1634C39.7939 89.3379 42.9406 86.0803 46.6794 83.6276C46.8958 83.4912 47.1122 83.3548 47.3347 83.2246C47.7922 82.9456 48.2559 82.6852 48.7257 82.4372C49.0719 82.2512 49.4181 82.0714 49.7705 81.904C50.8771 81.346 51.9652 80.726 53.0718 80.2238C54.1607 79.677 55.3918 79.482 56.5956 79.6657C56.9384 79.7229 57.2653 79.8518 57.555 80.0441C57.8447 80.2363 58.0908 80.4877 58.2772 80.7818C58.4263 81.0561 58.4827 81.3716 58.4379 81.6808C58.271 82.9704 56.9604 83.6276 55.86 83.9438C54.6071 84.3841 53.4275 85.0111 52.3609 85.8039L51.9157 86.0953C50.7902 86.7781 49.7521 87.5964 48.8246 88.5319C48.3234 89.0635 47.9436 89.6982 47.7119 90.392C47.6862 90.4907 47.634 90.5805 47.5609 90.6515C47.4879 90.7226 47.3968 90.7722 47.2977 90.795C47.1785 90.8219 47.0543 90.8171 46.9376 90.7809C46.8209 90.7447 46.7157 90.6784 46.6325 90.5887C46.5492 90.499 46.491 90.3889 46.4634 90.2695C46.4359 90.1502 46.44 90.0256 46.4754 89.9084C46.6736 89.2955 46.9816 88.724 47.3842 88.2219C47.6507 87.8843 47.9421 87.5672 48.2559 87.2733C48.4537 87.0811 48.6577 86.8951 48.8741 86.7153C49.4972 86.1947 50.1494 85.7103 50.8277 85.2645L52.0641 84.446C52.7194 84.012 53.3933 83.5966 54.0919 83.206C54.6012 82.9554 55.1306 82.748 55.6745 82.586C56.213 82.4727 56.6858 82.1522 56.9913 81.6932C57.1397 81.4328 57.0717 81.3336 56.8306 81.191C56.4498 80.9932 56.0218 80.9052 55.5941 80.9368H55.3963C54.3019 81.1053 53.2515 81.4887 52.3052 82.0652C51.2728 82.5984 50.2404 83.1192 49.2141 83.6648L48.701 83.9438C48.2312 84.2104 47.7613 84.4894 47.3038 84.7932C46.1152 85.5656 44.9887 86.4301 43.9346 87.3787C40.8841 90.2816 38.4071 93.7355 36.6334 97.5593C35.5206 99.81 34.5747 102.147 33.635 104.479C32.6274 106.959 31.7 109.519 30.884 112.092C30.0388 114.748 29.3798 117.46 28.9119 120.208C28.4482 122.955 28.1329 125.733 27.8856 128.504C27.4344 134.027 27.3601 139.575 27.6631 145.108C27.718 147.668 28.0098 150.217 28.5348 152.722C28.9922 154.712 29.6846 156.69 31.1498 158.159C33.6721 160.677 37.7029 161.47 41.202 161.415C45.8016 161.34 50.0549 159.61 53.8817 157.149C55.1676 156.312 56.4844 155.543 57.7888 154.737L58.407 154.365C58.914 154.043 59.4147 153.745 59.8969 153.367L62.3389 153.385Z" fill="black"/>
<path d="M46.1107 107.3C45.6803 108.945 45.0708 110.538 44.2931 112.049C43.5204 113.444 42.4385 114.858 40.862 115.354C40.6951 115.425 40.5631 115.559 40.4947 115.728C40.4264 115.896 40.4273 116.085 40.4973 116.253C40.5707 116.418 40.705 116.548 40.8721 116.617C41.0392 116.685 41.2261 116.685 41.3937 116.619C43.1927 116.061 44.4848 114.467 45.3812 112.898C46.3312 111.263 47.0157 109.486 47.409 107.635C47.4221 107.474 47.3782 107.314 47.2852 107.183C47.1921 107.052 47.0559 106.958 46.9005 106.918C46.7452 106.878 46.5807 106.895 46.4362 106.964C46.2916 107.034 46.1763 107.153 46.1107 107.3Z" fill="black"/>
<path d="M43.9284 145.17C42.4694 141.748 42.6363 137.798 42.6548 134.153C42.6548 130.203 42.3581 126.26 42.4756 122.31C42.5396 120.096 42.8191 117.892 43.3102 115.732C43.4771 114.994 42.2406 114.684 42.0181 115.41C40.8435 119.334 41.0289 123.631 41.1588 127.673C41.2268 129.651 41.3009 131.629 41.2948 133.607C41.2886 135.585 41.2515 137.525 41.3751 139.478C41.4496 141.614 41.8865 143.721 42.6672 145.71C42.7535 145.853 42.8885 145.96 43.0472 146.011C43.206 146.062 43.3778 146.055 43.5312 145.989C43.6846 145.923 43.8093 145.804 43.8822 145.654C43.9552 145.504 43.9716 145.332 43.9284 145.17Z" fill="black"/>
<path d="M49.2389 134.816C49.2389 135.399 49.2389 135.982 49.2389 136.564L47.6377 137.879C46.1274 139.186 44.5421 140.403 42.8898 141.525C42.1479 142.002 41.2948 140.905 42.0428 140.421C43.2642 139.601 44.4406 138.715 45.5667 137.767C46.2591 137.197 46.9515 136.614 47.6439 136.056C48.1673 135.634 48.699 135.221 49.2389 134.816Z" fill="black"/>
<path d="M48.6763 103.809C48.7445 103.974 48.7451 104.16 48.678 104.326C48.6109 104.492 48.4815 104.625 48.3177 104.696C48.2189 104.742 48.1097 104.761 48.0011 104.751C47.8925 104.741 47.7885 104.703 47.6995 104.64C47.6995 104.02 47.65 103.4 47.6253 102.817C47.8589 102.901 48.0728 103.033 48.2536 103.204C48.4344 103.374 48.5782 103.58 48.6763 103.809Z" fill="black"/>
<path d="M47.4337 72.9944C47.5612 71.949 47.447 70.8883 47.0998 69.8943C47.0632 69.8148 47.0439 69.7283 47.0431 69.6407C47.0422 69.5531 47.0599 69.4663 47.095 69.386C47.13 69.3058 47.1816 69.2339 47.2464 69.1751C47.3112 69.1163 47.3876 69.0719 47.4707 69.0449C47.6288 68.9803 47.8055 68.9783 47.965 69.0393C48.1245 69.1003 48.255 69.2198 48.3301 69.3735C48.4993 69.7341 48.6199 70.1156 48.6886 70.5081C48.6886 70.6011 48.6886 70.6941 48.7319 70.7872C48.841 71.6652 48.87 72.5513 48.8185 73.4346C48.8185 73.8872 48.769 74.3336 48.7381 74.78C48.6639 75.8217 48.5712 76.8695 48.5835 77.8801C48.5835 79.3867 48.6639 80.8934 48.7257 82.4C48.7257 82.9084 48.7628 83.4106 48.7752 83.919C48.3053 84.1856 47.8355 84.4646 47.378 84.7685C47.378 84.2414 47.378 83.7144 47.3347 83.1874C47.3347 82.524 47.2853 81.8606 47.2667 81.1972C47.2111 79.6347 47.1245 78.0537 47.1987 76.4913C47.1987 75.9085 47.2729 75.3319 47.3162 74.749C47.3533 74.3088 47.3842 73.8624 47.4151 73.4098L47.4337 72.9944Z" fill="black"/>
<path d="M49.6036 154.34H49.4367C49.1671 154.291 48.9129 154.178 48.6948 154.012C47.545 153.113 47.4028 151.246 47.3224 149.901C47.2266 148.01 47.2514 146.115 47.3966 144.228C47.5264 142.12 47.5882 140.012 47.6191 137.904C47.6191 137.284 47.6191 136.664 47.6191 136.087C47.6191 133.551 47.6191 131.009 47.6686 128.479C47.7428 121.833 47.7922 115.186 47.7613 108.546C47.7613 108.155 47.7613 107.765 47.7613 107.374V107.17C48.254 107.297 48.7709 107.297 49.2636 107.17C49.2636 107.628 49.2636 108.081 49.2636 108.54V108.862C49.2636 115.844 49.2636 122.831 49.2265 129.812C49.2265 131.486 49.2265 133.154 49.2265 134.828C49.2265 135.411 49.2265 135.994 49.2265 136.577C49.2265 137.767 49.2265 138.958 49.2265 140.148C49.2265 141.723 49.1029 143.279 49.0163 144.848C48.8772 146.627 48.8772 148.414 49.0163 150.192C49.0534 150.577 49.1029 150.967 49.1771 151.358C49.208 151.513 49.2451 151.674 49.2822 151.829C49.3023 151.877 49.3189 151.927 49.3316 151.978C49.3505 152.043 49.3732 152.107 49.3996 152.17C49.4305 152.251 49.4614 152.325 49.4985 152.4C49.5093 152.428 49.5239 152.455 49.5418 152.48C49.5933 152.545 49.6408 152.614 49.684 152.685C50.2342 152.784 50.4568 153.063 50.5 153.385C50.5248 153.511 50.5193 153.641 50.4839 153.764C50.4485 153.888 50.3844 154.001 50.2967 154.094C50.209 154.187 50.1004 154.258 49.9799 154.301C49.8593 154.344 49.7303 154.357 49.6036 154.34Z" fill="black"/>
<path d="M117.428 68.8341C116.606 68.5315 115.732 68.3925 114.856 68.4249C113.88 68.4249 112.903 68.4869 111.932 68.5551C109.614 68.7101 107.283 68.6295 104.965 68.6295C99.7101 68.6295 94.4553 68.5675 89.2128 68.3877C83.9703 68.2079 78.8144 67.9723 73.6028 67.8111C68.3912 67.6499 63.0931 67.9723 57.863 67.9723C55.3901 67.9723 52.9173 68.0405 50.4444 67.9041C49.7037 67.8005 48.9488 67.8946 48.2559 68.1769C47.8843 68.3973 47.5974 68.7367 47.4416 69.1404C47.2857 69.5442 47.2698 69.9888 47.3966 70.4027C47.5635 71.2398 48.8556 71.06 48.7072 70.2167C48.6744 70.0577 48.6599 69.8955 48.6639 69.7331V69.5967V69.5161C48.6639 69.4851 48.7381 69.4355 48.7257 69.4417C48.7134 69.4479 49.0101 69.3115 48.9978 69.3115C49.6019 69.2154 50.2174 69.2154 50.8215 69.3115C51.7736 69.3735 52.7256 69.3487 53.6777 69.3487H57.5168C62.6047 69.3487 67.6927 69.0449 72.7806 69.1751C77.8685 69.3053 82.8513 69.5533 87.8898 69.7331C92.9283 69.9129 98.0657 70.0183 103.16 70.0121H107.339C108.625 70.0121 109.911 70.0493 111.197 70.0121C112.21 69.9625 113.224 69.8633 114.238 69.8385C115.131 69.7577 116.031 69.8676 116.878 70.1609C117.737 70.4833 118.244 69.1875 117.428 68.8341Z" fill="black"/>
<path d="M116.878 69.2433C116.922 69.1364 116.992 69.0424 117.082 68.9698C117.171 68.8972 117.278 68.8484 117.391 68.8279C117.505 68.7994 117.626 68.8126 117.731 68.8651C118.139 69.0624 118.495 69.3535 118.77 69.7145C119.387 70.6662 119.695 71.7857 119.654 72.92C119.654 73.3726 119.654 73.8376 119.654 74.2778C119.654 74.718 119.611 74.9846 119.586 75.3195C119.518 76.4107 119.518 77.5019 119.505 78.5993C119.505 80.2238 119.425 81.8482 119.394 83.4726C119.351 86.6781 119.351 89.896 119.351 93.1262C119.351 95.9907 119.351 98.8428 119.45 101.701L119.487 102.817C119.487 102.922 119.487 103.028 119.487 103.127C119.191 103.055 118.889 103.013 118.584 103.003C118.554 103.869 118.817 104.719 119.332 105.415L119.573 105.775C119.604 106.605 119.623 107.436 119.641 108.255C119.19 107.535 118.64 106.878 118.176 106.165C118.121 104.652 118.065 103.139 118.022 101.627V100.845C117.948 97.6895 117.948 94.5275 117.954 91.3716C117.96 88.2157 117.954 85.1157 118.04 81.9908C118.108 79.5107 118.127 77.0307 118.263 74.5506V74.2592C118.263 73.8066 118.294 73.3478 118.263 72.8952C118.249 72.5338 118.214 72.1736 118.158 71.8164C118.101 71.4318 117.982 71.0591 117.805 70.7128C117.692 70.4994 117.531 70.3149 117.336 70.1733L117.23 70.1051C117.072 70.0355 116.946 69.9066 116.88 69.7457C116.815 69.5849 116.814 69.4047 116.878 69.2433Z" fill="black"/>
<path d="M120.699 141.425C120.699 141.649 120.699 141.878 120.699 142.101C120.699 143.471 120.699 144.848 120.655 146.218C120.606 147.873 120.427 149.479 120.278 151.116C120.161 152.462 119.833 153.516 118.516 154.185C117.297 154.684 115.979 154.896 114.665 154.805C93.6825 154.942 72.8733 154.576 51.891 154.718C51.0008 154.718 49.6407 154.966 49.5912 154.098C49.5418 153.23 49.2945 152.896 50.2527 152.914C55.557 153.007 62.4254 153.032 67.7236 153.131L98.6344 153.708C102.634 153.776 106.616 153.299 110.615 153.367C113.391 153.416 117.101 154.136 118.096 152.375C118.832 151.091 119.116 148.965 119.172 147.557C119.264 145.288 119.295 143.013 119.277 140.737C119.277 139.881 119.277 139.038 119.277 138.189C119.19 133.88 118.9 129.577 118.659 125.274C119.518 127.754 119.635 130.47 119.728 133.105C119.777 134.506 119.771 135.907 119.92 137.302C119.976 138.414 120.247 139.505 120.717 140.514C120.692 140.805 120.699 141.115 120.699 141.425Z" fill="black"/>
<path d="M119.641 74.2778L118.275 74.2468C114.028 74.1538 109.787 74.1042 105.534 74.2902C102.115 74.439 98.7025 74.6498 95.2837 74.7428C91.865 74.8358 88.2979 74.811 84.8111 74.811C72.7806 74.8358 60.7563 74.8358 48.7381 74.811H47.3162C47.3533 74.3708 47.3842 73.9244 47.4151 73.4718H48.8185H66.2028C73.1598 73.4718 80.1147 73.4718 87.0676 73.4718C90.5111 73.4718 93.9545 73.4718 97.3918 73.3354C100.829 73.199 104.359 72.9758 107.846 72.8642C111.333 72.7526 114.813 72.8084 118.294 72.8952L119.666 72.9324C119.679 73.3726 119.666 73.8376 119.641 74.2778Z" fill="black"/>
<path d="M122.442 127.295C122.464 127.472 122.417 127.65 122.311 127.794C122.205 127.937 122.048 128.034 121.873 128.064C121.696 128.089 121.517 128.043 121.373 127.936C121.23 127.83 121.134 127.671 121.107 127.494C121.013 126.04 120.622 124.622 119.957 123.327C119.753 122.893 119.53 122.478 119.301 122.087C119.073 121.696 118.739 121.114 118.424 120.642C118.238 120.351 118.04 120.072 117.836 119.799C117.744 119.681 117.645 119.57 117.54 119.458L117.459 119.371L117.162 119.099C116.809 118.786 116.439 118.492 116.056 118.218C115.679 117.937 115.28 117.686 114.863 117.468C114.648 117.361 114.427 117.268 114.201 117.189C114.062 117.138 113.916 117.107 113.768 117.096H113.663C113.557 117.165 113.472 117.261 113.416 117.375C113.396 117.465 113.386 117.556 113.385 117.648C113.379 117.699 113.379 117.751 113.385 117.803C113.416 117.909 113.459 118.011 113.515 118.107C113.846 118.625 114.24 119.1 114.69 119.52C115.718 120.518 116.636 121.624 117.428 122.819C117.912 123.597 118.304 124.43 118.597 125.299C119.456 127.779 119.573 130.501 119.666 133.136C119.716 134.537 119.709 135.938 119.858 137.333C119.915 138.445 120.185 139.536 120.655 140.545C120.749 140.73 120.859 140.906 120.983 141.072C121.048 141.159 121.092 141.261 121.111 141.369C121.13 141.477 121.123 141.587 121.091 141.692C121.059 141.796 121.003 141.892 120.927 141.97C120.851 142.049 120.758 142.109 120.655 142.145C120.523 142.205 120.373 142.216 120.233 142.176C120.092 142.137 119.971 142.048 119.889 141.928C119.621 141.569 119.397 141.18 119.221 140.768C118.77 139.602 118.507 138.371 118.442 137.122C118.294 135.386 118.312 133.644 118.22 131.908C118.201 129.952 117.937 128.007 117.434 126.117C116.847 124.408 115.912 122.839 114.69 121.51C113.83 120.537 112.656 119.725 112.142 118.485C111.716 117.474 112.099 116.042 113.261 115.769C114.232 115.54 115.258 116.104 116.062 116.588C116.892 117.091 117.661 117.688 118.356 118.367L118.498 118.516C118.82 118.854 119.107 119.224 119.357 119.619C119.518 119.863 119.672 120.105 119.821 120.345C120.179 120.903 120.513 121.479 120.816 122.062C121.742 123.662 122.298 125.451 122.442 127.295Z" fill="black"/>
<path d="M123.202 117.108C122.317 115.22 121.138 113.485 119.709 111.968C118.473 110.685 116.816 109.358 114.931 109.333C114.468 109.302 114.006 109.402 113.597 109.621C113.188 109.84 112.849 110.17 112.618 110.573C112.161 111.485 112.507 112.526 113.002 113.339C113.704 114.353 114.535 115.27 115.475 116.067C116.35 116.868 117.053 117.841 117.54 118.925C117.618 119.084 117.753 119.207 117.919 119.269C118.084 119.331 118.267 119.327 118.43 119.258C118.593 119.189 118.723 119.06 118.794 118.898C118.865 118.736 118.872 118.553 118.813 118.386C118.195 116.451 116.526 115.286 115.196 113.835C114.64 113.215 113.867 112.433 113.83 111.572C113.82 111.477 113.83 111.382 113.86 111.292C113.89 111.202 113.939 111.12 114.003 111.051L114.121 110.958C114.311 110.852 114.522 110.791 114.739 110.778C116.217 110.66 117.62 111.838 118.597 112.824C119.871 114.139 120.94 115.64 121.768 117.276C122.651 118.846 123.176 120.593 123.307 122.391C123.307 123.141 124.606 123.129 124.624 122.391C124.567 120.543 124.08 118.734 123.202 117.108Z" fill="black"/>
<path d="M126.955 118.032C126.907 117.948 126.863 117.861 126.825 117.772C126.758 117.61 126.7 117.444 126.652 117.276C126.535 116.891 126.442 116.495 126.343 116.104C126.168 115.269 125.892 114.459 125.521 113.692C124.676 111.929 123.543 110.32 122.17 108.93C121.296 108.141 120.308 107.489 119.24 106.996C118.251 106.426 117.111 106.175 115.975 106.277C114.418 106.562 114.047 108.069 114.201 109.457C114.3 110.313 115.611 110.121 115.524 109.265C115.487 108.977 115.487 108.685 115.524 108.397C115.522 108.35 115.522 108.302 115.524 108.255C115.561 108.131 115.58 108.093 115.592 108.056C115.603 108.022 115.617 107.988 115.635 107.957C115.635 107.92 115.753 107.821 115.759 107.808L115.87 107.721L116.043 107.641H116.247C116.411 107.613 116.578 107.613 116.742 107.641C116.952 107.666 117.158 107.709 117.36 107.771C117.886 107.928 118.395 108.136 118.881 108.391C119.755 108.843 120.567 109.406 121.298 110.065L121.385 110.164L121.712 110.536C122.059 110.95 122.386 111.377 122.695 111.82C123.274 112.635 123.792 113.49 124.247 114.38C124.594 115.142 124.853 115.941 125.02 116.761C125.12 117.528 125.397 118.26 125.83 118.9C125.945 119.05 126.114 119.148 126.301 119.172C126.487 119.196 126.676 119.146 126.825 119.03C126.974 118.915 127.072 118.745 127.096 118.558C127.121 118.371 127.07 118.182 126.955 118.032Z" fill="black"/>
<path d="M128.884 117.704C128.904 117.877 128.856 118.052 128.752 118.191C128.647 118.331 128.493 118.425 128.321 118.454C128.148 118.475 127.973 118.428 127.834 118.323C127.694 118.218 127.601 118.062 127.573 117.89C127.472 116.587 127.253 115.296 126.918 114.033C126.27 111.339 125.157 108.778 123.629 106.469C122.947 105.416 122.07 104.505 121.045 103.784C120.573 103.468 120.05 103.238 119.499 103.102C119.203 103.03 118.901 102.989 118.597 102.978C118.566 103.844 118.83 104.695 119.345 105.39L119.586 105.75C120.197 106.543 120.763 107.371 121.28 108.23C121.315 108.314 121.334 108.404 121.334 108.496C121.335 108.587 121.318 108.678 121.283 108.763C121.249 108.847 121.198 108.925 121.134 108.989C121.069 109.054 120.993 109.106 120.909 109.141C120.739 109.209 120.549 109.209 120.379 109.141C120.209 109.073 120.071 108.942 119.994 108.775C119.895 108.577 119.781 108.386 119.654 108.205C119.203 107.486 118.652 106.829 118.189 106.116C118.102 105.985 118.016 105.849 117.935 105.713C117.589 105.166 117.359 104.553 117.261 103.912C117.163 103.272 117.199 102.618 117.366 101.992C117.41 101.877 117.485 101.775 117.582 101.699C117.678 101.623 117.794 101.574 117.917 101.558H118.034C118.507 101.516 118.983 101.538 119.45 101.627C120.373 101.796 121.247 102.169 122.009 102.718C124.371 104.373 125.879 107.163 126.955 109.78C127.526 111.189 127.989 112.64 128.34 114.12C128.645 115.292 128.828 116.493 128.884 117.704Z" fill="black"/>
<path d="M139.808 149.994C138.627 147.743 137.539 145.449 136.506 143.124C135.95 141.884 135.41 140.628 134.887 139.354C134.621 138.734 134.355 138.077 134.095 137.432C133.168 135.169 132.241 132.894 131.332 130.612C130.442 128.594 129.677 126.524 129.038 124.412C128.457 122.31 128.179 120.128 127.456 118.063C127.171 117.263 128.383 116.736 128.692 117.549C129.514 119.855 129.799 122.298 130.547 124.629C131.202 126.768 132.099 128.827 132.945 130.891C133.564 132.423 134.182 133.991 134.8 135.504L135.425 137.147L135.499 137.321C137.193 141.444 138.979 145.517 141.063 149.467C141.471 150.242 140.216 150.788 139.808 149.994Z" fill="black"/>
<path d="M153.415 132.472C152.699 127.508 151.714 122.586 150.466 117.728C149.264 112.862 147.405 108.183 144.939 103.821C143.783 101.725 142.301 99.8266 140.55 98.198C138.761 96.5995 136.653 95.4011 134.367 94.6825C132.279 94.0836 130.089 93.9294 127.938 94.2299C125.743 94.453 123.589 94.9809 121.539 95.7985C120.645 96.1625 119.8 96.6374 119.023 97.2121C118.949 97.2695 118.887 97.341 118.841 97.4224C118.795 97.5037 118.765 97.5935 118.753 97.6865C118.741 97.7795 118.748 97.8738 118.773 97.9643C118.797 98.0547 118.839 98.1394 118.897 98.2135C118.954 98.2876 119.025 98.3496 119.106 98.3961C119.187 98.4426 119.277 98.4726 119.369 98.4844C119.462 98.4962 119.556 98.4896 119.646 98.4649C119.737 98.4402 119.821 98.398 119.895 98.3406C121.503 97.2402 123.326 96.4942 125.243 96.1519C127.16 95.6706 129.134 95.4619 131.109 95.5319C135.53 95.8047 139.628 98.5886 142.12 102.154C144.791 106.114 146.837 110.464 148.185 115.05C149.547 119.656 150.615 124.344 151.381 129.087C151.832 131.641 152.252 134.196 152.463 136.781C152.681 139.463 152.718 142.155 152.574 144.842C152.438 147.402 152.092 149.944 151.789 152.486C151.498 154.929 151.171 157.372 150.645 159.772C149.674 164.198 147.913 168.644 144.191 171.44C142.518 172.747 140.504 173.542 138.392 173.728C136.367 173.834 134.37 173.224 132.748 172.004C131.01 170.715 129.553 169.084 128.463 167.212C127.323 165.169 126.517 162.957 126.077 160.658C125.502 158.104 125.144 155.5 124.556 152.951C123.969 150.403 123.023 147.793 122.238 145.22C121.857 143.997 121.542 142.756 121.292 141.5C121.131 140.663 119.839 140.842 119.981 141.686C120.555 144.403 121.306 147.079 122.232 149.696C123.001 152.304 123.608 154.956 124.049 157.639C124.444 160.329 125.113 162.972 126.046 165.525C126.884 167.587 128.091 169.478 129.607 171.105C131.097 172.812 133.02 174.083 135.171 174.782C137.368 175.373 139.696 175.238 141.811 174.398C143.953 173.537 145.861 172.177 147.375 170.43C148.917 168.603 150.098 166.499 150.855 164.229C152.592 159.418 153 154.278 153.613 149.237C154.302 143.666 154.236 138.026 153.415 132.472Z" fill="black"/>
<path d="M135.511 137.321C135.411 138.027 135.202 138.713 134.893 139.354C134.831 139.491 134.769 139.621 134.707 139.745C133.642 141.867 132.078 143.697 130.151 145.077C127.907 146.64 124.804 147.991 122.053 147.049C121.889 146.982 121.757 146.855 121.686 146.693C121.614 146.531 121.608 146.347 121.669 146.181C121.738 146.019 121.866 145.889 122.026 145.817C122.187 145.746 122.369 145.738 122.535 145.796C123.899 146.095 125.321 145.965 126.609 145.424C128.649 144.637 130.447 143.324 131.82 141.618C132.524 140.786 133.12 139.87 133.595 138.889C133.82 138.426 133.99 137.936 134.102 137.432C134.189 137.048 134.206 136.651 134.151 136.261C134.135 136.169 134.139 136.075 134.162 135.985C134.186 135.894 134.228 135.81 134.287 135.738C134.345 135.666 134.419 135.607 134.502 135.565C134.585 135.524 134.676 135.501 134.769 135.498L135.425 137.147L135.511 137.321Z" fill="black"/>
<path d="M129.143 82.9952C128.627 82.3138 127.928 81.7935 127.128 81.4949C126.328 81.1963 125.46 81.1318 124.624 81.3088C122.819 81.656 120.81 82.9704 120.643 84.9607C120.637 85.1276 120.694 85.2906 120.803 85.4171C120.912 85.5436 121.064 85.6243 121.23 85.6431C121.395 85.6619 121.562 85.6174 121.696 85.5185C121.83 85.4195 121.922 85.2735 121.954 85.1095C122.096 83.8695 123.406 83.0324 124.525 82.7286C125.108 82.5456 125.73 82.5311 126.321 82.6868C126.911 82.8426 127.446 83.1622 127.864 83.609C128.304 84.189 128.591 84.8707 128.699 85.5913C128.807 86.3118 128.732 87.0481 128.482 87.7321C127.989 89.1012 127.076 90.2779 125.873 91.0926C125.216 91.5598 124.495 91.9314 123.734 92.1962C123.125 92.452 122.449 92.4978 121.811 92.3264C120.971 92.0226 120.458 93.3185 121.304 93.6285C122.98 94.2485 124.859 93.3991 126.25 92.5062C127.79 91.5661 128.988 90.1558 129.669 88.4824C130.035 87.5942 130.178 86.6298 130.087 85.6733C129.995 84.7167 129.671 83.7973 129.143 82.9952Z" fill="black"/>
<path d="M125.335 88.6994H125.212H125.088L124.717 88.6001L124 88.3707C123.845 88.3211 123.691 88.2591 123.542 88.2033C123.827 87.9305 124.111 87.6515 124.383 87.3601C124.902 86.8538 125.321 86.2545 125.62 85.5931C125.683 85.4268 125.679 85.2423 125.608 85.079C125.538 84.9157 125.407 84.7864 125.243 84.7189C125.076 84.6574 124.892 84.6631 124.729 84.7348C124.567 84.8064 124.438 84.9385 124.371 85.1033C124.371 85.1715 124.309 85.2459 124.272 85.3141C124.235 85.3823 124.229 85.3823 124.21 85.4133C124.124 85.5559 124.025 85.6861 123.926 85.8225C123.718 86.0876 123.495 86.3401 123.258 86.5789L123.134 86.6967L122.949 86.8827L122.578 87.2485C122.306 87.5089 122.046 87.7693 121.793 88.0483C121.732 88.1328 121.691 88.2301 121.672 88.3329C121.654 88.4357 121.66 88.5412 121.688 88.6416C121.717 88.7419 121.768 88.8344 121.838 88.9121C121.907 88.9898 121.993 89.0506 122.09 89.09C123.083 89.5353 124.119 89.8801 125.181 90.1192C125.271 90.1286 125.362 90.12 125.449 90.0939C125.536 90.0677 125.617 90.0246 125.687 89.9669C125.757 89.9093 125.815 89.8382 125.857 89.758C125.9 89.6777 125.926 89.5897 125.935 89.4992C125.948 89.4071 125.943 89.3134 125.92 89.2234C125.897 89.1334 125.856 89.0488 125.801 88.9745C125.745 88.9002 125.675 88.8377 125.595 88.7905C125.515 88.7432 125.427 88.7123 125.335 88.6994Z" fill="black"/>
<path d="M152.036 101.806C151.946 103.198 151.522 104.546 150.8 105.737C150.012 106.937 148.787 107.778 147.387 108.081C147.195 108.106 147.001 108.056 146.845 107.94C146.689 107.824 146.584 107.653 146.552 107.461C146.32 107.417 146.114 107.283 145.978 107.089C145.906 106.988 145.842 106.882 145.786 106.773C144.228 104.243 142.992 101.484 140.927 99.3326C140.82 99.2042 140.756 99.0454 140.744 98.8785C140.731 98.7117 140.772 98.5452 140.859 98.4026C139.476 97.306 137.962 96.3874 136.352 95.6683C134.75 94.9456 133.02 94.5494 131.264 94.5027C129.409 94.4159 127.511 94.5709 125.644 94.4159C125.456 94.3896 125.279 94.3087 125.136 94.1832C124.993 94.0577 124.889 93.893 124.838 93.7094C124.787 93.5257 124.79 93.331 124.848 93.1492C124.906 92.9675 125.015 92.8065 125.162 92.686C126.485 91.6754 128.031 90.9686 128.748 89.369C129.391 87.7286 129.767 85.9953 129.861 84.2353C129.278 83.5079 128.56 82.9014 127.746 82.4496C126.831 81.8668 125.984 81.4452 124.872 81.687C124.341 81.8187 123.826 82.01 123.338 82.2574L122.473 82.679C122.241 82.7668 122.019 82.879 121.811 83.0138C121.706 83.0981 121.58 83.1531 121.447 83.1731C121.314 83.1931 121.177 83.1774 121.052 83.1278C120.926 83.0781 120.816 82.9961 120.733 82.8901C120.649 82.7841 120.595 82.6578 120.575 82.524C120.142 80.7074 119.339 79.0147 119.153 77.1237C118.999 75.4001 119.079 73.6516 118.961 71.9218C118.963 71.377 118.85 70.838 118.628 70.3407C118.55 70.1794 118.428 70.0438 118.275 69.9501L118.077 69.8633C117.978 69.8259 117.877 69.7948 117.774 69.7703L117.595 69.7331L117.385 69.7021L116.958 69.6401C116.637 69.6029 116.34 69.5781 116 69.5533L114.325 69.4541C112.575 69.3549 110.826 69.5595 109.076 69.4107C108.211 69.3363 107.351 69.1751 106.48 69.1193C105.608 69.0635 104.73 69.0449 103.852 69.0449C96.786 69.0077 89.7136 68.4869 82.6473 68.7907C82.564 68.8968 82.4519 68.9765 82.3245 69.0202C82.1971 69.0638 82.0598 69.0696 81.9291 69.0369C81.7985 69.0041 81.6801 68.9342 81.5881 68.8355C81.4962 68.7369 81.4346 68.6136 81.4109 68.4807C81.3271 68.3507 81.2894 68.1961 81.304 68.042C81.3186 67.8879 81.3846 67.7432 81.4913 67.6313C81.5832 67.1758 81.722 66.7312 81.9055 66.3045C82.5679 64.8944 83.4554 63.6022 84.5329 62.479C85.6177 61.2918 86.8006 60.1987 88.0691 59.2115C89.5139 58.0491 91.0911 57.0626 92.7676 56.2726C94.4861 55.4897 96.2639 54.8449 98.0842 54.3444C101.695 53.3811 105.42 52.9138 109.157 52.9556C110.926 52.9201 112.694 53.0404 114.442 53.3152C115.316 53.4647 116.173 53.6994 117.002 54.0158C117.768 54.3196 118.516 54.704 119.258 55.0636C120.764 55.7464 122.199 56.5771 123.542 57.5437C124.891 58.6102 126.052 59.8947 126.98 61.3443C129.001 64.3142 130.856 67.5445 131.653 71.0786C132.272 73.788 132.568 77.0617 135.289 78.5187C137.613 79.7588 140.395 79.6719 142.862 80.4594C144.111 80.8104 145.246 81.4863 146.151 82.4186C146.983 83.3841 147.579 84.5303 147.894 85.7667C148.457 87.7383 148.63 90.268 147.61 92.1652C148.722 92.4438 149.703 93.1013 150.385 94.0253C151.152 95.1343 151.648 96.4087 151.832 97.7453C152.071 99.0849 152.14 100.45 152.036 101.806Z" fill="black"/>
<path d="M130.38 97.1563C129.292 95.9163 127.845 95.0917 126.51 94.1369C124.98 93.0121 123.773 91.5022 123.011 89.7596C122.294 88.1041 122.337 86.2875 122.133 84.5205C122.024 82.6502 121.325 80.8631 120.136 79.4177C120.061 79.3129 119.959 79.2306 119.841 79.1798C119.723 79.129 119.593 79.1116 119.465 79.1295C119.338 79.1473 119.218 79.1998 119.118 79.2813C119.019 79.3627 118.943 79.4699 118.9 79.5913C118.281 80.788 118.516 82.2326 118.677 83.5098C118.863 85.0661 118.832 86.6099 118.869 88.1971C118.869 89.6108 119.042 90.9934 118.943 92.407C118.844 93.8207 118.646 95.2343 118.597 96.6603C118.507 98.0551 118.673 99.4545 119.085 100.79C119 100.881 118.941 100.994 118.914 101.116C118.887 101.238 118.893 101.365 118.931 101.484C118.97 101.603 119.039 101.709 119.133 101.792C119.226 101.875 119.34 101.931 119.462 101.955C120.273 102.167 121.022 102.571 121.645 103.133C122.407 103.778 123.099 104.501 123.709 105.291C124.356 106.095 124.941 106.947 125.459 107.839C125.675 108.211 125.873 108.583 126.077 108.968C126.221 109.39 126.419 109.792 126.664 110.164L126.732 110.232C126.737 110.678 126.683 111.122 126.572 111.553C126.52 111.694 126.514 111.849 126.556 111.993C126.597 112.138 126.682 112.266 126.8 112.359C126.921 112.45 127.067 112.499 127.218 112.499C127.368 112.499 127.515 112.45 127.635 112.359C128.117 111.9 128.674 111.541 129.137 111.076C129.69 110.548 130.049 109.849 130.157 109.092C130.261 108.549 130.226 107.989 130.056 107.463C129.887 106.938 129.588 106.464 129.187 106.085C130.283 104.992 131.099 103.65 131.567 102.172C131.786 101.302 131.792 100.392 131.586 99.5186C131.379 98.6454 130.965 97.8351 130.38 97.1563Z" fill="black"/>
<path d="M138.676 63.223C137.712 65.703 135.616 67.4887 133.248 68.6047C130.817 69.8493 128.024 70.1898 125.366 69.5657C124.094 69.2221 122.953 68.5054 122.09 67.5073C121.471 66.8191 121.1 66.0006 120.544 65.2938C119.928 64.5735 119.231 63.9265 118.467 63.3656C117.694 62.7456 116.878 62.1256 116.13 61.5055C115.382 60.8855 114.628 60.1353 113.904 59.4099C113.181 58.6845 112.551 58.0335 111.932 57.3453C111.271 56.7366 110.744 55.9951 110.387 55.169C110.349 55.0745 110.33 54.9733 110.331 54.8714C110.144 54.7077 109.971 54.5294 109.812 54.3382C108.143 52.2797 108.928 49.3781 110.059 47.2824C111.265 44.9504 113.065 42.9802 115.277 41.5721C118.234 39.73 121.717 38.9232 125.181 39.2781C128.723 39.6873 131.808 41.4791 134.374 43.8972C135.721 45.1388 136.878 46.5743 137.805 48.1567C138.627 49.6577 139.177 51.2929 139.431 52.9866C139.993 56.3346 139.919 60.0299 138.676 63.223Z" fill="black"/>
<path d="M140.803 51.4365C139.696 48.8263 137.947 46.2036 135.425 44.7652C135.282 44.668 135.108 44.6297 134.938 44.6583C134.769 44.6868 134.616 44.78 134.514 44.9184C134.411 45.0568 134.365 45.2297 134.386 45.401C134.407 45.5723 134.494 45.7288 134.627 45.8378C136.572 47.0923 138.113 48.8837 139.066 50.9963C140.197 53.2835 140.829 55.786 140.921 58.3373C140.961 59.5368 140.85 60.7365 140.593 61.9086C140.345 62.9575 139.927 63.9586 139.356 64.8722C139.208 65.0954 139.053 65.3062 138.887 65.4922C138.794 65.5976 138.701 65.7092 138.602 65.8146L138.485 65.9448L138.386 66.0379C138.177 66.2391 137.956 66.4275 137.724 66.6021L137.428 66.8191L137.242 66.9431L137.069 67.0485C136.098 67.6181 135.017 67.9713 133.898 68.0839C132.56 68.213 131.215 68.24 129.873 68.1645C129.164 68.1375 128.457 68.0608 127.759 67.9351L127.604 67.8979L127.437 67.8545L127.128 67.7367C127.053 67.553 126.909 67.4059 126.728 67.3268C126.546 67.2477 126.341 67.2427 126.156 67.313C125.97 67.3832 125.82 67.5232 125.736 67.703C125.652 67.8829 125.641 68.0885 125.706 68.2761C126.077 69.3487 127.833 69.4603 128.754 69.5161C130.214 69.6453 131.681 69.666 133.143 69.5781C134.397 69.5579 135.633 69.2839 136.778 68.7725C137.924 68.2611 138.954 67.5228 139.808 66.6021C141.502 64.7668 142.225 62.1256 142.33 59.6455C142.43 56.8298 141.909 54.0267 140.803 51.4365Z" fill="black"/>
<path d="M155.016 96.6045C154.91 95.7866 154.643 94.9979 154.231 94.2839C153.819 93.5699 153.271 92.9446 152.617 92.4442C151.807 91.8262 150.832 91.4636 149.817 91.4026C150.339 90.6585 150.704 89.8142 150.886 88.9226C151.084 87.986 151.22 87.0374 151.294 86.0829C151.407 85.1126 151.361 84.1304 151.158 83.175C150.627 81.0484 148.957 79.6534 147.059 78.7171C144.997 77.723 142.702 77.3176 140.426 77.5453C139.091 77.6693 137.737 77.9359 136.395 77.6817C135.117 77.3634 133.908 76.8128 132.828 76.0573C132.117 75.6109 131.32 76.6463 132.037 77.1175C132.999 77.7794 134.036 78.3227 135.128 78.7357C136.222 79.1026 137.379 79.2377 138.528 79.1325C139.672 78.9827 140.824 78.8937 141.978 78.8659C142.998 78.9072 144.008 79.0845 144.982 79.3929C146.67 79.9262 148.692 80.9492 149.464 82.6232C150.237 84.2973 149.878 86.1759 149.613 87.8561C149.522 88.6361 149.301 89.395 148.957 90.1006C148.491 90.8314 147.854 91.4378 147.103 91.8676C146.416 92.3388 147.103 93.4549 147.832 93.1077C150.342 91.9916 153.007 93.8331 153.52 96.3937C153.64 97.1224 153.64 97.8661 153.52 98.5948C153.428 99.4376 153.25 100.269 152.988 101.075C152.54 102.271 151.855 103.364 150.973 104.286C150.555 104.778 150.091 105.229 149.588 105.632C149.391 105.794 149.173 105.928 148.939 106.029C148.907 106.045 148.874 106.057 148.84 106.066H148.729C148.7 106.07 148.671 106.07 148.642 106.066C147.789 105.675 147.251 107.046 148.11 107.436C149.402 108.056 150.781 106.618 151.585 105.787C153.428 104.103 154.604 101.809 154.898 99.3264C155.067 98.4294 155.107 97.5128 155.016 96.6045Z" fill="black"/>
<path d="M40.6024 122.757L40.5467 122.881C40.5224 122.904 40.5015 122.932 40.4849 122.961C40.3989 123.011 40.3077 123.05 40.2129 123.079L40.0522 123.11L39.774 123.147C39.5683 123.166 39.3614 123.166 39.1558 123.147C38.14 123.093 37.1329 122.931 36.1512 122.664C34.1111 122.124 32.1637 121.089 31.0324 119.235C30.3572 117.998 30.0102 116.609 30.0247 115.199C29.9876 114.442 28.7264 114.461 28.6955 115.199C28.6209 116.69 28.9491 118.173 29.6455 119.493C30.3419 120.812 31.3807 121.918 32.6521 122.695C33.558 123.247 34.5387 123.664 35.5639 123.935C36.7178 124.283 37.9092 124.491 39.1125 124.555C40.1634 124.555 41.7832 124.4 41.9254 123.06C41.9996 122.329 40.8373 122 40.6024 122.757Z" fill="black"/>
<path d="M61.5599 111.361C61.4239 112.483 61.1457 113.922 60.0206 114.461C59.5441 114.644 59.0335 114.72 58.5245 114.684C57.9805 114.684 57.4303 114.635 56.88 114.585C55.8538 114.48 54.7286 114.523 53.789 113.965C53.4007 113.68 53.0859 113.307 52.8708 112.875C52.6557 112.444 52.5466 111.967 52.5525 111.485C52.4783 110.369 52.6267 109.259 52.6452 108.143C52.6463 108.071 52.6622 108.001 52.692 107.936C52.7218 107.87 52.7648 107.812 52.8184 107.765C52.7553 107.181 52.8537 106.591 53.1027 106.06C53.7209 104.969 55.4272 105.266 56.4411 105.347C57.455 105.427 58.5801 105.241 59.6311 105.452C60.262 105.549 60.8416 105.857 61.2756 106.326C61.6608 106.8 61.8667 107.395 61.8567 108.007C61.8428 109.131 61.7436 110.252 61.5599 111.361Z" fill="#EF5026"/>
<path d="M61.2385 118.658C61.0835 118.186 60.8136 117.76 60.4533 117.418C60.1609 117.182 59.811 117.028 59.4395 116.972C58.3631 116.776 57.2657 116.722 56.1753 116.811C55.3778 116.848 54.1228 116.848 53.5911 117.561C53.5723 117.591 53.5557 117.622 53.5417 117.654C53.3919 117.656 53.2488 117.716 53.1435 117.823C53.0382 117.93 52.9791 118.074 52.9791 118.224C52.9235 119.13 52.9235 120.035 52.942 120.94C52.9303 121.969 53.0339 122.997 53.2511 124.003C53.3298 124.414 53.501 124.802 53.7519 125.138C54.0631 125.467 54.4623 125.699 54.9017 125.807C55.9432 126.048 57.0274 126.031 58.0608 125.758C59.055 125.58 59.9884 125.153 60.7748 124.518C61.0863 124.173 61.3265 123.77 61.4814 123.331C61.6364 122.893 61.703 122.428 61.6774 121.963C61.7426 120.844 61.5936 119.722 61.2385 118.658ZM54.5988 118.46C54.629 118.434 54.656 118.405 54.6792 118.373C54.6637 118.4 54.645 118.425 54.6236 118.448C54.5865 118.485 54.5988 118.472 54.6112 118.46H54.5988Z" fill="#EF5026"/>
<path d="M61.8567 131.524C61.7825 130.811 61.7392 129.85 61.2385 129.292C60.4409 128.424 58.9572 128.448 57.8753 128.529C57.2321 128.583 56.5961 128.704 55.9774 128.889C55.5327 128.995 55.1127 129.186 54.741 129.453C54.6952 129.436 54.6474 129.426 54.5988 129.422C54.5089 129.412 54.4181 129.421 54.3316 129.447C54.2451 129.474 54.1647 129.517 54.0951 129.574C54.0254 129.632 53.968 129.703 53.926 129.784C53.8841 129.864 53.8585 129.952 53.8508 130.042C53.8508 130.984 53.6838 131.933 53.6035 132.875C53.4455 133.952 53.4455 135.047 53.6035 136.124C53.6648 136.569 53.8844 136.976 54.2217 137.271C54.5963 137.516 55.0172 137.681 55.4581 137.755C56.5045 137.974 57.578 138.032 58.6419 137.928C59.5822 137.941 60.5044 137.669 61.2879 137.147C61.9061 136.608 61.9494 135.572 61.9865 134.804C62.0233 133.709 61.9799 132.612 61.8567 131.524Z" fill="#EF5026"/>
<path d="M79.3461 85.159C78.6625 85.1188 77.9771 85.1188 77.2936 85.159C75.8655 85.159 74.4498 85.0722 73.0217 85.0164C71.5936 84.9606 70.1161 84.9606 68.6942 84.973H66.4253C65.6711 84.973 64.8983 84.973 64.1441 85.004C63.9764 85.0266 63.8225 85.1094 63.7111 85.2371C63.5997 85.3648 63.5382 85.5288 63.5382 85.6985C63.5382 85.8682 63.5997 86.0321 63.7111 86.1598C63.8225 86.2875 63.9764 86.3703 64.1441 86.3929C64.886 86.4549 65.6525 86.3929 66.4006 86.3929H68.6571C70.1037 86.3929 71.5565 86.3929 72.9846 86.4425C74.4127 86.4921 75.8284 86.5789 77.2565 86.5789C77.9258 86.613 78.5964 86.613 79.2657 86.5789C79.4451 86.5757 79.6167 86.5047 79.7461 86.38C79.8754 86.2552 79.953 86.0861 79.9631 85.9064C79.9733 85.7267 79.9153 85.5498 79.8009 85.4112C79.6864 85.2726 79.524 85.1825 79.3461 85.159Z" fill="black"/>
<path d="M78.4806 97.7639C73.5843 97.7639 68.6942 97.4229 63.7979 97.4291C63.6164 97.4134 63.4359 97.4695 63.2951 97.5853C63.1542 97.7011 63.0639 97.8676 63.0437 98.0491C63.0343 98.1396 63.0429 98.231 63.0689 98.3181C63.095 98.4053 63.138 98.4863 63.1955 98.5567C63.253 98.627 63.3238 98.6852 63.4038 98.7279C63.4839 98.7707 63.5716 98.797 63.6619 98.8056C68.5582 98.8056 73.4483 99.1528 78.3445 99.1342C78.525 99.1482 78.7039 99.0913 78.8434 98.9757C78.983 98.86 79.0723 98.6946 79.0926 98.5142C79.1028 98.4244 79.095 98.3334 79.0696 98.2467C79.0442 98.16 79.0017 98.0793 78.9446 98.0093C78.8876 97.9394 78.8171 97.8816 78.7374 97.8395C78.6577 97.7973 78.5703 97.7716 78.4806 97.7639Z" fill="black"/>
<path d="M79.6304 88.0049C74.5734 87.8809 69.5102 88.0049 64.4532 88.0049C64.2765 87.9874 64.1001 88.0399 63.9614 88.1511C63.8228 88.2623 63.7331 88.4235 63.7113 88.6002C63.702 88.6893 63.7107 88.7794 63.7371 88.865C63.7634 88.9507 63.8068 89.0301 63.8645 89.0985C63.9223 89.1668 63.9933 89.2228 64.0732 89.2629C64.1532 89.303 64.2403 89.3264 64.3295 89.3318C69.3866 89.3318 74.4498 89.2202 79.5068 89.3318C80.3414 89.369 80.5021 88.0235 79.6304 88.0049Z" fill="black"/>
<path d="M78.3136 101.248C77.2008 101.186 76.0819 101.205 74.9691 101.155C73.8563 101.106 72.6198 101.038 71.4452 100.988C69.0615 100.846 66.6721 100.826 64.2863 100.926C63.4331 100.969 63.631 102.278 64.4717 102.24C66.821 102.129 69.1702 102.24 71.5132 102.34L74.9629 102.501C76.0757 102.55 77.2132 102.637 78.3322 102.575C78.4918 102.551 78.6374 102.47 78.7418 102.346C78.8463 102.223 78.9026 102.066 78.9003 101.904C78.8981 101.742 78.8374 101.586 78.7295 101.466C78.6216 101.345 78.4739 101.268 78.3136 101.248Z" fill="black"/>
<path d="M110.813 111.001C108.099 110.456 105.28 110.84 102.535 110.84C99.4443 110.84 96.3532 110.813 93.2621 110.759C87.1109 110.673 80.9658 110.524 74.8145 110.431C71.3525 110.381 67.8967 110.344 64.4408 110.356C64.2684 110.343 64.0974 110.396 63.9622 110.504C63.8269 110.612 63.7373 110.768 63.7113 110.939C63.6938 111.113 63.7448 111.287 63.8534 111.424C63.962 111.56 64.1195 111.649 64.2924 111.671C70.4437 111.671 76.6012 111.795 82.7524 111.919C88.9037 112.043 95.0673 112.161 101.231 112.179C102.82 112.179 104.402 112.179 105.997 112.099C107.553 111.998 109.116 112.081 110.653 112.347C111.512 112.52 111.66 111.175 110.813 111.001Z" fill="black"/>
<path d="M110.653 119.44C104.637 119.44 98.6344 119.44 92.6254 119.638C86.6163 119.836 80.6319 120.184 74.6352 120.394C71.2412 120.518 67.8348 120.587 64.4532 120.618C64.2815 120.605 64.1113 120.658 63.977 120.766C63.8428 120.874 63.7545 121.03 63.7299 121.2C63.7124 121.373 63.7627 121.545 63.8701 121.681C63.9776 121.816 64.1336 121.904 64.3048 121.926C70.3139 121.975 76.3292 121.696 82.332 121.424C88.3349 121.151 94.3255 120.866 100.322 120.804C103.716 120.766 107.123 120.804 110.498 120.804C110.679 120.818 110.857 120.761 110.997 120.645C111.136 120.53 111.226 120.364 111.246 120.184C111.262 120.007 111.209 119.831 111.098 119.692C110.988 119.553 110.828 119.463 110.653 119.44Z" fill="black"/>
<path d="M108.013 133.471C106.39 134.646 104.485 135.369 102.492 135.566C102.092 135.623 101.684 135.576 101.308 135.429C100.931 135.283 100.598 135.042 100.341 134.729C101.323 134.141 102.192 133.38 102.906 132.485C103.347 131.901 103.658 131.228 103.815 130.513C103.832 130.364 103.8 130.213 103.723 130.084C103.646 129.955 103.528 129.855 103.389 129.8C102.755 129.656 102.094 129.696 101.483 129.915C100.872 130.135 100.336 130.525 99.9389 131.04C99.2026 131.848 98.785 132.897 98.7643 133.991C98.1636 134.292 97.5441 134.553 96.9096 134.773C95.8148 135.212 94.6455 135.436 93.4661 135.43C92.9057 135.397 92.3596 135.239 91.8677 134.967C91.3758 134.696 90.9503 134.318 90.6223 133.861C91.2886 133.488 91.9107 133.041 92.477 132.528C93.0952 131.939 93.7938 131.121 93.6207 130.184C93.5415 129.802 93.3226 129.462 93.007 129.233C92.6914 129.004 92.3017 128.901 91.9144 128.944C91.4491 129.006 91.0032 129.171 90.6088 129.426C90.2143 129.681 89.8812 130.02 89.6332 130.42C89.3443 130.814 89.1355 131.26 89.0188 131.735C88.9022 132.209 88.8798 132.702 88.9531 133.185C88.141 133.558 87.302 133.869 86.4432 134.115C85.0726 134.584 83.6314 134.81 82.1837 134.785C81.6514 134.769 81.1313 134.622 80.669 134.357C80.4808 134.241 80.327 134.076 80.2239 133.88C80.6716 133.639 81.0995 133.364 81.5036 133.055C82.2888 132.435 83.3583 131.121 82.6164 130.11C82.4016 129.876 82.1186 129.716 81.8079 129.653C81.4971 129.589 81.1744 129.626 80.8854 129.757C80.1858 130.036 79.615 130.566 79.2842 131.245C78.9712 131.817 78.7935 132.453 78.7649 133.105C77.0862 133.886 75.2812 134.358 73.4359 134.5C73.0246 134.537 72.6107 134.537 72.1995 134.5C71.8665 134.481 71.5378 134.417 71.2227 134.308L70.9692 134.208L70.8023 134.128C70.6785 134.052 70.5607 133.967 70.4499 133.874L70.3943 133.812C70.3455 133.756 70.3001 133.698 70.2582 133.638C71.3772 132.981 72.694 132.1 73.0402 130.817C73.2071 130.197 73.2628 129.416 72.6693 128.988C72.417 128.843 72.1315 128.767 71.8409 128.767C71.5503 128.767 71.2647 128.843 71.0125 128.988C70.411 129.26 69.8872 129.679 69.4887 130.206C69.0902 130.734 68.8298 131.353 68.7313 132.007C68.6828 132.321 68.6683 132.639 68.688 132.956C68.1501 133.235 67.5937 133.483 67.0373 133.712C66.7962 133.805 66.5551 133.898 66.314 133.979C66.1326 134.047 65.9467 134.103 65.7576 134.146C65.5854 134.177 65.4313 134.272 65.3267 134.413C65.2222 134.553 65.1751 134.729 65.1951 134.903C65.2071 134.99 65.2363 135.073 65.2809 135.149C65.3255 135.224 65.3845 135.29 65.4547 135.343C65.5248 135.395 65.6047 135.433 65.6896 135.455C65.7745 135.476 65.8627 135.48 65.9493 135.467C67.0376 135.194 68.0898 134.792 69.0836 134.27C69.1761 134.427 69.2837 134.575 69.4051 134.711C70.1226 135.389 71.0598 135.785 72.0449 135.827C74.381 135.953 76.7132 135.515 78.8453 134.549L79.0369 134.469C79.2257 134.885 79.5306 135.239 79.9148 135.486C81.3182 136.403 83.1295 136.223 84.6936 135.938C86.3305 135.649 87.9253 135.158 89.4415 134.475C89.5844 134.719 89.7544 134.946 89.9485 135.151C90.5521 135.769 91.2951 136.234 92.1148 136.504C92.9346 136.775 93.8072 136.845 94.6593 136.707C96.2166 136.482 97.729 136.013 99.1414 135.318C99.3974 135.717 99.7346 136.058 100.131 136.318C100.527 136.577 100.974 136.75 101.441 136.825C102.725 136.988 104.029 136.821 105.231 136.341C106.518 135.901 107.74 135.29 108.866 134.525C109.571 134.047 108.73 132.981 108.013 133.471ZM70.4128 131.251C70.6648 130.892 70.9891 130.59 71.3649 130.364C71.4634 130.304 71.5668 130.252 71.674 130.209L71.7976 130.166C71.8072 130.19 71.8072 130.216 71.7976 130.24C71.7862 130.349 71.7592 130.456 71.7172 130.556C71.696 130.63 71.6626 130.699 71.6183 130.761C71.3106 131.209 70.9203 131.594 70.4684 131.896C70.3448 131.989 70.215 132.069 70.0851 132.156C70.1268 131.834 70.2387 131.525 70.4128 131.251ZM81.1512 131.17C81.2131 131.133 81.3923 131.059 81.3923 131.059H81.4851C81.4851 131.121 81.4356 131.183 81.4109 131.232C81.3014 131.417 81.1752 131.592 81.0338 131.753L80.972 131.809L80.7927 131.964C80.6243 132.105 80.4489 132.237 80.2672 132.361C80.3705 132.085 80.5143 131.826 80.6938 131.592C80.8222 131.427 80.9768 131.285 81.1512 131.17ZM90.4245 131.747C90.5518 131.421 90.749 131.127 91.0022 130.886C91.2554 130.645 91.5584 130.462 91.8897 130.352C91.9693 130.336 92.0512 130.336 92.1308 130.352C92.2421 130.352 92.1926 130.352 92.2668 130.408C92.2852 130.442 92.2948 130.48 92.2948 130.519C92.2948 130.558 92.2852 130.597 92.2668 130.631C92.0999 131.3 91.2715 131.871 90.746 132.218C90.5729 132.342 90.3936 132.454 90.2081 132.572C90.2327 132.286 90.308 132.006 90.4307 131.747H90.4245ZM100.594 132.46C100.951 131.827 101.517 131.34 102.195 131.083C101.769 131.819 101.189 132.453 100.495 132.944L100.291 133.092C100.372 132.871 100.476 132.659 100.6 132.46H100.594Z" fill="black"/>
<path d="M77.9674 45.8378C79.3832 49.0123 81.0214 52.1185 80.8978 55.6898C80.8793 55.8516 80.9181 56.0147 81.0074 56.1507C81.0966 56.2867 81.2307 56.3869 81.3862 56.4338C81.543 56.477 81.7101 56.4619 81.8567 56.3913C82.0032 56.3206 82.1194 56.1992 82.1837 56.0494C83.4934 52.916 84.9732 49.8568 86.6163 46.8856C86.6796 46.7634 86.695 46.6219 86.6596 46.4888C86.7541 46.3916 86.8197 46.2699 86.8492 46.1375C86.8787 46.005 86.8708 45.8669 86.8265 45.7386C86.7513 45.5843 86.6223 45.4631 86.4639 45.3979C86.3055 45.3328 86.1287 45.3282 85.9672 45.3852C84.8254 45.6024 83.6531 45.6024 82.5113 45.3852C81.2749 45.2302 79.989 45.007 78.7217 44.9636C78.2271 44.9016 77.7387 45.3294 77.9674 45.8378ZM82.5299 46.712C83.394 46.8318 84.2674 46.8712 85.1388 46.8298C84.026 48.8511 82.9956 50.9178 82.0477 53.03C81.9033 52.1173 81.6799 51.219 81.38 50.3453C80.8866 48.9819 80.3233 47.6451 79.6923 46.34C80.6443 46.4516 81.584 46.6252 82.5299 46.712Z" fill="black"/>
<path d="M68.7251 55.5782C65.0158 54.3382 62.8644 50.3763 62.2524 46.712C62.2269 46.5361 62.1329 46.3775 61.9908 46.2711C61.8488 46.1647 61.6705 46.1192 61.495 46.1447C61.3196 46.1702 61.1614 46.2645 61.0554 46.407C60.9493 46.5494 60.904 46.7283 60.9294 46.9042C60.9694 48.4143 60.5745 49.904 59.7918 51.1947C59.1724 52.5343 58.1696 53.6588 56.911 54.425C56.8202 54.4664 56.7407 54.5291 56.6794 54.6079C56.618 54.6867 56.5766 54.7793 56.5586 54.8776C55.8723 55.0326 55.8043 56.161 56.6018 56.2044C58.7038 56.3036 60.8119 55.851 62.9077 56.1052C64.818 56.3408 66.6664 57.0043 68.6014 56.8679C68.7439 56.8399 68.8736 56.7665 68.9712 56.6587C69.0688 56.5508 69.129 56.4142 69.1429 56.2693C69.1568 56.1243 69.1236 55.9787 69.0483 55.8542C68.973 55.7297 68.8597 55.6329 68.7251 55.5782ZM58.6111 54.8404C59.5801 53.9769 60.3809 52.9404 60.9726 51.7837C61.2902 51.2144 61.559 50.6191 61.7763 50.0043C62.5123 52.0154 63.7437 53.807 65.3558 55.2124C64.5336 55.0388 63.7175 54.8466 62.8829 54.7536C61.459 54.6654 60.0303 54.6944 58.6111 54.8404Z" fill="black"/>
<path d="M65.3805 68.2265C65.2531 67.6238 64.9769 67.0628 64.5773 66.5948C64.1776 66.1269 63.6673 65.767 63.0931 65.548C62.5611 65.3742 61.9952 65.3314 61.4432 65.4231C60.8912 65.5148 60.3693 65.7385 59.9217 66.0751C59.3518 66.511 58.9044 67.0878 58.6234 67.7491C58.5812 67.8322 58.5568 67.9232 58.5518 68.0164C58.5467 68.1095 58.5611 68.2026 58.5941 68.2899C58.627 68.3771 58.6777 68.4564 58.743 68.5228C58.8083 68.5893 58.8867 68.6413 58.9732 68.6755C59.0597 68.7098 59.1524 68.7256 59.2453 68.7218C59.3382 68.7181 59.4293 68.6949 59.5128 68.6538C59.5962 68.6127 59.6702 68.5546 59.73 68.4831C59.7898 68.4117 59.834 68.3285 59.8598 68.2389C59.8598 68.1645 59.9278 68.0963 59.9649 68.0219L60.0577 67.8669C60.1372 67.7441 60.2239 67.6261 60.3173 67.5135L60.4348 67.3895L60.5275 67.3027C60.6298 67.2112 60.7394 67.1283 60.8552 67.0547L60.917 67.0113L61.1457 66.8997L61.3003 66.8377L61.4363 66.7943C61.5442 66.7671 61.6536 66.7464 61.7639 66.7323C61.8319 66.7323 61.9 66.7323 61.9741 66.7323C62.172 66.7323 62.3018 66.7695 62.4316 66.7819L62.6727 66.8563L62.8706 66.9369C63 67.0082 63.1239 67.089 63.2415 67.1787L63.3466 67.2717C63.3815 67.313 63.4186 67.3523 63.4579 67.3895C63.5487 67.4896 63.6333 67.5952 63.7113 67.7057C63.7364 67.7435 63.7591 67.7829 63.7793 67.8235C63.7793 67.8855 63.8412 67.9413 63.8659 68.0033C63.8906 68.0653 63.9339 68.1645 63.9648 68.2513C63.9957 68.3381 64.039 68.4931 64.0204 68.4187C64.0508 68.5947 64.1471 68.7524 64.2896 68.8596C64.4321 68.9668 64.61 69.0153 64.787 68.9953C64.9673 68.9721 65.131 68.8781 65.2423 68.734C65.3536 68.5899 65.4033 68.4073 65.3805 68.2265Z" fill="black"/>
<path d="M164.734 123.755C162.261 122.186 159.714 120.804 157.217 119.316C156.598 118.956 155.98 118.596 155.412 118.212C155.214 118.089 155.024 117.954 154.843 117.809L154.719 117.691L154.651 117.611C154.64 117.539 154.64 117.465 154.651 117.394C154.651 117.394 154.701 117.232 154.707 117.214C154.849 116.774 155.01 116.346 155.146 115.906C155.638 114.598 155.978 113.237 156.16 111.851C156.171 111.735 156.153 111.618 156.106 111.512C156.06 111.406 155.987 111.313 155.894 111.243C155.801 111.174 155.692 111.129 155.578 111.114C155.463 111.098 155.346 111.113 155.238 111.156C153.068 112.213 151.009 113.486 149.093 114.957C148.963 115.067 148.88 115.224 148.861 115.394C148.843 115.565 148.892 115.736 148.996 115.871C149.101 116.006 149.254 116.096 149.423 116.121C149.592 116.146 149.764 116.104 149.903 116.005C151.393 114.865 152.972 113.849 154.626 112.967C154.435 113.797 154.144 114.604 153.897 115.41C153.65 116.216 153.161 117.034 153.279 117.828C153.458 118.82 154.688 119.378 155.449 119.843C156.741 120.636 158.064 121.386 159.38 122.143C160.438 122.763 161.495 123.383 162.54 124.003C160.067 124.418 157.538 124.313 155.121 125.138C155.026 125.178 154.941 125.241 154.874 125.319C154.806 125.398 154.757 125.491 154.731 125.592C154.705 125.692 154.702 125.797 154.722 125.899C154.743 126.001 154.786 126.097 154.849 126.179C155.956 127.791 157.26 129.279 158.428 130.817C159.447 132.07 160.237 133.493 160.765 135.021C158.416 134.766 156.147 134.022 153.817 133.657C152.939 133.52 152.784 134.897 153.662 135.027C156.302 135.442 158.874 136.372 161.563 136.453C161.666 136.463 161.77 136.45 161.867 136.414C161.964 136.378 162.052 136.321 162.124 136.247C162.196 136.172 162.25 136.082 162.282 135.984C162.315 135.885 162.324 135.781 162.311 135.678C161.643 131.902 158.719 129.124 156.493 126.142C159.115 125.466 161.915 125.671 164.53 124.902C164.639 124.86 164.735 124.79 164.809 124.699C164.883 124.609 164.933 124.501 164.954 124.386C164.974 124.271 164.965 124.152 164.926 124.042C164.888 123.931 164.822 123.832 164.734 123.755Z" fill="black"/>
<path d="M64.6139 80.7818C61.4247 81.9369 58.6912 84.0913 56.8182 86.9261C56.468 86.2861 56.0842 85.6652 55.6683 85.0661C55.149 84.3779 54.0981 85.2025 54.6112 85.8845C55.2294 86.7339 55.6992 87.7073 56.2989 88.5753C56.3731 88.6671 56.4697 88.7379 56.5793 88.7809C56.6889 88.824 56.8078 88.8377 56.9243 88.8209C57.0409 88.804 57.151 88.7571 57.244 88.6847C57.337 88.6123 57.4097 88.5169 57.455 88.4079C58.2934 86.9275 59.4054 85.6207 60.7315 84.5577C62.0347 83.4368 63.5247 82.5553 65.1332 81.9536C65.9369 81.7118 65.4176 80.509 64.6139 80.7818Z" fill="black"/>
</g>
<defs>
<clipPath id="clip0_266_1909">
<rect width="139" height="136" fill="white" transform="translate(26.0001 39.1851)"/>
</clipPath>
</defs>
</svg>
