<svg width="138" height="163" viewBox="0 0 138 163" fill="none" xmlns="http://www.w3.org/2000/svg">
<path d="M23.3245 24.08L24.7429 25.49L28.1326 22.08H23.3245V24.08ZM12.4695 35L11.051 33.59L10.2599 34.3858L10.5269 35.4757L12.4695 35ZM14.0295 41.37L12.0869 41.8457L12.4601 43.37H14.0295V41.37ZM9.67445 47.35L11.1693 46.0213L9.79375 44.4738L8.2948 45.9021L9.67445 47.35ZM2.78445 53.915L1.4048 52.467L0.0407071 53.7668L1.25686 55.2059L2.78445 53.915ZM24.6895 34.025L23.3083 32.5785L20.4157 35.3403L24.3607 35.9978L24.6895 34.025ZM36.1945 23.04L37.5756 24.4865L38.1945 23.8956V23.04H36.1945ZM36.1945 15.5H38.1945V13.5H36.1945V15.5ZM5.44945 15.5V13.5H3.44945V15.5H5.44945ZM5.44945 24.08H3.44945V26.08H5.44945V24.08ZM21.906 22.67L11.051 33.59L13.8879 36.41L24.7429 25.49L21.906 22.67ZM10.5269 35.4757L12.0869 41.8457L15.972 40.8943L14.412 34.5243L10.5269 35.4757ZM14.0295 43.37H18.1895V39.37H14.0295V43.37ZM18.1895 43.37C20.8568 43.37 22.6376 43.8633 23.69 44.5536C24.6279 45.1688 25.0945 45.9972 25.0945 47.22H29.0945C29.0945 44.6728 27.9685 42.5762 25.8839 41.2089C23.9138 39.9167 21.2421 39.37 18.1895 39.37V43.37ZM25.0945 47.22C25.0945 48.3854 24.6637 49.2149 23.9954 49.783C23.2943 50.3789 22.1783 50.81 20.6595 50.81V54.81C22.9106 54.81 25.0121 54.1686 26.586 52.8308C28.1927 51.4651 29.0945 49.4996 29.0945 47.22H25.0945ZM20.6595 50.81C16.7739 50.81 14.0293 49.2388 11.1693 46.0213L8.17964 48.6787C11.5596 52.4812 15.315 54.81 20.6595 54.81V50.81ZM8.2948 45.9021L1.4048 52.467L4.1641 55.3629L11.0541 48.798L8.2948 45.9021ZM1.25686 55.2059C5.5199 60.2505 11.7249 63.78 20.5295 63.78V59.78C12.954 59.78 7.84901 56.8095 4.31204 52.6241L1.25686 55.2059ZM20.5295 63.78C26.0172 63.78 30.6316 62.0675 33.8915 59.0044C37.1584 55.9346 38.9095 51.6514 38.9095 46.83H34.9095C34.9095 50.6535 33.5405 53.8454 31.1524 56.0894C28.7573 58.34 25.1817 59.78 20.5295 59.78V63.78ZM38.9095 46.83C38.9095 42.0431 37.2002 38.5396 34.4625 36.1245C31.7981 33.7741 28.3318 32.6045 25.0183 32.0522L24.3607 35.9978C27.2871 36.4855 29.9309 37.4609 31.8164 39.1242C33.6287 40.7229 34.9095 43.1019 34.9095 46.83H38.9095ZM26.0706 35.4715L37.5756 24.4865L34.8133 21.5935L23.3083 32.5785L26.0706 35.4715ZM38.1945 23.04V15.5H34.1945V23.04H38.1945ZM36.1945 13.5H5.44945V17.5H36.1945V13.5ZM3.44945 15.5V24.08H7.44945V15.5H3.44945ZM5.44945 26.08H23.3245V22.08H5.44945V26.08Z" fill="black" fill-opacity="0.1"/>
<g clip-path="url(#clip0_266_1910)">
<path d="M27.7398 160.119C27.7398 160.919 26.4335 160.913 26.3591 160.119C26.1872 158.18 26.1757 156.206 26.0841 154.256L25.62 143.939C25.5398 142.241 25.471 140.544 25.3908 138.846C25.3908 138.616 25.3908 138.386 25.3507 138.156C25.3507 137.713 25.2991 137.27 25.2533 136.821C25.177 135.85 25.0179 134.887 24.7778 133.944C24.7545 133.765 24.8013 133.584 24.9081 133.439C25.015 133.294 25.1736 133.197 25.3507 133.167C25.5282 133.146 25.7069 133.194 25.8505 133.301C25.9941 133.408 26.0919 133.566 26.1242 133.742C26.3821 134.742 26.5527 135.762 26.6341 136.792C26.6742 137.235 26.7085 137.684 26.7315 138.133C26.7544 138.582 26.7773 138.904 26.7945 139.284C26.9549 142.736 27.1134 146.202 27.27 149.681L27.5106 154.86C27.5679 156.638 27.7398 158.382 27.7398 160.119Z" fill="#EF5026"/>
<path d="M40.5333 133.581L39.1067 133.518L34.804 133.322C31.6701 133.19 28.5018 133.19 25.4366 133.898C24.583 134.105 24.3996 132.747 25.2418 132.545C28.6794 131.711 32.2201 131.792 35.7207 131.97C36.7978 132.028 37.8692 132.074 38.9463 132.12L40.3328 132.177C40.3676 132.649 40.4346 133.118 40.5333 133.581Z" fill="#EF5026"/>
<path d="M40.5047 138.662H39.038C35.0389 138.731 31.0399 138.806 27.0408 138.887H25.6601C25.6601 138.438 25.6085 137.995 25.5627 137.552H26.9434C30.8699 137.471 34.7945 137.396 38.7171 137.327L40.0864 137.298C40.1726 137.768 40.313 138.225 40.5047 138.662Z" fill="#EF5026"/>
<path d="M96.285 160.465L81.6925 160.626H80.8274C80.8274 160.626 67.4782 146.2 66.4698 145.089C66.1748 144.692 65.9553 144.243 65.8224 143.766C65.6792 143.346 65.5417 142.868 65.4099 142.368C65.0375 140.923 64.7281 139.295 64.5677 138.369C64.4875 137.908 64.4359 137.626 64.4359 137.626H65.0088C65.1292 137.868 65.2437 138.121 65.3469 138.374C65.5937 138.952 65.806 139.544 65.9828 140.147C66.1414 140.693 66.2677 141.248 66.361 141.81C68.286 140.722 70.3371 139.836 72.3366 138.933L73.7002 138.3L75.8086 137.316L78.4326 137.235L78.6159 137.546C78.7248 137.724 78.8795 137.972 79.0628 138.248C79.4279 138.792 79.8381 139.304 80.2889 139.778C81.3029 140.797 84.5973 143.173 85.9494 143.599C87.3015 144.025 96.285 160.465 96.285 160.465Z" fill="#EF5026" fill-opacity="0.5"/>
<path d="M39.6911 137.73L40.5333 139.681C40.5333 139.681 38.4249 143.841 45.1168 147.995C51.8086 152.15 54.4097 153.001 56.5238 156.143C57.6471 157.779 58.6836 159.473 59.6291 161.218C59.6291 161.218 30.8451 161.483 29.6591 161.483C28.4732 161.483 27.2127 161.144 27.1268 158.031C27.0408 154.918 26.7888 138.858 26.7888 138.518C26.7888 138.179 39.6911 137.73 39.6911 137.73Z" fill="#EF5026" fill-opacity="0.5"/>
<path d="M123.992 133.667C116.813 133.155 109.611 132.983 102.41 132.983C100.255 132.983 98.107 132.983 95.9527 133.029H94.5262C94.4001 132.557 94.2855 132.085 94.1709 131.613H95.5975C105.125 131.469 114.653 131.55 124.158 132.189C125.08 132.269 124.909 133.737 123.992 133.667Z" fill="#EF5026"/>
<path d="M125.596 136.648C125.596 136.855 125.567 137.051 125.562 137.224C125.562 137.484 125.55 137.743 125.527 138H124.129C115.444 138 106.758 138.023 98.0726 138.069H96.4741C96.3538 137.857 96.2392 137.649 96.1246 137.431C96.01 137.212 95.884 136.965 95.7751 136.723H97.3163C104.715 136.677 112.109 136.65 119.5 136.642H125.596V136.648Z" fill="#EF5026"/>
<path d="M96.7892 137.644L112.671 160.125C112.671 160.125 124.129 160.7 124.33 159.619C124.53 158.537 124.748 137.39 124.748 137.39L96.7892 137.644Z" fill="#EF5026" fill-opacity="0.5"/>
<path d="M100.227 126.227L99.4247 126.676L95.7522 128.696L94.9902 129.11C94.572 129.346 94.148 129.576 93.724 129.806C93.6152 129.329 93.5121 128.846 93.4089 128.362L94.6751 127.672L96.0444 126.918C97.0757 126.342 98.0955 125.767 99.1153 125.163L100.645 124.277C100.68 124.953 100.536 125.626 100.227 126.227Z" fill="#00122B"/>
<path d="M48.6918 133.639C46.8763 132.102 45.2389 130.365 43.8105 128.46C43.087 127.454 42.4415 126.394 41.8797 125.289C41.5417 124.651 40.5619 123.172 39.7541 124.093C39.6924 124.161 39.6386 124.236 39.5937 124.317C39.3015 123.931 39.0208 123.534 38.7228 123.166C37.5999 121.632 36.4961 120.097 35.4113 118.563C30.2361 111.268 25.4345 103.712 21.0251 95.926C20.9546 95.7574 20.9536 95.5675 21.0224 95.3982C21.0911 95.2288 21.224 95.0937 21.3917 95.0226C21.5587 94.9577 21.744 94.9591 21.91 95.0264C22.076 95.0937 22.2102 95.222 22.2855 95.3851C24.7205 99.6029 27.2413 103.763 29.8825 107.854C33.0871 112.841 36.4502 117.709 39.9718 122.458C41.5837 124.63 43.2356 126.787 44.9277 128.932C46.1614 130.516 47.4161 132.085 48.6918 133.639Z" fill="#253139"/>
<path d="M32.5696 89.608C32.6269 89.6713 32.6899 89.7403 32.7529 89.7978L31.3321 90.4596L29.0404 91.5356C27.5507 92.2376 26.0611 92.9454 24.5715 93.6704C23.6491 94.125 22.4173 94.7522 22.3543 95.9203C22.3027 96.8064 20.9792 96.6338 21.0022 95.7649C21.048 94.2113 22.4287 93.2331 23.6663 92.5771C25.322 91.7082 27.0294 90.9372 28.7195 90.1373C29.2924 89.8669 29.8654 89.5619 30.4383 89.326L31.8191 88.6758C32.0514 89.0006 32.302 89.3118 32.5696 89.608Z" fill="#253139"/>
<path d="M53.4872 79.1066C53.6866 79.5391 53.8217 79.9986 53.8883 80.4704L52.5706 81.0458C50.0268 82.093 47.4887 83.1729 44.9563 84.2854C43.6214 84.8608 42.2865 85.4362 40.9458 86.0577C40.1529 86.0725 39.3677 85.899 38.6541 85.5513L40.7625 84.6076C42.9396 83.6371 45.1187 82.6781 47.2996 81.7305C48.9325 81.0228 50.5768 80.3265 52.2153 79.636L53.4872 79.1066Z" fill="#00122B"/>
<path d="M66.699 75.3089C63.5593 76.5288 60.4311 77.7794 57.3144 79.0606L56.3061 79.4692L55.968 79.613C55.968 79.3195 55.9222 79.0376 55.8878 78.7269C55.8878 78.537 55.8477 78.3413 55.8191 78.1515C56.2602 77.9616 56.7014 77.7832 57.1425 77.576C60.1409 76.3485 63.1449 75.1497 66.1547 73.9797C66.9683 73.6805 67.5183 74.9809 66.699 75.3089Z" fill="#253139"/>
<path d="M100.227 126.227C100.16 126.38 100.045 126.506 99.9006 126.587C99.7559 126.668 99.5888 126.699 99.4247 126.676L99.3044 126.636C99.1301 126.567 98.9898 126.431 98.9137 126.259C98.8377 126.087 98.8319 125.892 98.8976 125.715C98.9897 125.532 99.0627 125.339 99.1153 125.14C99.5851 123.46 98.382 121.687 97.3965 120.41C96.0043 118.603 94.5319 116.848 93.1626 115.047C88.1246 108.522 83.3598 101.778 78.868 94.8155C76.6527 91.363 74.508 87.876 72.434 84.3544C71.3875 82.5591 70.3543 80.7523 69.3345 78.934C68.6068 77.6163 67.8792 75.7002 66.2922 75.2514C66.2096 75.2195 66.1341 75.1716 66.07 75.1103C66.006 75.049 65.9546 74.9756 65.9189 74.8943C65.8832 74.813 65.8639 74.7254 65.8621 74.6366C65.8603 74.5478 65.876 74.4594 65.9083 74.3767C65.9771 74.213 66.1056 74.0818 66.2675 74.0102C66.4294 73.9385 66.6125 73.9317 66.7792 73.9912C68.7787 74.4976 69.7126 76.7589 70.6178 78.3931C71.7637 80.4646 72.9477 82.5227 74.17 84.5673C78.4975 91.8828 83.1421 98.9949 88.1036 105.904C90.5787 109.356 93.1301 112.751 95.758 116.089C97.0938 117.629 98.3355 119.248 99.4763 120.939C100.127 121.94 100.52 123.086 100.622 124.277C100.664 124.951 100.528 125.624 100.227 126.227Z" fill="#253139"/>
<path d="M62.8432 88.647C62.1939 90.0398 61.4492 91.3857 60.6145 92.6749C60.2134 93.2964 59.7837 93.9063 59.3369 94.5047C58.9364 95.1032 58.4777 95.6603 57.9676 96.1677C57.5837 96.5187 57.0681 96.8467 56.6154 96.4151C56.3119 96.0766 56.1025 95.6638 56.0081 95.2183C56.1399 94.9996 56.2717 94.7809 56.3977 94.5623C57.0395 93.5009 57.6136 92.3996 58.1165 91.2652C58.6012 90.2775 58.7997 89.1729 58.6894 88.0774C58.5868 87.5255 58.3396 87.0111 57.9733 86.587C57.9066 86.5052 57.8227 86.4392 57.7276 86.3939C57.6325 86.3486 57.5285 86.3251 57.4233 86.3251C57.318 86.3251 57.214 86.3486 57.1189 86.3939C57.0238 86.4392 56.9399 86.5052 56.8733 86.587C55.843 87.6883 55.0913 89.0222 54.6815 90.4762C54.2717 91.9302 54.2158 93.4618 54.5185 94.9421C53.9341 95.8589 53.3096 96.7431 52.645 97.5947C52.1695 98.2047 49.6601 101.772 48.7147 100.345C48.5437 100.051 48.4602 99.7133 48.4741 99.3728C49.047 98.5039 49.5627 97.6465 50.0554 96.7028C50.6363 95.6127 51.1603 94.493 51.6252 93.3482C51.8601 92.7727 52.0836 92.1973 52.2841 91.5759C52.4849 91.0901 52.5712 90.5643 52.5362 90.0395C52.5032 89.7706 52.3986 89.5155 52.2334 89.3013C52.0683 89.087 51.8486 88.9214 51.5977 88.8218C51.3467 88.7223 51.0737 88.6926 50.8073 88.7357C50.541 88.7789 50.2911 88.8933 50.084 89.0671C49.0929 89.7461 48.7549 90.9947 48.4168 92.0765C48.0114 93.388 47.688 94.7236 47.4486 96.0756C47.2581 97.0245 47.1375 97.9861 47.0876 98.9527C46.6866 99.5281 46.2798 100.132 45.8444 100.679C44.8475 101.985 43.4323 104.131 41.5302 103.901C40.5161 103.775 40.1265 102.75 39.8916 101.882C39.8916 101.761 39.8401 101.64 39.8172 101.519C41.4502 99.2177 42.425 96.5114 42.636 93.6934C42.6546 93.5527 42.6303 93.4096 42.5664 93.283C42.5024 93.1565 42.4017 93.0524 42.2776 92.9844C42.1535 92.9165 42.0118 92.888 41.8712 92.9026C41.7306 92.9172 41.5977 92.9742 41.4901 93.0662C39.8569 94.4494 38.7665 96.3705 38.4135 98.4866C38.255 99.3896 38.2395 100.312 38.3676 101.22C37.747 102.052 37.0339 102.811 36.2421 103.481C35.5775 104.057 36.4025 105.121 37.0728 104.557C37.6773 104.051 38.2406 103.497 38.7572 102.9C38.9763 103.581 39.3718 104.19 39.9031 104.667C40.3664 105.014 40.9115 105.234 41.485 105.305C42.0585 105.377 42.6407 105.298 43.1745 105.075C44.257 104.591 45.1964 103.834 45.9017 102.877C46.4402 102.24 46.9559 101.58 47.4486 100.898C47.591 101.2 47.8048 101.463 48.0714 101.664C48.338 101.864 48.6493 101.996 48.9783 102.048C50.1528 102.227 51.2299 101.369 51.9804 100.57C53.1329 99.3378 54.1812 98.0117 55.1144 96.605C55.5956 97.5199 56.3863 98.2219 57.5321 97.9687C58.3302 97.7292 59.0258 97.229 59.5087 96.5475C60.0817 95.8685 60.6145 95.1492 61.1244 94.4184C62.2777 92.7547 63.2841 90.993 64.1323 89.1534C64.4989 88.3478 63.2213 87.8472 62.8432 88.647ZM40.9172 95.8282C40.6611 96.9341 40.2765 98.006 39.7713 99.0218C39.9158 97.8858 40.307 96.7956 40.9172 95.8282ZM49.1788 94.6428C49.422 93.5662 49.7242 92.5039 50.084 91.4608C50.1957 91.0614 50.391 90.6906 50.657 90.3733C50.7486 90.2754 50.9835 90.0108 51.1096 90.1373C51.2356 90.2639 51.0351 90.9026 50.9664 91.0925C50.7945 91.5931 50.6111 92.0938 50.3934 92.5886C50.0115 93.5822 49.5722 94.5546 49.0757 95.506C49.0069 95.6441 48.9267 95.7764 48.858 95.9145C48.9955 95.4772 49.0814 95.0456 49.1788 94.6428ZM55.9394 91.1904C56.1882 90.1502 56.6442 89.1715 57.28 88.3133C57.578 89.6367 56.5983 91.3054 56.0425 92.3412C55.9394 92.5426 55.8248 92.7382 55.7217 92.9166C55.7306 92.3349 55.8037 91.7559 55.9394 91.1904Z" fill="#EF5026"/>
<path d="M48.2392 89.257C46.847 90.7358 44.5782 90.0395 42.8021 90.333C40.7338 90.6725 38.8776 91.7658 36.8379 92.2204C35.8426 92.4662 34.8013 92.4523 33.8129 92.1801C32.8402 91.8516 31.98 91.2531 31.3321 90.4538C31.292 90.4078 31.2519 90.3675 31.2175 90.3215C30.9482 89.9992 30.6961 89.6598 30.4498 89.3203C29.9628 88.6413 29.5159 87.9335 29.0518 87.2488C28.2879 86.1248 27.5469 84.9951 26.8289 83.8596C26.2846 83.0137 25.7403 82.1333 25.2132 81.299C25.047 81.0285 24.8866 80.7581 24.7262 80.4876C24.0741 79.4469 23.5653 78.3223 23.2137 77.1445C23.0906 76.6716 22.9988 76.191 22.9387 75.7059C22.8298 74.8889 22.7954 74.0603 22.7553 73.2374C22.698 71.8449 22.6465 70.4466 22.6121 69.0541C22.4784 63.5302 22.5777 58.0062 22.91 52.4822C22.9616 51.5845 24.3366 51.7514 24.3022 52.6376C23.9757 58.478 23.8897 64.3357 24.0788 70.182C24.1246 71.4479 24.1647 72.7195 24.2392 73.9855C24.2724 74.6621 24.3432 75.3364 24.4512 76.0052C24.5364 76.5057 24.6687 76.9971 24.8465 77.4725C25.2707 78.5327 25.8045 79.5452 26.4393 80.4934C26.7143 80.9422 27.0122 81.3853 27.2872 81.8284C27.694 82.4786 28.1122 83.123 28.5362 83.7675C29.2161 84.8032 29.9055 85.8371 30.6045 86.869C31.0112 87.4444 31.4066 88.0831 31.842 88.67C32.0706 88.9945 32.3174 89.3057 32.5811 89.6022C32.6384 89.6655 32.7014 89.7346 32.7644 89.7921C33.3195 90.3821 34.06 90.762 34.8613 90.8681C35.7647 90.933 36.6715 90.8015 37.5197 90.4826C39.3989 89.9072 41.2266 88.929 43.249 88.7564C44.1141 88.6931 44.9678 88.7564 45.8444 88.7218C46.4746 88.6815 47.3111 88.5492 47.4944 87.8184C47.5551 87.5461 47.5186 87.2609 47.3913 87.0128C47.1668 86.5841 46.8169 86.2346 46.3887 86.0116C45.4376 85.4938 44.2115 85.7067 43.1917 85.8505H42.9683C42.3026 85.9515 41.6305 86.0034 40.9573 86.0059C40.1643 86.0207 39.3791 85.8472 38.6656 85.4995C38.2258 85.2782 37.8359 84.9688 37.5197 84.5903C37.4413 84.5175 37.3796 84.4286 37.3388 84.3295C37.2979 84.2305 37.2789 84.1237 37.2831 84.0166C37.2872 83.9094 37.3145 83.8045 37.3629 83.7089C37.4113 83.6134 37.4797 83.5295 37.5635 83.463C37.6472 83.3965 37.7443 83.3491 37.8481 83.3239C37.9518 83.2988 38.0598 83.2965 38.1645 83.3172C38.2693 83.3379 38.3683 83.3812 38.4548 83.444C38.5413 83.5069 38.6132 83.5878 38.6656 83.6812C38.9345 83.9633 39.2585 84.1866 39.6174 84.3371C39.9763 84.4876 40.3622 84.5621 40.751 84.5558C40.9723 84.5702 41.1943 84.5702 41.4156 84.5558C42.6016 84.4983 43.7761 84.2048 44.9621 84.2336C45.1998 84.2382 45.4371 84.2575 45.6725 84.2911C46.2775 84.3661 46.8563 84.584 47.3612 84.9271C47.8662 85.2702 48.2829 85.7286 48.5772 86.2648C48.7623 86.6216 48.8698 87.0139 48.8923 87.4156C48.9201 87.7515 48.8762 88.0895 48.7635 88.4071C48.6509 88.7246 48.4722 89.0143 48.2392 89.257Z" fill="#253139"/>
<path d="M53.7852 70.7631C53.8053 70.6799 53.8053 70.5931 53.7852 70.5099L53.7508 70.4064C53.7474 70.0237 53.6611 69.6463 53.4979 69.3005C53.3346 68.9547 53.0984 68.6487 52.8055 68.4039C52.072 67.8087 51.1384 67.5202 50.1986 67.5983C49.1858 67.6688 48.1822 67.8384 47.2022 68.1047L43.9193 68.8182C43.0599 69.0024 43.249 70.3661 44.1141 70.182C45.8329 69.8137 47.5861 69.3821 49.3392 69.0887C50.0631 68.9034 50.8274 68.9599 51.5164 69.2498C51.763 69.365 51.9717 69.5486 52.1179 69.779C52.2641 70.0094 52.3416 70.277 52.3414 70.5502C52.3223 70.7081 52.361 70.8676 52.4502 70.999V71.7241C52.4276 71.8089 52.4276 71.8982 52.4502 71.983C52.4659 72.0691 52.5056 72.1489 52.5648 72.2132C52.6199 72.2851 52.6889 72.3452 52.7677 72.3897C52.8464 72.4342 52.9333 72.4622 53.0232 72.4721C53.1094 72.4831 53.197 72.4765 53.2807 72.4528C53.3643 72.4291 53.4424 72.3887 53.5102 72.334L53.6419 72.2074C53.7131 72.1096 53.7566 71.9943 53.768 71.8737C53.7909 71.4881 53.7909 71.1256 53.7852 70.7631Z" fill="#253139"/>
<path d="M38.0525 52.1657C38.0705 51.9802 38.016 51.7949 37.9005 51.6489C37.7851 51.5029 37.6178 51.4076 37.4338 51.3831C35.0857 50.9748 32.7115 50.7363 30.3294 50.6696C27.9781 50.5744 25.6337 50.9864 23.4543 51.878C23.3027 51.956 23.186 52.0887 23.1276 52.2494C23.0692 52.4101 23.0733 52.587 23.1392 52.7448C23.2051 52.9026 23.3278 53.0296 23.4829 53.1004C23.638 53.1712 23.814 53.1805 23.9756 53.1266C26.0558 52.3737 28.2564 52.0128 30.4669 52.0621C32.5201 52.1375 34.5661 52.349 36.5915 52.6951C36.3003 58.1199 36.3213 63.557 36.6546 68.9793C36.6812 69.1655 36.7803 69.3335 36.9302 69.4462C37.0801 69.559 37.2684 69.6073 37.4538 69.5806C37.6392 69.5539 37.8064 69.4544 37.9187 69.3038C38.031 69.1533 38.0791 68.9641 38.0525 68.7779C37.8176 63.2367 37.7431 57.7127 38.0525 52.1657Z" fill="#253139"/>
<path d="M51.3273 66.1713C51.0792 65.8501 50.7625 65.5887 50.4006 65.4065C50.0388 65.2243 49.6408 65.1258 49.2361 65.1183C48.3188 65.1384 47.4079 65.2777 46.5261 65.5326L43.6615 66.1886C43.4849 66.217 43.3263 66.3134 43.2193 66.4574C43.1123 66.6014 43.0654 66.7815 43.0886 66.9596C43.1155 67.1365 43.2104 67.2958 43.3528 67.4033C43.4952 67.5109 43.6739 67.5582 43.8506 67.535C45.3402 67.2128 46.8241 66.81 48.3251 66.5626C48.8777 66.4083 49.468 66.4721 49.9752 66.741C50.1407 66.8364 50.2676 66.9873 50.3335 67.1671C50.3995 67.347 50.4004 67.5444 50.3361 67.7249C50.0497 68.4154 51.1325 69.0714 51.5164 68.3867C51.7086 68.0406 51.7933 67.6447 51.7596 67.2499C51.7259 66.8551 51.5753 66.4795 51.3273 66.1713Z" fill="#253139"/>
<path d="M57.916 62.7706C56.9821 61.3263 55.0513 61.873 53.7107 62.3333L43.3578 65.9181L37.3994 67.9954C36.5572 68.2946 37.1015 69.5663 37.9379 69.2785C40.9019 68.2658 43.8582 67.2473 46.8069 66.2231L51.2299 64.7213L53.5216 63.9329C54.1778 63.6653 54.8566 63.4573 55.5498 63.3115C56.9764 63.0813 57.1654 64.0883 56.0368 64.773C54.8901 65.4441 53.6587 65.957 52.3758 66.2979C51.9747 66.3779 51.5979 66.5513 51.2757 66.8043C51.1212 66.938 51.0246 67.127 51.0064 67.3311C50.9883 67.5352 51.0499 67.7383 51.1783 67.8975C51.4934 68.191 51.9976 68.0414 52.3929 67.8688C53.0633 67.8688 54.169 67.1092 54.7935 66.8445C56.3863 66.1598 59.4056 65.0608 57.916 62.7706Z" fill="#253139"/>
<path d="M57.3774 81.3047C57.408 82.0748 57.36 82.8461 57.2342 83.6064C57.2113 83.7176 57.1826 83.8327 57.1483 83.9516C56.816 85.1025 56.0024 86.1612 54.6618 85.8045C53.3211 85.4477 52.9029 84.0207 52.731 82.7433C52.6966 82.4441 52.668 82.1679 52.6508 81.8859C52.6336 81.6039 52.6107 81.3105 52.5706 81.0285C52.5219 80.5528 52.3961 80.0882 52.1982 79.6533C52.0984 79.4163 51.9414 79.2079 51.7413 79.0472C51.5413 78.8864 51.3044 78.7783 51.0523 78.7326C50.217 78.6357 49.3723 78.657 48.5429 78.7959C47.7493 78.8875 46.9627 79.0316 46.1881 79.2275C45.1504 79.4768 44.1378 79.8216 43.1631 80.2575C42.6673 80.4818 42.1852 80.7355 41.7193 81.017C40.5047 81.7536 39.313 82.9504 39.6968 84.4695C39.7155 84.5611 39.7134 84.6558 39.6906 84.7465C39.6677 84.8371 39.6248 84.9214 39.5651 84.9931C39.4476 85.1411 39.2807 85.2413 39.0953 85.2751C38.9102 85.2955 38.7243 85.2444 38.5754 85.1322C38.4264 85.02 38.3255 84.8551 38.2932 84.6709C37.852 82.9447 38.9119 81.2587 40.2583 80.2632C40.5161 80.0733 40.7911 79.895 41.0661 79.7223C42.325 78.9862 43.6729 78.4156 45.0766 78.0249C46.6189 77.5657 48.2129 77.3047 49.8205 77.2481C50.615 77.1544 51.42 77.2756 52.1523 77.5991C52.7441 77.9448 53.2084 78.4737 53.4758 79.1066C53.6809 79.5458 53.8199 80.0132 53.8883 80.4934C54.0201 81.3738 53.9972 82.2829 54.2034 83.1518C54.226 83.2589 54.2547 83.3645 54.2893 83.4683C54.3982 83.8366 54.7534 84.6536 55.2748 84.4695C55.5784 84.3544 55.7331 83.9286 55.8477 83.5949C55.8477 83.5316 55.8477 83.4683 55.8878 83.4107C56.0081 82.6982 56.0542 81.9751 56.0253 81.2529C56.0253 80.7178 56.0253 80.1769 55.968 79.6418C55.968 79.3483 55.9222 79.0664 55.8878 78.7556C55.8878 78.5658 55.8477 78.3701 55.8191 78.1802C55.6418 76.73 55.3055 75.3039 54.8164 73.9279C54.7555 73.6343 54.5828 73.3763 54.3352 73.2086C54.0509 73.1154 53.7505 73.0821 53.4529 73.1108H50.783C49.0069 73.1108 47.2194 73.1108 45.4433 73.1108C45.2705 73.0837 45.1147 72.991 45.0081 72.8518C44.9014 72.7125 44.8521 72.5375 44.8704 72.3628C44.9011 72.1911 44.9945 72.037 45.1322 71.9306C45.2699 71.8242 45.4421 71.7732 45.6152 71.7874H51.7971C52.731 71.7874 53.8024 71.632 54.7133 71.9082C55.0839 72.0585 55.4123 72.2975 55.67 72.6044C55.9276 72.9112 56.1066 73.2767 56.1915 73.669C56.6212 74.9818 56.9375 76.3295 57.1368 77.6969C57.1941 78.0536 57.2399 78.4161 57.2743 78.7787C57.2743 78.8995 57.2743 79.0261 57.3087 79.1527C57.3545 79.8029 57.3774 80.5509 57.3774 81.3047Z" fill="#253139"/>
<path d="M64.9458 88.9635C64.9348 89.0885 64.89 89.2082 64.8163 89.3096C64.7426 89.4109 64.6428 89.4902 64.5276 89.5389C63.5192 89.8324 62.5109 90.1143 61.5082 90.3963C61.4037 90.4242 61.2955 90.4358 61.1874 90.4308C61.0069 90.5099 60.8052 90.5261 60.6145 90.4768C57.0318 89.5562 53.4681 88.6317 49.9236 87.7033L48.8866 87.4329L47.3512 87.0359C47.141 86.6044 46.8054 86.2472 46.3886 86.0116C45.4376 85.4937 44.2115 85.7066 43.1917 85.8505H42.9683L39.5651 84.9759L38.2932 84.6421L37.3879 84.412L31.0857 82.7778L27.27 81.7881L25.2075 81.2587C24.0616 80.9595 22.8871 80.6487 21.7298 80.3438C20.5725 80.0388 19.1459 79.6188 18.4412 78.4622C18.1443 78.0266 17.9855 77.5112 17.9855 76.9834C17.9855 76.4556 18.1443 75.9401 18.4412 75.5045C18.4415 75.4128 18.4637 75.3226 18.5058 75.2412C18.548 75.1599 18.6089 75.0898 18.6834 75.0369C18.758 74.984 18.844 74.9497 18.9344 74.937C19.0249 74.9243 19.117 74.9334 19.2032 74.9636C20.4521 75.2053 21.6973 75.4528 22.9387 75.7059L24.4397 76.0109C25.9064 76.3101 27.3693 76.6189 28.8284 76.9373C32.9191 77.8235 36.9983 78.7614 41.0661 79.7511L43.1631 80.2632L45.7527 80.9077C48.0864 81.4984 50.4125 82.1065 52.731 82.7317L54.2034 83.123C54.226 83.2301 54.2547 83.3358 54.2893 83.4395C54.3982 83.8078 54.7534 84.6249 55.2748 84.4407C55.5784 84.3257 55.7331 83.8998 55.8477 83.5661L57.1769 83.9401C58.9415 84.435 60.7195 84.9337 62.5109 85.4362C62.6375 85.4824 62.7473 85.5659 62.826 85.6757C62.9047 85.7855 62.9486 85.9166 62.952 86.0519C62.9864 86.1152 63.015 86.1842 63.0494 86.2418C63.0838 86.2993 63.1239 86.3856 63.1583 86.4547C63.3302 86.7366 63.4791 86.9668 63.6395 87.1797C63.8 87.3926 63.9776 87.6055 64.1552 87.8069L64.3041 87.9565L64.3958 88.0543L64.6708 88.3018C64.7703 88.3783 64.848 88.4796 64.8963 88.5958C64.9445 88.7119 64.9616 88.8387 64.9458 88.9635Z" fill="#253139"/>
<path d="M97.7059 161.155H96.096L95.2652 159.763C94.1939 157.99 93.1339 156.212 92.0683 154.434C90.5042 151.828 88.9974 149.169 87.3474 146.614C86.6751 145.526 85.8315 144.554 84.8494 143.737C83.9929 143.093 83.1037 142.494 82.1853 141.942C80.6441 140.964 79.08 139.859 78.2091 138.231C78.078 137.982 77.965 137.724 77.8711 137.459C77.8345 137.366 77.8197 137.266 77.8276 137.166C77.8356 137.067 77.8661 136.97 77.9169 136.884H79.0628C79.2366 137.366 79.4798 137.82 79.7847 138.231C80.8389 139.652 82.5405 140.532 84.0014 141.493C84.9368 142.066 85.8087 142.737 86.6025 143.496C87.5424 144.492 88.3581 145.599 89.0318 146.793C90.636 149.447 92.2344 152.102 93.8272 154.756L96.8408 159.763C97.1444 160.24 97.4252 160.689 97.7059 161.155Z" fill="#253139"/>
<path d="M82.2827 161.391L80.5123 161.42C80.1514 160.954 79.7847 160.499 79.418 160.045C77.703 157.915 75.9155 155.852 74.0554 153.853C72.4436 152.119 70.7821 150.439 69.0709 148.812C68.2287 148.007 67.312 147.253 66.5214 146.39C65.9405 145.74 65.5447 144.945 65.3755 144.088C65.3297 143.864 65.2896 143.634 65.2552 143.392C65.2208 143.15 65.1865 142.817 65.1463 142.575C65.0243 141.756 64.8326 140.95 64.5734 140.164C64.3708 139.555 64.1355 138.958 63.8687 138.374C63.6625 137.926 63.439 137.477 63.1984 137.039C62.5839 135.931 61.9068 134.859 61.1702 133.829C60.8494 133.368 60.5114 132.908 60.1733 132.448L59.4457 131.469L57.154 128.391L55.8534 126.665C55.5521 126.212 55.217 125.783 54.8508 125.382C54.656 125.192 54.2779 124.806 53.9284 124.881C53.5789 124.956 53.5904 125.577 53.6018 125.859C53.6704 126.747 53.9118 127.613 54.3123 128.408C54.9826 129.829 55.8993 131.107 56.604 132.505C56.7587 132.81 56.9019 133.127 57.0279 133.443C57.0852 133.587 57.1425 133.737 57.1941 133.898C57.5787 134.93 57.6835 136.046 57.4977 137.131C57.3939 137.632 57.1718 138.099 56.8503 138.495C56.7123 138.663 56.5567 138.815 56.3863 138.95C56.2913 139.02 56.1801 139.063 56.0633 139.077C55.9465 139.091 55.8282 139.074 55.7198 139.028C55.6114 138.983 55.5166 138.909 55.4446 138.816C55.3727 138.723 55.326 138.612 55.3092 138.495C55.2884 138.38 55.3012 138.261 55.3459 138.153C55.3906 138.045 55.4654 137.952 55.5612 137.885C55.8169 137.691 56.0149 137.43 56.1342 137.131C56.3478 136.452 56.3618 135.724 56.1743 135.037C56.0819 134.644 55.9574 134.259 55.8019 133.886C55.6014 133.409 55.3665 132.948 55.1201 132.494C55.0456 132.367 54.9711 132.24 54.9024 132.114C53.8253 130.244 52.4846 128.379 52.3013 126.158C52.2211 125.14 52.4331 123.914 53.5445 123.557C54.656 123.201 55.6128 124.035 56.2488 124.806C57.0738 125.807 57.8129 126.901 58.592 127.942C59.3712 128.984 60.1504 130.031 60.9239 131.078C61.2562 131.521 61.5885 131.976 61.915 132.43C62.2416 132.885 62.5624 133.34 62.8718 133.811C63.5733 134.833 64.2105 135.898 64.7797 136.999C64.8943 137.218 64.9917 137.413 65.0833 137.615C65.175 137.816 65.3182 138.11 65.4214 138.363C65.6681 138.94 65.8805 139.532 66.0573 140.135C66.2159 140.681 66.3422 141.237 66.4354 141.798C66.5157 142.293 66.5844 142.794 66.6646 143.3L66.699 143.53C66.7511 144.105 66.9483 144.658 67.2719 145.136C67.5656 145.507 67.8937 145.85 68.2516 146.16C69.1626 146.988 70.0678 147.828 70.9501 148.68C72.7224 150.395 74.4412 152.163 76.1065 153.985C77.8826 155.938 79.588 157.948 81.2227 160.016L81.704 160.626L82.2827 161.391Z" fill="#253139"/>
<path d="M56.0769 137.575C53.2752 137.436 50.9606 135.595 48.921 133.84L48.6918 133.639C46.8763 132.102 45.2389 130.365 43.8105 128.46C43.087 127.454 42.4415 126.394 41.8797 125.289C41.5417 124.651 40.5619 123.172 39.7541 124.093C39.6924 124.161 39.6386 124.236 39.5937 124.317C39.101 125.18 39.7312 126.389 40.0921 127.194C40.599 128.314 41.173 129.401 41.8109 130.451C43.1136 132.562 44.6513 134.518 46.3944 136.28C46.9329 136.855 45.9933 137.782 45.4376 137.252C43.2852 135.146 41.4462 132.739 39.9776 130.106C39.2822 128.94 38.7063 127.706 38.2588 126.423C38.0403 125.887 37.9666 125.302 38.0451 124.729C38.1235 124.155 38.3514 123.612 38.7057 123.155C38.7782 123.072 38.8567 122.995 38.9406 122.924C39.2258 122.672 39.5782 122.508 39.9546 122.453C40.4065 122.416 40.8606 122.49 41.2777 122.668C41.6948 122.847 42.0626 123.124 42.3495 123.477C42.7589 124.01 43.1049 124.589 43.3808 125.203C43.6844 125.777 44.0211 126.332 44.3891 126.866C45.8827 129.012 47.6554 130.947 49.6601 132.62C51.5393 134.249 53.6706 136.073 56.2373 136.182C57.1482 136.217 56.9592 137.626 56.0769 137.575Z" fill="#253139"/>
<path d="M44.0969 140.279C42.275 139.531 40.8714 137.77 40.0864 135.998C39.7577 135.231 39.5211 134.427 39.3817 133.604C39.3015 133.144 39.25 132.678 39.2156 132.212C39.1542 131.194 39.1849 130.174 39.3073 129.162C39.3377 128.99 39.432 128.837 39.5711 128.733C39.7102 128.629 39.8836 128.582 40.056 128.602C40.2284 128.621 40.3867 128.707 40.4988 128.839C40.6109 128.972 40.6683 129.143 40.6594 129.317C40.5534 130.298 40.5361 131.286 40.6078 132.269C40.6433 132.739 40.7103 133.206 40.8083 133.668C40.9274 134.26 41.1059 134.838 41.3412 135.394C41.6763 136.189 42.1388 136.924 42.7105 137.569C43.2955 138.185 43.9791 138.698 44.7329 139.088C45.4433 139.473 44.7902 140.561 44.0969 140.279Z" fill="#253139"/>
<path d="M42.7105 142.834C41.1166 141.955 39.9116 140.504 39.3359 138.771C39.1821 138.337 39.0727 137.888 39.0093 137.431C38.8315 136.307 38.9258 135.156 39.2843 134.076C39.5593 133.247 40.8083 133.748 40.539 134.577C40.2496 135.492 40.1944 136.465 40.3786 137.408C40.4712 137.869 40.6133 138.318 40.8026 138.748C41.3388 139.953 42.2361 140.959 43.3693 141.625C44.0396 142.028 43.3808 143.202 42.7105 142.834Z" fill="#253139"/>
<path d="M61.5426 161.713L59.8238 161.742C59.715 161.569 59.5947 161.391 59.4743 161.218C59.2795 160.931 59.079 160.643 58.9014 160.367C56.2373 156.621 53.006 153.203 48.772 151.045C46.2569 149.768 43.5011 148.743 41.3239 146.954C39.4104 145.343 37.9895 143.191 38.0411 140.688C38.0727 140.506 38.1718 140.344 38.3182 140.233C38.4646 140.123 38.6475 140.072 38.8296 140.092C39.0118 140.112 39.1797 140.2 39.2992 140.34C39.4188 140.479 39.481 140.659 39.4734 140.843C39.4734 143.519 41.6505 145.676 43.862 147.023C46.2454 148.484 48.9439 149.405 51.3101 150.884C53.4005 152.202 55.3012 153.801 56.9592 155.637C58.3114 157.117 59.5541 158.694 60.6775 160.355C60.9697 160.816 61.2676 161.253 61.5426 161.713Z" fill="#253139"/>
<path d="M88.2125 132.735L87.3244 133.196L86.952 133.386C84.6603 134.559 82.3686 135.71 80.0769 136.838L79.9909 136.878L78.6274 137.54L77.1206 138.259C75.4591 139.053 73.7804 139.83 72.1017 140.601C70.2397 141.459 68.3777 142.327 66.6016 143.323C66.5214 142.817 66.4526 142.316 66.3724 141.821C68.2975 140.734 70.3485 139.847 72.3481 138.944L73.7116 138.311L75.82 137.327L76.6508 136.93C79.1182 135.752 81.576 134.546 84.0244 133.311C84.9124 132.856 85.8062 132.407 86.6885 131.947L86.9348 131.82L88.0005 131.245C88.0005 131.458 88.0291 131.613 88.0521 131.774C88.1036 132.091 88.1495 132.413 88.2125 132.735Z" fill="#253139"/>
<path d="M114.075 160.913H112.356C112.001 160.447 111.657 159.981 111.307 159.509C110.081 157.856 108.868 156.199 107.669 154.538C104.419 150.042 101.266 145.477 98.2101 140.843C97.6372 139.945 97.0241 139.042 96.4913 138.104C96.371 137.891 96.2564 137.684 96.1418 137.465C96.0272 137.247 95.9012 136.999 95.7923 136.757C95.3408 135.761 94.971 134.73 94.6866 133.673C94.6293 133.466 94.572 133.259 94.5204 133.052C94.3944 132.58 94.2798 132.108 94.1652 131.636C94.022 131.026 93.8788 130.416 93.7412 129.806C93.6324 129.329 93.5293 128.846 93.4261 128.362L92.8074 125.485C92.4865 124.081 92.1714 122.683 91.862 121.279C91.7074 120.606 91.5584 119.932 91.4037 119.259C91.3294 118.724 91.1544 118.209 90.8881 117.74C90.7105 117.487 90.2808 117.165 89.9485 117.337C89.6162 117.51 89.599 118.488 89.5417 118.828C89.3297 120.249 89.1234 121.664 88.9115 123.086C88.6995 124.507 88.4932 125.853 88.2927 127.24C88.0667 128.553 87.9802 129.885 88.0349 131.216C88.0349 131.429 88.0635 131.584 88.0864 131.746C88.1208 132.068 88.1667 132.39 88.2297 132.712C88.2297 132.862 88.287 133.006 88.3213 133.15C88.61 134.425 89.0973 135.646 89.7651 136.769C90.0016 137.168 90.2618 137.552 90.5443 137.92C90.5873 137.971 90.6204 138.029 90.6417 138.092C90.6827 138.239 90.6738 138.395 90.6165 138.536C90.5591 138.677 90.4566 138.795 90.3251 138.871C90.1936 138.947 90.0407 138.977 89.8905 138.956C89.7403 138.934 89.6014 138.864 89.4958 138.754C89.3354 138.541 89.1807 138.328 89.0375 138.104C88.8198 137.787 88.6135 137.465 88.4245 137.131C88.3557 137.005 88.287 136.884 88.2239 136.757C87.6544 135.684 87.2378 134.535 86.9864 133.345L86.9463 133.167C86.8567 132.741 86.7898 132.311 86.7458 131.878C86.743 131.838 86.743 131.797 86.7458 131.757C86.6723 131.042 86.6531 130.323 86.6885 129.605C86.7572 128.155 87.0093 126.728 87.2213 125.278L87.8745 120.859L88.201 118.649C88.2379 118.003 88.3912 117.37 88.6536 116.779C89.2953 115.628 90.8308 115.663 91.7131 116.514C92.5954 117.366 92.7902 118.885 93.0595 120.088L94.022 124.369C94.2626 125.451 94.4994 126.536 94.7324 127.626C94.8355 128.103 94.9444 128.587 95.0475 129.064C95.2366 129.904 95.4257 130.733 95.6205 131.567C95.7293 132.039 95.8496 132.505 95.9699 132.971C96.3008 134.262 96.7675 135.514 97.3622 136.706C97.3908 136.763 97.4195 136.821 97.4538 136.878C97.6601 137.275 97.8835 137.661 98.1184 138.029C98.5997 138.829 99.1211 139.612 99.6424 140.388C102.851 145.222 106.159 149.986 109.566 154.682C110.711 156.277 111.878 157.864 113.066 159.44L114.075 160.913Z" fill="#253139"/>
<path d="M115.604 83.3244C115.565 83.4804 115.466 83.6147 115.329 83.6984C114.987 83.9246 114.627 84.1209 114.252 84.2854C111.387 85.5801 107.881 84.9471 105.383 83.0137C102.782 81.0113 101.275 77.95 100.513 74.814C100.098 72.9892 99.8451 71.131 99.757 69.2613C99.6424 67.4027 99.5794 65.5383 99.6138 63.674C99.5997 60.957 100.033 58.2563 100.897 55.6815H102.415C102.064 56.5733 101.788 57.4934 101.59 58.432C101.482 58.9211 101.396 59.4159 101.321 59.9165C101.106 61.5279 101.01 63.1532 101.035 64.7788C101.035 66.505 101.121 68.2313 101.252 69.9575C101.352 71.6853 101.613 73.3999 102.032 75.0787C102.788 77.835 104.254 80.5222 106.644 82.1621C108.884 83.71 112.104 84.1127 114.441 82.5361C114.567 82.457 114.713 82.4163 114.862 82.4189C115.01 82.4215 115.155 82.4673 115.278 82.5507C115.401 82.6341 115.497 82.7516 115.555 82.889C115.613 83.0263 115.63 83.1776 115.604 83.3244Z" fill="#253139"/>
<path d="M115.312 90.8279C115.305 90.919 115.277 91.0075 115.232 91.0868C115.161 91.2117 115.056 91.3134 114.929 91.3797C114.802 91.446 114.658 91.4742 114.516 91.4608C112.726 91.3429 110.931 91.3429 109.142 91.4608C108.781 91.4608 108.42 91.4263 108.064 91.4205C105.58 91.3209 103.091 91.394 100.616 91.6392C101.096 91.4197 101.592 91.2388 102.1 91.0983C104.123 90.5424 106.196 90.1859 108.288 90.0338C108.391 90.0338 108.494 90.0338 108.597 90.0338C110.386 89.8957 112.183 89.8957 113.971 90.0338C114.162 88.1237 114.256 86.2051 114.252 84.2854C114.252 83.9632 114.252 83.6524 114.252 83.3302C114.252 82.5304 115.581 82.5304 115.633 83.3014C115.748 85.8148 115.641 88.3336 115.312 90.8279Z" fill="#253139"/>
<path d="M133.159 65.6707C133.046 64.7574 132.67 63.8973 132.076 63.1964C130.856 61.942 128.868 61.9305 127.361 62.621C126.501 63.0158 125.751 63.6161 125.175 64.3694C124.6 65.1227 124.217 66.0061 124.061 66.9424C123.923 67.8112 125.252 67.9551 125.407 67.0977C125.527 66.4885 125.772 65.9111 126.128 65.4027C126.483 64.8944 126.94 64.4663 127.47 64.1458C128.455 63.5704 129.945 63.277 130.907 64.0595C131.38 64.5341 131.676 65.1581 131.744 65.8261C131.872 66.5145 131.901 67.218 131.83 67.9148C131.709 69.2882 131.099 70.5716 130.111 71.5284C129.565 72.0318 128.918 72.411 128.213 72.6404C127.508 72.8698 126.762 72.9439 126.026 72.8576C125.843 72.837 125.659 72.8903 125.515 73.0058C125.371 73.1213 125.279 73.2894 125.258 73.4733C125.238 73.6572 125.291 73.8418 125.406 73.9864C125.521 74.131 125.688 74.2238 125.871 74.2444C126.724 74.3791 127.596 74.3292 128.428 74.098C129.26 73.8668 130.033 73.4596 130.695 72.9037C132.059 71.7699 132.952 70.165 133.199 68.4039C133.336 67.4969 133.323 66.5732 133.159 65.6707Z" fill="#253139"/>
<path d="M130.071 69.3879C129.338 69.1913 128.588 69.0717 127.831 69.0311C127.607 69.0311 127.378 69.0024 127.154 68.9966L129.2 66.5511C129.306 66.4045 129.351 66.222 129.325 66.0426C129.3 65.8631 129.205 65.7008 129.062 65.5901C128.916 65.4849 128.735 65.4406 128.556 65.4663C128.378 65.492 128.217 65.5859 128.106 65.7282L125.138 69.2843C125.059 69.3936 125.013 69.5239 125.007 69.6589C125.001 69.7939 125.034 69.9278 125.103 70.0439C125.173 70.161 125.275 70.2554 125.397 70.3156C125.519 70.3759 125.656 70.3994 125.791 70.3833C126.441 70.3404 127.094 70.3404 127.745 70.3833C128.432 70.4409 129.097 70.5847 129.773 70.6768C129.936 70.6944 130.1 70.6522 130.235 70.5582C130.369 70.4641 130.466 70.3244 130.506 70.1647C130.54 70.0042 130.515 69.8366 130.435 69.6935C130.355 69.5505 130.225 69.4418 130.071 69.3879Z" fill="#253139"/>
<path d="M127.143 78.8132C126.813 80.212 126.282 81.5553 125.567 82.8008C124.886 84.0034 124.032 85.1025 123.373 86.3166C122.405 88.0831 121.694 90.9199 123.591 92.3584C123.674 92.4241 123.742 92.508 123.788 92.6037C123.834 92.6994 123.858 92.8044 123.858 92.9108C123.858 93.0173 123.834 93.1223 123.788 93.218C123.742 93.3137 123.674 93.3976 123.591 93.4632C122.139 94.7451 121.051 96.3912 120.44 98.2334C120.272 98.734 120.138 99.2454 120.039 99.764H118.652C118.741 99.2469 118.862 98.7357 119.013 98.2334C119.614 96.2249 120.703 94.3979 122.181 92.9166C121.482 92.1021 121.078 91.0738 121.036 89.9992C120.881 87.1222 122.686 84.8723 124.124 82.5188C125.65 80.0542 126.34 77.1589 126.089 74.2674C126.092 74.2406 126.092 74.2136 126.089 74.1868C126.009 73.3122 127.355 73.1051 127.447 73.9912C127.447 74.089 127.447 74.1811 127.447 74.2789C127.587 75.7969 127.485 77.3277 127.143 78.8132Z" fill="#253139"/>
<path d="M125.791 65.124C125.783 65.2403 125.747 65.353 125.687 65.453C125.628 65.553 125.545 65.6374 125.447 65.6995C125.361 65.7486 125.265 65.7781 125.166 65.7861C125.067 65.794 124.967 65.7802 124.874 65.7455C124.611 65.6477 124.353 65.5499 124.095 65.4405C122.555 64.8004 121.065 64.0444 119.638 63.1791C117.503 61.9211 115.551 60.3719 113.84 58.5758C113.404 58.1212 112.997 57.6552 112.602 57.1718C112.121 56.5964 111.674 55.9577 111.256 55.3247L112.974 55.2902C114.094 56.8744 115.415 58.3041 116.905 59.5425C119.311 61.4317 121.963 62.9805 124.788 64.1458L125.361 64.399C125.504 64.4526 125.625 64.5537 125.703 64.6855C125.781 64.8174 125.812 64.9721 125.791 65.124Z" fill="#253139"/>
<path d="M104.868 62.8972C104.745 62.7456 104.58 62.635 104.394 62.5805C104.207 62.526 104.009 62.5301 103.825 62.5922C103.705 62.6222 103.597 62.6849 103.511 62.7733C103.425 62.8617 103.365 62.9723 103.338 63.0928C103.321 63.1314 103.31 63.1721 103.303 63.2137C103.233 63.8928 103.365 64.5776 103.682 65.1816C103.778 65.311 103.908 65.4115 104.058 65.4723C104.207 65.5332 104.37 65.552 104.53 65.5268C104.66 65.5113 104.786 65.4723 104.902 65.4118C104.978 65.3734 105.045 65.3184 105.098 65.2507C105.15 65.183 105.187 65.1043 105.206 65.0205C105.319 64.6647 105.347 64.2872 105.289 63.9184C105.23 63.5495 105.086 63.1997 104.868 62.8972Z" fill="#253139"/>
<path d="M115.18 62.4887C115.114 62.0306 114.914 61.6024 114.607 61.2573C114.486 61.1404 114.332 61.0635 114.167 61.0367C114.001 61.01 113.831 61.0347 113.679 61.1077C113.551 61.1625 113.448 61.2623 113.387 61.3883C113.327 61.5143 113.315 61.6579 113.353 61.7924C113.207 62.042 113.13 62.326 113.13 62.6152C113.13 62.9045 113.207 63.1885 113.353 63.4381C113.5 63.6819 113.695 63.8933 113.926 64.0595C114.018 64.1171 114.121 64.155 114.228 64.1709C114.336 64.1867 114.445 64.1802 114.55 64.1516C114.652 64.1347 114.748 64.0941 114.832 64.0332C114.915 63.9723 114.984 63.8926 115.031 63.8006C115.194 63.3838 115.245 62.9315 115.18 62.4887Z" fill="#253139"/>
<path d="M104.69 59.2721C104.124 58.8255 103.449 58.5401 102.735 58.446C102.021 58.3518 101.295 58.4523 100.634 58.737C99.8487 59.111 100.37 60.3539 101.161 59.9856C102.352 59.4102 103.647 60.0201 104.472 60.9408C105.327 61.9173 105.896 63.1122 106.117 64.3933C106.523 66.7582 105.515 69.3188 103.189 70.2337C103.091 70.2765 103.004 70.3409 102.935 70.4223C102.866 70.5036 102.815 70.5997 102.788 70.7033C102.761 70.8069 102.758 70.9153 102.779 71.0204C102.8 71.1254 102.844 71.2244 102.908 71.3098L104.255 72.6735C104.371 72.8157 104.537 72.9079 104.719 72.9314C104.901 72.955 105.085 72.908 105.234 72.8001C105.379 72.6836 105.473 72.5148 105.495 72.3298C105.518 72.1449 105.467 71.9585 105.355 71.8104L104.627 71.0739C105.474 70.5306 106.183 69.7961 106.697 68.9289C107.211 68.0618 107.517 67.086 107.589 66.0792C107.772 63.6222 106.707 60.7682 104.69 59.2721Z" fill="#253139"/>
<path d="M113.903 72.2362C111.279 73.0034 108.643 73.7265 105.996 74.4055C105.844 74.3826 105.689 74.4098 105.554 74.4829C105.419 74.5561 105.311 74.6713 105.246 74.8114C105.182 74.9514 105.164 75.1086 105.196 75.2595C105.228 75.4104 105.308 75.5469 105.423 75.6484C107.085 77.0352 109.25 78.4564 111.491 77.5991C113.376 76.874 113.977 74.7565 114.831 73.1223C115.123 72.5297 114.401 72.0923 113.903 72.2362ZM111.038 76.2641C109.76 76.8395 108.494 76.2008 107.394 75.4297C109.239 74.9464 111.078 74.4439 112.911 73.9222C112.533 74.8946 111.995 75.8671 111.061 76.2756L111.038 76.2641Z" fill="#253139"/>
<path d="M114.487 57.6321C114.087 57.5023 113.67 57.4344 113.249 57.4308C112.611 57.4286 111.978 57.5605 111.393 57.8181C110.808 58.0758 110.283 58.4534 109.852 58.9268C109.796 58.9978 109.755 59.0797 109.733 59.1674C109.71 59.2551 109.706 59.3465 109.72 59.4359C109.735 59.5253 109.768 59.6106 109.817 59.6865C109.867 59.7623 109.931 59.8269 110.007 59.8763C110.169 59.9809 110.362 60.0245 110.553 59.9992C110.744 59.9739 110.92 59.8814 111.049 59.7382L111.204 59.5655C111.204 59.5655 111.256 59.5195 111.279 59.508C111.397 59.4031 111.526 59.3106 111.662 59.2318L111.748 59.1743L111.96 59.0764C112.11 59.0123 112.263 58.9566 112.419 58.9096L112.734 58.8463L112.98 58.8175H113.33H113.57L113.811 58.852L113.966 58.8808C114.14 58.9413 114.33 58.9413 114.504 58.8808C114.541 58.8694 114.576 58.8519 114.607 58.829C114.741 58.76 114.847 58.6459 114.905 58.5068C114.938 58.422 114.952 58.3314 114.949 58.2406C114.945 58.1499 114.923 58.0608 114.884 57.979C114.845 57.8971 114.789 57.8241 114.721 57.7645C114.653 57.7048 114.573 57.6598 114.487 57.6321Z" fill="#253139"/>
<path d="M125.247 159.256C125.247 160.171 124.485 160.493 123.854 160.649C123.187 160.769 122.509 160.817 121.832 160.793L119.408 160.816L114.453 160.896H114.08H112.361L104.535 161.011L97.7174 161.115H96.1074L84.6947 161.287L82.2941 161.322L80.5238 161.351L64.8542 161.598L61.577 161.644L59.9442 161.673L45.0996 161.966L35.1879 162.128C33.6696 162.128 32.1342 162.237 30.6045 162.128C29.3036 162.121 28.0411 161.684 27.0122 160.885C26.3648 160.309 27.1554 159.245 27.82 159.803C28.9143 160.729 30.3925 160.781 31.756 160.775C33.5321 160.775 35.3082 160.718 37.0786 160.689L47.9642 160.516L59.0275 160.344L60.6832 160.315L79.4066 160.021H81.1998L86.677 159.935L95.271 159.797L96.8752 159.768L105.968 159.624L111.307 159.538L113.026 159.509L115.69 159.463L120.554 159.389C121.328 159.389 122.107 159.389 122.846 159.337C123.327 159.302 123.992 159.199 123.992 158.307C124.138 158.238 124.3 158.21 124.461 158.227C124.622 158.243 124.775 158.304 124.904 158.401C125.033 158.499 125.134 158.63 125.194 158.781C125.254 158.932 125.272 159.096 125.247 159.256Z" fill="#EF5026"/>
<path d="M125.711 135.906C125.711 136.119 125.682 136.309 125.671 136.481L125.636 137.258C125.468 140.78 125.354 144.305 125.292 147.834C125.252 149.756 125.235 151.678 125.229 153.588C125.224 155.499 125.298 157.438 125.229 159.343C125.204 159.506 125.12 159.655 124.995 159.763C124.869 159.87 124.71 159.929 124.545 159.929C124.38 159.929 124.22 159.87 124.095 159.763C123.969 159.655 123.886 159.506 123.86 159.343C123.746 157.288 123.809 155.211 123.82 153.151C123.82 149.53 123.889 145.91 124.026 142.293C124.084 140.607 124.152 138.91 124.233 137.224V136.873C124.233 136.539 124.273 136.205 124.296 135.866C124.335 135.427 124.348 134.988 124.336 134.548C124.336 134.128 124.284 133.558 123.826 133.426C123.737 133.397 123.655 133.351 123.585 133.289C123.515 133.227 123.458 133.152 123.418 133.067C123.378 132.982 123.356 132.891 123.353 132.797C123.35 132.703 123.366 132.61 123.4 132.523C123.434 132.436 123.486 132.357 123.551 132.29C123.617 132.224 123.696 132.172 123.782 132.138C123.869 132.103 123.962 132.087 124.055 132.089C124.148 132.092 124.24 132.114 124.324 132.154C125.871 132.62 125.791 134.531 125.711 135.906Z" fill="#EF5026"/>
<path d="M137.948 78.7614C137.868 84.9068 137.731 91.0638 137.376 97.2034C137.379 97.3196 137.351 97.4346 137.295 97.536C137.238 97.6374 137.155 97.7213 137.055 97.7789C136.936 97.8352 136.804 97.8594 136.673 97.849C136.542 97.8386 136.415 97.794 136.307 97.7197C136.198 97.6453 136.11 97.5437 136.053 97.4249C135.995 97.3061 135.969 97.1742 135.978 97.0423C136.109 93.5611 136.258 90.1373 136.356 86.6849C136.52 80.597 136.589 74.5072 136.562 68.4154C136.539 64.3415 136.474 60.2676 136.367 56.1936C136.367 55.716 136.339 55.2327 136.327 54.7608C136.324 54.7341 136.324 54.707 136.327 54.6803C136.327 54.2027 136.327 53.7251 136.281 53.2475C136.281 52.4016 136.23 51.5615 136.195 50.7157L126.198 50.825L110.815 50.9631H109.325H107.406H105.446H103.521C98.6016 51.013 93.682 51.0609 88.7625 51.1069H88.5505C88.1724 51.1069 87.9031 50.6581 87.9432 50.2956C87.9373 50.2633 87.9373 50.2301 87.9432 50.1978C87.9853 50.0343 88.0825 49.8904 88.2183 49.7908C88.3541 49.6911 88.5201 49.6418 88.688 49.6511L99.3559 49.6051L105.085 49.5418L107.537 49.513H108.981H110.425L118.102 49.3922L136.963 49.1851C137.122 49.2081 137.269 49.2832 137.381 49.3987C137.492 49.5142 137.563 49.6637 137.582 49.8238C137.622 50.9343 137.662 52.0391 137.691 53.1439L137.742 54.5767V54.6573C137.742 55.1349 137.771 55.6124 137.782 56.09C137.828 57.4883 137.863 58.8923 137.885 60.2906C138.008 66.4475 138.029 72.6045 137.948 78.7614Z" fill="#253139"/>
<path d="M137.066 97.5199C137.072 97.5965 137.072 97.6735 137.066 97.7501C137.009 99.1138 135.771 99.7525 134.585 99.9021C133.769 99.9597 132.95 99.9597 132.133 99.9021L129.383 99.8676L120.05 99.7353H118.664L109.497 99.6029L96.6746 99.413H95.0991L89.5073 99.3325C89.3454 99.3094 89.1958 99.233 89.0817 99.1154C88.9677 98.9977 88.8957 98.8454 88.8771 98.6823C88.8771 97.5947 88.814 96.5072 88.7797 95.4197C88.7797 94.8903 88.7453 94.3609 88.7338 93.8315C88.6708 91.9557 88.6135 90.0856 88.5562 88.2097C88.3729 82.0298 88.1819 75.8479 87.9833 69.6641C87.8573 65.4751 87.7197 61.286 87.5994 57.097C87.5994 56.5964 87.5994 56.1016 87.5536 55.6067L87.4333 51.1127C87.4115 50.9288 87.4578 50.7433 87.5635 50.5915C87.6692 50.4398 87.8267 50.3324 88.0062 50.2899C88.19 50.2705 88.3739 50.325 88.5178 50.4415C88.6616 50.5579 88.7537 50.7268 88.7739 50.9113C88.7739 51.0091 88.7739 51.1127 88.7739 51.2105C88.814 52.2002 88.8427 53.19 88.8771 54.1854C88.8771 54.663 88.8771 55.1464 88.9229 55.624C88.9687 56.1016 88.9573 56.6482 88.9687 57.1258C89.0146 58.5471 89.0604 59.9626 89.1005 61.3839C89.2953 67.5677 89.4863 73.7495 89.6734 79.9295C89.8109 84.3142 89.9465 88.6988 90.0802 93.0835L90.1318 94.6486C90.1318 95.7131 90.1948 96.7776 90.2292 97.8422L95.5402 97.9112H97.1387L100.37 97.9572L119.007 98.2162H119.408H120.474C123.339 98.2622 126.152 98.2967 128.988 98.337L133.737 98.4061C134.191 98.4302 134.646 98.3697 135.078 98.2277C135.275 98.1664 135.456 98.0601 135.605 97.917C135.649 97.8676 135.673 97.8044 135.674 97.7386C135.664 97.593 135.689 97.4471 135.748 97.3136C135.807 97.1802 135.898 97.0633 136.012 96.9733C136.095 96.9255 136.187 96.8924 136.281 96.8755C136.375 96.8659 136.47 96.875 136.56 96.9023C136.65 96.9295 136.734 96.9743 136.807 97.0342C136.88 97.0941 136.94 97.1678 136.985 97.2511C137.029 97.3345 137.057 97.4258 137.066 97.5199Z" fill="#253139"/>
<path d="M137.828 54.9968L136.545 55.0601H136.424C128.736 55.4437 121.041 55.7179 113.341 55.8829L111.651 55.9174H111.428C108.448 55.975 105.458 56.0152 102.473 56.0325H100.949C97.0184 56.0555 93.0843 56.0421 89.1464 55.9922H89.0432H87.7713C87.7713 55.4974 87.7713 54.9968 87.7312 54.5019H88.9917H89.1234C92.561 54.5288 95.9986 54.5422 99.4362 54.5422H101.59C102.123 54.5422 102.65 54.5422 103.183 54.5422C105.712 54.5422 108.24 54.5115 110.769 54.4501H112.384C117.216 54.358 122.044 54.218 126.868 54.0301C130.042 53.9073 133.212 53.7673 136.379 53.61H136.51L137.782 53.541C137.782 54.0185 137.817 54.4961 137.828 54.9737C137.822 54.9392 137.828 54.968 137.828 54.9968Z" fill="#253139"/>
<path d="M97.8377 82.9965C96.7949 84.1473 95.7637 85.2981 94.7267 86.4777C93.7556 87.4573 92.9106 88.5554 92.2115 89.7461C91.7789 90.6076 91.4831 91.5317 91.3349 92.485C91.2412 93.0293 91.1819 93.579 91.1573 94.1307C90.8193 94.2861 90.4813 94.453 90.1547 94.6256C90.0172 94.6946 89.8797 94.7694 89.7422 94.85C89.7422 94.2746 89.7766 93.7452 89.8339 93.1986C89.9367 91.8673 90.2824 90.5663 90.8537 89.3605C91.5455 88.1016 92.4009 86.9406 93.3975 85.9081C94.4135 84.7572 95.4314 83.6237 96.4512 82.5073C95.4955 80.7845 94.7272 78.9634 94.1595 77.0754C92.011 69.9115 92.5553 61.85 96.0559 55.2097C96.1248 55.048 96.2535 54.9194 96.4148 54.8511C96.5762 54.7828 96.7577 54.7801 96.921 54.8435C97.0844 54.9069 97.2169 55.0314 97.2906 55.191C97.3643 55.3505 97.3736 55.5325 97.3163 55.6988C95.1999 59.8391 94.1474 64.445 94.2544 69.0978C94.3615 73.7506 95.6247 78.3028 97.9293 82.3405C97.9717 82.4485 97.9855 82.5656 97.9694 82.6806C97.9533 82.7955 97.908 82.9043 97.8377 82.9965Z" fill="#253139"/>
<path d="M111.995 54.6745C111.995 54.9277 113.261 58.3227 117.724 61.0386C122.187 63.7546 125.069 65.3657 125.069 65.3657C125.069 65.3657 131.474 58.6621 132.672 66.9769C133.623 73.4273 126.857 73.6805 126.857 73.6805C126.857 73.6805 126.69 79.1066 124.828 82.3117C122.966 85.5168 120.858 87.3984 121.62 89.9475C121.896 91.0227 122.264 92.072 122.72 93.0835C121.795 93.8486 121.054 94.8146 120.554 95.9088C120.256 96.7153 119.872 97.4871 119.408 98.2104C119.408 98.2104 131.194 99.4591 133.222 99.1196C135.25 98.7801 136.43 100.898 136.768 94.9593C137.106 89.021 136.596 53.8287 136.596 53.8287L111.995 54.6745Z" fill="#253139"/>
<path d="M115.232 91.0868C115.161 91.2116 115.056 91.3133 114.929 91.3797C114.802 91.446 114.658 91.4742 114.516 91.4608C112.726 91.3429 110.931 91.3429 109.142 91.4608C108.781 91.4608 108.42 91.4263 108.064 91.4205C105.58 91.3209 103.091 91.394 100.616 91.6392C99.5355 91.7543 98.4603 91.9173 97.3908 92.1283C95.2403 92.5555 93.1479 93.2373 91.1573 94.1595C90.8193 94.3149 90.4813 94.4817 90.1547 94.6543C90.0172 94.7234 89.8797 94.7982 89.7422 94.8788C89.7422 94.3033 89.7766 93.774 89.8339 93.2273C89.9206 93.1756 90.0106 93.1295 90.1031 93.0892C90.5099 92.8821 90.9167 92.6922 91.3349 92.5138C91.7532 92.3354 92.1313 92.1801 92.5323 92.0305C97.6887 90.1201 103.149 89.8209 108.574 90.0165C110.597 90.0798 112.619 90.2237 114.619 90.3733C114.707 90.375 114.794 90.3954 114.875 90.4332C114.955 90.4709 115.026 90.5253 115.084 90.5926C115.142 90.6599 115.185 90.7387 115.21 90.8239C115.236 90.909 115.243 90.9986 115.232 91.0868Z" fill="#253139"/>
<path d="M124.061 94.7291C123.942 94.5845 123.772 94.4909 123.587 94.4674C123.402 94.4439 123.215 94.4922 123.064 94.6025C121.053 95.7937 118.543 95.6268 116.32 95.3333C113.845 95.0111 111.238 94.6371 109.021 93.4114C107.917 92.8117 106.973 91.9554 106.265 90.9141C105.773 90.1719 104.719 91.0235 105.183 91.76C106.598 93.9984 109.079 95.2643 111.565 95.9087C112.964 96.2537 114.382 96.5188 115.81 96.7028C117.118 96.9078 118.441 96.9868 119.764 96.9387C121.232 96.8856 122.664 96.4706 123.935 95.7304C124.008 95.6729 124.07 95.6015 124.116 95.5201C124.163 95.4387 124.192 95.3489 124.204 95.256C124.216 95.163 124.209 95.0686 124.185 94.9782C124.16 94.8878 124.118 94.8032 124.061 94.7291Z" fill="#253139"/>
<path d="M89.9485 93.6186C89.9485 93.6186 94.6808 90.6495 102.284 90.5632C109.886 90.4768 114.527 90.73 114.527 90.73L114.951 83.5201C114.951 83.5201 104.564 86.8287 101.075 75.9706C97.5856 65.1125 102.284 54.9392 102.284 54.9392H96.4512C96.4512 54.9392 92.0626 63.5704 93.7527 71.4824C95.4428 79.3943 97.1273 82.7663 97.1273 82.7663C97.1273 82.7663 92.6527 87.3696 91.4667 89.723C90.8843 90.7831 90.4248 91.9067 90.0974 93.072L89.9485 93.6186Z" fill="#253139"/>
<path d="M91.862 52.8389C91.8401 52.666 91.7707 52.5026 91.6615 52.3671L91.4724 52.1772C91.3306 52.0741 91.165 52.0088 90.9912 51.9873C90.8638 51.9687 90.7337 51.9825 90.613 52.0276C90.4864 52.0501 90.3678 52.1057 90.2693 52.1887C90.1585 52.2671 90.0713 52.3746 90.0172 52.4994C89.9433 52.6087 89.8998 52.7359 89.8912 52.8677C89.8912 52.954 89.8912 53.0346 89.8912 53.1209C89.9146 53.2924 89.9817 53.4549 90.086 53.5927L90.275 53.7769C90.4178 53.8831 90.5856 53.9505 90.762 53.9725C90.8875 53.9909 91.0157 53.977 91.1344 53.9322C91.2625 53.9087 91.3826 53.8533 91.4839 53.7711C91.592 53.6898 91.6785 53.5831 91.736 53.4604C91.8099 53.3511 91.8534 53.224 91.862 53.0921C91.862 53.0058 91.862 52.9195 91.862 52.8389Z" fill="#253139"/>
<path d="M95.3454 52.7239C95.322 52.5524 95.2549 52.3899 95.1507 52.252L94.9788 52.0621C94.8359 51.9559 94.6682 51.8885 94.4918 51.8665C94.3644 51.8479 94.2343 51.8617 94.1137 51.9068C93.987 51.9293 93.8684 51.9848 93.7699 52.0679C93.6602 52.1475 93.5733 52.2547 93.5178 52.3786C93.4439 52.4879 93.4004 52.615 93.3918 52.7469C93.3918 52.8332 93.3918 52.9195 93.3918 53.0001C93.4142 53.1718 93.4814 53.3346 93.5865 53.4719L93.7814 53.6618C93.9219 53.7672 94.0882 53.8328 94.2626 53.8517C94.3895 53.8721 94.5196 53.8603 94.6407 53.8171C94.767 53.7901 94.885 53.7329 94.9845 53.6503C95.0953 53.5719 95.1825 53.4644 95.2366 53.3396C95.3105 53.2303 95.354 53.1031 95.3626 52.9713L95.3454 52.7239Z" fill="#253139"/>
<path d="M120.05 134.876C120.033 134.716 119.976 134.564 119.884 134.433L119.718 134.249C119.59 134.145 119.438 134.076 119.277 134.047C119.162 134.016 119.042 134.016 118.927 134.047C118.808 134.064 118.696 134.111 118.601 134.185C118.494 134.252 118.409 134.348 118.354 134.462C118.279 134.558 118.233 134.674 118.223 134.795C118.223 134.876 118.223 134.951 118.223 135.031C118.24 135.191 118.297 135.343 118.389 135.474L118.555 135.658C118.682 135.762 118.834 135.83 118.996 135.854C119.111 135.883 119.231 135.883 119.345 135.854C119.464 135.837 119.577 135.79 119.672 135.716C119.778 135.649 119.864 135.553 119.918 135.44C119.993 135.344 120.039 135.228 120.05 135.106C120.044 135.031 120.044 134.956 120.05 134.876Z" fill="#EF5026"/>
<path d="M123.144 134.922C123.13 134.779 123.079 134.642 122.995 134.525C122.943 134.467 122.892 134.416 122.846 134.358C122.731 134.266 122.595 134.205 122.451 134.18C122.348 134.15 122.239 134.15 122.136 134.18C122.029 134.195 121.928 134.239 121.843 134.306C121.748 134.367 121.671 134.452 121.62 134.554C121.552 134.64 121.511 134.744 121.5 134.853V135.066C121.515 135.209 121.566 135.345 121.649 135.463L121.798 135.63C121.913 135.721 122.048 135.782 122.193 135.808C122.297 135.831 122.404 135.831 122.508 135.808C122.615 135.793 122.716 135.749 122.8 135.681C122.896 135.621 122.973 135.535 123.024 135.434C123.087 135.345 123.128 135.243 123.144 135.135V134.922Z" fill="#EF5026"/>
<path d="M74.2731 100.046C74.201 99.8784 74.0668 99.7457 73.8988 99.6758C73.7309 99.606 73.5425 99.6046 73.3736 99.672C65.5856 103.892 57.6868 107.862 49.6772 111.583C47.3855 112.653 45.0938 113.704 42.8021 114.736C41.9943 115.099 42.5271 116.388 43.3407 116.025C51.4151 112.435 59.3731 108.599 67.2146 104.517C69.4529 103.366 71.6796 102.185 73.895 100.972C74.0645 100.896 74.1984 100.758 74.2688 100.585C74.3392 100.413 74.3408 100.22 74.2731 100.046Z" fill="#253139"/>
<path d="M77.7451 105L53.407 117.119L46.5319 120.571C45.747 120.962 46.2683 122.228 47.0647 121.837C55.1888 117.809 63.3053 113.756 71.4142 109.678L78.2893 106.226C79.0685 105.852 78.5414 104.574 77.7451 105Z" fill="#253139"/>
<path d="M82.7754 120.801C80.9191 121.825 79.0972 122.901 77.2122 123.868C75.3273 124.835 73.408 125.744 71.4829 126.596C71.3333 126.677 71.2191 126.811 71.163 126.972C71.1068 127.133 71.1127 127.31 71.1794 127.467C71.2462 127.624 71.3689 127.75 71.5237 127.821C71.6784 127.892 71.8539 127.902 72.0158 127.85C73.9828 126.998 75.9212 126.084 77.831 125.105C79.7389 124.127 81.6696 123.126 83.4744 121.975C84.1046 121.561 83.4514 120.433 82.7754 120.801Z" fill="#253139"/>
</g>
<defs>
<clipPath id="clip0_266_1910">
<rect width="120" height="113" fill="white" transform="translate(18 49.1851)"/>
</clipPath>
</defs>
</svg>
