<svg width="171" height="165" viewBox="0 0 171 165" fill="none" xmlns="http://www.w3.org/2000/svg">
<path d="M27.0678 15.175V13.175H26.1519L25.5536 13.8684L27.0678 15.175ZM2.10777 44.1L0.593592 42.7934L-0.0679957 43.5601L0.15839 44.5471L2.10777 44.1ZM3.73277 51.185L1.78339 51.6321L2.13956 53.185H3.73277V51.185ZM25.9628 51.185H27.9628V49.185H25.9628V51.185ZM25.9628 61H23.9628V63H25.9628V61ZM35.5178 61V63H37.5178V61H35.5178ZM35.5178 51.185V49.185H33.5178V51.185H35.5178ZM41.6278 51.185V53.185H43.6278V51.185H41.6278ZM41.6278 43.06H43.6278V41.06H41.6278V43.06ZM35.5178 43.06H33.5178V45.06H35.5178V43.06ZM35.5178 15.175H37.5178V13.175H35.5178V15.175ZM25.9628 43.06V45.06H27.9628V43.06H25.9628ZM13.8728 43.06L12.3513 41.7619L9.53731 45.06H13.8728V43.06ZM25.9628 28.89H27.9628V23.4646L24.4413 27.5919L25.9628 28.89ZM25.5536 13.8684L0.593592 42.7934L3.62195 45.4066L28.582 16.4816L25.5536 13.8684ZM0.15839 44.5471L1.78339 51.6321L5.68216 50.7379L4.05716 43.6529L0.15839 44.5471ZM3.73277 53.185H25.9628V49.185H3.73277V53.185ZM23.9628 51.185V61H27.9628V51.185H23.9628ZM25.9628 63H35.5178V59H25.9628V63ZM37.5178 61V51.185H33.5178V61H37.5178ZM35.5178 53.185H41.6278V49.185H35.5178V53.185ZM43.6278 51.185V43.06H39.6278V51.185H43.6278ZM41.6278 41.06H35.5178V45.06H41.6278V41.06ZM37.5178 43.06V15.175H33.5178V43.06H37.5178ZM35.5178 13.175H27.0678V17.175H35.5178V13.175ZM25.9628 41.06H13.8728V45.06H25.9628V41.06ZM15.3942 44.3581L27.4842 30.1881L24.4413 27.5919L12.3513 41.7619L15.3942 44.3581ZM23.9628 28.89V43.06H27.9628V28.89H23.9628Z" fill="black" fill-opacity="0.1"/>
<g clip-path="url(#clip0_266_1911)">
<g clip-path="url(#clip1_266_1911)">
<path fill-rule="evenodd" clip-rule="evenodd" d="M125.48 134.457C125.73 133.732 126.259 133.136 126.95 132.799C127.641 132.463 128.437 132.414 129.164 132.664C129.891 132.914 130.489 133.441 130.826 134.13C131.163 134.82 131.212 135.614 130.962 136.339C130.711 137.065 130.183 137.661 129.492 137.997C128.801 138.333 128.004 138.382 127.277 138.132C126.551 137.883 125.953 137.355 125.616 136.666C125.279 135.977 125.23 135.182 125.48 134.457ZM128.693 134.031C128.329 133.906 127.931 133.931 127.585 134.099C127.24 134.267 126.976 134.565 126.851 134.928C126.725 135.29 126.75 135.688 126.918 136.032C127.087 136.377 127.386 136.641 127.749 136.765C128.113 136.89 128.511 136.866 128.856 136.698C129.202 136.53 129.466 136.231 129.591 135.869C129.716 135.506 129.692 135.109 129.523 134.764C129.355 134.42 129.056 134.156 128.693 134.031ZM110.94 133.287C110.827 133.248 110.706 133.237 110.588 133.256C110.471 133.275 110.359 133.323 110.264 133.395C110.17 133.467 110.094 133.561 110.044 133.669C109.995 133.778 109.973 133.896 109.98 134.015C109.266 134.061 108.582 134.316 108.013 134.748C107.444 135.181 107.017 135.772 106.784 136.447L106.312 137.814C106.082 138.479 106.052 139.197 106.225 139.879C106.398 140.56 106.767 141.177 107.286 141.653L105.773 146.039C105.621 146.479 105.615 146.957 105.756 147.401C105.897 147.846 106.178 148.233 106.557 148.505C106.936 148.778 107.393 148.921 107.86 148.914C108.327 148.908 108.779 148.751 109.15 148.468C109.268 148.919 109.528 149.32 109.892 149.612C110.256 149.904 110.704 150.072 111.171 150.09C111.638 150.107 112.098 149.975 112.483 149.711C112.868 149.448 113.158 149.068 113.31 148.627L114.824 144.241C115.526 144.185 116.198 143.926 116.755 143.494C117.312 143.063 117.731 142.479 117.96 141.814L118.432 140.447C118.665 139.772 118.692 139.044 118.511 138.353C118.33 137.663 117.948 137.042 117.413 136.568C117.492 136.479 117.548 136.372 117.576 136.256C117.604 136.14 117.602 136.019 117.572 135.904C117.541 135.789 117.483 135.683 117.402 135.596C117.321 135.509 117.219 135.443 117.106 135.404L110.94 133.287ZM108.824 141.638L109.287 140.299C109.605 140.35 109.929 140.34 110.244 140.27C110.781 140.145 111.196 139.837 111.524 139.441C111.842 139.058 112.092 138.576 112.313 138.058C112.536 137.536 112.748 136.929 112.973 136.278L113.658 136.514C113.434 137.164 113.227 137.772 113.08 138.322C112.935 138.866 112.834 139.399 112.848 139.896C112.863 140.409 113 140.907 113.346 141.336C113.545 141.582 113.794 141.782 114.083 141.946L111.94 148.157C111.878 148.333 111.75 148.478 111.584 148.562C111.417 148.647 111.224 148.664 111.045 148.609C110.866 148.555 110.715 148.434 110.624 148.271C110.532 148.108 110.508 147.916 110.555 147.736L111.877 142.783C111.924 142.606 111.902 142.418 111.816 142.257C111.73 142.095 111.586 141.973 111.412 141.913C111.239 141.853 111.049 141.862 110.882 141.936C110.714 142.01 110.581 142.145 110.51 142.314L108.496 147.029C108.423 147.203 108.285 147.342 108.112 147.416C107.938 147.49 107.742 147.494 107.566 147.426C107.39 147.358 107.247 147.225 107.168 147.053C107.089 146.882 107.08 146.687 107.144 146.509L108.824 141.638ZM107.682 138.284C107.473 138.891 107.549 139.528 107.84 140.048L109.075 136.469L110.446 136.94L109.775 138.883C109.827 138.879 109.872 138.872 109.912 138.863C110.073 138.826 110.231 138.732 110.407 138.521C110.593 138.295 110.778 137.963 110.979 137.492C111.179 137.025 111.376 136.465 111.602 135.808L110.917 135.573C110.372 135.385 109.775 135.422 109.257 135.674C108.738 135.926 108.342 136.373 108.154 136.917L107.682 138.284ZM116.59 141.343C116.38 141.95 115.928 142.406 115.377 142.636L116.612 139.057L115.242 138.587L114.571 140.53C114.537 140.499 114.505 140.466 114.476 140.43C114.372 140.302 114.305 140.131 114.297 139.856C114.289 139.565 114.348 139.189 114.481 138.694C114.612 138.204 114.802 137.642 115.028 136.984L115.714 137.22C116.259 137.407 116.707 137.802 116.96 138.319C117.213 138.836 117.249 139.432 117.062 139.976L116.59 141.343ZM122.999 138.486C122.285 138.531 121.6 138.786 121.032 139.219C120.463 139.652 120.035 140.243 119.802 140.917L119.331 142.284C118.913 143.496 119.177 144.776 119.919 145.709L118.653 146.662C117.791 147.309 117.911 148.65 118.909 149.111C119.965 149.597 121.625 150.336 122.914 150.778C124.202 151.221 125.967 151.659 127.1 151.924C128.171 152.174 129.092 151.19 128.813 150.151L128.402 148.622C128.994 148.48 129.54 148.192 129.991 147.783C130.441 147.374 130.781 146.859 130.979 146.285L131.451 144.917C131.684 144.243 131.711 143.514 131.53 142.824C131.348 142.134 130.966 141.512 130.432 141.038C130.511 140.949 130.567 140.842 130.594 140.726C130.622 140.611 130.621 140.49 130.59 140.375C130.56 140.26 130.502 140.154 130.42 140.067C130.339 139.979 130.238 139.914 130.125 139.875L123.958 137.757C123.845 137.718 123.725 137.708 123.607 137.727C123.489 137.746 123.378 137.793 123.283 137.865C123.188 137.937 123.113 138.032 123.063 138.14C123.013 138.248 122.991 138.367 122.999 138.486ZM121.173 141.388C121.36 140.844 121.757 140.397 122.275 140.145C122.793 139.892 123.391 139.856 123.936 140.043L124.621 140.278C124.394 140.936 124.198 141.495 123.998 141.962C123.797 142.434 123.612 142.766 123.426 142.991C123.25 143.203 123.092 143.296 122.932 143.333C122.886 143.344 122.84 143.351 122.794 143.354L123.228 142.094L121.858 141.623L120.859 144.519C120.568 143.998 120.492 143.362 120.701 142.755L121.173 141.388ZM122.237 145.779L122.014 145.613L122.305 144.769C122.623 144.821 122.948 144.811 123.262 144.741C123.8 144.616 124.215 144.307 124.542 143.912C124.861 143.529 125.11 143.047 125.331 142.529C125.554 142.007 125.767 141.4 125.991 140.749L126.677 140.984C126.452 141.635 126.245 142.243 126.099 142.792C125.953 143.336 125.853 143.87 125.867 144.367C125.882 144.88 126.018 145.378 126.364 145.807C126.563 146.053 126.812 146.253 127.101 146.416L126.81 147.261L126.533 147.254L127.409 150.511C126.278 150.246 124.591 149.825 123.386 149.411C122.181 148.997 120.591 148.293 119.537 147.807L122.237 145.779L122.237 145.779ZM128.396 147.107C128.946 146.876 129.399 146.421 129.608 145.814L130.08 144.447C130.268 143.903 130.231 143.307 129.978 142.79C129.726 142.273 129.277 141.877 128.732 141.69L128.047 141.455C127.82 142.113 127.63 142.674 127.499 143.164C127.367 143.66 127.308 144.035 127.315 144.326C127.324 144.602 127.391 144.772 127.494 144.9C127.52 144.932 127.551 144.966 127.59 145.001L128.025 143.741L129.395 144.212L128.396 147.107Z" fill="#EF5026"/>
<path d="M121.341 151.495C120.605 151.196 119.884 150.865 119.178 150.502L118.899 151.311C118.813 151.56 118.821 151.832 118.922 152.076C119.023 152.32 119.209 152.519 119.446 152.635C119.683 152.752 119.955 152.778 120.21 152.71C120.465 152.641 120.687 152.482 120.833 152.262L121.341 151.495ZM123.712 152.303L123.639 153.226C123.618 153.489 123.695 153.751 123.853 153.962C124.012 154.173 124.243 154.318 124.502 154.372C124.761 154.426 125.03 154.383 125.26 154.253C125.49 154.123 125.664 153.913 125.75 153.664L126.033 152.845C125.252 152.698 124.478 152.517 123.712 152.304L123.712 152.303Z" fill="#EF5026"/>
<path fill-rule="evenodd" clip-rule="evenodd" d="M116.146 128.193C115.419 127.944 114.622 127.992 113.931 128.329C113.241 128.665 112.712 129.261 112.462 129.986C112.211 130.712 112.26 131.506 112.597 132.196C112.934 132.885 113.532 133.412 114.259 133.662C114.986 133.911 115.782 133.863 116.473 133.527C117.164 133.19 117.693 132.594 117.943 131.869C118.193 131.144 118.144 130.349 117.807 129.66C117.47 128.97 116.873 128.443 116.146 128.193ZM113.832 130.457C113.957 130.094 114.221 129.796 114.567 129.628C114.912 129.46 115.311 129.436 115.674 129.561C116.037 129.685 116.336 129.949 116.505 130.294C116.673 130.638 116.698 131.036 116.573 131.398C116.448 131.761 116.183 132.059 115.838 132.227C115.492 132.395 115.094 132.42 114.731 132.295C114.367 132.17 114.068 131.906 113.9 131.562C113.731 131.217 113.707 130.82 113.832 130.457Z" fill="#EF5026"/>
</g>
<g clip-path="url(#clip2_266_1911)">
<path fill-rule="evenodd" clip-rule="evenodd" d="M134.716 114.878C134.966 114.153 135.495 113.556 136.186 113.22C136.877 112.884 137.673 112.835 138.4 113.085C139.127 113.335 139.725 113.862 140.062 114.551C140.399 115.241 140.447 116.035 140.197 116.76C139.947 117.485 139.418 118.082 138.727 118.418C138.036 118.754 137.24 118.803 136.513 118.553C135.786 118.304 135.188 117.776 134.851 117.087C134.514 116.398 134.466 115.603 134.716 114.878ZM137.928 114.452C137.565 114.327 137.166 114.352 136.821 114.52C136.476 114.688 136.211 114.986 136.086 115.349C135.961 115.711 135.985 116.108 136.154 116.453C136.322 116.798 136.621 117.061 136.985 117.186C137.348 117.311 137.746 117.287 138.092 117.119C138.437 116.95 138.702 116.652 138.827 116.29C138.952 115.927 138.928 115.53 138.759 115.185C138.591 114.841 138.292 114.577 137.928 114.452ZM120.175 113.707C120.063 113.669 119.942 113.658 119.824 113.677C119.706 113.696 119.595 113.744 119.5 113.816C119.405 113.888 119.33 113.982 119.28 114.09C119.23 114.199 119.208 114.317 119.216 114.436C118.502 114.481 117.817 114.737 117.249 115.169C116.68 115.602 116.252 116.193 116.019 116.868L115.548 118.235C115.318 118.9 115.288 119.617 115.461 120.299C115.634 120.981 116.003 121.598 116.522 122.074L115.009 126.46C114.857 126.9 114.851 127.378 114.992 127.822C115.133 128.266 115.414 128.654 115.793 128.926C116.172 129.199 116.628 129.342 117.095 129.335C117.562 129.329 118.015 129.172 118.386 128.889C118.503 129.34 118.763 129.741 119.127 130.033C119.491 130.325 119.94 130.493 120.406 130.51C120.873 130.528 121.333 130.396 121.719 130.132C122.104 129.869 122.394 129.489 122.546 129.048L124.059 124.662C124.762 124.606 125.433 124.346 125.99 123.915C126.548 123.484 126.967 122.9 127.196 122.235L127.668 120.868C127.901 120.193 127.928 119.465 127.747 118.774C127.565 118.084 127.183 117.463 126.649 116.989C126.728 116.9 126.784 116.792 126.811 116.677C126.839 116.561 126.838 116.44 126.807 116.325C126.777 116.21 126.719 116.104 126.638 116.017C126.556 115.93 126.455 115.864 126.342 115.825L120.175 113.707ZM118.06 122.059L118.522 120.72C118.84 120.771 119.165 120.761 119.479 120.691C120.017 120.566 120.432 120.258 120.759 119.862C121.078 119.479 121.328 118.997 121.548 118.479C121.772 117.957 121.984 117.35 122.208 116.699L122.894 116.935C122.669 117.585 122.462 118.193 122.316 118.742C122.17 119.286 122.07 119.82 122.084 120.317C122.098 120.83 122.235 121.328 122.582 121.757C122.78 122.003 123.029 122.203 123.318 122.367L121.175 128.577C121.114 128.754 120.986 128.899 120.819 128.983C120.652 129.068 120.459 129.084 120.281 129.03C120.102 128.976 119.951 128.855 119.859 128.692C119.768 128.529 119.743 128.337 119.79 128.157L121.112 123.204C121.159 123.027 121.138 122.839 121.052 122.678C120.965 122.516 120.821 122.393 120.648 122.334C120.475 122.274 120.285 122.283 120.118 122.357C119.95 122.431 119.817 122.566 119.745 122.734L117.731 127.45C117.659 127.624 117.521 127.763 117.347 127.837C117.174 127.911 116.978 127.914 116.802 127.847C116.625 127.779 116.483 127.645 116.404 127.474C116.325 127.303 116.316 127.108 116.379 126.93L118.06 122.059ZM116.918 118.705C116.709 119.312 116.785 119.949 117.076 120.469L118.311 116.89L119.681 117.361L119.011 119.304C119.062 119.3 119.108 119.293 119.148 119.284C119.309 119.246 119.467 119.153 119.643 118.942C119.829 118.716 120.014 118.384 120.215 117.912C120.414 117.446 120.611 116.886 120.838 116.229L120.153 115.993C119.608 115.806 119.01 115.843 118.492 116.095C117.974 116.347 117.577 116.794 117.39 117.338L116.918 118.705ZM125.825 121.764C125.616 122.371 125.163 122.827 124.613 123.057L125.848 119.478L124.477 119.008L123.807 120.951C123.772 120.92 123.74 120.887 123.711 120.851C123.608 120.723 123.541 120.552 123.532 120.277C123.525 119.986 123.584 119.61 123.716 119.115C123.847 118.624 124.037 118.063 124.264 117.405L124.949 117.641C125.494 117.828 125.943 118.223 126.195 118.74C126.448 119.257 126.485 119.853 126.297 120.397L125.825 121.764ZM132.234 118.907C131.52 118.952 130.836 119.207 130.267 119.64C129.698 120.073 129.271 120.663 129.038 121.338L128.566 122.705C128.148 123.917 128.413 125.197 129.155 126.13L127.888 127.083C127.026 127.73 127.146 129.071 128.144 129.532C129.2 130.018 130.861 130.757 132.15 131.199C133.438 131.642 135.203 132.079 136.335 132.344C137.406 132.594 138.328 131.611 138.048 130.572L137.638 129.043C138.229 128.901 138.776 128.612 139.226 128.204C139.677 127.795 140.017 127.28 140.214 126.705L140.686 125.338C140.919 124.664 140.947 123.935 140.765 123.245C140.584 122.555 140.202 121.933 139.667 121.459C139.746 121.37 139.802 121.263 139.83 121.147C139.858 121.032 139.856 120.911 139.826 120.796C139.796 120.681 139.737 120.575 139.656 120.487C139.575 120.4 139.473 120.334 139.361 120.296L133.194 118.178C133.081 118.139 132.96 118.129 132.843 118.148C132.725 118.167 132.614 118.214 132.519 118.286C132.424 118.358 132.348 118.453 132.298 118.561C132.249 118.669 132.227 118.788 132.234 118.907ZM130.408 121.809C130.596 121.265 130.993 120.818 131.511 120.566C132.029 120.313 132.626 120.277 133.171 120.464L133.857 120.699C133.63 121.357 133.433 121.916 133.234 122.383C133.033 122.855 132.847 123.187 132.662 123.411C132.485 123.624 132.327 123.717 132.167 123.754C132.122 123.765 132.076 123.771 132.029 123.775L132.464 122.515L131.094 122.044L130.094 124.94C129.803 124.419 129.727 123.783 129.937 123.176L130.408 121.809ZM131.472 126.2L131.249 126.034L131.541 125.19C131.859 125.241 132.183 125.232 132.498 125.162C133.035 125.037 133.451 124.728 133.778 124.333C134.096 123.95 134.346 123.468 134.567 122.949C134.79 122.427 135.002 121.821 135.227 121.17L135.912 121.405C135.688 122.056 135.481 122.664 135.334 123.213C135.189 123.757 135.088 124.291 135.103 124.788C135.118 125.301 135.254 125.799 135.6 126.228C135.799 126.474 136.048 126.674 136.337 126.837L136.046 127.681L135.768 127.675L136.645 130.932C135.514 130.667 133.827 130.246 132.621 129.832C131.416 129.418 129.827 128.714 128.773 128.228L131.473 126.2L131.472 126.2ZM137.631 127.528C138.182 127.296 138.635 126.842 138.844 126.235L139.316 124.868C139.503 124.324 139.467 123.728 139.214 123.211C138.961 122.694 138.513 122.298 137.968 122.111L137.283 121.876C137.056 122.533 136.866 123.094 136.735 123.585C136.602 124.08 136.543 124.456 136.551 124.747C136.559 125.023 136.626 125.193 136.729 125.321C136.756 125.353 136.787 125.387 136.826 125.422L137.26 124.162L138.631 124.632L137.631 127.528Z" fill="#EF5026"/>
<path d="M130.577 131.916C129.841 131.617 129.119 131.286 128.413 130.923L128.134 131.732C128.048 131.981 128.057 132.253 128.157 132.497C128.258 132.741 128.445 132.94 128.682 133.056C128.919 133.173 129.191 133.199 129.446 133.13C129.701 133.062 129.922 132.902 130.068 132.683L130.577 131.916ZM132.948 132.724L132.875 133.647C132.854 133.91 132.93 134.171 133.089 134.382C133.248 134.593 133.478 134.739 133.737 134.793C133.996 134.847 134.266 134.804 134.496 134.674C134.726 134.544 134.9 134.334 134.986 134.085L135.268 133.266C134.487 133.119 133.713 132.938 132.948 132.725L132.948 132.724Z" fill="#EF5026"/>
<path fill-rule="evenodd" clip-rule="evenodd" d="M125.381 108.614C124.654 108.365 123.858 108.413 123.167 108.75C122.476 109.086 121.947 109.682 121.697 110.407C121.447 111.132 121.496 111.927 121.833 112.616C122.17 113.306 122.768 113.833 123.494 114.083C124.221 114.332 125.018 114.284 125.709 113.947C126.4 113.611 126.928 113.015 127.179 112.29C127.429 111.565 127.38 110.77 127.043 110.081C126.706 109.391 126.108 108.864 125.381 108.614ZM123.068 110.878C123.193 110.515 123.457 110.217 123.802 110.049C124.148 109.881 124.546 109.857 124.91 109.981C125.273 110.106 125.572 110.37 125.74 110.715C125.909 111.059 125.933 111.457 125.808 111.819C125.683 112.182 125.419 112.48 125.073 112.648C124.728 112.816 124.33 112.84 123.966 112.716C123.603 112.591 123.304 112.327 123.135 111.982C122.967 111.638 122.942 111.24 123.068 110.878Z" fill="#EF5026"/>
</g>
<path d="M80.0627 132.887L78.6139 133.768L78.5446 132.162C78.3637 128.18 78.1521 124.207 77.9096 120.241C77.875 119.763 77.8461 119.285 77.8173 118.813C77.6441 116.126 77.4517 113.419 77.24 110.694C76.9206 106.532 76.5666 102.367 76.1779 98.1974C75.9817 96.107 75.7854 94.0109 75.5603 91.9205C75.3987 90.4117 75.1274 88.8742 73.9729 87.7916C72.0449 85.9891 68.9337 85.9143 66.515 86.5477C63.6289 87.3021 61.0313 89.1161 58.9071 91.1546C56.6856 93.3922 54.7471 95.8928 53.1348 98.6005C51.2357 101.653 49.5386 104.826 47.7838 107.964C43.6624 115.352 39.5987 122.769 35.3964 130.106C35.0097 130.774 33.8552 130.106 34.242 129.455C34.7461 128.522 35.2579 127.591 35.7774 126.662C39.9566 119.126 44.153 111.598 48.3668 104.077C51.5647 98.3528 54.8261 92.2199 60.1828 88.1947C62.6072 86.375 65.5338 84.9296 68.6104 84.7856C71.4158 84.6589 74.5097 85.5112 75.999 88.0853C76.963 89.7495 76.9976 91.7996 77.1535 93.6653C77.3728 95.796 77.5864 97.9325 77.7769 100.069C78.1617 104.342 78.5157 108.618 78.839 112.899C78.966 114.713 79.0987 116.527 79.22 118.347C79.2488 118.825 79.2834 119.297 79.3123 119.775C79.5663 123.614 79.7818 127.453 79.9588 131.292C80.0223 131.816 80.0396 132.352 80.0627 132.887Z" fill="black"/>
<path d="M139.91 98.3644C135.373 95.94 129.843 98.0131 126.236 101.128C124.096 103.094 122.182 105.29 120.527 107.676C120.417 107.823 120.369 108.007 120.395 108.188C120.421 108.37 120.518 108.533 120.665 108.643C120.812 108.753 120.997 108.801 121.179 108.775C121.361 108.749 121.525 108.652 121.635 108.505C124.383 104.849 127.407 100.961 131.881 99.3836C133.916 98.6121 136.152 98.5432 138.23 99.1878C139.968 99.8047 141.419 101.033 142.312 102.643C142.83 103.534 143.167 104.517 143.304 105.538C143.44 106.559 143.374 107.597 143.108 108.592C143.043 108.769 143.05 108.965 143.126 109.137C143.202 109.31 143.343 109.447 143.518 109.519C143.695 109.586 143.891 109.581 144.064 109.505C144.237 109.428 144.373 109.286 144.442 109.11C145.005 107.071 144.864 104.903 144.042 102.954C143.22 101.005 141.765 99.3883 139.91 98.3644Z" fill="black"/>
<path d="M140.135 105.856C139.193 105.183 138.137 104.683 137.018 104.382C135.864 103.979 134.709 103.61 133.503 103.294C132.926 103.15 132.395 103.04 131.864 102.85C131.598 102.752 131.136 102.597 131.055 102.274C130.853 101.428 129.508 101.606 129.705 102.47C129.924 103.466 130.767 103.973 131.685 104.255C132.839 104.607 133.994 104.952 135.102 105.326C136.229 105.66 137.333 106.064 138.409 106.536C138.826 106.716 139.197 106.988 139.495 107.33C139.761 107.707 139.907 108.154 139.916 108.615C139.941 108.77 140.016 108.912 140.129 109.021C140.242 109.129 140.388 109.198 140.545 109.216C140.701 109.235 140.859 109.201 140.994 109.122C141.13 109.042 141.236 108.921 141.296 108.776C141.682 107.711 140.926 106.519 140.135 105.856Z" fill="black"/>
<path d="M142.473 107.688L130.086 89.7898L126.559 84.6992C126.057 83.9736 124.977 84.8144 125.474 85.5342C129.599 91.5001 133.724 97.4699 137.85 103.443C139.027 105.144 140.203 106.841 141.376 108.534C141.884 109.271 142.981 108.419 142.473 107.688Z" fill="black"/>
<path d="M126.472 84.8777C126.428 84.722 126.329 84.5874 126.193 84.4986C126.057 84.4097 125.894 84.3726 125.733 84.394C125.404 84.4402 125.093 84.569 124.827 84.7683C124.354 85.1013 124.005 85.5812 123.834 86.1331C123.734 86.4472 123.693 86.7772 123.713 87.1063C123.74 87.2893 123.837 87.4546 123.984 87.567C124.134 87.6761 124.32 87.7235 124.504 87.6994C124.688 87.672 124.855 87.5725 124.966 87.423C125.057 87.2829 125.104 87.1181 125.098 86.9508V87.0314C125.096 86.9096 125.107 86.7878 125.133 86.6686C125.167 86.5599 125.209 86.4539 125.26 86.3519C125.319 86.2525 125.389 86.1598 125.468 86.0755C125.545 85.999 125.63 85.9314 125.722 85.874C125.843 85.8106 125.97 85.7645 126.091 85.707C126.248 85.6427 126.375 85.5213 126.446 85.3673C126.516 85.2134 126.526 85.0384 126.472 84.8777Z" fill="black"/>
<path d="M139.2 104.468L128.752 89.6285L125.756 85.3672C125.289 84.7107 124.158 85.3672 124.521 86.087L124.66 86.3577C124.572 86.3795 124.49 86.4186 124.417 86.4728C124.276 86.5861 124.184 86.7497 124.162 86.9292C124.139 87.1087 124.187 87.2899 124.296 87.4345C125.947 90.1564 127.679 92.8438 129.491 95.4966C131.223 98.0534 132.955 100.679 134.94 103.063C135.83 104.304 137.117 105.205 138.588 105.62C139.2 105.741 139.512 104.918 139.2 104.468Z" fill="black"/>
<path d="M125.797 84.8144C125.723 84.6385 125.621 84.4753 125.497 84.3306C125.372 84.1895 125.23 84.0639 125.075 83.9563C124.759 83.7431 124.389 83.6233 124.007 83.6108C123.83 83.5878 123.651 83.6353 123.508 83.743C123.366 83.8508 123.271 84.0101 123.246 84.1867C123.191 84.5452 123.219 84.9114 123.326 85.2578C123.36 85.3821 123.408 85.502 123.471 85.6148C123.557 85.7989 123.663 85.9728 123.788 86.1331C123.905 86.2722 124.07 86.3626 124.25 86.3865C124.337 86.3971 124.425 86.3904 124.509 86.3667C124.593 86.343 124.672 86.3027 124.741 86.2483C124.812 86.1936 124.872 86.1251 124.917 86.047C124.961 85.9689 124.99 85.8826 125 85.7933C125.149 85.8094 125.299 85.7897 125.439 85.7357C125.608 85.6601 125.741 85.5209 125.808 85.3484C125.875 85.1759 125.871 84.984 125.797 84.8144Z" fill="black"/>
<path d="M112.988 102.758C112.896 104.365 112.717 105.96 112.59 107.561C112.549 108.102 112.515 108.649 112.497 109.19C112.497 109.311 112.497 109.415 112.497 109.519C112.497 110.216 112.457 110.918 112.457 111.621C111.955 112.306 111.47 112.997 110.991 113.699C110.991 112.876 110.991 112.047 110.991 111.223C110.991 110.816 111.002 110.407 111.025 109.997C111.025 109.645 111.025 109.294 111.066 108.943C111.066 108.753 111.066 108.563 111.095 108.367C111.21 106.409 111.464 104.463 111.568 102.505C111.748 100.61 111.5 98.6992 110.841 96.9132C110.324 95.6667 109.558 94.5382 108.59 93.5962C108.285 93.2916 107.964 93.0051 107.626 92.7382C106.663 92.0064 105.579 91.4507 104.422 91.097C104.28 91.0509 104.135 91.0106 103.989 90.9761C103.821 90.9081 103.687 90.7772 103.614 90.6114C103.542 90.4456 103.538 90.2582 103.602 90.0892C103.674 89.9244 103.805 89.7925 103.97 89.7199C104.135 89.6473 104.321 89.6394 104.491 89.6977C104.728 89.761 104.97 89.8301 105.207 89.9107C106.319 90.2731 107.366 90.8117 108.307 91.5059C108.692 91.7873 109.058 92.0931 109.403 92.4215C110.668 93.6015 111.654 95.0472 112.29 96.654C112.95 98.6171 113.188 100.697 112.988 102.758Z" fill="black"/>
<path d="M112.59 107.561C112.549 108.102 112.515 108.649 112.497 109.191L111.037 109.997C107.146 112.127 103.221 114.199 99.2615 116.21C98.4764 116.613 97.9454 115.346 98.7247 114.943C100.237 114.172 101.738 113.389 103.239 112.605C105.875 111.219 108.497 109.811 111.106 108.379C111.603 108.108 112.099 107.837 112.59 107.561Z" fill="black"/>
<path d="M151.461 109.951C149.596 110.06 147.709 110.02 145.844 110.002C143.98 109.985 142.161 109.939 140.326 109.876C133.774 109.645 127.228 109.167 120.7 108.828C119.055 108.741 117.415 108.661 115.77 108.592C115.455 108.534 115.132 108.55 114.824 108.638C114.57 108.827 114.357 109.064 114.195 109.334C113.725 109.926 113.263 110.525 112.809 111.131C112.688 111.292 112.572 111.454 112.457 111.621C111.955 112.306 111.47 112.997 110.991 113.699C109.859 115.381 108.797 117.109 107.805 118.882C107.429 119.556 106.258 118.882 106.621 118.226C107.952 115.815 109.421 113.483 111.02 111.241C111.482 110.59 111.961 109.951 112.445 109.311C112.467 109.281 112.49 109.252 112.515 109.225C112.901 108.639 113.354 108.1 113.865 107.618C114.512 107.094 115.32 107.192 116.094 107.215C117.768 107.279 119.442 107.359 121.11 107.446C124.487 107.624 127.852 107.831 131.223 108.022C134.594 108.212 137.965 108.39 141.342 108.494C143.01 108.546 144.684 108.586 146.358 108.597C148.032 108.609 149.758 108.551 151.455 108.597C152.24 108.592 152.246 109.899 151.461 109.951Z" fill="#EF5026"/>
<path d="M152.488 109.167C152.456 110.144 152.208 111.102 151.761 111.972C151.368 112.876 150.97 113.78 150.606 114.684C149.837 116.492 149.086 118.31 148.355 120.138C145.729 126.679 143.293 133.296 140.672 139.838C139.368 143.097 138.011 146.333 136.568 149.535C136.066 150.641 135.598 151.793 135.033 152.881C134.848 153.255 134.646 153.612 134.455 153.964C134.387 154.083 134.312 154.198 134.23 154.309L132.273 154.344C130.657 154.378 129.041 154.405 127.425 154.424C121.768 154.493 116.109 154.465 110.448 154.338C104.788 154.211 99.1056 153.981 93.4026 153.647C93.296 153.635 93.1934 153.6 93.1028 153.543C93.0123 153.485 92.9362 153.408 92.8803 153.317C92.8245 153.225 92.7905 153.123 92.781 153.016C92.7715 152.909 92.7866 152.802 92.8253 152.702C94.5537 147.775 96.7656 143.03 99.4289 138.536C99.7175 138.047 100.006 137.557 100.324 137.074C100.709 137.078 101.094 137.063 101.478 137.028C101.552 137.139 101.591 137.271 101.591 137.405C101.591 137.539 101.552 137.67 101.478 137.782C101.311 138.047 101.149 138.317 100.987 138.582C98.3479 142.925 96.1419 147.515 94.4012 152.288C97.2758 152.449 100.15 152.583 103.025 152.691C108.659 152.898 114.289 153.011 119.915 153.031C124.4 153.031 128.874 152.985 133.353 152.898C133.543 152.53 133.711 152.167 133.844 151.879C134.652 150.174 135.433 148.456 136.187 146.725C138.9 140.506 141.313 134.166 143.76 127.843C144.973 124.716 146.191 121.595 147.46 118.496C148.099 116.919 148.759 115.348 149.44 113.786C149.775 113.008 150.116 112.225 150.468 111.448C150.858 110.739 151.087 109.952 151.137 109.144C151.143 108.39 152.477 108.384 152.488 109.167Z" fill="#EF5026"/>
<path d="M101.594 137.01C100.897 137.529 100.199 138.037 99.4981 138.536C95.7577 141.224 91.946 143.796 88.0632 146.253C85.4541 147.907 82.8142 149.512 80.1435 151.067C78.8447 151.821 77.5517 152.587 76.2241 153.29C74.9959 153.987 73.6685 154.494 72.2874 154.793C70.9148 155.09 69.4811 154.885 68.2468 154.217C67.1319 153.497 66.2419 152.48 65.6781 151.28C64.427 148.794 63.47 146.172 62.8265 143.466C61.4123 137.96 60.9448 132.202 60.3964 126.57C60.3617 126.253 60.3329 125.936 60.2983 125.614L60.1597 124.232C59.6402 119.337 58.9648 114.442 57.5218 109.738C57.4569 109.571 57.4585 109.385 57.5261 109.219C57.5936 109.053 57.7222 108.919 57.8854 108.845C58.0532 108.776 58.2416 108.775 58.4101 108.843C58.5785 108.91 58.7135 109.042 58.7859 109.208C58.9995 109.864 59.1957 110.526 59.3631 111.194C60.4333 115.337 61.1573 119.561 61.5278 123.823C61.5797 124.284 61.6259 124.75 61.6721 125.211C61.7587 126.057 61.8395 126.91 61.9203 127.762C62.4571 133.25 62.9939 138.784 64.5121 144.111C64.8969 145.435 65.3356 146.737 65.8281 148.015C66.2613 149.225 66.8266 150.383 67.5137 151.47C67.8207 151.976 68.2342 152.41 68.7255 152.741C69.2168 153.072 69.7743 153.292 70.3594 153.388C71.6645 153.486 72.9722 153.234 74.1461 152.656C75.4428 152.063 76.7033 151.394 77.9212 150.652C79.2142 149.909 80.4956 149.155 81.7771 148.395C84.3746 146.84 86.9433 145.239 89.4832 143.592C92.2962 141.757 95.0727 139.88 97.8126 137.96C98.2629 137.649 98.7073 137.327 99.1518 137.01C99.9631 137.102 100.782 137.102 101.594 137.01Z" fill="black"/>
<path d="M124.7 120.109C124.055 119.035 123.315 118.022 122.489 117.08C121.723 116.112 120.71 115.366 119.557 114.92C118.149 114.465 116.711 114.736 115.326 115.128C102.956 118.583 91.0013 124.796 79.9934 131.309L78.7986 132.029C78.7178 132.087 78.6312 132.133 78.5446 132.19C76.1779 133.641 73.8459 135.15 71.5485 136.717C70.8212 137.218 71.664 138.283 72.3855 137.799C74.4405 136.429 76.5166 135.095 78.6139 133.797L80.0627 132.916C86.172 129.218 92.4983 125.889 99.0075 122.948C103.911 120.679 108.935 118.678 114.056 116.953C115.27 116.477 116.544 116.175 117.843 116.055C118.397 116.053 118.945 116.164 119.455 116.379C119.965 116.595 120.426 116.912 120.81 117.31C121.572 118.081 122.258 118.924 122.859 119.827C123.603 120.72 124.095 121.796 124.285 122.942C124.339 123.334 124.235 123.732 123.996 124.048C123.447 123.521 122.818 123.086 122.131 122.758C121.935 122.66 121.739 122.562 121.554 122.476L120.434 121.157C120.007 120.583 119.53 120.047 119.009 119.556C118.733 119.35 118.411 119.215 118.072 119.16C117.732 119.106 117.384 119.135 117.058 119.245C115.528 119.654 113.998 120.109 112.503 120.593C112.375 120.633 112.265 120.716 112.192 120.829C111.345 120.89 110.505 121.01 109.675 121.186C108.832 121.376 109.005 122.689 109.871 122.527C112.713 121.975 115.644 122.084 118.437 122.844C119.201 123.056 119.951 123.313 120.683 123.616C121.22 123.841 121.738 124.11 122.23 124.422C122.74 124.72 123.167 125.142 123.471 125.649L123.523 125.746C123.648 125.999 123.727 126.272 123.753 126.553C123.759 126.61 123.759 126.668 123.753 126.725C123.551 126.553 123.333 126.401 123.101 126.27C121.732 125.596 120.275 125.118 118.772 124.848C117.233 124.506 115.666 124.297 114.091 124.226C112.276 124.12 110.454 124.228 108.665 124.549C108.485 124.575 108.324 124.671 108.216 124.815C108.108 124.96 108.061 125.142 108.087 125.32C108.113 125.499 108.21 125.66 108.355 125.768C108.5 125.876 108.682 125.922 108.861 125.896C111.516 125.554 114.205 125.57 116.856 125.942C118.173 126.15 119.472 126.46 120.74 126.869C121.595 127.146 122.997 127.486 123.297 128.482C123.399 128.865 123.354 129.272 123.171 129.624C122.989 129.976 122.682 130.248 122.31 130.388C122.201 130.412 122.097 130.457 122.005 130.522C121.912 130.586 121.834 130.668 121.774 130.762C121.518 130.578 121.25 130.413 120.971 130.267C118.327 128.971 115.37 128.444 112.44 128.747C110.777 128.904 109.147 129.314 107.608 129.962C106.766 130.313 107.314 131.689 108.157 131.355C111.033 130.189 114.195 129.915 117.231 130.566C117.956 130.722 118.668 130.934 119.361 131.2C120.023 131.417 120.643 131.748 121.191 132.179C121.391 132.329 121.553 132.524 121.664 132.748C121.775 132.972 121.832 133.219 121.831 133.469C121.831 133.889 121.623 134.309 121.225 134.356C121.161 134.36 121.098 134.377 121.04 134.407C119.644 134.027 118.403 133.187 117.046 132.68C115.591 132.152 114.001 132.13 112.532 132.616C111.054 133.147 109.634 133.828 108.295 134.649C106.892 135.446 105.403 136.081 103.856 136.544C103.116 136.749 102.358 136.889 101.594 136.964H101.484C101.1 136.999 100.715 137.015 100.329 137.01C99.9434 137.003 99.5581 136.976 99.1749 136.93C98.7304 137.246 98.286 137.569 97.8357 137.88C97.8785 137.989 97.9479 138.085 98.0376 138.161C98.1274 138.236 98.2345 138.288 98.3495 138.312C98.7158 138.385 99.0857 138.439 99.4577 138.473C99.9796 138.522 100.504 138.537 101.028 138.519C103.365 138.366 105.644 137.726 107.718 136.642C110.339 135.34 113.19 133.037 116.226 133.97C117.871 134.471 119.332 135.478 121 135.899C121.109 135.925 121.223 135.913 121.323 135.864H121.462C122.668 135.72 123.349 134.419 123.297 133.192C123.272 132.644 123.089 132.115 122.772 131.666C123.299 131.485 123.765 131.162 124.12 130.733C124.474 130.305 124.703 129.787 124.781 129.236C124.848 128.852 124.826 128.459 124.717 128.084C124.95 127.793 125.099 127.445 125.15 127.077C125.241 126.469 125.163 125.847 124.925 125.28C124.902 125.223 124.875 125.167 124.844 125.113C125.286 124.709 125.577 124.167 125.67 123.575C125.849 122.412 125.318 121.122 124.7 120.109ZM116.174 120.944L117.271 120.627C117.509 120.518 117.778 120.501 118.027 120.581C118.253 120.736 118.449 120.931 118.605 121.157C118.697 121.266 118.784 121.376 118.876 121.479C117.99 121.226 117.088 121.037 116.174 120.915V120.944Z" fill="black"/>
<path d="M82.8046 76.1362C82.3721 74.5517 81.3365 73.1983 79.9184 72.3643C79.2517 72.0028 78.4945 71.8409 77.7379 71.8981C76.9812 71.9554 76.2572 72.2292 75.6526 72.6868C74.3423 73.8385 74.0537 75.8195 74.3885 77.4261C74.5457 78.2505 74.8712 79.0338 75.3449 79.7273C75.8186 80.4208 76.4303 81.0096 77.1419 81.4571C77.9343 81.9537 78.8275 82.2685 79.7568 82.3785C80.1978 82.4754 80.6571 82.4495 81.0844 82.3036C81.2125 82.2552 81.3275 82.1776 81.4203 82.0772C81.5132 81.9767 81.5814 81.8561 81.6194 81.7248C81.6575 81.5935 81.6644 81.4552 81.6397 81.3208C81.615 81.1864 81.5593 81.0596 81.4769 80.9504C81.4059 80.8667 81.3175 80.7994 81.2178 80.7533C81.1182 80.7072 81.0096 80.6833 80.8997 80.6833C80.7898 80.6833 80.6812 80.7072 80.5816 80.7533C80.4819 80.7994 80.3934 80.8667 80.3225 80.9504H80.2359C80.1031 80.9504 79.9761 80.9504 79.8434 80.9158C79.5411 80.878 79.2433 80.8105 78.9544 80.7143C78.4162 80.5333 77.9127 80.2626 77.4652 79.9138C76.5508 79.1789 75.9454 78.1291 75.7681 76.9712C75.6065 75.9231 75.7104 74.4777 76.6166 73.7752C77.0231 73.5024 77.4992 73.351 77.989 73.3387C78.4788 73.3265 78.9619 73.4539 79.3816 73.7061C80.432 74.4095 81.1941 75.4661 81.5289 76.6832C81.8406 77.4952 83.0874 76.9712 82.8046 76.1362Z" fill="black"/>
<path d="M81.0729 78.0192L79.9184 76.7811L79.3412 76.1707C79.2604 76.0786 79.168 75.9922 79.093 75.8943C79.0973 75.7202 79.0345 75.5511 78.9175 75.4218C78.8005 75.2926 78.6381 75.2131 78.4641 75.1998C78.29 75.1865 78.1174 75.2404 77.982 75.3503C77.8466 75.4603 77.7587 75.6179 77.7365 75.7907C77.714 75.9788 77.7351 76.1695 77.7981 76.3482C77.8612 76.527 77.9645 76.6888 78.1001 76.8215L78.7639 77.4952L78.8678 77.6046C78.6834 77.5909 78.501 77.6508 78.3608 77.7712C78.2206 77.8916 78.1341 78.0627 78.1203 78.2467C78.1065 78.4307 78.1666 78.6127 78.2873 78.7526C78.408 78.8924 78.5795 78.9787 78.7639 78.9924L80.4552 79.1249C80.5889 79.1367 80.7231 79.1098 80.8418 79.0475C80.9606 78.9852 81.0588 78.8901 81.1248 78.7736C81.1936 78.6574 81.2254 78.5231 81.2161 78.3884C81.2069 78.2537 81.1569 78.125 81.0729 78.0192Z" fill="black"/>
<path d="M90.3086 95.6923C90.274 92.0356 88.2248 88.7014 85.2867 86.611C83.7801 85.5399 81.3615 84.2097 81.8233 82.0042C81.8432 81.8284 81.7943 81.6518 81.6867 81.5112C81.5792 81.3706 81.4212 81.2769 81.246 81.2498C81.0707 81.2341 80.8957 81.2845 80.7558 81.3911C80.6158 81.4977 80.5209 81.6527 80.4899 81.8257C80.0858 83.6914 81.3269 85.3672 82.718 86.4325C83.4626 87.0084 84.2881 87.5094 85.0269 88.0968C85.6715 88.6013 86.2529 89.1813 86.7586 89.8243C88.8193 92.3927 89.5928 95.8651 88.2652 98.946C87.5859 100.561 86.3604 101.888 84.8018 102.695C84.6315 102.77 84.497 102.908 84.427 103.08C84.3569 103.252 84.3568 103.444 84.4266 103.616C85.3617 105.459 84.6863 107.595 83.6762 109.26C83.2005 110.151 82.5462 110.935 81.754 111.563C81.4141 111.836 80.9995 111.999 80.5647 112.032C80.1299 112.065 79.6953 111.966 79.3181 111.747C79.1696 111.637 78.9831 111.589 78.7996 111.616C78.6161 111.642 78.4507 111.74 78.3397 111.888C78.2287 112.037 78.1812 112.223 78.2077 112.406C78.2343 112.589 78.3326 112.754 78.4811 112.864C78.9916 113.221 79.5921 113.428 80.2144 113.461C80.8368 113.495 81.4561 113.354 82.0022 113.055C83.115 112.407 84.0338 111.475 84.6633 110.354C85.8985 108.407 86.7817 105.902 85.9678 103.656C87.31 102.806 88.4129 101.629 89.1724 100.235C89.9318 98.8419 90.3229 97.2784 90.3086 95.6923Z" fill="black"/>
<path d="M107.452 67.3774C105.033 70.0576 102.06 72.1816 98.7367 73.6024C95.4139 75.0232 91.8213 75.707 88.2075 75.6064C86.1828 75.5555 84.173 75.2458 82.2273 74.685C81.3903 74.4431 80.8766 75.7043 81.7251 75.9577C85.4205 77.0185 89.304 77.259 93.1025 76.662C96.9011 76.0651 100.522 74.6453 103.712 72.5025C105.508 71.2968 107.136 69.8602 108.555 68.2296C109.155 67.5328 108.041 66.7094 107.452 67.3774Z" fill="black"/>
<path d="M109.357 67.7977C108.953 66.9743 107.626 67.5328 108.041 68.3736C108.618 69.5253 108.618 70.8901 108.618 72.1685C108.592 73.5811 108.478 74.9908 108.278 76.3896C107.88 79.1406 107.196 81.8427 106.234 84.4516C104.624 88.8627 101.992 93.2853 97.4836 95.1971C96.3199 95.7278 95.0627 96.0244 93.784 96.0698C92.5053 96.1153 91.2301 95.9087 90.0315 95.462C89.9481 95.4295 89.8591 95.4137 89.7696 95.4155C89.6801 95.4173 89.5919 95.4366 89.5098 95.4725C89.3442 95.5448 89.2142 95.6798 89.1484 95.8478C89.0825 96.0158 89.0863 96.203 89.1588 96.3683C89.2313 96.5335 89.3667 96.6632 89.5351 96.7289C94.3839 98.7905 99.8618 96.4525 103.169 92.7382C104.877 90.7375 106.226 88.4583 107.158 86.0006C108.242 83.2913 109.035 80.475 109.525 77.5989C109.811 75.943 109.977 74.2686 110.021 72.5889C110.038 70.9592 110.073 69.2547 109.357 67.7977Z" fill="black"/>
<path d="M96.3984 80.4782L96.3465 80.4206C96.3465 80.4206 96.3465 80.363 96.3176 80.3399C96.2835 80.2576 96.2334 80.1828 96.1701 80.1198C96.1069 80.0569 96.0317 80.0072 95.949 79.9734C95.8664 79.9397 95.7778 79.9226 95.6885 79.9233C95.5992 79.9239 95.5108 79.9422 95.4287 79.9772L95.2728 80.0693C95.1765 80.1439 95.1026 80.2435 95.0592 80.3572C94.7319 80.9646 94.502 81.6194 94.3781 82.2979C94.3617 82.4151 94.3777 82.5345 94.4243 82.6434C94.4808 82.7671 94.5718 82.872 94.6864 82.9455C94.8011 83.019 94.9345 83.0581 95.0708 83.058C95.2209 83.0597 95.3673 83.0111 95.4864 82.9198C95.8923 82.5376 96.2163 82.0772 96.4388 81.5665C96.5063 81.4277 96.5548 81.2805 96.5831 81.1289C96.6076 80.8963 96.5415 80.6633 96.3984 80.4782Z" fill="black"/>
<path d="M105.548 81.8487C105.493 81.778 105.425 81.7187 105.348 81.6743C105.271 81.6299 105.185 81.6012 105.097 81.59C105.008 81.5787 104.918 81.5851 104.832 81.6088C104.746 81.6324 104.665 81.6729 104.595 81.7278L104.462 81.8545C104.379 81.9392 104.308 82.0363 104.255 82.1424C104.045 82.5785 103.916 83.0486 103.874 83.5302C103.863 83.6475 103.882 83.7657 103.93 83.8735C103.977 83.9813 104.052 84.0752 104.146 84.1461C104.24 84.2171 104.351 84.2629 104.468 84.279C104.585 84.2952 104.704 84.2813 104.814 84.2385C104.979 84.1584 105.112 84.0242 105.19 83.8585C105.418 83.3743 105.585 82.8636 105.686 82.3382C105.697 82.2515 105.69 82.1636 105.666 82.0795C105.642 81.9955 105.602 81.917 105.548 81.8487Z" fill="black"/>
<path d="M108.509 76.6832C106.021 76.8848 104.006 78.7103 103.002 80.9101C101.911 83.3056 102.113 86.0352 102.783 88.5287C102.033 88.6324 101.303 88.8479 100.618 89.1679C100.455 89.2418 100.327 89.3764 100.262 89.5431C100.197 89.7097 100.2 89.8951 100.27 90.0597C100.34 90.2243 100.471 90.3551 100.637 90.4241C100.802 90.4931 100.988 90.4949 101.155 90.429C101.994 90.0978 102.88 89.9033 103.781 89.8531C103.886 89.8358 103.985 89.7952 104.072 89.7344C104.159 89.6736 104.231 89.5942 104.283 89.5019C104.335 89.4096 104.366 89.3069 104.373 89.2013C104.38 89.0956 104.363 88.9898 104.324 88.8915C103.585 86.5189 103.25 83.8297 104.26 81.5262C104.653 80.636 105.245 79.8478 105.992 79.2228C106.777 78.583 107.724 78.1724 108.728 78.0365C108.908 78.0075 109.069 77.9084 109.176 77.761C109.282 77.6136 109.326 77.4299 109.297 77.2505C109.268 77.071 109.168 76.9104 109.02 76.8041C108.873 76.6977 108.689 76.6542 108.509 76.6832Z" fill="black"/>
<path d="M95.9078 91.4252C95.7144 91.426 95.5213 91.4106 95.3305 91.3792H95.1804L95.0361 91.3389L94.9207 91.3043L94.6378 91.1891C94.557 91.1546 94.4704 91.097 94.3839 91.0682L94.2453 90.9818L93.9971 90.8033L93.7835 90.6248L93.6681 90.5096C93.5358 90.3666 93.4161 90.2124 93.3102 90.0489C93.2819 90.0181 93.2586 89.9832 93.2409 89.9453C93.1832 89.8359 93.1428 89.7437 93.1024 89.6516C93.0627 89.5595 93.028 89.4653 92.9985 89.3694C92.9985 89.3061 92.9696 89.2485 92.9581 89.1967C92.9321 89.0165 92.8353 88.8539 92.6892 88.7449C92.5431 88.6358 92.3595 88.5891 92.1788 88.6151C91.9982 88.641 91.8353 88.7375 91.7259 88.8833C91.6166 89.0291 91.5698 89.2122 91.5958 89.3925C91.8012 90.3829 92.3516 91.2687 93.1494 91.8928C93.9472 92.5169 94.9408 92.8388 95.9539 92.8015C96.117 92.7765 96.2655 92.6932 96.3716 92.5671C96.4778 92.4411 96.5345 92.2809 96.5312 92.1163C96.5376 91.9429 96.4761 91.7738 96.3597 91.6448C96.2434 91.5158 96.0813 91.4371 95.9078 91.4252Z" fill="black"/>
<path d="M79.3412 119.781L77.9039 120.241C72.5164 121.957 67.1096 123.614 61.6836 125.211L60.2925 125.614L60.1539 124.232L61.5393 123.823L63.8482 123.138C68.5123 121.744 73.1648 120.303 77.8057 118.813L79.243 118.352C79.2834 118.83 79.3412 119.303 79.3412 119.781Z" fill="black"/>
<path d="M61.8221 134.661C60.1053 134.119 58.3269 133.796 56.5289 133.699L50.7566 133.123C46.9699 132.739 43.1871 132.334 39.4082 131.908C38.4507 131.853 37.4981 131.734 36.5567 131.551C35.9794 131.401 35.1482 130.912 35.4945 130.209C35.5618 130.043 35.5607 129.856 35.4916 129.691C35.4225 129.525 35.2909 129.393 35.1251 129.323C34.9572 129.262 34.7722 129.268 34.6087 129.34C34.4452 129.411 34.3159 129.544 34.2477 129.708C34.0896 130.062 34.0344 130.454 34.0885 130.838C34.1426 131.222 34.3038 131.583 34.5537 131.879C35.1212 132.515 35.9092 132.912 36.7587 132.991C38.7097 133.319 40.7127 133.451 42.6811 133.67C46.741 134.119 50.8008 134.555 54.8607 134.977C57.0358 135.107 59.1933 135.446 61.3026 135.991C62.1685 136.233 62.6995 134.977 61.8221 134.661Z" fill="black"/>
<path d="M113.848 65.7822C110.875 59.3844 105.276 54.0693 98.4591 51.9616C91.642 49.854 83.6993 51.1669 78.129 55.7508C76.5826 57.0705 75.2008 58.5708 74.0133 60.2194C73.3841 61.0659 72.7896 61.947 72.1893 62.805C71.7255 63.5741 71.111 64.242 70.3825 64.7687C69.5713 65.1943 68.6598 65.3933 67.7446 65.3446C66.7402 65.3446 65.7358 65.2985 64.7314 65.3446C62.8025 65.3819 60.8831 65.6231 59.0052 66.0644C55.3052 66.9512 51.7956 68.6903 49.2327 71.5466C46.809 74.1905 45.4751 77.6498 45.498 81.2325C45.5196 82.0751 45.6417 82.9122 45.8617 83.726C45.8957 83.921 46.0031 84.0958 46.1618 84.2145C46.3206 84.3333 46.5187 84.3872 46.716 84.3652C46.9141 84.3367 47.0928 84.231 47.2129 84.0712C47.333 83.9114 47.3847 83.7107 47.3567 83.5129C46.9724 81.9238 46.928 80.2718 47.2264 78.6644C47.5248 77.0571 48.1592 75.5305 49.0884 74.184C51.0839 71.2925 53.9916 69.1499 57.3486 68.0972C59.0906 67.5188 60.894 67.1439 62.7226 66.98C63.6289 66.8936 64.5409 66.8418 65.4529 66.8418C66.365 66.8418 67.3751 66.8994 68.3391 66.8418C69.2931 66.8234 70.2291 66.5787 71.0694 66.1277C71.8757 65.6207 72.5676 64.952 73.1013 64.1641C74.2557 62.5459 75.364 60.8702 76.6628 59.3441C81.1652 54.0462 88.3402 51.7197 95.1343 52.7908C101.784 53.8447 107.626 58.1924 111.089 63.7955C113.17 66.9946 114.365 70.6861 114.552 74.495C114.651 77.9213 113.508 81.5147 111.008 83.9448C110.397 84.5321 109.719 85.0462 108.988 85.4766C108.847 85.5889 108.755 85.7515 108.733 85.93C108.71 86.1085 108.758 86.2888 108.867 86.4325C108.981 86.5724 109.145 86.6629 109.324 86.6854C109.504 86.7079 109.685 86.6607 109.831 86.5535C112.959 84.728 114.956 81.3707 115.666 77.9156C116.538 73.827 115.58 69.508 113.848 65.7822Z" fill="black"/>
<path d="M46.2426 83.392C42.7331 82.891 39.9392 85.6955 38.323 88.4769C37.3616 89.9461 36.7787 91.6295 36.6259 93.3774C36.5766 94.9353 37.1048 96.4566 38.1094 97.6503C39.0431 98.7349 40.201 99.6052 41.5035 100.201C39.8296 103.455 40.8513 107.889 43.9972 109.899C44.0959 109.968 44.2118 110.007 44.332 110.014L45.1517 110.417C45.234 110.45 45.3229 110.464 45.4114 110.457C45.4985 110.461 45.5853 110.446 45.6654 110.411C45.7504 110.379 45.8259 110.325 45.8847 110.256C45.9532 110.195 46.0048 110.118 46.0348 110.031C46.1013 109.867 46.1013 109.683 46.0348 109.519L45.9425 109.369C45.8681 109.271 45.7682 109.196 45.6539 109.15L44.84 108.764C43.5109 107.851 42.588 106.46 42.2651 104.883C41.9422 103.306 42.2444 101.665 43.1083 100.305C43.1723 100.217 43.2154 100.116 43.2344 100.009C43.2533 99.902 43.2475 99.7922 43.2174 99.6878C43.1874 99.5834 43.1338 99.4872 43.0609 99.4065C42.988 99.3259 42.8976 99.2629 42.7965 99.2224C40.5511 98.278 38.2653 96.5504 38.0979 93.9302C38.0998 92.4298 38.5173 90.9591 39.3043 89.6804C39.9351 88.4524 40.7683 87.3389 41.7691 86.3865C42.3415 85.8305 43.0234 85.399 43.7715 85.1195C44.5197 84.84 45.3179 84.7184 46.1156 84.7626C46.2885 84.7628 46.4552 84.6986 46.583 84.5825C46.7108 84.4664 46.7905 84.3069 46.8064 84.1351C46.8223 83.9634 46.7733 83.792 46.669 83.6545C46.5647 83.517 46.4126 83.4234 46.2426 83.392Z" fill="black"/>
<path d="M109.386 92.4215C109.215 92.7616 109.022 93.0905 108.809 93.4062C108.755 93.4874 108.684 93.5561 108.601 93.6077C108.294 93.2988 107.968 93.0084 107.626 92.7382C107.645 92.6794 107.673 92.6232 107.706 92.5712C107.928 92.2329 108.122 91.8765 108.284 91.5059C108.988 89.9634 109.19 88.2394 108.861 86.5765C108.699 85.707 110.05 85.5169 110.223 86.3807C110.627 88.4311 110.333 90.5573 109.386 92.4215Z" fill="black"/>
<path d="M98.3899 108.672C98.742 108.027 99.1114 107.382 99.4635 106.737C100.329 105.265 100.916 103.647 101.195 101.963C101.205 101.874 101.198 101.783 101.173 101.696C101.148 101.61 101.106 101.529 101.05 101.458C100.994 101.388 100.924 101.329 100.845 101.285C100.766 101.241 100.679 101.214 100.589 101.203C100.499 101.193 100.408 101.201 100.321 101.226C100.235 101.25 100.153 101.292 100.083 101.348C100.012 101.404 99.9529 101.474 99.9091 101.553C99.8652 101.632 99.8374 101.718 99.8272 101.808C99.5847 103.226 99.0942 104.59 98.3783 105.839C98.0204 106.513 97.6395 107.175 97.27 107.843C96.864 108.463 96.5346 109.131 96.2887 109.83C96.0809 110.619 96.5543 111.194 96.9525 111.828C97.308 112.401 97.6076 113.006 97.8473 113.636C98.3333 114.906 98.5912 116.251 98.6092 117.61C98.6254 119.169 98.3147 120.715 97.6972 122.147C97.3393 122.982 98.6554 123.501 99.019 122.66C100.128 120.028 100.313 117.1 99.5443 114.35C99.3552 113.647 99.1021 112.963 98.7881 112.306C98.4822 111.667 98.0897 111.097 97.726 110.492C97.5529 110.216 97.6914 110.025 97.8299 109.749C97.9685 109.473 98.1821 109.029 98.3899 108.672Z" fill="black"/>
<path d="M41.1976 132.38C38.6001 132.628 36.6202 134.505 34.848 136.244C32.9951 138.076 31.223 139.993 29.5548 142.003C24.3269 148.304 20.1092 155.375 17.052 162.964C17.0186 163.05 17.0024 163.141 17.0044 163.233C17.0064 163.324 17.0264 163.415 17.0634 163.499C17.1004 163.583 17.1536 163.658 17.22 163.722C17.2863 163.785 17.3646 163.835 17.4502 163.868C17.5359 163.902 17.6273 163.918 17.7192 163.916C17.8111 163.914 17.9017 163.894 17.9859 163.857C18.07 163.82 18.1461 163.767 18.2097 163.701C18.2732 163.635 18.3231 163.556 18.3565 163.471C22.1322 154.056 27.7302 145.476 34.8307 138.22C35.7572 137.225 36.7421 136.287 37.7804 135.409C38.7865 134.512 40.0351 133.929 41.3708 133.734C42.2713 133.647 42.0692 132.3 41.1976 132.38Z" fill="black"/>
<path d="M86.268 163.373C85.3168 158.652 83.7263 154.082 81.5404 149.789C81.1248 148.971 79.8087 149.524 80.2243 150.364C82.2376 154.3 83.739 158.476 84.6921 162.791H32.7873C27.8231 162.791 22.8647 162.751 17.9063 162.791C17.7309 162.776 17.5559 162.826 17.416 162.933C17.276 163.039 17.1811 163.194 17.1501 163.367C17.1317 163.542 17.1813 163.717 17.2888 163.857C17.3962 163.996 17.5532 164.089 17.7273 164.116C26.5532 164.22 35.3791 164.145 44.205 164.145H70.5961H85.4714C85.5772 164.158 85.6847 164.148 85.7859 164.114C85.8871 164.08 85.9794 164.024 86.0559 163.95C86.1325 163.876 86.1913 163.786 86.228 163.686C86.2647 163.586 86.2784 163.479 86.268 163.373Z" fill="black"/>
<path d="M93.9856 96.6656C93.4142 98.234 92.4623 99.6367 91.2149 100.748C90.5907 101.293 89.851 101.69 89.0514 101.91C88.2517 102.129 87.4126 102.165 86.597 102.015C86.4217 101.997 86.2461 102.046 86.1065 102.154C85.9668 102.261 85.8738 102.417 85.8466 102.591C85.8296 102.766 85.8798 102.94 85.987 103.079C86.0942 103.218 86.2503 103.311 86.4238 103.34C87.3932 103.516 88.3894 103.478 89.3427 103.229C90.2959 102.98 91.1831 102.527 91.9422 101.9C93.441 100.629 94.5812 98.9893 95.2497 97.1435C95.2791 96.9856 95.2519 96.8225 95.1729 96.6825C95.094 96.5425 94.9683 96.4347 94.8178 96.3778C94.6672 96.3209 94.5014 96.3185 94.3493 96.3711C94.1972 96.4237 94.0685 96.5279 93.9856 96.6656Z" fill="black"/>
<path d="M164.864 72.6925C161.898 74.5705 158.733 76.1155 155.426 77.2994C153.78 77.8894 152.101 78.3855 150.399 78.7851C148.973 79.1191 147.051 79.5107 145.867 78.3648C147.13 77.0746 148.243 75.6471 149.186 74.1092C149.885 72.9574 151.172 71.0513 150.168 69.6981C149.59 68.8919 148.499 69.0531 147.755 69.5426C146.995 70.0731 146.327 70.7226 145.775 71.466C144.619 72.9153 143.947 74.6894 143.853 76.5393C143.839 77.0971 143.934 77.6522 144.13 78.1747C143.296 78.959 142.406 79.6826 141.469 80.34C140.124 81.2728 138.248 82.5397 136.568 81.745C135.771 81.3707 135.275 82.6434 136.072 83.0177C137.919 83.893 139.933 82.9486 141.515 81.9466C142.719 81.1788 143.851 80.3038 144.898 79.3322C145.517 79.9062 146.292 80.2865 147.126 80.4263C148.186 80.5775 149.267 80.5109 150.3 80.2305C151.299 80.0117 152.286 79.7468 153.262 79.4646C157.668 78.1763 161.865 76.2621 165.724 73.7809C166.457 73.3029 165.603 72.2203 164.864 72.6925ZM145.856 73.994C146.151 73.3088 146.54 72.6675 147.01 72.0879C147.455 71.4785 148.021 70.9669 148.673 70.5849C148.722 70.5494 148.778 70.5244 148.838 70.5115C148.898 70.4987 148.959 70.4981 149.019 70.51C148.99 70.51 149.054 70.51 149.071 70.5734C149.134 70.7974 149.134 71.0346 149.071 71.2586C148.877 71.8986 148.585 72.5047 148.205 73.0553C147.402 74.4215 146.462 75.7027 145.4 76.879C145.342 76.9424 145.284 76.9942 145.232 77.0576C145.171 75.9997 145.386 74.9441 145.856 73.994Z" fill="#EF5026" fill-opacity="0.3"/>
<path d="M132.268 64.8263C131.252 64.5729 130.882 63.4903 130.726 62.5574C130.557 61.4768 130.538 60.3782 130.669 59.2923C130.684 59.2706 130.698 59.2474 130.709 59.2232C130.954 58.8691 131.072 58.4431 131.044 58.0139C131.012 57.7902 130.893 57.5881 130.712 57.4521C130.532 57.316 130.304 57.2571 130.08 57.2883C129.936 57.3126 129.803 57.3811 129.699 57.4843C129.596 57.5875 129.527 57.7203 129.503 57.8642C129.433 58.1982 129.376 58.5437 129.33 58.8892L129.295 58.9525C129.122 59.2865 128.937 59.6205 128.747 59.9488C128.377 60.5822 127.985 61.1984 127.592 61.803C126.724 63.0492 125.759 64.2257 124.706 65.3215C124.598 65.4652 124.551 65.6459 124.576 65.824C124.6 66.0021 124.695 66.1631 124.839 66.2717C124.887 66.3104 124.941 66.3397 125 66.3581C125.962 67.0438 126.734 67.9609 127.244 69.0241C127.755 70.0873 127.988 71.2621 127.921 72.4392C127.912 72.6161 127.972 72.7897 128.087 72.9246C128.202 73.0595 128.364 73.1457 128.541 73.1655C128.717 73.1853 128.895 73.1373 129.037 73.0312C129.179 72.9252 129.275 72.7691 129.306 72.5946C129.545 70.099 130.657 67.7668 132.447 66.0068C132.77 65.6901 132.845 64.9588 132.268 64.8263ZM126.27 65.6095C127.363 64.4266 128.35 63.1511 129.22 61.7973C129.259 62.2252 129.324 62.6502 129.416 63.0699C129.582 64.0774 130.092 64.9968 130.859 65.6728C129.972 66.6874 129.258 67.8412 128.747 69.0877C128.234 67.7353 127.382 66.5374 126.27 65.6095Z" fill="#EF5026" fill-opacity="0.3"/>
<path d="M163.837 97.6503C162.526 97.3278 161.649 96.0091 161.337 94.771C161.1 93.6663 161.1 92.5242 161.337 91.4195C161.695 90.6671 161.882 89.8452 161.885 89.0124C161.86 88.8649 161.788 88.7296 161.678 88.6268C161.569 88.524 161.43 88.4593 161.281 88.4425C161.132 88.4256 160.981 88.4574 160.852 88.5332C160.723 88.609 160.621 88.7246 160.564 88.8627C160.379 89.5882 160.194 90.3253 160.056 91.0682C159.61 91.8841 159.05 92.6325 158.393 93.291C157.239 94.5118 155.915 95.561 154.462 96.4064C154.301 96.4808 154.173 96.6141 154.107 96.7789C154.04 96.9438 154.039 97.1278 154.104 97.2932C154.142 97.3882 154.203 97.4717 154.283 97.5351C154.298 97.6692 154.357 97.7946 154.451 97.8921C156.384 100.046 158.087 102.902 157.677 105.851C157.556 106.288 157.447 106.732 157.366 107.181C157.347 107.347 157.39 107.515 157.486 107.652C157.582 107.79 157.725 107.888 157.888 107.928C158.051 107.968 158.224 107.948 158.373 107.871C158.522 107.794 158.638 107.665 158.699 107.509C158.852 107.06 158.962 106.597 159.028 106.127C159.881 103.197 161.715 100.646 164.223 98.8999C164.731 98.4853 164.368 97.7655 163.837 97.6503ZM158.826 102.908C158.24 100.788 157.163 98.8347 155.68 97.2069C157.113 96.3043 158.423 95.2203 159.577 93.9821L159.813 93.7172C159.838 94.2749 159.929 94.8277 160.085 95.3641C160.435 96.6565 161.259 97.7705 162.393 98.4853C160.927 99.7095 159.716 101.208 158.826 102.896V102.908Z" fill="#EF5026" fill-opacity="0.3"/>
<path d="M170.856 45.4602C170.941 45.3377 170.985 45.191 170.981 45.0418C170.977 44.8926 170.924 44.7487 170.832 44.6313C170.739 44.5139 170.612 44.4293 170.467 44.3898C170.323 44.3503 170.17 44.3581 170.03 44.4121C166.836 46.0168 163.619 47.5832 160.379 49.1111L159.259 49.6409C158.87 49.8483 158.467 50.0292 158.053 50.1822C157.816 50.2513 157.735 50.2283 157.62 50.0152C157.474 49.6687 157.366 49.3077 157.296 48.9383C156.835 47.1877 156.384 45.4352 155.946 43.6807C155.457 41.7113 154.976 39.738 154.503 37.7609C154.33 37.0468 153.187 36.949 153.129 37.7609C152.798 42.5713 152.582 47.3854 152.482 52.2035C150.065 50.7999 147.529 49.611 144.903 48.6504C144.268 48.4258 143.605 49.1975 144.078 49.7503C145.98 51.9694 148.049 54.0408 150.266 55.9466C147.211 59.073 144.417 62.4434 141.913 66.0241C141.55 66.5424 142.104 67.4637 142.75 67.0894C146.576 64.8858 150.183 62.3231 153.521 59.4363C154.726 63.2753 155.934 67.1144 157.146 70.9534C157.208 71.0948 157.314 71.2121 157.448 71.2874C157.583 71.3627 157.739 71.3918 157.892 71.3702C158.044 71.3486 158.186 71.2775 158.294 71.1679C158.403 71.0583 158.472 70.9161 158.491 70.7634V61.8779L169.58 66.7151C170.238 67.003 170.734 66.1796 170.382 65.644L162.359 54.2132C165.359 51.4623 168.196 48.5397 170.856 45.4602ZM161.043 53.574C160.902 53.6901 160.811 53.8556 160.788 54.0366C160.766 54.2175 160.813 54.4002 160.922 54.5472L167.848 64.4174L158.07 60.1446C157.97 60.1061 157.862 60.091 157.755 60.1005C157.648 60.11 157.544 60.1439 157.452 60.1995C157.36 60.2551 157.282 60.3309 157.224 60.4212C157.166 60.5115 157.13 60.6139 157.118 60.7204V66.1681L154.508 57.916C154.466 57.8179 154.402 57.7306 154.321 57.6609C154.24 57.5911 154.144 57.5407 154.041 57.5135C153.937 57.4863 153.829 57.483 153.724 57.5039C153.619 57.5247 153.52 57.5692 153.435 57.6338C150.833 59.9542 148.056 62.0719 145.128 63.9683C147.154 61.311 149.356 58.7927 151.72 56.4303C151.805 56.3628 151.873 56.2774 151.919 56.1802C151.966 56.083 151.99 55.9766 151.99 55.8688C151.99 55.761 151.966 55.6546 151.919 55.5574C151.873 55.4603 151.805 55.3748 151.72 55.3073C150.165 53.9898 148.68 52.5924 147.27 51.1208C149.058 51.9039 150.794 52.8022 152.465 53.8101C152.465 54.0865 153.885 53.7813 153.885 53.0212C153.885 52.261 153.885 53.0212 153.856 53.0212C153.925 49.4892 154.054 45.9592 154.243 42.4311C154.809 44.7346 155.386 47.0188 155.975 49.2839C156.165 50.0267 156.321 50.9078 157.031 51.3512C157.741 51.7946 158.676 51.4203 159.426 51.069C161.174 50.2551 162.915 49.4297 164.65 48.5928L167.387 47.2568C165.349 49.4624 163.236 51.5815 161.02 53.574H161.043Z" fill="#EF5026" fill-opacity="0.3"/>
<path d="M78.3945 112.047C78.3945 112.047 83.1163 113.452 84.5189 108.995C85.9216 104.538 85.0327 103.518 85.0327 103.518C85.0327 103.518 91.4169 99.6946 89.1137 93.0722C86.8106 86.4498 82.7353 85.8164 81.9676 84.6704C81.3964 83.7632 80.891 82.8164 80.4552 81.8372C80.4552 81.8372 71.8544 79.2861 76.0971 73.1993C78.1405 70.2739 82.0946 75.5027 82.0946 75.5027C82.0946 75.5027 90.0084 77.668 97.5413 74.7426C105.074 71.8172 108.566 68.2123 108.566 68.2123C108.566 68.2123 109.911 73.4469 108.705 78.0423C107.499 82.6376 104.474 89.7034 104.474 89.7034L108.647 92.3121C109.005 91.4538 109.263 90.5572 109.415 89.6401C109.669 88.114 109.877 86.5592 109.877 86.5592C109.877 86.5592 114.778 83.5302 115.031 76.2686C115.133 71.6228 113.901 67.045 111.481 63.0742C109.061 59.1035 105.555 55.9052 101.374 53.8562C91.1571 48.8865 80.9459 53.217 78.5215 56.5282C76.0971 59.8394 72.2643 64.9299 70.2209 65.5634C68.1775 66.1968 52.0958 65.6901 48.7767 72.825C45.4576 79.9599 46.2426 83.392 46.2426 83.392C46.2426 83.392 36.903 86.8472 37.4167 92.9455C37.9305 99.0439 42.0346 99.6946 42.0346 99.6946C42.0346 99.6946 40.2452 104.664 42.4156 107.083C44.586 109.501 45.3537 109.882 45.3537 109.882C45.3537 109.882 53.2445 95.8766 55.2879 93.9648C57.3313 92.0529 64.3331 84.2846 70.4806 85.5572C76.6282 86.8299 76.2241 91.5462 76.6051 95.6175C76.9861 99.6888 78.3945 112.047 78.3945 112.047Z" fill="black"/>
<path d="M66.7286 65.6152C63.8425 65.644 60.9563 65.7419 58.0701 65.8456C55.3303 65.8792 52.6092 66.3019 49.9889 67.1009C48.7397 67.4892 47.5677 68.0913 46.5255 68.8803C45.6023 69.6252 44.8337 70.5426 44.2627 71.5811C43.1138 73.7303 42.5524 76.1435 42.6349 78.5778C42.6182 80.0151 42.9868 81.4306 43.7028 82.6779C44.0299 83.2518 44.4718 83.7524 45.0011 84.1487C45.5304 84.545 46.1357 84.8284 46.7795 84.9814C46.9609 85.0012 47.1432 84.9533 47.2914 84.847C47.4395 84.7407 47.543 84.5834 47.5818 84.4055C47.623 84.2315 47.6009 84.0486 47.5195 83.8894C47.4381 83.7301 47.3027 83.6049 47.1373 83.536C46.2527 83.1529 45.5044 82.5127 44.99 81.699C44.4611 80.7308 44.1833 79.6459 44.1819 78.5433C44.0993 76.3822 44.5933 74.238 45.6134 72.3297C47.9916 68.1087 53.5562 67.6192 57.9085 67.3428C60.8524 67.1585 63.8021 67.124 66.7459 66.9512C67.5194 66.9397 67.5137 65.6095 66.7286 65.6152Z" fill="black"/>
<path d="M46.1791 82.8277C44.1754 82.5608 42.1368 82.8495 40.2867 83.6621C38.4366 84.4748 36.8465 85.7799 35.6908 87.4345C34.536 89.1057 33.8486 91.0537 33.6994 93.078C33.6046 94.1024 33.6787 95.1353 33.9187 96.1358C34.2043 97.2045 34.8454 98.1446 35.737 98.802C36.6658 99.4903 37.7465 99.9463 38.8886 100.132C40.0306 100.317 41.2005 100.226 42.3001 99.8673C42.4021 99.8242 42.4945 99.7615 42.5722 99.6828C42.6498 99.604 42.7112 99.5108 42.7527 99.4084C42.7943 99.306 42.8152 99.1964 42.8143 99.086C42.8134 98.9755 42.7907 98.8663 42.7475 98.7646C42.7043 98.6629 42.6414 98.5706 42.5625 98.4932C42.4835 98.4157 42.3901 98.3545 42.2874 98.313C42.1848 98.2716 42.075 98.2507 41.9642 98.2516C41.8535 98.2525 41.744 98.2752 41.6421 98.3183C40.8797 98.5421 40.0777 98.5983 39.2914 98.483C38.5051 98.3677 37.7533 98.0836 37.0877 97.6503C36.3658 97.2275 35.83 96.549 35.5869 95.75C35.3918 94.9379 35.3314 94.0995 35.408 93.268C35.5217 91.6273 36.0518 90.0423 36.9485 88.6622C37.8451 87.2821 39.0789 86.1522 40.5338 85.3787C42.2239 84.502 44.1224 84.1036 46.0233 84.227C46.2093 84.2476 46.3959 84.1937 46.542 84.0771C46.6882 83.9604 46.7819 83.7906 46.8025 83.6051C46.8232 83.4195 46.7691 83.2334 46.6522 83.0876C46.5353 82.9418 46.3651 82.8483 46.1791 82.8277Z" fill="black"/>
<path d="M44.788 111.206C44.1633 111.188 43.5535 111.011 43.0159 110.693C42.5485 110.394 42.1332 110.021 41.7864 109.588C41.101 108.715 40.65 107.683 40.4761 106.588C40.0258 103.898 41.1399 101.365 42.3983 99.0554C42.7677 98.3701 41.6248 97.7367 41.1976 98.3874C39.541 100.915 38.4211 104.146 39.0792 107.169C39.3476 108.506 39.9626 109.749 40.8628 110.774C41.3413 111.309 41.9074 111.759 42.5368 112.104C43.2127 112.532 44.0164 112.713 44.8111 112.617C44.9793 112.588 45.1316 112.5 45.2404 112.369C45.3493 112.238 45.4076 112.072 45.4048 111.902C45.4021 111.731 45.3384 111.568 45.2253 111.44C45.1121 111.313 44.9571 111.23 44.788 111.206Z" fill="black"/>
<path d="M87.5667 106.899C87.461 105.556 86.9338 104.28 86.0602 103.253C85.4829 102.557 84.3285 103.432 84.9057 104.129C85.665 105.058 86.0953 106.212 86.1297 107.41C86.1642 108.609 85.8008 109.785 85.0962 110.757C84.4332 111.763 83.4987 112.561 82.4005 113.06C81.171 113.556 79.5143 113.106 78.4695 112.438C77.7365 111.983 76.9226 113.014 77.6499 113.527C78.7418 114.276 80.036 114.678 81.3615 114.678C82.6494 114.617 83.8705 114.088 84.796 113.193C85.7182 112.432 86.4491 111.467 86.9303 110.374C87.4114 109.281 87.6294 108.091 87.5667 106.899Z" fill="black"/>
<path d="M112.243 89.2888C111.971 87.4776 111.128 85.7997 109.836 84.4977C109.721 84.3574 109.556 84.2667 109.376 84.2442C109.195 84.2217 109.013 84.2692 108.867 84.3767C108.724 84.4891 108.631 84.6529 108.609 84.8328C108.586 85.0127 108.635 85.1943 108.745 85.3384C109.562 86.1835 110.174 87.203 110.536 88.3196C110.898 89.4362 111 90.6204 110.835 91.7823C110.78 92.1588 110.695 92.5304 110.581 92.8937C110.403 93.299 110.254 93.7166 110.137 94.1433C110.004 94.8862 110.968 95.1107 111.389 94.6385C111.664 94.2568 111.861 93.8241 111.966 93.3659C112.093 92.9206 112.186 92.4662 112.243 92.0069C112.382 91.1061 112.382 90.1895 112.243 89.2888Z" fill="black"/>
<path d="M95.5556 49.3933C95.4027 49.2818 95.2121 49.2343 95.0246 49.2608C94.8384 49.2881 94.6704 49.3874 94.557 49.5372C94.4358 49.7445 94.3319 49.9519 94.2338 50.1649C94.0952 49.9519 93.9509 49.733 93.8066 49.5257C93.7484 49.4502 93.6754 49.3872 93.5921 49.3407C93.5087 49.2941 93.4167 49.265 93.3218 49.2551C93.1689 49.2411 93.0154 49.2753 92.8831 49.353C92.7344 49.44 92.6222 49.5775 92.567 49.7405C92.5119 49.9034 92.5175 50.0807 92.5829 50.2398C92.7099 50.5507 92.8542 50.856 93.01 51.1496C93.1724 51.4945 93.3656 51.8241 93.5873 52.1344C93.6777 52.2498 93.8033 52.3327 93.9452 52.3705L94.0144 52.4453C94.0721 52.4726 94.128 52.5033 94.1818 52.5375C94.3194 52.5776 94.4656 52.5776 94.6032 52.5375C94.7145 52.5449 94.8259 52.5239 94.9269 52.4766C95.0279 52.4292 95.1151 52.357 95.1804 52.2668C95.3172 52.0304 95.4312 51.7817 95.521 51.5239L95.7808 50.9078C95.8613 50.7247 95.9138 50.5306 95.9366 50.3319C95.9562 50.1562 95.9316 49.9784 95.8651 49.8145C95.7986 49.6507 95.6922 49.5059 95.5556 49.3933Z" fill="black"/>
<path d="M62.307 135.271L41.1976 132.392C41.1976 132.392 30.4784 139.878 25.3757 148.867C20.2729 157.856 16.9076 162.112 17.9063 162.791C18.9049 163.471 45.7982 163.131 50.0524 163.298C54.3066 163.465 85.2636 162.958 85.2636 162.958C85.2636 162.958 83.9013 156.849 82.7122 153.958C81.5231 151.067 80.8362 149.714 80.8362 149.714C80.8362 149.714 72.3278 156.676 68.0736 153.618C63.8194 150.56 62.307 135.271 62.307 135.271Z" fill="black"/>
</g>
<defs>
<clipPath id="clip0_266_1911">
<rect width="154" height="127" fill="white" transform="translate(17 37.1851)"/>
</clipPath>
<clipPath id="clip1_266_1911">
<rect width="17.8258" height="35.4321" fill="white" transform="matrix(0.945787 0.324787 -0.326174 0.94531 108.215 118.971)"/>
</clipPath>
<clipPath id="clip2_266_1911">
<rect width="14.9268" height="35.4321" fill="white" transform="matrix(0.945787 0.324787 -0.326174 0.94531 133.847 105.022)"/>
</clipPath>
</defs>
</svg>
