<svg width="150" height="168" viewBox="0 0 150 168" fill="none" xmlns="http://www.w3.org/2000/svg">
<path d="M5.87881 37.925L3.88216 37.8092L3.81563 38.9568L4.77373 39.592L5.87881 37.925ZM11.6638 41.76L10.5587 43.427L11.455 44.0211L12.4449 43.6012L11.6638 41.76ZM8.86881 47.74L10.2114 46.2576L8.67069 44.8623L7.33577 46.4556L8.86881 47.74ZM2.82381 54.955L1.29077 53.6706L0.0877646 55.1064L1.44185 56.4007L2.82381 54.955ZM15.2388 32.14L13.2432 32.0081L13.0622 34.7457L15.7239 34.0803L15.2388 32.14ZM15.7588 24.275V22.275H13.8867L13.7632 24.1431L15.7588 24.275ZM35.1288 24.275V26.275H37.1288V24.275H35.1288ZM35.1288 15.5H37.1288V13.5H35.1288V15.5ZM7.17881 15.5V13.5H5.29139L5.18216 15.3842L7.17881 15.5ZM4.77373 39.592L10.5587 43.427L12.7689 40.093L6.98388 36.258L4.77373 39.592ZM12.4449 43.6012C14.4435 42.7533 16.7684 42.07 19.2688 42.07V38.07C16.0492 38.07 13.1741 38.9467 10.8827 39.9188L12.4449 43.6012ZM19.2688 42.07C21.4258 42.07 22.9678 42.5768 23.9196 43.2976C24.8052 43.9682 25.3288 44.9273 25.3288 46.31H29.3288C29.3288 43.7277 28.26 41.5668 26.3343 40.1087C24.4748 38.7007 21.9868 38.07 19.2688 38.07V42.07ZM25.3288 46.31C25.3288 47.8409 24.8058 48.8333 24.0122 49.4848C23.1642 50.1811 21.7675 50.68 19.7238 50.68V54.68C22.3601 54.68 24.766 54.0414 26.5504 52.5764C28.3893 51.0667 29.3288 48.8741 29.3288 46.31H25.3288ZM19.7238 50.68C16.3842 50.68 13.4637 49.2031 10.2114 46.2576L7.52625 49.2224C11.1639 52.5169 15.0034 54.68 19.7238 54.68V50.68ZM7.33577 46.4556L1.29077 53.6706L4.35685 56.2394L10.4018 49.0244L7.33577 46.4556ZM1.44185 56.4007C6.19688 60.946 12.0098 63.78 19.8538 63.78V59.78C13.1378 59.78 8.29074 57.414 4.20577 53.5093L1.44185 56.4007ZM19.8538 63.78C25.4686 63.78 30.3084 62.1373 33.7679 58.9948C37.2482 55.8334 39.1438 51.3221 39.1438 45.985H35.1438C35.1438 50.3329 33.6269 53.7191 31.0784 56.034C28.5092 58.3677 24.704 59.78 19.8538 59.78V63.78ZM39.1438 45.985C39.1438 40.3329 37.2186 36.0656 33.8194 33.2554C30.4828 30.497 25.9884 29.36 21.2188 29.36V33.36C25.4192 33.36 28.8874 34.368 31.2707 36.3383C33.5915 38.2569 35.1438 41.3021 35.1438 45.985H39.1438ZM21.2188 29.36C18.4669 29.36 16.6705 29.7205 14.7537 30.1997L15.7239 34.0803C17.4471 33.6495 18.9007 33.36 21.2188 33.36V29.36ZM17.2345 32.2719L17.7545 24.4069L13.7632 24.1431L13.2432 32.0081L17.2345 32.2719ZM15.7588 26.275H35.1288V22.275H15.7588V26.275ZM37.1288 24.275V15.5H33.1288V24.275H37.1288ZM35.1288 13.5H7.17881V17.5H35.1288V13.5ZM5.18216 15.3842L3.88216 37.8092L7.87546 38.0407L9.17546 15.6157L5.18216 15.3842Z" fill="black" fill-opacity="0.1"/>
<g clip-path="url(#clip0_266_1912)">
<path d="M46.3186 140.216C46.3186 140.216 37.3494 130.123 35.5322 115.724C33.715 101.324 36.3269 93.605 37.3494 90.9984C38.3719 88.3919 41.4287 80.5669 41.4287 80.5669C41.4287 80.5669 51.8655 65.823 62.6202 60.1543C73.3748 54.4856 88.5797 49.2672 107.98 53.5744C127.381 57.8815 138.263 70.358 140.53 74.1036C142.798 77.8491 150.851 91.7931 147.9 109.71C144.949 127.628 137.866 136.73 136.986 137.9C136.107 139.071 129.156 148.438 123.742 150.652C118.327 152.867 115.689 154.959 111.604 156.321C103.799 159.092 95.4587 160.024 87.234 159.044C75.2238 157.688 66.4823 156.093 57.7514 149.291C49.0206 142.488 46.3186 140.216 46.3186 140.216Z" fill="#EF5026" fill-opacity="0.3"/>
<path d="M114.131 66.6177C113.681 66.5064 95.9861 59.6987 85.8936 67.9792C75.8012 76.2598 72.0503 90.9984 72.0503 90.9984L76.0184 118.897C76.0184 118.897 60.1249 130.69 57.4177 133.074C55.8304 134.434 54.5223 136.089 53.5661 137.948L56.3846 138.631C56.3846 138.631 59.8971 137.153 61.5977 139.082C63.2983 141.01 63.3036 142.033 63.3036 142.033C63.3036 142.033 66.3657 142.26 67.3829 144.072C67.9374 144.992 68.3584 145.985 68.6332 147.023L71.1285 155.415L75.8966 157.227L89.2843 158.906C90.5902 157.238 91.9911 155.646 93.4802 154.138C94.3058 153.304 95.2657 152.615 96.3198 152.099C96.3198 152.099 99.721 146.202 101.877 145.519C104.034 144.835 104.934 145.863 104.934 145.863C104.934 145.863 108.452 143.251 110.153 144.274C111.853 145.296 112.309 145.18 112.309 145.18C112.309 145.18 100.288 155.955 103.578 157.767C106.868 159.579 123.763 150.626 123.763 150.626C123.763 150.626 128.753 146.541 132.155 143.707C135.556 140.872 135.598 138.663 135.598 138.663C135.598 138.663 127.164 134.293 128.976 120.571C130.788 106.85 129.659 79.6345 126.258 75.4386C122.857 71.2427 114.131 66.6177 114.131 66.6177Z" fill="white"/>
<path d="M86.8155 71.1209C86.1956 70.6388 85.5016 71.5871 86.0897 72.0904C86.4342 72.4028 86.6823 72.8072 86.8049 73.2559C86.9441 73.8041 86.9889 74.3721 86.9373 74.9353C86.8093 76.2555 86.4506 77.5429 85.8778 78.7392C85.3888 79.8928 84.6674 80.9334 83.7586 81.796C82.5368 82.8513 81.1048 83.635 79.5574 84.0953C77.8674 84.6675 76.0926 85.0701 74.3973 85.7959C74.2427 85.8636 74.1207 85.989 74.0573 86.1454C73.994 86.3018 73.9943 86.4768 74.0582 86.633C74.281 87.1303 74.5976 87.58 74.9907 87.9574C75.4668 88.4727 75.9765 88.9559 76.5164 89.4038C76.9333 89.7817 77.3961 90.1056 77.8939 90.368C78.3601 90.5958 79.1124 90.4845 79.1124 89.8382C79.1281 89.677 79.0822 89.5158 78.9839 89.387C78.8856 89.2583 78.7423 89.1715 78.5826 89.1442C78.5006 89.1262 78.4156 89.1262 78.3336 89.1442L78.1058 89.0011C77.6987 88.7163 77.3094 88.4067 76.9403 88.074C76.5666 87.7419 76.2128 87.3881 75.8807 87.0144C75.7853 86.9085 75.7006 86.8025 75.6158 86.6913C78.6462 85.5522 81.9732 85.1019 84.4844 82.8874C85.5741 81.8966 86.4424 80.6871 87.0327 79.3378C87.6563 78.0246 88.0419 76.6111 88.1717 75.1631C88.2883 73.7062 88.0393 72.0745 86.8155 71.1209Z" fill="#253139"/>
<path d="M111.217 69.4044C109.284 67.3329 106.38 66.5276 103.636 66.2839C100.934 66.0513 98.2136 66.1509 95.5358 66.5806C92.8121 66.9517 90.1938 67.8786 87.8433 69.3037C85.3957 70.8613 83.605 73.2559 82.1481 75.7194C80.3839 78.6756 79.0435 81.8596 77.3482 84.8529C77.2568 84.9832 77.2186 85.1434 77.2412 85.3009C77.2638 85.4584 77.3457 85.6013 77.4701 85.7006C77.5336 85.7484 77.606 85.7833 77.6831 85.803C77.7602 85.8228 77.8404 85.8272 77.9192 85.8159C77.998 85.8045 78.0737 85.7778 78.1421 85.7371C78.2105 85.6964 78.2702 85.6425 78.3177 85.5787C79.7958 83.0093 81.009 80.2809 82.4341 77.7061C83.7533 75.3062 85.3162 72.8321 87.483 71.105C89.5591 69.5469 91.973 68.4997 94.5292 68.0481C97.0735 67.5481 99.668 67.3507 102.259 67.46C105.014 67.5501 108.267 68.0587 110.243 70.1778C110.348 70.3065 110.498 70.3898 110.663 70.4105C110.827 70.4312 110.994 70.3877 111.127 70.2891C111.255 70.1827 111.336 70.0305 111.353 69.8651C111.37 69.6997 111.321 69.5343 111.217 69.4044Z" fill="#253139"/>
<path d="M108.378 80.3656C108.049 78.5802 106.492 77.3088 104.934 76.5776C103.186 75.7968 101.279 75.434 99.3661 75.5181C98.362 75.5505 97.3679 75.729 96.4152 76.0479C95.6629 76.3022 96.1503 77.4359 96.8973 77.1869C98.4208 76.7399 100.026 76.6475 101.591 76.9167C103.207 77.0936 104.739 77.7297 106.004 78.7498C106.579 79.2813 106.995 79.9616 107.207 80.7153C107.419 81.3563 108.505 81.0278 108.378 80.3656Z" fill="#253139"/>
<path d="M97.994 82.1298C97.6552 82.0147 97.2911 81.9958 96.9422 82.0753C96.5933 82.1548 96.2733 82.3296 96.0179 82.5801L95.9225 82.6808C95.7687 82.7832 95.6281 82.9042 95.504 83.041C95.0819 83.5559 94.8801 84.2166 94.9424 84.8794C94.9533 84.959 94.9801 85.0356 95.021 85.1048C95.062 85.1739 95.1163 85.2342 95.1808 85.282C95.267 85.4042 95.3909 85.4947 95.5335 85.5396C95.6761 85.5846 95.8295 85.5816 95.9702 85.531C96.298 85.403 96.6038 85.2242 96.8761 85.0013C97.2793 84.7721 97.6243 84.4531 97.8843 84.069C98.1443 83.685 98.3123 83.2462 98.3754 82.7868C98.3928 82.6506 98.3648 82.5124 98.2959 82.3937C98.227 82.275 98.1209 82.1822 97.994 82.1298Z" fill="#253139"/>
<path d="M98.1158 82.898C98.1158 82.898 98.1158 82.9298 98.1741 82.9563C98.1575 82.9342 98.1379 82.9146 98.1158 82.898Z" fill="#253139"/>
<path d="M101.549 84.8264C101.511 84.6838 101.422 84.56 101.299 84.4788C101.176 84.3977 101.027 84.3649 100.881 84.3867C100.77 84.3867 100.659 84.4344 100.542 84.4503C100.171 84.3761 100.15 84.3602 100.134 84.3443C100.118 84.3284 100.05 84.2278 100.007 84.1695L99.9595 84.0741C99.9224 83.9947 99.8906 83.9152 99.8588 83.8357C99.5939 83.1576 99.4456 82.3576 98.7992 81.9073C98.5682 81.753 98.306 81.6516 98.0312 81.6103C97.7565 81.5691 97.476 81.5891 97.2099 81.6689C97.1313 81.6804 97.0557 81.7072 96.9874 81.7479C96.9192 81.7886 96.8596 81.8424 96.8122 81.9061C96.7163 82.0347 96.6754 82.1962 96.6986 82.355C96.7218 82.5138 96.8071 82.6568 96.9358 82.7527C97.0644 82.8486 97.2259 82.8894 97.3847 82.8662C97.4945 82.8391 97.606 82.8196 97.7185 82.8079H97.8933C98.0681 82.8662 98.0575 82.8715 98.031 82.8609C98.0952 82.9092 98.1523 82.9663 98.2006 83.0305C98.2694 83.1788 98.3489 83.3165 98.4072 83.4702C98.6562 84.143 98.8098 84.9589 99.4668 85.3827C99.7213 85.5371 100.008 85.6316 100.304 85.6591C100.601 85.6866 100.899 85.6465 101.178 85.5416C101.317 85.489 101.432 85.3869 101.5 85.2549C101.568 85.1229 101.586 84.9704 101.549 84.8264Z" fill="#253139"/>
<path d="M98.2694 83.094C98.3065 83.1629 98.2694 83.1364 98.2694 83.094V83.094Z" fill="#253139"/>
<path d="M97.9463 82.8185C97.9834 82.8185 98.0098 82.8503 98.0257 82.8185H97.9516H97.9463Z" fill="#253139"/>
<path d="M86.789 79.306C86.7104 79.1038 86.6109 78.9103 86.4923 78.7286C86.3266 78.5136 86.1048 78.3486 85.8513 78.2518C85.7358 78.2149 85.6117 78.2149 85.4963 78.2518C85.41 78.1689 85.3015 78.1128 85.184 78.0903C85.0665 78.0677 84.945 78.0796 84.8341 78.1246C84.3849 78.2674 83.986 78.5358 83.6844 78.8981C83.3428 79.0511 83.0588 79.309 82.8739 79.6345C82.77 79.8869 82.7543 80.167 82.8293 80.4294C82.9043 80.6919 83.0656 80.9214 83.2871 81.0808C83.6573 81.3758 84.1121 81.5447 84.5851 81.5629C84.8661 81.5905 85.1497 81.5489 85.411 81.4418C85.6723 81.3346 85.9035 81.1653 86.0844 80.9484C86.2649 80.7072 86.3766 80.4216 86.4075 80.1219C86.4867 80.0941 86.5595 80.0508 86.6216 79.9945C86.6838 79.9382 86.7342 79.8701 86.7697 79.7941C86.8052 79.7181 86.8252 79.6358 86.8285 79.552C86.8318 79.4682 86.8184 79.3846 86.789 79.306ZM85.1996 80.0636C85.1791 80.1451 85.1326 80.2176 85.0672 80.2703L84.9771 80.3126C85.0289 80.1934 85.0928 80.0798 85.1678 79.9736C85.1678 79.9418 85.2049 79.91 85.2208 79.8729C85.2049 79.9365 85.1996 80.0001 85.189 80.0636H85.1996Z" fill="#253139"/>
<path d="M87.5519 95.5069C86.0526 97.1969 83.3454 97.0539 81.5971 95.8407C80.956 95.3957 80.2249 96.3705 80.8713 96.8155C83.1229 98.4048 86.6989 98.532 88.5267 96.2433C89.03 95.6235 88.0658 94.9294 87.5519 95.5069Z" fill="#253139"/>
<path d="M94.5292 114.505C89.8891 114.879 85.2747 113.522 81.5759 110.696C79.795 109.353 78.4259 107.538 77.6237 105.456C76.7971 103.04 76.3833 100.503 76.3999 97.9492C76.3349 95.0702 76.6394 92.1948 77.3058 89.3932C77.4648 88.7309 76.2992 88.429 76.1297 89.1018C75.4898 91.7026 75.1608 94.3702 75.1496 97.0486C75.0736 99.819 75.4311 102.584 76.2092 105.244C76.9429 107.544 78.2956 109.597 80.119 111.178C82.025 112.812 84.2363 114.05 86.6248 114.823C89.2221 115.726 91.9794 116.076 94.7199 115.851C95.5516 115.724 95.3609 114.431 94.5292 114.505Z" fill="#253139"/>
<path d="M96.2086 124.322C96.1715 123.294 96.145 122.266 96.092 121.233C96.0601 119.171 95.7536 117.122 95.1808 115.141C95.1155 114.992 94.9949 114.875 94.8446 114.814C94.6943 114.752 94.5261 114.752 94.3755 114.812C94.2284 114.881 94.113 115.003 94.0529 115.153C93.9928 115.304 93.9926 115.472 94.0523 115.623C94.5738 117.549 94.8462 119.534 94.8629 121.53C94.9106 122.558 94.9371 123.586 94.9742 124.613C94.9705 125.499 95.0253 126.384 95.1384 127.262C95.172 127.415 95.2621 127.549 95.3906 127.638C95.5192 127.727 95.6766 127.765 95.8314 127.743C95.9862 127.72 96.1269 127.641 96.2254 127.519C96.3238 127.398 96.3727 127.243 96.3622 127.087C96.3304 126.166 96.2404 125.244 96.2086 124.322Z" fill="#253139"/>
<path d="M95.2285 127.792C90.8365 127.321 86.5294 126.261 82.1322 125.805C78.8538 125.421 75.5381 125.489 72.2781 126.007C72.045 126.044 71.8172 126.086 71.5894 126.134C71.3616 126.182 71.1868 126.213 70.9802 126.261C68.1062 126.885 65.3597 127.994 62.8586 129.54C59.5103 131.628 56.8031 134.446 54.382 137.514C54.0535 137.922 53.7356 138.335 53.4231 138.753C52.8127 138.803 52.207 138.898 51.6112 139.039C51.9715 138.557 52.3317 138.075 52.6708 137.604C53.4972 136.544 54.3449 135.485 55.2349 134.478C57.5155 131.808 60.2332 129.546 63.2718 127.787C65.4708 126.569 67.8277 125.662 70.2756 125.09C70.6888 124.989 71.1073 124.899 71.5259 124.82C71.8384 124.762 72.151 124.703 72.4689 124.656C80.1614 123.432 87.8327 125.429 95.3768 126.563C95.5333 126.59 95.6733 126.676 95.7681 126.804C95.8628 126.931 95.9051 127.09 95.886 127.248C95.867 127.406 95.7882 127.55 95.6658 127.651C95.5435 127.752 95.3869 127.803 95.2285 127.792Z" fill="#253139"/>
<path d="M124.568 98.3942C124.537 97.2666 124.214 96.1664 123.631 95.2007C123.048 94.2351 122.224 93.4371 121.241 92.8845C118.846 91.6183 116.065 92.4659 114.2 94.2566C114.075 94.3584 113.995 94.5045 113.975 94.6645C113.955 94.8244 113.998 94.9857 114.094 95.1149C114.194 95.2428 114.34 95.3263 114.5 95.3472C114.661 95.368 114.824 95.3245 114.952 95.2261C116.388 93.8911 118.359 93.0752 120.25 93.8381C121.079 94.2081 121.793 94.7935 122.319 95.5333C122.844 96.2731 123.162 97.1403 123.238 98.0446C123.349 99.1616 123.233 100.289 122.899 101.361C122.655 102.274 122.214 103.122 121.607 103.846C121.068 104.393 120.419 104.818 119.703 105.092C118.986 105.366 118.219 105.483 117.453 105.435C115.302 105.403 113.363 104.646 111.392 103.878C110.608 103.57 110.206 104.699 110.926 105.07C111.884 105.545 112.889 105.919 113.925 106.187C114.924 106.48 115.953 106.657 116.992 106.717C118.889 106.802 120.865 106.368 122.258 104.995C123.969 103.342 124.674 100.725 124.568 98.3942Z" fill="#253139"/>
<path d="M119.328 97.1227C117.432 97.8962 115.376 98.1187 113.437 98.7439C113.349 98.7822 113.271 98.84 113.209 98.9128C113.146 98.9857 113.101 99.0717 113.077 99.1644C113.052 99.2572 113.049 99.3543 113.067 99.4484C113.086 99.5426 113.125 99.6314 113.183 99.7081C113.697 100.485 114.265 101.225 114.884 101.923C115.4 102.58 116.012 103.155 116.701 103.629C116.833 103.716 116.993 103.749 117.149 103.722C117.304 103.695 117.444 103.61 117.539 103.483C117.633 103.356 117.676 103.198 117.658 103.041C117.64 102.884 117.563 102.74 117.442 102.638C116.404 101.769 115.479 100.775 114.687 99.6763C116.399 99.2101 118.163 98.9558 119.805 98.2565C119.956 98.1932 120.075 98.0729 120.136 97.9219C120.198 97.7709 120.197 97.6015 120.134 97.4512C120.07 97.3009 119.95 97.1818 119.799 97.1202C119.648 97.0586 119.479 97.0595 119.328 97.1227Z" fill="#253139"/>
<path d="M113.819 105.467C113.819 107.464 113.612 109.446 113.427 111.422C113.331 112.444 113.236 113.467 113.188 114.489C113.146 115.31 113.13 116.126 113.013 116.937C112.868 118.095 112.519 119.218 111.98 120.253C111.408 121.292 110.715 122.26 109.914 123.135C108.975 124.138 108.1 125.199 107.297 126.314C106.562 127.431 105.958 128.629 105.496 129.885C104.358 133.001 104.083 136.368 104.701 139.627C104.781 140.041 104.871 140.454 104.971 140.862C105.23 141.879 105.569 142.875 105.983 143.839C106.066 143.797 106.158 143.776 106.252 143.778C106.345 143.78 106.436 143.806 106.517 143.852C106.598 143.898 106.666 143.964 106.715 144.043C106.765 144.122 106.793 144.212 106.799 144.305C106.817 144.669 106.817 145.033 106.799 145.397C106.46 145.647 106.145 145.927 105.856 146.234C105.744 146.166 105.652 146.069 105.591 145.953C105.443 145.688 105.3 145.423 105.167 145.143C104.506 143.813 103.998 142.412 103.652 140.968C103.551 140.56 103.461 140.152 103.392 139.733C103.234 138.833 103.138 137.924 103.106 137.01C103.001 134.24 103.477 131.479 104.505 128.905C105.023 127.629 105.679 126.414 106.46 125.281C107.288 124.177 108.172 123.116 109.109 122.102C109.856 121.276 110.489 120.353 110.99 119.358C111.474 118.27 111.757 117.103 111.827 115.914C111.89 115.077 111.901 114.235 111.959 113.392C112.017 112.55 112.113 111.591 112.203 110.691C112.378 108.91 112.547 107.12 112.568 105.329C112.588 105.17 112.67 105.025 112.796 104.926C112.922 104.827 113.082 104.781 113.241 104.799C113.323 104.805 113.403 104.826 113.477 104.863C113.55 104.899 113.616 104.95 113.67 105.012C113.723 105.074 113.764 105.147 113.79 105.225C113.815 105.303 113.825 105.385 113.819 105.467Z" fill="#253139"/>
<path d="M113.967 93.7957C112.934 94.5215 111.98 95.3851 110.9 96.0367C110.935 95.0798 111.132 94.1358 111.482 93.2447C111.625 92.7467 112.012 92.1375 111.805 91.6077C111.71 91.3908 111.589 91.1862 111.445 90.9984C111.196 90.6117 110.974 90.2143 110.73 89.8223C110.174 88.927 109.549 88.0846 108.971 87.1999C108.399 86.3699 107.957 85.4568 107.663 84.4927C107.424 83.5138 107.324 82.5061 107.366 81.4994C107.376 80.4039 107.457 79.3102 107.61 78.2253C107.701 77.2629 107.92 76.3169 108.261 75.4121C109.114 73.399 110.91 71.6666 111.106 69.4044C111.124 69.2463 111.078 69.0877 110.978 68.9635C110.879 68.8393 110.734 68.7597 110.576 68.7421C110.418 68.7246 110.26 68.7705 110.136 68.8699C110.011 68.9692 109.932 69.1138 109.914 69.2719C109.744 70.1754 109.393 71.0351 108.881 71.799C108.351 72.7049 107.742 73.5897 107.292 74.5433C106.877 75.4635 106.6 76.44 106.471 77.4412C106.29 78.512 106.179 79.5932 106.137 80.6782C106.081 81.7393 106.122 82.8032 106.259 83.8569C106.427 84.9125 106.786 85.9287 107.318 86.8555C107.848 87.7985 108.473 88.678 109.082 89.568C109.612 90.3362 110.057 91.1574 110.571 91.9256C110.449 92.2858 110.343 92.6355 110.248 92.9851C109.877 94.3732 109.358 95.8036 109.904 97.2234C109.971 97.3754 110.095 97.4952 110.249 97.5574C110.403 97.6197 110.576 97.6196 110.73 97.5572C112.203 96.8261 113.437 95.7294 114.751 94.7546C115.376 94.299 114.619 93.3454 113.967 93.7957Z" fill="#253139"/>
<path d="M125.617 69.5527C123.904 66.353 121.291 63.7263 118.099 61.9979C114.84 60.2885 111.256 59.2849 107.583 59.0523C103.736 58.7775 99.8702 59.0919 96.1185 59.9848C92.3896 60.8376 88.8056 62.2316 85.4804 64.1224C83.9802 64.9822 82.5616 65.977 81.2421 67.0945C79.6531 68.4978 78.1889 70.0364 76.8661 71.693C73.7192 75.4704 71.0384 79.6398 69.5233 84.2807C68.7452 86.617 68.2472 89.0374 68.0399 91.4911C67.8279 93.9864 68.0399 96.487 67.9127 98.9876C67.7962 101.324 67.3829 103.756 65.7141 105.605C64.2572 107.194 62.1486 108.148 60.2838 109.244C58.419 110.341 56.6707 111.724 55.5581 113.652C54.5991 115.397 53.9451 117.292 53.6244 119.257C53.2382 121.366 53.1472 123.518 53.3542 125.652C53.5019 127.624 54.0252 129.55 54.8959 131.326C55.2865 132.11 55.7878 132.835 56.3846 133.477C56.9673 134.086 58.0375 133.302 57.4441 132.687C56.2857 131.401 55.4839 129.834 55.1184 128.142C54.6491 126.179 54.4812 124.157 54.6204 122.145C54.8482 118.436 55.8389 114.113 59.0176 111.644C60.7447 110.299 62.795 109.414 64.6174 108.201C65.5252 107.616 66.3426 106.902 67.0439 106.081C67.7786 105.161 68.3192 104.101 68.6332 102.966C69.3219 100.593 69.2796 98.1187 69.2478 95.6764C69.1831 93.216 69.3713 90.7555 69.8093 88.3336C70.7748 83.7419 72.7052 79.4078 75.4728 75.6187C76.9303 73.572 78.5232 71.6251 80.2408 69.7911C81.3608 68.6248 82.5982 67.5774 83.9334 66.6654C86.8724 64.6304 90.1089 63.063 93.5278 62.0191C97.0818 60.8895 100.782 60.2845 104.51 60.2232C108.085 60.1258 111.646 60.7138 115 61.9556C118.189 63.1491 120.982 65.2096 123.063 67.9051C123.569 68.5771 124.024 69.2854 124.425 70.0242C124.806 70.7288 125.993 70.2626 125.617 69.5527Z" fill="#253139"/>
<path d="M134.046 107.914C134.671 102.431 135.201 96.9532 135.301 91.4328C135.381 87.1946 135.227 82.8503 134.067 78.718C133.007 74.9459 130.841 71.3487 127.047 69.86C126.553 69.6704 126.047 69.5146 125.532 69.3938C124.87 69.2348 124.573 70.3951 125.241 70.5646C127.065 71.0006 128.715 71.9796 129.972 73.3724C131.185 74.8149 132.086 76.4922 132.621 78.2995C133.913 82.2464 134.088 86.5429 134.041 90.6594C133.935 96.0157 133.553 101.363 132.896 106.68C132.494 110.214 132.075 113.753 131.884 117.313C131.789 119.125 131.752 120.942 131.8 122.754C131.8 123.342 131.847 123.925 131.863 124.513C131.863 124.587 131.863 124.661 131.863 124.735V124.873C131.863 125.074 131.863 125.276 131.863 125.477C131.863 127.495 131.863 129.514 131.943 131.532C131.985 132.497 132.043 133.461 132.181 134.414C132.239 135.099 132.418 135.768 132.711 136.39C132.854 136.671 133.082 136.899 133.362 137.042C133.664 137.196 134.719 137.884 134.841 137.572C134.994 137.175 134.279 136.512 134.083 136.21C133.347 135.05 133.315 133.493 133.23 132.163C133.108 130.16 133.119 128.152 133.113 126.15C133.113 123.628 132.97 121.117 133.071 118.595C133.246 115.045 133.638 111.48 134.046 107.914Z" fill="#253139"/>
<path d="M137.595 138.165C137.341 138.515 137.066 138.854 136.827 139.225C136.425 139.039 136.011 138.87 135.598 138.695C134.539 138.287 133.41 137.948 132.324 137.635C128.743 136.512 125.214 135.177 121.538 134.383C121.38 134.36 121.237 134.278 121.138 134.152C121.039 134.027 120.993 133.869 121.008 133.71C121.028 133.552 121.109 133.408 121.234 133.309C121.358 133.21 121.517 133.163 121.675 133.18C123.896 133.646 126.086 134.246 128.234 134.976C129.94 135.506 131.63 136.099 133.341 136.629C134.364 136.952 135.386 137.281 136.382 137.688L137.002 137.943C137.198 137.985 137.394 138.07 137.595 138.165Z" fill="#253139"/>
<path d="M122.428 132.475C120.377 133.005 118.603 134.367 117.13 135.818C115.443 137.465 113.98 139.326 112.78 141.355C112.19 142.325 111.692 143.348 111.292 144.411C111.021 145.164 112.176 145.619 112.447 144.867C113.171 142.995 114.167 141.241 115.403 139.659C116.689 137.882 118.24 136.311 120.001 135.002C120.836 134.387 121.772 133.923 122.767 133.63C123.402 133.445 123.09 132.311 122.428 132.475Z" fill="#253139"/>
<path d="M90.5134 158.557C90.2542 158.983 90.0259 159.428 89.8299 159.886L88.5055 159.807C84.4518 159.531 80.4277 158.921 76.4741 157.985C76.0555 157.889 75.6476 157.794 75.2344 157.688C74.0529 157.391 72.8821 157.073 71.7166 156.718C71.2928 156.596 70.8742 156.469 70.4557 156.337C69.4314 156.012 68.4107 155.671 67.3935 155.314C67.3357 155.293 67.2806 155.264 67.2293 155.23C67.5457 154.953 67.9179 154.747 68.3207 154.626C68.6214 154.538 68.9365 154.511 69.2478 154.546L69.8782 154.753L70.5087 154.959C70.8689 155.071 71.2239 155.187 71.5682 155.293L71.706 155.336C72.9245 155.706 74.1483 156.047 75.3774 156.358L76.6065 156.655C80.6985 157.629 84.868 158.242 89.0671 158.488C89.5598 158.52 90.0366 158.541 90.5134 158.557Z" fill="#253139"/>
<path d="M69.2478 154.546C68.9365 154.511 68.6214 154.538 68.3206 154.626C67.9179 154.747 67.5457 154.953 67.2293 155.23C66.6995 154.848 67.2293 153.852 67.971 154.107L69.2478 154.546Z" fill="#6817FF"/>
<path d="M70.5087 154.959C70.5087 154.959 68.0823 152.803 66.7207 154.848C65.3592 156.893 63.7698 162.896 62.4083 164.384C61.0467 165.873 60.0295 166.313 59.2295 165.746C58.4296 165.179 57.6402 162.567 57.6402 162.567C57.1646 162.92 56.5736 163.082 55.9846 163.019C55.3956 162.956 54.8518 162.674 54.4615 162.228C52.8721 160.639 53.6668 154.742 53.6668 154.742C53.6668 154.742 52.3052 156.782 50.7212 153.381C49.1371 149.979 52.3105 144.65 52.3105 144.65C51.2114 144.462 50.0833 144.54 49.0206 144.878C47.4312 145.445 44.3743 145.9 43.8075 144.422C43.2406 142.944 45.7359 139.998 49.2484 138.981C52.7609 137.964 54.8058 137.508 55.6058 138.075C55.9798 138.37 56.4007 138.599 56.8508 138.753C56.8508 138.753 59.5739 137.053 61.6189 139.092C63.6638 141.132 63.8917 142.61 63.8917 142.61C63.8917 142.61 66.2704 142.494 67.4041 144.083C68.5379 145.672 68.6544 146.578 68.6544 146.578L72.6225 149.64L70.5087 154.959Z" fill="white"/>
<path d="M72.2782 150.34C71.8808 150.048 71.4835 149.746 71.0967 149.439C70.5669 149.031 70.0372 148.554 69.4332 148.157C69.1779 147.989 68.9125 147.837 68.6385 147.701C68.035 147.391 67.3505 147.275 66.6783 147.368C65.6911 147.616 64.7946 148.14 64.093 148.878C63.3491 149.585 62.7024 150.389 62.1698 151.267C61.1103 152.936 60.5434 154.801 59.913 156.649C59.3336 158.133 58.8869 159.665 58.5779 161.227C58.366 162.572 58.3501 164.188 59.558 165.036C59.6678 165.118 59.787 165.188 59.913 165.243L60.0931 165.317L60.2202 165.354L60.3845 165.38H60.501H60.6123C60.6907 165.362 60.7671 165.335 60.8401 165.301C60.9493 165.232 61.0537 165.156 61.1527 165.073C61.2586 164.962 61.3063 164.909 61.3487 164.856C61.3911 164.803 61.497 164.66 61.5659 164.554C61.7168 164.332 61.8463 164.096 61.9526 163.849C62.0851 163.558 62.2016 163.266 62.3129 162.965C62.546 162.334 62.7367 161.688 62.9274 161.036C63.2774 159.761 63.742 158.519 64.3155 157.328C65.1366 155.653 66.2386 153.873 68.167 153.386C69.6981 152.999 71.3086 153.73 71.6159 155.288C71.2504 155.182 70.8954 155.065 70.5563 154.954L69.9259 154.748C69.7344 154.631 69.5187 154.56 69.2955 154.541C68.9842 154.506 68.6691 154.533 68.3683 154.62C67.9655 154.741 67.5934 154.947 67.277 155.224C66.9697 155.496 66.6958 155.804 66.4611 156.141C65.547 157.453 64.8544 158.906 64.4108 160.443C64.0644 161.724 63.6326 162.981 63.1182 164.204C62.6466 165.264 61.8891 166.509 60.6123 166.609C59.1077 166.726 57.7779 165.407 57.3912 164.051C57.307 163.752 57.2485 163.448 57.2163 163.139C57.1529 162.516 57.1689 161.888 57.264 161.269C57.3823 160.48 57.5594 159.701 57.7938 158.938C58.0216 158.143 58.3236 157.349 58.5673 156.575C58.811 155.802 59.0971 154.885 59.4256 154.048C60.1213 151.974 61.2377 150.066 62.7049 148.443C64.093 146.986 65.8836 145.715 67.9763 146.154C68.0481 146.165 68.1189 146.181 68.1882 146.202C68.6749 146.336 69.143 146.53 69.5815 146.78C70.8159 147.474 71.8914 148.523 72.9775 149.349C73.1088 149.442 73.198 149.583 73.2253 149.741C73.2526 149.9 73.2159 150.063 73.1232 150.194C73.0304 150.325 72.8893 150.415 72.7308 150.442C72.5724 150.469 72.4095 150.432 72.2782 150.34Z" fill="#253139"/>
<path d="M77.0886 152.745C77.0275 154.057 76.8735 155.364 76.6277 156.655L75.3986 156.358C75.5522 155.352 75.7324 154.356 75.8065 153.349C75.8828 152.651 75.8416 151.946 75.6847 151.262C75.5469 150.779 75.2132 150.054 74.7364 149.921C74.7012 149.926 74.6655 149.926 74.6304 149.921C74.575 149.93 74.5201 149.943 74.4662 149.958L74.249 150.054C73.9742 150.227 73.7306 150.446 73.5285 150.7C73.0707 151.25 72.6893 151.86 72.3947 152.512C72.0019 153.404 71.7825 154.362 71.7484 155.336L70.5299 154.959C70.6113 153.776 70.934 152.622 71.4782 151.569C72.1139 150.366 73.3324 148.39 74.9695 148.687C76.6807 149.026 77.0939 151.288 77.0886 152.745Z" fill="#253139"/>
<path d="M69.4544 148.146C69.1471 147.987 68.8822 147.834 68.612 147.701C68.4445 147.175 68.2318 146.665 67.9763 146.176C67.6762 145.576 67.2808 145.028 66.8055 144.554C66.1596 143.909 65.3376 143.469 64.4426 143.288C63.5736 143.168 62.6892 143.222 61.8413 143.447C60.9934 143.673 60.1992 144.066 59.505 144.602C57.6976 145.939 56.3291 147.783 55.574 149.9C54.5144 152.718 54.1966 155.781 54.1383 158.774C54.1383 159.796 54.1383 161.121 54.9913 161.757C55.3342 162.036 55.7576 162.197 56.1992 162.218C56.4254 162.205 56.6439 162.131 56.8308 162.003C57.0177 161.875 57.1657 161.698 57.2587 161.492C57.317 161.301 57.4706 161.026 57.6561 160.962C57.8415 160.898 57.5342 161.253 57.6561 161.301C57.796 161.37 57.9058 161.488 57.9644 161.632C58.023 161.777 58.0264 161.938 57.9739 162.085C57.9212 162.305 57.8252 162.512 57.6915 162.693C57.5577 162.875 57.389 163.029 57.1952 163.145C56.7731 163.338 56.3092 163.421 55.8463 163.388C55.3834 163.355 54.9363 163.205 54.5462 162.954C53.0999 162.122 52.8668 160.506 52.8615 158.975C52.8615 153.354 54.0164 146.52 59.1713 143.294C60.9672 142.165 63.1341 141.582 65.2108 142.197C67.3776 142.849 68.7816 144.745 69.5445 146.785C69.6133 146.97 69.6822 147.15 69.7405 147.315C69.812 147.463 69.822 147.634 69.7685 147.789C69.7149 147.945 69.602 148.073 69.4544 148.146Z" fill="#253139"/>
<path d="M64.1036 141.906C63.2082 140.03 61.799 138.112 59.6057 137.768C57.7461 137.477 55.9713 138.515 54.6946 139.781C53.9044 140.572 53.2206 141.463 52.6602 142.43C51.938 143.67 51.287 144.951 50.7106 146.266C49.8046 148.284 49.1212 150.504 49.5927 152.703C49.7264 153.647 50.1633 154.523 50.8377 155.198C51.2196 155.506 51.686 155.69 52.1751 155.727C52.6642 155.764 53.153 155.652 53.5767 155.404C54.2813 155.055 53.8257 153.953 53.0999 154.276C52.8174 154.423 52.5019 154.496 52.1834 154.488C52.0714 154.486 51.9619 154.455 51.8655 154.398H51.8072L51.6059 154.234L51.5053 154.133L51.3675 153.953C51.286 153.84 51.2184 153.717 51.1662 153.587C51.0259 153.292 50.921 152.98 50.8536 152.66C50.451 150.822 50.9013 149.058 51.6271 147.309C52.1569 146.064 52.7714 144.867 53.4019 143.675C53.8578 142.796 54.4143 141.973 55.0601 141.222C56.0349 140.099 57.4018 139.013 58.9328 138.976C59.6833 138.981 60.4099 139.241 60.9937 139.712C61.8569 140.441 62.5388 141.361 62.9857 142.398C63.3248 143.087 64.4426 142.615 64.1036 141.906Z" fill="#253139"/>
<path d="M57.5236 138.96C57.4955 139.033 57.4531 139.1 57.399 139.157C57.3449 139.215 57.28 139.26 57.2082 139.292C57.1364 139.324 57.059 139.342 56.9804 139.344C56.9018 139.346 56.8235 139.332 56.7501 139.304C55.6971 138.827 54.5346 138.644 53.386 138.774C52.7757 138.824 52.1699 138.919 51.5741 139.061C51.1238 139.167 50.6841 139.294 50.2656 139.426C49.2956 139.727 48.3599 140.128 47.4736 140.623C47.1025 140.828 46.7482 141.062 46.414 141.323C45.9772 141.654 45.5886 142.045 45.2591 142.483C45.0014 142.815 44.7744 143.17 44.581 143.543C44.5114 143.693 44.4495 143.847 44.3955 144.003C44.3736 144.094 44.3577 144.186 44.3479 144.279C44.3424 144.326 44.3424 144.374 44.3479 144.422C44.3951 144.474 44.4465 144.522 44.5015 144.565C44.5613 144.582 44.6197 144.603 44.6763 144.629H44.7452H44.9147C45.0497 144.651 45.186 144.665 45.3227 144.671H45.667C45.826 144.671 45.9902 144.671 46.1544 144.645C46.8531 144.585 47.5481 144.487 48.2365 144.353C48.5596 144.295 48.8881 144.221 49.2166 144.152L49.5186 144.083C49.9159 143.998 50.3238 143.913 50.7212 143.855C51.072 143.803 51.4261 143.777 51.7807 143.776C52.4748 143.776 52.4854 144.962 51.7807 144.984C51.1651 145.029 50.554 145.123 49.953 145.264C49.1106 145.434 48.2683 145.609 47.4206 145.736C46.6841 145.862 45.9372 145.917 45.1902 145.9C44.6002 145.914 44.023 145.728 43.5532 145.37C42.2552 144.226 43.7227 142.133 44.5863 141.217C44.907 140.903 45.2544 140.618 45.6246 140.364C45.9522 140.1 46.2974 139.86 46.6577 139.643C47.9184 138.899 49.2799 138.341 50.7 137.985C51.3422 137.811 51.9953 137.68 52.6549 137.593C53.2149 137.518 53.7801 137.488 54.3449 137.503C55.3303 137.509 56.3014 137.739 57.1846 138.176C57.2588 138.204 57.3265 138.248 57.3839 138.303C57.4412 138.358 57.487 138.424 57.5186 138.497C57.5501 138.57 57.5668 138.648 57.5677 138.728C57.5686 138.807 57.5536 138.886 57.5236 138.96Z" fill="#253139"/>
<path d="M147.317 116.571C145.531 124.34 142.228 131.678 137.595 138.165C137.341 138.515 137.066 138.854 136.827 139.225C130.928 147.01 122.905 152.925 113.723 156.257C113.819 155.728 113.93 155.198 114.062 154.732C116.955 153.595 119.738 152.199 122.38 150.562C122.74 150.345 123.095 150.117 123.44 149.884C128.082 146.852 132.187 143.069 135.588 138.69C135.852 138.351 136.117 138.001 136.372 137.63C136.397 137.604 136.421 137.576 136.441 137.545C142.528 129.228 146.236 119.093 147.359 108.741C148.541 97.838 146.909 86.1721 141.341 76.7684C135.773 67.3647 126.364 61.0284 116.542 57.1663C106.271 53.1227 95.1365 51.7767 84.1983 53.2565C74.0851 54.6452 64.5291 58.7197 56.5253 65.0556C48.5214 71.3916 42.3625 79.7574 38.6897 89.2819C35.1693 98.6584 34.4334 108.852 36.5706 118.637C38.1943 126.353 41.6626 133.56 46.6789 139.643C46.3113 139.859 45.959 140.1 45.6246 140.364C45.3968 140.094 45.1743 139.834 44.9518 139.543C38.7003 131.744 35.0713 121.821 34.2766 111.665C33.504 101.427 35.6905 91.182 40.5758 82.151C45.5802 72.8298 53.0216 65.0422 62.1058 59.6193C71.1899 54.1964 81.576 51.3417 92.1557 51.3599C103.418 51.2681 114.52 54.0371 124.42 59.4073C129.233 61.9794 133.597 65.3164 137.341 69.2878C141.136 73.4297 144.055 78.2949 145.924 83.592C149.627 94.0182 149.844 105.79 147.317 116.571Z" fill="#253139"/>
<path d="M114.062 154.732C113.93 155.219 113.819 155.733 113.723 156.257C113.278 156.427 112.823 156.586 112.372 156.74C112.425 156.469 112.473 156.21 112.526 155.918C112.563 155.728 112.605 155.505 112.658 155.256C113.13 155.092 113.601 154.912 114.062 154.732Z" fill="#6817FF"/>
<path d="M105.512 146.112C105.512 146.112 103.011 143.961 100.855 146.112C99.2898 147.806 97.9196 149.67 96.7701 151.669C96.7701 151.669 92.8021 153.37 90.8736 156.771C88.9452 160.173 87.3612 166.074 89.8564 166.98C92.3517 167.886 92.6908 164.374 93.1411 163.69C93.5914 163.007 95.0695 160.4 95.0695 160.4C95.0695 160.4 96.6589 166.302 99.382 166.186C102.105 166.069 101.194 163.579 101.194 163.579C101.194 163.579 102.1 165.847 103.578 165.052C105.056 164.257 105.845 162.329 106.073 160.178C106.301 158.027 106.825 155.94 107.09 155.638C107.355 155.336 107.774 154.959 107.774 154.959C107.774 154.959 107.885 162.445 110.38 162.218C112.876 161.99 112.537 158.7 112.876 157.116C113.215 155.532 113.215 152.575 114.465 152.236C115.087 152.016 115.766 152.016 116.388 152.236L119.45 147.59C119.45 147.59 116.616 144.867 114.576 145.206C112.537 145.545 112.394 146.038 112.394 146.038C112.394 146.038 111.641 143.458 108.685 144.072C105.729 144.687 105.512 146.112 105.512 146.112Z" fill="white"/>
<path d="M123.45 149.9C123.095 150.133 122.74 150.361 122.391 150.578C121.233 149.443 119.937 148.457 118.534 147.643C117.135 146.785 115.45 145.879 113.766 146.133C112.399 146.34 111.461 147.41 110.809 148.56C109.896 150.262 109.278 152.107 108.982 154.016C108.834 154.852 108.737 155.696 108.69 156.544C108.69 156.771 108.664 156.994 108.659 157.222C108.653 157.449 108.659 157.683 108.659 157.91C108.68 158.392 108.764 158.87 108.908 159.33C109.08 159.929 109.37 160.487 109.76 160.973C109.835 161.077 109.924 161.169 110.025 161.248L110.174 161.359L110.269 161.418C110.333 161.418 110.444 161.481 110.465 161.497H110.55C110.605 161.502 110.659 161.502 110.714 161.497L110.847 161.439L110.947 161.365C111.004 161.323 111.057 161.277 111.106 161.227C111.284 161.017 111.433 160.786 111.551 160.538C111.695 160.235 111.816 159.922 111.911 159.6C111.911 159.558 111.943 159.447 111.949 159.42C111.954 159.394 111.986 159.261 111.996 159.177C112.145 158.371 112.261 157.587 112.388 156.755C112.441 156.485 112.489 156.226 112.542 155.934C112.579 155.744 112.621 155.521 112.674 155.272C113.045 153.534 113.856 150.748 115.954 151.564C116.107 151.624 116.23 151.743 116.295 151.894C116.361 152.045 116.364 152.216 116.303 152.369C116.243 152.522 116.124 152.645 115.973 152.71C115.822 152.776 115.651 152.779 115.498 152.718L115.387 152.681H115.313C115.281 152.675 115.249 152.675 115.217 152.681C115.172 152.706 115.124 152.724 115.074 152.734L115.021 152.777L114.926 152.856C114.862 152.941 114.825 152.978 114.799 153.02C114.74 153.098 114.687 153.179 114.64 153.264L114.582 153.37L114.502 153.534C114.449 153.661 114.396 153.789 114.348 153.916C114.248 154.186 114.158 154.446 114.084 154.742C113.946 155.24 113.835 155.754 113.739 156.279C113.607 156.967 113.506 157.672 113.4 158.35C113.296 159.549 112.919 160.709 112.298 161.741C112.142 162.03 111.916 162.276 111.64 162.455C111.365 162.635 111.049 162.744 110.721 162.77C110.393 162.797 110.064 162.742 109.763 162.609C109.462 162.477 109.199 162.271 108.998 162.011C108.052 160.972 107.491 159.641 107.408 158.239C107.408 158.17 107.408 158.101 107.408 158.032C107.408 157.656 107.408 157.269 107.408 156.888C107.475 155.034 107.779 153.197 108.314 151.42C108.812 149.704 109.517 147.844 110.741 146.499C111.271 145.889 111.945 145.421 112.702 145.137C113.458 144.853 114.274 144.762 115.074 144.872C116.785 145.095 118.364 145.99 119.795 146.912C121.137 147.746 122.366 148.75 123.45 149.9Z" fill="#253139"/>
<path d="M112.394 146.038C111.376 145.153 110.1 144.417 108.727 144.602C108.034 144.712 107.379 144.992 106.82 145.418C106.482 145.669 106.166 145.949 105.877 146.255L105.766 146.372C104.117 148.302 102.917 150.575 102.253 153.026C101.724 154.846 101.427 156.726 101.369 158.62C101.31 160.12 101.226 161.73 101.851 163.134C102.018 163.563 102.292 163.942 102.645 164.236C102.681 164.268 102.72 164.297 102.762 164.321L102.852 164.363L102.969 164.406C103.104 164.439 103.247 164.422 103.371 164.358C103.557 164.261 103.722 164.13 103.859 163.971C104.088 163.69 104.284 163.382 104.441 163.055C104.719 162.49 104.917 161.889 105.03 161.269C105.453 158.906 105.247 155.542 107.615 154.128C107.747 154.03 107.911 153.987 108.074 154.007C108.237 154.028 108.386 154.111 108.489 154.239C108.588 154.37 108.632 154.535 108.611 154.699C108.591 154.862 108.507 155.011 108.378 155.113C107.09 155.881 106.788 157.46 106.614 158.822C106.386 160.448 106.306 162.106 105.554 163.59C104.982 164.718 103.928 166.027 102.502 165.545C101.342 165.153 100.701 163.839 100.383 162.747C100.178 161.95 100.08 161.128 100.092 160.305C100.071 159.216 100.108 158.127 100.203 157.042C100.367 155.214 100.753 153.414 101.353 151.68C102.169 149.333 103.361 146.912 105.178 145.137C105.347 144.973 105.527 144.814 105.708 144.66C106.009 144.41 106.331 144.187 106.672 143.993C107.435 143.546 108.303 143.308 109.188 143.304C110.663 143.386 112.057 144 113.114 145.031C113.713 145.572 112.992 146.552 112.394 146.038Z" fill="#253139"/>
<path d="M105.951 144.984C101.395 143.135 98.0575 147.908 96.4152 151.463C95.3619 153.562 94.7131 155.841 94.5027 158.181C94.3596 160.829 95.1755 163.754 97.1516 165.598C97.8297 166.244 98.7992 166.874 99.8005 166.705C101.077 166.493 101.522 165.115 101.623 163.966C101.697 163.182 100.892 162.546 100.786 163.33C100.622 163.964 100.37 164.572 100.039 165.137C99.9982 165.197 99.9539 165.256 99.9065 165.311C99.8649 165.34 99.8259 165.372 99.7899 165.407L99.6946 165.449L99.5462 165.481H99.435C99.3706 165.476 99.3069 165.465 99.2442 165.449L99.0906 165.396C98.9969 165.364 98.9064 165.323 98.8204 165.274L98.6615 165.179C98.5805 165.131 98.5027 165.078 98.4284 165.02C98.26 164.897 98.1007 164.763 97.9516 164.617C96.3622 163.113 95.6682 160.506 95.79 158.308C95.9726 156.235 96.5271 154.213 97.4271 152.337C98.1513 150.561 99.1925 148.931 100.5 147.527C101.888 146.133 103.636 145.36 105.559 146.096C105.696 146.113 105.834 146.082 105.951 146.01C106.068 145.937 106.157 145.827 106.202 145.697C106.248 145.568 106.248 145.426 106.202 145.296C106.157 145.167 106.068 145.056 105.951 144.984Z" fill="#253139"/>
<path d="M89.4379 160.973C89.199 161.822 89.083 162.702 89.0935 163.584C89.0761 164.276 89.1746 164.965 89.3849 165.624C89.4357 165.761 89.4977 165.894 89.5704 166.021L89.7081 166.196C89.7221 166.211 89.7345 166.227 89.7452 166.244C89.7926 166.28 89.8421 166.314 89.8935 166.345L90.0419 166.398C90.162 166.427 90.2873 166.427 90.4074 166.398C91.112 166.281 91.467 165.746 91.8378 165.1C92.6908 163.574 93.1093 161.672 94.4868 160.48C95.0854 159.95 95.843 160.935 95.2444 161.46C94.5609 162.064 94.1424 163.145 93.7557 164.013C93.3865 165.024 92.8491 165.964 92.1663 166.795C91.8604 167.138 91.4678 167.392 91.0296 167.531C90.5915 167.67 90.124 167.688 89.6763 167.584C89.3078 167.45 88.9781 167.227 88.7165 166.935C88.4549 166.643 88.2696 166.291 88.177 165.91C87.6735 164.051 87.738 162.084 88.3624 160.263C88.4101 160.109 88.4631 159.955 88.5214 159.807C88.6874 159.355 88.8821 158.915 89.1041 158.488C90.9054 155.028 94.3172 152.554 97.2099 150.054C97.8032 149.524 98.5396 150.504 97.9569 151.018C96.1874 152.575 94.3119 154.032 92.6961 155.749C91.8737 156.603 91.1471 157.545 90.5293 158.557C90.2701 158.983 90.0417 159.428 89.8458 159.886C89.6869 160.239 89.5507 160.602 89.4379 160.973Z" fill="#253139"/>
<path d="M108.139 157.672C108.109 157.54 108.032 157.423 107.922 157.343C107.792 157.25 107.631 157.209 107.472 157.227C107.338 157.253 107.207 157.29 107.08 157.338L106.836 157.412L106.343 157.571C106.267 157.601 106.199 157.651 106.147 157.714C106.084 157.767 106.036 157.837 106.01 157.916C105.949 158.065 105.949 158.232 106.01 158.382C106.042 158.457 106.089 158.526 106.149 158.583C106.208 158.64 106.277 158.685 106.354 158.716L106.508 158.753C106.614 158.765 106.721 158.751 106.82 158.71L107.308 158.557L107.546 158.483C107.624 158.452 107.7 158.417 107.774 158.377C107.924 158.308 108.043 158.185 108.108 158.032C108.108 157.985 108.108 157.932 108.145 157.879C108.16 157.81 108.158 157.739 108.139 157.672Z" fill="#253139"/>
<path d="M104.971 140.894C104.537 140.936 104.108 140.973 103.673 141C102.306 141.1 100.94 141.132 99.5674 141.106C93.0055 141.063 86.5722 139.281 80.9243 135.94C76.9044 133.525 73.4946 130.217 70.959 126.272C70.7153 125.885 70.4822 125.498 70.265 125.101C70.6782 125 71.0967 124.91 71.5153 124.831C71.7484 125.233 71.9974 125.631 72.257 126.017C73.3115 127.608 74.5238 129.088 75.8754 130.436C80.0489 134.53 85.257 137.412 90.9425 138.775C95.023 139.75 99.2299 140.087 103.414 139.776C103.843 139.776 104.272 139.712 104.701 139.67C104.781 140.062 104.871 140.475 104.971 140.894Z" fill="#253139"/>
<path d="M115.482 94.1771C114.576 95.1943 113.782 96.3281 112.42 97.1227C111.058 97.9174 110.38 97.6896 110.38 97.0115C110.38 96.3334 110.56 91.9732 110.56 91.9732C110.56 91.9732 105.618 86.1456 107.09 79.0941C108.563 72.0427 110.269 69.452 110.269 69.452C107.466 67.7541 104.276 66.8005 101.001 66.6819C97.7263 66.5632 94.4754 67.2833 91.5571 68.7739C81.2368 73.8758 78.0581 85.1019 78.0581 85.1019C78.0581 85.1019 74.6569 85.6688 74.8794 86.2357C75.4983 87.2229 76.1796 88.1696 76.9191 89.07C76.9191 89.07 73.0675 106.198 82.3653 112.206C89.7346 116.974 94.3702 114.812 94.3702 114.812C94.9027 117.356 95.2568 119.933 95.4298 122.526C95.5463 125.816 95.6576 127.177 95.6576 127.177C95.6576 127.177 79.2819 124.126 73.0887 125.133C63.9976 126.589 57.4442 133.074 57.4442 133.074C57.4442 133.074 53.9317 130.918 54.1595 125.816C54.3873 120.714 53.7039 114.929 58.2388 111.512C62.7738 108.095 67.5101 107.782 68.4213 100.63C69.3326 93.4778 67.5101 92.0209 69.6663 86.2357C71.8225 80.4504 75.6794 73.3089 79.9865 69.113C84.2937 64.9171 94.6192 59.0471 105.416 59.5768C116.213 60.1066 120.812 64.0111 122.078 65.5952C123.344 67.1793 125.257 69.7911 125.257 69.7911C125.257 69.7911 133.733 72.403 134.311 80.4504C134.888 88.4978 135.445 88.9588 134.533 97.3506C133.622 105.742 132.155 118.219 132.382 122.637C132.61 127.056 132.329 133.175 132.833 134.886C133.104 135.865 133.611 136.761 134.311 137.498L121.675 133.148C121.675 133.148 116.378 136.475 114.576 139.421C113.519 141.117 112.608 142.9 111.853 144.75C111.853 144.75 109.824 143.23 107.774 143.961L105.718 144.687C105.718 144.687 101.877 136.02 104.823 129.895C107.769 123.771 112.192 121.164 112.537 115.724C112.881 110.283 113.284 104.799 113.284 104.799C113.284 104.799 116.955 107.671 120.812 105.403C124.669 103.136 124.197 96.3281 122.968 94.8553C121.739 93.3825 119.906 92.2487 118.317 92.8156C117.329 93.1746 116.38 93.6307 115.482 94.1771Z" fill="#253139"/>
<path d="M66.371 69.558C66.3058 69.4121 66.1867 69.297 66.0386 69.2367C65.8906 69.1765 65.7249 69.1758 65.5764 69.2348C64.5168 69.5421 63.4572 69.8918 62.3976 70.2255C61.3381 70.5593 60.2785 70.8772 59.2189 71.2321C59.0712 71.2952 58.9543 71.4141 58.8938 71.5629C58.8332 71.7118 58.834 71.8785 58.8958 72.0268C58.961 72.1727 59.0801 72.2879 59.2282 72.3481C59.3762 72.4083 59.5419 72.409 59.6904 72.35C60.75 72.0427 61.8096 71.693 62.8692 71.3646C63.9287 71.0361 64.9883 70.7129 66.0479 70.358C66.1951 70.2927 66.3112 70.1728 66.3715 70.0234C66.4318 69.8741 66.4316 69.7072 66.371 69.558Z" fill="white"/>
<path d="M63.9446 80.3603C62.3553 79.4438 60.7659 78.5485 59.1765 77.6478C59.0463 77.5564 58.8861 77.5182 58.7286 77.5408C58.5711 77.5635 58.4281 77.6453 58.3289 77.7697C58.2336 77.8986 58.193 78.0599 58.2158 78.2185C58.2386 78.3772 58.323 78.5205 58.4507 78.6173C60.0401 79.5233 61.6295 80.4345 63.2188 81.3298C63.3491 81.4212 63.5093 81.4595 63.6668 81.4368C63.8243 81.4142 63.9672 81.3324 64.0665 81.208C64.1604 81.0786 64.2002 80.9177 64.1775 80.7594C64.1547 80.6012 64.0712 80.458 63.9446 80.3603Z" fill="white"/>
<path d="M58.1912 89.7905C57.0998 88.1005 55.9819 86.4264 54.8694 84.7469C54.7702 84.6217 54.6258 84.5403 54.4673 84.5205C54.3087 84.5007 54.1487 84.544 54.0217 84.641C53.8979 84.741 53.8173 84.8848 53.7966 85.0426C53.7759 85.2004 53.8167 85.3601 53.9105 85.4886C55.0177 87.1734 56.1144 88.8581 57.2375 90.5322C57.2862 90.5948 57.3468 90.6472 57.4158 90.6864C57.4847 90.7256 57.5607 90.7509 57.6394 90.7607C57.7181 90.7706 57.798 90.7648 57.8745 90.7438C57.951 90.7227 58.0226 90.6869 58.0852 90.6382C58.1478 90.5895 58.2002 90.5289 58.2394 90.4599C58.2786 90.391 58.3039 90.315 58.3137 90.2363C58.3236 90.1576 58.3178 90.0777 58.2968 90.0012C58.2757 89.9247 58.2399 89.8531 58.1912 89.7905Z" fill="white"/>
<path d="M70.6411 98.6856C70.6186 98.5268 70.534 98.3835 70.4058 98.2871C70.2777 98.1907 70.1165 98.1492 69.9577 98.1717C69.7989 98.1942 69.6556 98.2788 69.5592 98.407C69.4628 98.5352 69.4213 98.6964 69.4438 98.8551C69.8994 101.843 67.5313 104.434 65.1313 105.843C62.1698 107.581 58.7103 108.28 55.823 110.177C53.8243 111.509 52.1791 113.307 51.0288 115.416C49.8786 117.525 49.2578 119.882 49.2198 122.284C49.1817 124.686 49.7276 127.061 50.8104 129.206C51.8933 131.35 53.4807 133.199 55.4363 134.594C56.1091 135.066 56.8667 134.065 56.1992 133.577C51.3463 130.044 49.1954 123.596 51.2986 117.917C52.3189 115.151 54.1953 112.783 56.6548 111.157C59.4997 109.303 62.9115 108.598 65.8254 106.871C68.6332 105.207 71.1868 102.145 70.6411 98.6856Z" fill="#253139"/>
<path d="M114.788 109.668C114.778 109.588 114.753 109.511 114.713 109.441C114.673 109.371 114.62 109.31 114.557 109.261C114.493 109.212 114.421 109.175 114.343 109.154C114.265 109.133 114.184 109.128 114.105 109.138C113.944 109.162 113.799 109.247 113.701 109.376C113.602 109.504 113.557 109.666 113.575 109.827C113.608 112.515 112.959 115.167 111.689 117.535C111.069 118.697 110.301 119.775 109.406 120.741C108.414 121.757 107.352 122.703 106.227 123.57C105.074 124.463 104.009 125.466 103.048 126.563C102.178 127.617 101.464 128.791 100.929 130.049C99.848 132.595 99.5421 135.404 100.05 138.123C100.632 141.128 102.155 143.87 104.399 145.953C104.537 146.055 104.709 146.099 104.878 146.075C105.048 146.051 105.201 145.962 105.305 145.826C105.403 145.687 105.443 145.515 105.419 145.347C105.394 145.178 105.306 145.026 105.173 144.92C103.26 143.136 101.938 140.809 101.385 138.252C100.832 135.696 101.074 133.031 102.079 130.616C102.586 129.387 103.278 128.242 104.129 127.22C105.052 126.186 106.068 125.239 107.165 124.391C108.289 123.508 109.351 122.549 110.343 121.519C111.24 120.542 112.014 119.458 112.648 118.293C114.115 115.659 114.854 112.682 114.788 109.668Z" fill="#253139"/>
</g>
<path d="M40.5079 50C42.9214 50 45.236 51.0095 46.9425 52.8065C48.6491 54.6034 49.6078 57.0406 49.6078 59.5819V72.3577C49.6077 74.6397 48.8343 76.8468 47.4267 78.5819C46.019 80.317 44.0696 81.4663 41.929 81.823C41.5926 78.8809 40.4013 76.12 38.5181 73.9178C36.6349 71.7157 34.1518 70.1797 31.4081 69.5199V59.5819C31.4081 57.0406 32.3668 54.6034 34.0734 52.8065C35.7799 51.0095 38.0945 50 40.5079 50ZM52.6411 72.3577C52.641 75.4832 51.553 78.5002 49.583 80.838C47.6129 83.1758 44.8974 84.6722 41.9503 85.0441C41.6775 87.8019 40.6495 90.4168 38.9913 92.5707V93.1184C38.9913 93.542 39.1511 93.9482 39.4355 94.2477C39.7199 94.5472 40.1057 94.7154 40.5079 94.7154C40.9102 94.7154 41.2959 94.5472 41.5804 94.2477C41.8648 93.9482 42.0246 93.542 42.0246 93.1184V88.3275L42.0231 88.2477C49.6882 87.4492 55.6744 80.6412 55.6744 72.3577C55.6744 71.9342 55.5146 71.528 55.2301 71.2285C54.9457 70.929 54.56 70.7607 54.1577 70.7607C53.7555 70.7607 53.3697 70.929 53.0853 71.2285C52.8009 71.528 52.6411 71.9342 52.6411 72.3577ZM28.3748 95.5139C25.358 95.5139 22.4648 94.252 20.3316 92.0058C18.1984 89.7596 17 86.7132 17 83.5366C17 80.36 18.1984 77.3135 20.3316 75.0673C22.4648 72.8211 25.358 71.5592 28.3748 71.5592C31.3916 71.5592 34.2848 72.8211 36.418 75.0673C38.5512 77.3135 39.7496 80.36 39.7496 83.5366C39.7496 86.7132 38.5512 89.7596 36.418 92.0058C34.2848 94.252 31.3916 95.5139 28.3748 95.5139ZM30.7817 77.5479C30.5493 77.5521 30.3236 77.6312 30.1352 77.7745C29.9467 77.9178 29.8045 78.1185 29.7277 78.3496L27.6165 84.7024L26.0362 79.9466C25.9588 79.714 25.8152 79.5122 25.625 79.3687C25.4347 79.2253 25.2071 79.147 24.9731 79.1448C24.7391 79.1425 24.5101 79.2163 24.3174 79.3561C24.1247 79.4958 23.9776 79.6948 23.8962 79.9258L23.0332 82.3708H21.9291C21.6274 82.3708 21.3381 82.497 21.1248 82.7216C20.9114 82.9462 20.7916 83.2508 20.7916 83.5685C20.7916 83.8862 20.9114 84.1908 21.1248 84.4154C21.3381 84.64 21.6274 84.7662 21.9291 84.7662H23.8249C24.0571 84.7662 24.2837 84.6914 24.4742 84.5518C24.6648 84.4122 24.8103 84.2145 24.8911 83.9853L24.9305 83.8735L26.5427 88.7236C26.6206 88.9581 26.7657 89.1613 26.9581 89.3051C27.1505 89.4489 27.3806 89.5261 27.6165 89.5261C27.8524 89.5261 28.0825 89.4489 28.2749 89.3051C28.4673 89.1613 28.6124 88.9581 28.6903 88.7236L30.8576 82.2047L31.5203 84.0029C31.6034 84.2278 31.7491 84.421 31.9383 84.5572C32.1275 84.6934 32.3513 84.7663 32.5805 84.7662H34.8205C35.1222 84.7662 35.4115 84.64 35.6249 84.4154C35.8382 84.1908 35.958 83.8862 35.958 83.5685C35.958 83.2508 35.8382 82.9462 35.6249 82.7216C35.4115 82.497 35.1222 82.3708 34.8205 82.3708H33.3585L31.8616 78.3128C31.7775 78.0843 31.6289 77.8885 31.4358 77.7517C31.2427 77.6149 31.0144 77.5438 30.7817 77.5479Z" fill="#EF5026"/>
<defs>
<clipPath id="clip0_266_1912">
<rect width="116.987" height="116.304" fill="white" transform="translate(32.0144 51.3599)"/>
</clipPath>
</defs>
</svg>
