<svg width="153" height="162" viewBox="0 0 153 162" fill="none" xmlns="http://www.w3.org/2000/svg">
<path d="M38.1814 19.725L39.8348 20.8504L40.8828 19.3107L39.4216 18.1559L38.1814 19.725ZM9.38645 56.905L10.8007 55.4908L9.38645 56.905ZM14.4564 34.35L12.4682 34.1339L12.0098 38.351L15.5548 36.0214L14.4564 34.35ZM32.9164 27.46L31.7054 29.0517L33.3834 30.3284L34.5698 28.5854L32.9164 27.46ZM39.4216 18.1559C35.0915 14.7338 30.6348 12.72 23.9464 12.72V16.72C29.6081 16.72 33.2114 18.3462 36.9413 21.2941L39.4216 18.1559ZM23.9464 12.72C16.5519 12.72 10.952 15.6931 7.26512 20.6908C3.63848 25.6069 1.99145 32.2986 1.99145 39.615H5.99145C5.99145 32.8264 7.52941 27.0706 10.484 23.0654C13.3784 19.1419 17.756 16.72 23.9464 16.72V12.72ZM1.99145 39.615C1.99145 49.0351 4.15583 54.5028 7.97223 58.3192L10.8007 55.4908C7.98706 52.6772 5.99145 48.3949 5.99145 39.615H1.99145ZM7.97223 58.3192C11.5862 61.9332 16.1524 63.78 22.5164 63.78V59.78C17.0505 59.78 13.5567 58.2468 10.8007 55.4908L7.97223 58.3192ZM22.5164 63.78C33.2872 63.78 41.8714 56.6519 41.8714 45.985H37.8714C37.8714 54.0381 31.5057 59.78 22.5164 59.78V63.78ZM41.8714 45.985C41.8714 40.6816 39.9196 36.4628 36.5622 33.6C33.247 30.7731 28.7492 29.425 23.8814 29.425V33.425C28.0487 33.425 31.5459 34.5794 33.9669 36.6437C36.3458 38.6722 37.8714 41.7333 37.8714 45.985H41.8714ZM23.8814 29.425C18.867 29.425 15.8195 31.0611 13.3581 32.6786L15.5548 36.0214C17.6434 34.6489 19.9259 33.425 23.8814 33.425V29.425ZM16.4447 34.5661C16.7454 31.7998 17.5396 29.577 18.7258 28.0894C19.8536 26.6751 21.4093 25.82 23.6214 25.82V21.82C20.1786 21.82 17.4768 23.2399 15.5984 25.5956C13.7783 27.878 12.8175 30.9202 12.4682 34.1339L16.4447 34.5661ZM23.6214 25.82C26.8879 25.82 28.8661 26.8913 31.7054 29.0517L34.1275 25.8683C30.9868 23.4787 28.155 21.82 23.6214 21.82V25.82ZM34.5698 28.5854L39.8348 20.8504L36.5281 18.5996L31.2631 26.3346L34.5698 28.5854ZM27.9264 46.44C27.9264 47.9177 27.4082 49.043 26.544 49.8176C25.6605 50.6095 24.2264 51.2 22.1264 51.2V55.2C24.9665 55.2 27.4324 54.393 29.2139 52.7962C31.0147 51.182 31.9264 48.9273 31.9264 46.44H27.9264ZM22.1264 51.2C20.0369 51.2 18.5613 50.5987 17.636 49.7781C16.7292 48.9738 16.1964 47.8271 16.1964 46.375H12.1964C12.1964 48.8879 13.1587 51.1537 14.9819 52.7707C16.7866 54.3713 19.276 55.2 22.1264 55.2V51.2ZM16.1964 46.375C16.1964 44.9418 16.7057 43.8536 17.5635 43.1004C18.4456 42.3259 19.8847 41.745 21.9964 41.745V37.745C19.1682 37.745 16.7073 38.5291 14.9243 40.0946C13.1172 41.6814 12.1964 43.9081 12.1964 46.375H16.1964ZM21.9964 41.745C24.0975 41.745 25.5781 42.3367 26.502 43.1396C27.4032 43.9228 27.9264 45.0327 27.9264 46.44H31.9264C31.9264 43.9473 30.9547 41.7097 29.1259 40.1204C27.3198 38.5508 24.8354 37.745 21.9964 37.745V41.745Z" fill="black" fill-opacity="0.1"/>
<g clip-path="url(#clip0_266_1913)">
<path d="M120.543 89.2039L119.428 83.3966C119.428 83.3966 121.571 84.2503 122.082 83.054C122.593 81.8577 122.425 81.1666 120.886 80.2142C119.347 79.2618 115.317 77.7577 115.659 76.4511C116.002 75.1445 116.681 72.5079 118.999 71.9098C121.316 71.3116 124.306 71.3291 124.992 73.4545C125.677 75.58 125.851 79.0179 125.938 79.7032C126.025 80.3884 127.82 81.3292 128.761 80.1329C129.741 78.9177 130.285 77.4084 130.305 75.8471C130.218 74.4766 129.963 73.0248 129.963 73.0248C129.963 73.0248 133.302 74.6508 134.411 75.9284C135.52 77.206 136.554 78.7566 137.582 78.6695C138.61 78.5824 138.778 77.7287 138.778 76.8692V74.8192C138.778 74.8192 141.177 77.1422 142.117 77.5603C143.058 77.9784 145.021 77.3919 143.319 74.6566C142.228 72.7523 140.498 71.2957 138.436 70.5451C136.897 69.854 134.156 68.3906 134.156 68.3906C134.156 68.3906 135.183 66.9329 137.582 67.444C139.98 67.955 143.128 67.3743 143.575 66.689C144.022 66.0038 144.516 63.8609 140.404 63.7854C136.293 63.7099 130.218 65.3243 128.935 66.0096C128.214 66.3999 127.47 66.7433 126.705 67.0375C126.705 67.0375 123.453 66.6948 122.686 66.6948C121.92 66.6948 112.233 69.4359 110.613 70.2896C108.993 71.1432 105.305 73.1177 105.131 77.5661C104.956 82.0145 106.159 105.65 106.159 105.65C106.159 105.65 93.9168 99.9126 91.0596 98.7163C88.2024 97.52 82.4997 94.9473 82.8423 94.7789C83.1849 94.6105 96.8263 79.529 97.0818 79.4244C97.3373 79.3199 99.9854 61.9561 99.9854 61.9561C99.9854 61.9561 86.2918 51.3403 86.0479 51.3403C85.804 51.3403 52.4876 68.8029 52.232 68.7216C51.9765 68.6403 31.169 83.8206 31.169 83.8206L27.0458 94.5234C27.0458 94.5234 15.6751 116.806 14.0316 119.443C12.3882 122.079 8.8922 129.205 16.2558 133.74C21.0887 136.742 26.2629 139.155 31.6684 140.93C33.7242 141.615 42.7023 144.786 45.8847 141.615C49.0671 138.444 49.822 132.904 52.2204 132.282C54.6188 131.661 59.497 131.771 60.8675 131.255C62.238 130.738 62.8362 128.688 61.0359 128.09C59.2356 127.491 51.0183 128.519 51.0183 128.519C50.8926 127.327 51.2294 126.132 51.9591 125.18C53.1612 123.81 56.9243 121.498 58.8117 120.639C60.6991 119.779 61.8083 119.611 61.9767 118.502C62.1451 117.393 61.8954 117.044 61.8954 117.044C61.8954 117.044 62.4761 114.861 61.4656 113.873C60.4552 112.886 61.4656 111.481 61.4656 111.481C61.4656 111.481 61.8954 109.593 65.7456 109.593C69.5959 109.593 88.8645 110.023 90.5776 110.174C92.2908 110.325 94.7705 111.719 94.6021 113.856C94.4337 115.993 93.882 124.437 93.882 124.437C93.882 124.437 103.505 127.921 107.529 128.67C111.554 129.419 116.774 129.611 119.144 127.3C121.513 124.988 122.396 123.873 122.483 122.247C122.525 121.085 122.496 119.922 122.396 118.763C122.396 118.763 113.238 111.742 111.437 110.459C109.637 109.175 107.843 106.777 109.3 104.291C110.758 101.806 120.543 89.2039 120.543 89.2039Z" fill="white"/>
<path d="M137.837 88.6065C140.578 90.5751 147.773 95.372 149.225 96.2256C150.677 97.0793 153.935 98.9667 151.449 102.991C148.964 107.016 144.515 112.155 143.319 114.722C142.123 117.289 138.778 124.652 135.096 124.397C131.414 124.141 125.165 120.802 121.158 117.887C117.151 114.972 109.544 109.925 109.259 107.434C108.975 104.942 109.155 103.235 110.955 101.534C112.755 99.832 122.512 85.697 123.795 84.4949C125.078 83.2928 126.449 81.417 129.021 82.6133C131.594 83.8096 137.837 88.6065 137.837 88.6065Z" fill="white"/>
<path d="M79.4451 109.669C82.7785 109.925 91.6869 109.756 92.8019 110.523C93.9169 111.29 94.6022 113.096 94.2595 118.572C93.9169 124.048 93.2316 135.012 93.0574 137.324C92.8832 139.635 94.6835 144.089 89.6369 144.432C84.5904 144.774 62.8362 144.002 61.6341 142.893C60.432 141.784 59.6655 139.809 59.8397 134.072C60.0139 128.334 60.8676 115.75 60.9489 114.466C61.0302 113.183 60.6062 110.697 62.4936 110.18C64.381 109.664 78.3301 109.582 79.4451 109.669Z" fill="white"/>
<path d="M85.961 83.7046C86.5121 84.1694 87.0942 84.5962 87.7031 84.9822C88.0677 85.2181 88.4572 85.4128 88.8646 85.563C89.3848 85.7522 89.9381 85.8332 90.4907 85.8011C90.5711 85.7924 90.6491 85.7679 90.7202 85.729C90.7912 85.6902 90.8538 85.6377 90.9045 85.5746C90.9553 85.5115 90.993 85.439 91.0157 85.3612C91.0383 85.2835 91.0454 85.2021 91.0365 85.1216C90.9785 84.5815 90.8972 84.0473 90.8159 83.513C90.7346 82.9787 90.6474 82.4677 90.572 81.945C90.572 81.7301 90.5139 81.5211 90.4907 81.312C90.1861 79.5277 90.3584 77.6946 90.9901 75.9983C91.5069 74.7962 92.4709 73.4722 93.9286 73.5302C94.0048 73.5413 94.0825 73.5372 94.1572 73.5183C94.2319 73.4993 94.3021 73.4658 94.3639 73.4197C94.4256 73.3736 94.4777 73.3158 94.5171 73.2495C94.5565 73.1833 94.5824 73.11 94.5935 73.0337C94.6046 72.9575 94.6005 72.8798 94.5815 72.8051C94.5626 72.7304 94.5291 72.6602 94.483 72.5984C94.4368 72.5367 94.379 72.4846 94.3128 72.4452C94.2466 72.4058 94.1732 72.3798 94.097 72.3688C93.6007 72.3394 93.1036 72.4107 92.6355 72.5783C92.1674 72.746 91.7381 73.0066 91.3734 73.3444C90.1626 74.5541 89.404 76.1429 89.2247 77.8451C89.0683 79.623 89.166 81.4142 89.515 83.1645C89.5847 83.6291 89.6544 84.0879 89.7183 84.5467C89.3252 84.4725 88.9467 84.3352 88.5975 84.1402C87.9312 83.7412 87.2998 83.2866 86.7101 82.7813C86.5877 82.6819 86.4308 82.6353 86.2739 82.6516C86.1171 82.668 85.9732 82.7459 85.8739 82.8684C85.7745 82.9908 85.7279 83.1477 85.7442 83.3045C85.7605 83.4614 85.8385 83.6053 85.961 83.7046Z" fill="black"/>
<path d="M80.4093 83.3272C80.5574 83.2729 80.7208 83.2775 80.8656 83.3402C81.0104 83.4029 81.1256 83.5188 81.1875 83.664C81.282 83.8372 81.3908 84.0023 81.5127 84.1576L81.6172 84.2796L81.6695 84.3318C81.7349 84.3984 81.8048 84.4605 81.8785 84.5177L82.1224 84.6919C82.1761 84.7255 82.2324 84.7546 82.2908 84.779L82.5522 84.8951L82.6915 84.9416C83.46 85.1075 84.2573 85.0835 85.0145 84.8719C85.1596 84.8209 85.3187 84.8267 85.4598 84.8881C85.6009 84.9495 85.7136 85.0619 85.7752 85.2029C85.8041 85.2749 85.8183 85.3519 85.8169 85.4294C85.8156 85.507 85.7987 85.5835 85.7673 85.6544C85.7359 85.7253 85.6906 85.7892 85.6341 85.8423C85.5776 85.8954 85.5111 85.9367 85.4384 85.9637C84.4717 86.2657 83.4432 86.3117 82.4534 86.0972C81.9356 85.9548 81.4545 85.7027 81.0427 85.358C80.6309 85.0134 80.298 84.5842 80.0666 84.0995C80.036 84.0266 80.0207 83.9481 80.0215 83.869C80.0223 83.7899 80.0393 83.7118 80.0713 83.6394C80.1034 83.5671 80.1499 83.5021 80.2081 83.4484C80.2662 83.3947 80.3346 83.3535 80.4093 83.3272Z" fill="black"/>
<path d="M79.9789 68.2052C81.2971 67.6244 82.9174 67.8974 84.2414 68.3213C85.6456 68.7487 86.9343 69.4894 88.0104 70.4874C88.0713 70.5341 88.1224 70.5924 88.1607 70.6589C88.199 70.7254 88.2237 70.7989 88.2335 70.8751C88.2432 70.9512 88.2377 71.0285 88.2174 71.1025C88.197 71.1765 88.1622 71.2458 88.1149 71.3063C88.0682 71.3681 88.0096 71.4199 87.9426 71.4587C87.8756 71.4975 87.8015 71.5225 87.7246 71.5323C87.6478 71.542 87.5698 71.5363 87.4952 71.5154C87.4206 71.4946 87.3509 71.459 87.2903 71.4108C86.335 70.5391 85.2044 69.8817 83.9743 69.4828C82.8415 69.0148 81.5816 68.9532 80.4086 69.3086C80.3362 69.3368 80.2589 69.3505 80.1811 69.3488C80.1034 69.3471 80.0268 69.3302 79.9556 69.2989C79.8844 69.2676 79.8201 69.2226 79.7663 69.1665C79.7125 69.1104 79.6703 69.0442 79.6421 68.9717C79.6138 68.8993 79.6002 68.822 79.6018 68.7443C79.6035 68.6665 79.6204 68.5899 79.6517 68.5187C79.683 68.4475 79.728 68.3832 79.7841 68.3294C79.8403 68.2756 79.9064 68.2334 79.9789 68.2052Z" fill="black"/>
<path d="M71.3032 89.5123C72.2033 90.6215 73.928 90.9815 75.2579 91.2254C76.9352 91.5425 78.652 91.5934 80.3451 91.3764C82.0881 91.0748 83.7038 90.267 84.9909 89.0535C86.3034 87.9269 87.5926 86.7306 88.8296 85.5343L89.1374 85.2265C89.7181 84.6458 90.2582 84.0651 90.7808 83.4843C92.7311 81.3017 94.3778 78.8658 95.6764 76.2426C97.2501 73.1183 98.098 69.5526 97.4534 66.0682C97.273 65.1983 97.0245 64.3439 96.7101 63.513C96.4262 62.6784 96.0544 61.8764 95.6009 61.1204C95.1351 60.3809 94.5458 59.7268 93.8587 59.1866C93.2025 58.6523 92.494 58.1761 91.8726 57.6012C91.2512 57.0263 90.6066 58.0135 91.1467 58.5304C91.7971 59.1111 92.5346 59.6396 93.2141 60.2087C93.9023 60.7818 94.4689 61.4866 94.8808 62.2819C95.2897 63.1287 95.6315 64.0064 95.9029 64.9068C96.1794 65.7341 96.353 66.5923 96.4197 67.462C96.5317 69.0936 96.3708 70.7324 95.9435 72.3111C95.4841 73.9147 94.8328 75.457 94.0039 76.9047C93.0309 78.6875 91.879 80.3668 90.5659 81.9164C90.2291 82.3229 89.8749 82.7294 89.509 83.1243C89.5787 83.5889 89.6484 84.0476 89.7123 84.5064C89.3192 84.4322 88.9407 84.2949 88.5915 84.0999C88.3011 84.3961 88.0107 84.6806 87.703 84.9768L87.552 85.122C86.9132 85.7317 86.2453 86.3125 85.5949 86.9048C84.9445 87.4972 84.3754 88.0314 83.725 88.5425C83.1255 89.0475 82.4541 89.4605 81.7331 89.7678C80.9629 90.0564 80.1508 90.2173 79.3288 90.244C77.9677 90.3233 76.602 90.2316 75.2637 89.9711C74.67 89.8616 74.0871 89.7003 73.5215 89.4891C73.2592 89.393 73.0049 89.2765 72.7608 89.1406C72.6584 89.0762 72.5596 89.0065 72.4646 88.9316C72.3427 88.8386 72.4007 88.8909 72.3078 88.7748C71.7852 88.1766 70.8153 88.9025 71.3032 89.5123Z" fill="black"/>
<path d="M65.8909 99.4136C66.0172 99.5114 66.1772 99.5551 66.3357 99.5349C66.4941 99.5148 66.6381 99.4325 66.7359 99.3062C66.8337 99.1799 66.8773 99.0199 66.8572 98.8615C66.837 98.703 66.7548 98.559 66.6285 98.4612C66.308 98.2084 66.0599 97.8756 65.909 97.4964C65.7581 97.1171 65.7098 96.7048 65.769 96.3009C65.7939 96.1028 65.8406 95.908 65.9084 95.7202C66.1301 95.0874 66.4959 94.5149 66.9769 94.0477C67.7551 93.2637 68.7191 92.6772 69.4915 91.8932C70.2638 91.1092 70.9956 90.2091 71.8725 89.4832C72.4532 89.007 71.7679 88.0894 71.1756 88.5482C70.1361 89.3554 69.3579 90.4181 68.3939 91.3009C67.4299 92.1836 66.4194 92.7701 65.6528 93.7341C65.4114 94.0338 65.2067 94.3614 65.0431 94.7097C64.7948 95.212 64.6393 95.755 64.5843 96.3126C64.5093 96.8988 64.5906 97.4944 64.8201 98.039C65.0496 98.5836 65.419 99.0579 65.8909 99.4136Z" fill="black"/>
<path d="M60.6641 69.4251C60.7744 66.0975 64.0091 62.2415 67.6329 63.3971C68.162 63.5675 68.65 63.8459 69.0658 64.2148C69.4817 64.5837 69.8164 65.035 70.0487 65.54C70.4343 66.5762 70.471 67.7099 70.1532 68.7689C69.979 69.4948 68.8234 69.3496 68.9918 68.6004C69.2129 67.861 69.2408 67.0773 69.0731 66.324C68.9599 65.9621 68.7723 65.6279 68.5223 65.3429C68.2722 65.0578 67.9653 64.8282 67.6212 64.6689C66.2565 64.0243 64.886 64.5353 63.8117 65.4761C62.7987 66.3837 62.1335 67.6157 61.9301 68.9605C61.831 69.5977 61.8666 70.2485 62.0346 70.8711C62.0776 71.0316 62.1319 71.1888 62.1972 71.3415L62.2553 71.4634C62.3569 71.6337 62.4674 71.7985 62.5863 71.9571C62.922 72.4393 63.3117 72.8816 63.7478 73.2753C63.8514 73.3723 63.9621 73.4616 64.0788 73.5425C64.1485 73.6022 64.2268 73.6511 64.3111 73.6876L64.3982 73.7225C64.9789 73.2521 65.6758 74.2045 65.1009 74.7097C64.0788 75.6099 62.6328 73.9315 62.0521 73.2405C61.6607 72.8314 61.3248 72.3725 61.0532 71.8758C60.7357 71.1 60.6025 70.2611 60.6641 69.4251Z" fill="black"/>
<path d="M63.2425 69.553C63.2531 69.4763 63.2789 69.4026 63.3184 69.3361C63.3579 69.2696 63.4103 69.2116 63.4725 69.1656C63.5348 69.1196 63.6055 69.0866 63.6807 69.0683C63.7559 69.05 63.834 69.047 63.9103 69.0593C64.5366 69.1999 65.1391 69.4308 65.699 69.7446C65.9111 69.8464 66.1281 69.9375 66.3494 70.0175C65.882 69.0534 65.6454 67.9937 65.6583 66.9223C65.669 66.8462 65.6946 66.773 65.7337 66.7069C65.7729 66.6408 65.8247 66.5832 65.8863 66.5373C65.9479 66.4913 66.0179 66.4581 66.0924 66.4395C66.167 66.4208 66.2444 66.4171 66.3204 66.4286C66.3969 66.4386 66.4708 66.4637 66.5375 66.5025C66.6042 66.5414 66.6626 66.5931 66.7091 66.6548C66.7556 66.7164 66.7893 66.7867 66.8083 66.8616C66.8273 66.9364 66.8312 67.0143 66.8198 67.0907C66.8169 67.1293 66.8169 67.1681 66.8198 67.2068C66.8198 67.3171 66.8198 67.3984 66.8198 67.4798C66.8325 67.6222 66.8539 67.7638 66.8837 67.9037C66.9459 68.194 67.0293 68.4793 67.1334 68.7574C67.3424 69.3381 67.6038 69.9188 67.8012 70.5286C67.8362 70.6126 67.8509 70.7037 67.8443 70.7944C67.8376 70.8852 67.8097 70.9731 67.7627 71.0511C67.7158 71.1291 67.6513 71.195 67.5742 71.2434C67.4972 71.2919 67.4098 71.3215 67.3192 71.33C66.6497 71.3793 65.9802 71.2341 65.3912 70.9119L64.5085 70.4995C64.3691 70.4357 64.2239 70.3776 64.0787 70.3253C63.9336 70.2731 63.9452 70.2789 63.8813 70.2556C63.9916 70.2905 63.8813 70.2556 63.8813 70.2556H63.7593C63.6771 70.2485 63.5973 70.2238 63.5254 70.1834C63.4534 70.143 63.3909 70.0877 63.342 70.0212C63.2931 69.9547 63.2589 69.8785 63.2417 69.7978C63.2246 69.7171 63.2248 69.6336 63.2425 69.553Z" fill="black"/>
<path d="M69.3752 68.2693C69.5035 68.1767 69.6627 68.1371 69.8195 68.1587C69.9763 68.1803 70.1187 68.2615 70.2172 68.3854C70.3251 68.4359 70.4356 68.4805 70.5483 68.519C70.8512 68.6129 71.1596 68.6885 71.4716 68.7455C72.0175 68.8558 72.5634 68.9487 73.1151 69.0301C75.1543 69.3205 77.2281 69.2616 79.2476 68.8558C82.9881 68.1765 86.3724 66.208 88.8122 63.2924C90.0932 61.7979 90.8175 59.906 90.8622 57.9381C90.8622 57.1948 92.0236 57.0496 92.0236 57.8104C92.163 61.8 89.271 65.2611 86.1002 67.3517C82.3492 69.7712 77.874 70.812 73.4403 70.296C72.6911 70.2089 71.9362 70.0812 71.1987 69.9302C70.6179 69.8082 69.5726 69.6863 69.2358 69.1172C69.1481 68.9842 69.1138 68.8231 69.1396 68.666C69.1654 68.5088 69.2495 68.3672 69.3752 68.2693Z" fill="black"/>
<path d="M81.8087 74.82C81.8339 74.7125 81.8688 74.6075 81.9132 74.5064C81.9644 74.4056 82.0226 74.3086 82.0874 74.216C82.2005 74.0567 82.3331 73.9123 82.4823 73.7863C82.7628 73.5319 83.1087 73.3609 83.4812 73.2926C83.633 73.276 83.7853 73.3198 83.9051 73.4146C83.9273 73.4309 83.9469 73.4505 83.9632 73.4727C84.0962 73.5731 84.1855 73.7206 84.2129 73.885C84.2373 74.0971 84.2115 74.312 84.1374 74.5122C84.1089 74.5915 84.0719 74.6674 84.0271 74.7387C83.984 74.8119 83.9355 74.8818 83.8819 74.9477C83.7019 75.1563 83.4722 75.3161 83.214 75.4123C83.089 75.473 82.9561 75.516 82.8191 75.5401C82.7458 75.5488 82.6718 75.5488 82.5985 75.5401C82.4651 75.5582 82.3297 75.5295 82.2152 75.4588C82.0757 75.4104 81.9582 75.3136 81.8842 75.1858C81.8153 75.0771 81.7885 74.947 81.8087 74.82Z" fill="black"/>
<path d="M89.9217 77.7412C89.9451 77.6331 89.9801 77.528 90.0262 77.4276C90.0787 77.3275 90.1369 77.2306 90.2004 77.1372C90.3135 76.9779 90.4461 76.8335 90.5953 76.7075C90.8744 76.4543 91.2181 76.2834 91.5884 76.2138C91.6645 76.2048 91.7417 76.2109 91.8154 76.2318C91.8892 76.2528 91.9581 76.2881 92.0181 76.3358C92.0389 76.3537 92.0583 76.3731 92.0762 76.3939C92.1423 76.4428 92.198 76.5045 92.2399 76.5753C92.2818 76.6461 92.3091 76.7246 92.3201 76.8062C92.3494 77.0178 92.3255 77.2334 92.2504 77.4334C92.2195 77.5116 92.1826 77.5873 92.1401 77.6599C92.0984 77.734 92.0498 77.804 91.9949 77.8689C91.817 78.0798 91.5867 78.2401 91.327 78.3335C91.203 78.3968 91.0697 78.4399 90.9321 78.4613C90.8587 78.467 90.7849 78.467 90.7115 78.4613C90.5783 78.4754 90.4441 78.4469 90.3282 78.38C90.1856 78.3314 90.0657 78.2322 89.9914 78.1012C89.9299 77.9919 89.9054 77.8655 89.9217 77.7412Z" fill="black"/>
<path d="M94.6774 123.467C96.344 124.78 98.6031 125.372 100.618 126.023C103.116 126.903 105.664 127.633 108.249 128.206C110.636 128.665 113.301 128.92 115.682 128.276C117.546 127.787 119.234 126.781 120.549 125.372C121.948 123.816 122.651 121.795 121.966 119.797C121.722 119.077 122.878 118.636 123.127 119.367C124.602 123.589 121.228 127.498 117.274 129.054C114.881 130.001 112.163 130.018 109.625 129.693C106.77 129.238 103.962 128.519 101.24 127.544C99.9272 127.114 98.6031 126.714 97.3139 126.226C96.0882 125.822 94.931 125.235 93.8818 124.484C93.2371 123.938 94.0327 122.979 94.6774 123.467Z" fill="black"/>
<g clip-path="url(#clip1_266_1913)">
<path d="M90.789 110.841L96.1915 112.355C96.9739 112.574 97.3828 113.302 97.1634 114.085L89.8416 140.213C89.6222 140.996 88.8947 141.405 88.1122 141.186L57.498 132.607C56.7155 132.387 56.3067 131.66 56.5261 130.877L63.8479 104.749C64.0673 103.966 64.7947 103.556 65.5772 103.776L90.789 110.841ZM88.9412 139.96L96.263 113.832C96.342 113.55 96.2208 113.335 95.939 113.256L90.9867 111.868L83.4124 138.897L88.3647 140.285C88.6466 140.364 88.8621 140.242 88.9412 139.96ZM82.512 138.644L90.0863 111.616L71.1775 106.317L63.6032 133.346L82.512 138.644ZM64.7483 105.001L57.4265 131.129C57.3474 131.411 57.4686 131.627 57.7504 131.706L62.7028 133.093L70.277 106.065L65.3247 104.677C65.0429 104.598 64.8273 104.719 64.7483 105.001Z" fill="#EF5026"/>
<path d="M81.6901 118.089C81.7707 118.063 81.8568 118.059 81.9394 118.078C82.022 118.097 82.098 118.138 82.1592 118.197C82.2199 118.255 82.2636 118.329 82.2857 118.411C82.3078 118.493 82.3074 118.579 82.2847 118.66L79.255 129.472C79.2321 129.553 79.1876 129.627 79.1261 129.685C79.0647 129.743 78.9886 129.784 78.906 129.802C78.8235 129.82 78.7375 129.816 78.6572 129.789C78.577 129.763 78.5055 129.715 78.4503 129.651L71.8614 121.974C71.8115 121.915 71.7767 121.845 71.7602 121.77C71.7437 121.695 71.7459 121.617 71.7667 121.543C71.7875 121.469 71.8261 121.401 71.8793 121.346C71.9324 121.29 71.9984 121.248 72.0715 121.224L81.6901 118.089ZM78.5904 128.378L81.1485 119.249L73.0271 121.896L78.5904 128.378ZM91.0197 118.679L92.8205 119.183C92.9399 119.217 93.0411 119.296 93.1019 119.405C93.1626 119.513 93.1779 119.641 93.1445 119.76C93.111 119.88 93.0314 119.981 92.9233 120.042C92.8152 120.102 92.6874 120.118 92.568 120.084L90.7672 119.58C90.6478 119.546 90.5466 119.467 90.4858 119.359C90.425 119.25 90.4097 119.123 90.4432 119.003C90.4767 118.884 90.5562 118.782 90.6643 118.721C90.7724 118.661 90.9003 118.645 91.0197 118.679ZM93.5779 116.481L91.7771 115.976C91.6577 115.942 91.5565 115.863 91.4957 115.755C91.435 115.647 91.4196 115.519 91.4531 115.399C91.4866 115.28 91.5661 115.178 91.6742 115.118C91.7823 115.057 91.9102 115.041 92.0296 115.075L93.8304 115.58C93.9498 115.613 94.051 115.693 94.1118 115.801C94.1725 115.909 94.1879 116.037 94.1544 116.156C94.1209 116.276 94.0413 116.377 93.9332 116.438C93.8251 116.499 93.6973 116.514 93.5779 116.481ZM90.0097 122.283L91.8106 122.787C91.93 122.821 92.0312 122.9 92.092 123.008C92.1527 123.117 92.168 123.244 92.1346 123.364C92.1011 123.483 92.0215 123.585 91.9134 123.645C91.8053 123.706 91.6775 123.722 91.5581 123.688L89.7573 123.184C89.6379 123.15 89.5367 123.071 89.4759 122.962C89.4151 122.854 89.3998 122.726 89.4333 122.607C89.4668 122.487 89.5463 122.386 89.6544 122.325C89.7625 122.265 89.8903 122.249 90.0097 122.283ZM88.9998 125.886L90.8007 126.391C90.9201 126.425 91.0213 126.504 91.0821 126.612C91.1428 126.72 91.1581 126.848 91.1247 126.968C91.0912 127.087 91.0116 127.188 90.9035 127.249C90.7954 127.31 90.6676 127.326 90.5482 127.292L88.7474 126.787C88.628 126.754 88.5268 126.674 88.466 126.566C88.4052 126.458 88.3899 126.33 88.4234 126.211C88.4569 126.091 88.5364 125.99 88.6445 125.929C88.7526 125.868 88.8804 125.853 88.9998 125.886ZM87.9899 129.49L89.7908 129.995C89.9102 130.028 90.0114 130.108 90.0722 130.216C90.1329 130.324 90.1482 130.452 90.1148 130.572C90.0813 130.691 90.0017 130.792 89.8936 130.853C89.7855 130.914 89.6577 130.929 89.5383 130.896L87.7375 130.391C87.6181 130.358 87.5168 130.278 87.4561 130.17C87.3953 130.062 87.38 129.934 87.4135 129.815C87.447 129.695 87.5265 129.594 87.6346 129.533C87.7427 129.472 87.8705 129.457 87.9899 129.49ZM86.98 133.094L88.7809 133.599C88.9003 133.632 89.0015 133.712 89.0622 133.82C89.123 133.928 89.1383 134.056 89.1048 134.175C89.0714 134.295 88.9918 134.396 88.8837 134.457C88.7756 134.518 88.6478 134.533 88.5284 134.5L86.7276 133.995C86.6082 133.962 86.5069 133.882 86.4462 133.774C86.3854 133.666 86.3701 133.538 86.4036 133.418C86.4371 133.299 86.5166 133.198 86.6247 133.137C86.7328 133.076 86.8606 133.061 86.98 133.094ZM85.9701 136.698L87.771 137.203C87.8904 137.236 87.9916 137.316 88.0523 137.424C88.1131 137.532 88.1284 137.66 88.0949 137.779C88.0615 137.899 87.9819 138 87.8738 138.061C87.7657 138.122 87.6379 138.137 87.5185 138.104L85.7177 137.599C85.5983 137.565 85.497 137.486 85.4363 137.378C85.3755 137.27 85.3602 137.142 85.3937 137.022C85.4272 136.903 85.5067 136.802 85.6148 136.741C85.7229 136.68 85.8507 136.665 85.9701 136.698ZM66.4558 112.767L64.655 112.262C64.5356 112.229 64.4344 112.149 64.3736 112.041C64.3129 111.933 64.2975 111.805 64.331 111.686C64.3645 111.566 64.444 111.465 64.5522 111.404C64.6603 111.343 64.7881 111.328 64.9075 111.361L66.7083 111.866C66.8277 111.899 66.9289 111.979 66.9897 112.087C67.0504 112.195 67.0658 112.323 67.0323 112.443C66.9988 112.562 66.9193 112.663 66.8112 112.724C66.7031 112.785 66.5752 112.8 66.4558 112.767ZM67.4657 109.163L65.6649 108.658C65.5455 108.625 65.4443 108.545 65.3835 108.437C65.3228 108.329 65.3075 108.201 65.3409 108.082C65.3744 107.962 65.454 107.861 65.5621 107.8C65.6702 107.739 65.798 107.724 65.9174 107.757L67.7182 108.262C67.8376 108.296 67.9388 108.375 67.9996 108.483C68.0604 108.591 68.0757 108.719 68.0422 108.839C68.0087 108.958 67.9292 109.06 67.8211 109.12C67.713 109.181 67.5851 109.197 67.4657 109.163ZM65.4459 116.371L63.6451 115.866C63.5257 115.833 63.4245 115.753 63.3637 115.645C63.303 115.537 63.2876 115.409 63.3211 115.29C63.3546 115.17 63.4341 115.069 63.5422 115.008C63.6504 114.947 63.7782 114.932 63.8976 114.965L65.6984 115.47C65.8178 115.503 65.919 115.583 65.9798 115.691C66.0405 115.799 66.0559 115.927 66.0224 116.046C65.9889 116.166 65.9094 116.267 65.8013 116.328C65.6932 116.389 65.5653 116.404 65.4459 116.371ZM64.436 119.975L62.6352 119.47C62.5158 119.437 62.4146 119.357 62.3538 119.249C62.2931 119.141 62.2777 119.013 62.3112 118.893C62.3447 118.774 62.4242 118.673 62.5323 118.612C62.6405 118.551 62.7683 118.536 62.8877 118.569L64.6885 119.074C64.8079 119.107 64.9091 119.187 64.9699 119.295C65.0306 119.403 65.046 119.531 65.0125 119.65C64.979 119.77 64.8995 119.871 64.7914 119.932C64.6832 119.993 64.5554 120.008 64.436 119.975ZM63.4261 123.578L61.6253 123.074C61.5059 123.04 61.4047 122.961 61.3439 122.853C61.2832 122.745 61.2678 122.617 61.3013 122.497C61.3348 122.378 61.4143 122.276 61.5224 122.216C61.6305 122.155 61.7584 122.139 61.8778 122.173L63.6786 122.678C63.798 122.711 63.8992 122.791 63.96 122.899C64.0207 123.007 64.0361 123.135 64.0026 123.254C63.9691 123.374 63.8896 123.475 63.7814 123.536C63.6733 123.597 63.5455 123.612 63.4261 123.578ZM62.4162 127.182L60.6154 126.678C60.496 126.644 60.3948 126.565 60.334 126.457C60.2733 126.348 60.2579 126.221 60.2914 126.101C60.3249 125.982 60.4044 125.88 60.5125 125.819C60.6206 125.759 60.7485 125.743 60.8679 125.777L62.6687 126.281C62.7881 126.315 62.8893 126.394 62.9501 126.503C63.0108 126.611 63.0261 126.739 62.9927 126.858C62.9592 126.977 62.8796 127.079 62.7715 127.14C62.6634 127.2 62.5356 127.216 62.4162 127.182ZM59.858 129.381L61.6588 129.885C61.7782 129.919 61.8794 129.998 61.9402 130.106C62.0009 130.215 62.0162 130.342 61.9828 130.462C61.9493 130.581 61.8697 130.683 61.7616 130.743C61.6535 130.804 61.5257 130.82 61.4063 130.786L59.6055 130.282C59.4861 130.248 59.3849 130.169 59.3241 130.06C59.2633 129.952 59.248 129.824 59.2815 129.705C59.315 129.585 59.3945 129.484 59.5026 129.423C59.6107 129.362 59.7385 129.347 59.858 129.381Z" fill="#EF5026"/>
<g clip-path="url(#clip2_266_1913)">
<path d="M70.2972 119.932L83.9745 117.365C84.1573 117.336 84.3444 117.354 84.5188 117.416C84.6931 117.478 84.8492 117.582 84.9727 117.72C85.0963 117.858 85.1834 118.024 85.2262 118.205C85.269 118.385 85.266 118.572 85.2177 118.751L81.8018 130.715C81.7512 130.898 81.6542 131.065 81.5202 131.199C81.3861 131.334 81.2197 131.432 81.0368 131.483C80.854 131.535 80.6609 131.538 80.4764 131.493C80.2918 131.448 80.1219 131.356 79.9832 131.227L69.7541 121.834C69.6026 121.695 69.4928 121.516 69.437 121.318C69.3812 121.12 69.3816 120.91 69.4381 120.712C69.4945 120.514 69.605 120.336 69.7569 120.197C69.9089 120.059 70.0964 119.965 70.2986 119.927L70.2972 119.932Z" fill="#EF5026"/>
</g>
</g>
<path d="M40.0311 143.34C40.6008 143.647 41.257 143.756 41.8953 143.648C42.6078 143.573 43.3117 143.431 43.9975 143.224C45.4098 142.869 46.6703 142.069 47.5922 140.941C48.3031 139.904 48.8696 138.775 49.2763 137.585C49.7015 136.416 50.2588 135.3 50.9372 134.257C51.2554 133.789 51.6477 133.375 52.0987 133.032C52.6185 132.68 53.2167 132.461 53.8409 132.393C55.5366 132.138 57.2614 132.445 58.9629 132.289C59.1371 132.289 59.3114 132.254 59.4972 132.225C60.798 132.027 62.2789 131.476 62.697 130.14C62.8014 129.79 62.8113 129.419 62.7256 129.064C62.6399 128.709 62.4617 128.383 62.2092 128.119C61.7108 127.643 61.0618 127.355 60.3741 127.306C60.1592 127.306 59.9502 127.265 59.7353 127.254C59.352 127.254 58.9629 127.254 58.5738 127.254C57.6039 127.236 56.6339 127.282 55.6702 127.393C53.8176 127.591 51.9767 127.916 50.1068 127.933C50.0293 127.94 49.954 127.963 49.8854 128C49.8169 128.037 49.7564 128.087 49.7077 128.148C49.6589 128.208 49.6229 128.278 49.6016 128.353C49.5804 128.428 49.5745 128.506 49.5841 128.584C49.592 128.661 49.6154 128.736 49.6529 128.805C49.6904 128.873 49.7413 128.933 49.8026 128.981C49.8638 129.029 49.9341 129.065 50.0093 129.085C50.0846 129.106 50.1631 129.111 50.2404 129.1C52.1974 129.1 54.1312 128.758 56.0767 128.572C56.9663 128.485 57.8602 128.45 58.7539 128.467H59.6598C59.9948 128.478 60.3277 128.525 60.6528 128.607C61.0942 128.729 61.553 129.019 61.553 129.542C61.553 130.064 61.0013 130.465 60.5831 130.663C60.2485 130.819 59.8953 130.932 59.532 130.999C58.3772 131.155 57.2088 131.184 56.0477 131.087C54.59 131.057 53.0337 131.087 51.7328 131.812C50.7583 132.437 49.9668 133.309 49.4389 134.339C48.8767 135.362 48.3858 136.424 47.9697 137.515C47.6094 138.584 47.0693 139.584 46.3727 140.471C45.6022 141.267 44.6181 141.824 43.5387 142.074C42.9953 142.232 42.4398 142.344 41.8778 142.411C41.6395 142.446 41.3983 142.457 41.1577 142.446C41.0584 142.44 40.9595 142.428 40.8616 142.411C40.8906 142.411 40.6409 142.3 40.7628 142.376C40.124 141.958 39.3749 142.904 40.0311 143.34Z" fill="black"/>
<path d="M48.7246 125.645C49.5515 124.498 50.466 123.416 51.4598 122.41C52.4122 121.47 53.4401 120.61 54.4796 119.768C56.1463 118.427 57.964 117.126 60.194 117.137C60.4357 117.131 60.6773 117.153 60.9141 117.201C61.0614 117.23 61.2004 117.291 61.3206 117.381C61.3959 117.444 61.454 117.525 61.4895 117.616C61.5251 117.708 61.5369 117.807 61.5239 117.904C61.5116 118.069 61.4683 118.231 61.3961 118.38L61.3264 118.52C61.017 119.01 60.5845 119.41 60.072 119.681C59.7402 119.867 59.3991 120.035 59.05 120.186C58.0163 120.657 56.9303 121.017 55.9256 121.563C55.0723 122.065 54.2691 122.649 53.5272 123.305C52.1102 124.466 50.3971 125.935 50.3971 127.91V128.014C50.4261 128.827 51.6747 128.682 51.6515 127.869C51.6515 126.853 52.4703 125.953 53.1265 125.314C53.9233 124.554 54.7734 123.851 55.6701 123.212C56.9535 122.283 58.5738 121.876 60.0024 121.173C60.4411 120.969 60.8575 120.72 61.2451 120.43C61.4817 120.256 61.7032 120.061 61.9072 119.849C62.6273 119.089 63.1267 117.846 62.5518 116.882C62.5087 116.805 62.4582 116.733 62.4008 116.667C62.1662 116.395 61.8605 116.194 61.5181 116.086H61.4426C61.066 115.973 60.6743 115.918 60.2811 115.924C60.0548 115.912 59.828 115.912 59.6017 115.924C57.1045 116.098 55.101 117.666 53.2427 119.199C51.2333 120.86 49.1776 122.683 47.807 124.948C47.4005 125.552 48.26 126.272 48.7246 125.645Z" fill="black"/>
<path d="M43.7766 120.575C44.6565 119.436 45.4764 118.252 46.2331 117.027C47.0148 115.875 47.8826 114.784 48.829 113.764C50.4838 111.907 52.4152 110.316 54.555 109.048C55.5593 108.393 56.7197 108.016 57.9174 107.956C58.8001 107.956 60.0603 108.322 60.3971 109.257C60.67 110.024 60.0835 110.709 59.5318 111.162C58.9144 111.633 58.2463 112.035 57.5399 112.358C56.6151 112.786 55.7422 113.318 54.9382 113.944C54.7408 114.106 54.555 114.275 54.3575 114.449L54.5782 114.321C55.8706 113.56 57.302 113.064 58.7885 112.863C59.3345 112.8 59.886 112.8 60.4319 112.863C60.8378 112.915 61.2311 113.039 61.5934 113.229C61.9412 113.409 62.2356 113.678 62.4471 114.007C62.6989 114.437 62.8389 114.924 62.8541 115.422C62.8693 115.92 62.7593 116.414 62.5342 116.859C62.4012 117.148 62.2293 117.418 62.0231 117.66C61.9633 117.739 61.8845 117.801 61.7941 117.84C61.7036 117.88 61.6046 117.896 61.5063 117.887C61.519 117.8 61.5121 117.712 61.4859 117.628C61.4598 117.545 61.4151 117.468 61.3553 117.405C61.2223 117.295 61.0649 117.22 60.8965 117.184C60.9159 117.075 60.964 116.972 61.0359 116.888C61.1862 116.713 61.3113 116.517 61.4076 116.307C61.4445 116.226 61.4756 116.143 61.5005 116.057C61.6446 115.684 61.6446 115.27 61.5005 114.896C61.4788 114.851 61.4535 114.809 61.425 114.768C61.3008 114.595 61.1414 114.45 60.9572 114.343C60.7731 114.236 60.5683 114.169 60.3564 114.147C59.7302 114.065 59.0949 114.085 58.4749 114.205C57.2437 114.453 56.0648 114.913 54.9905 115.564C53.7814 116.24 52.6313 117.017 51.5526 117.887C50.3726 118.819 49.2819 119.859 48.2947 120.994C47.7953 121.574 46.8603 120.86 47.3539 120.262C48.4912 118.88 49.7853 117.634 51.21 116.551C51.2111 116.417 51.2537 116.288 51.3319 116.179C52.6332 114.245 54.3798 112.652 56.4249 111.534L57.0056 111.243C57.2844 111.104 57.5864 110.941 57.8012 110.825C58.1086 110.649 58.4053 110.455 58.6898 110.244L58.8872 110.082C58.8872 110.082 58.9685 110 58.9859 109.983C59.0297 109.937 59.0704 109.889 59.1079 109.838C59.1373 109.803 59.1645 109.766 59.1892 109.727C59.1892 109.727 59.2182 109.669 59.2298 109.635C58.9496 109.385 58.5984 109.228 58.2252 109.187C57.2089 109.042 56.1462 109.53 55.2751 110.018C53.3332 111.16 51.5717 112.585 50.0485 114.246C49.0487 115.288 48.1359 116.411 47.3191 117.602C46.5256 118.878 45.6569 120.106 44.7174 121.278C44.2122 121.859 43.2946 121.162 43.7766 120.575Z" fill="black"/>
<path d="M39.0845 129.763C39.1716 129.815 39.2646 129.856 39.3517 129.902C39.621 130.037 39.8984 130.155 40.1821 130.256C40.3447 129.891 40.4899 129.519 40.6351 129.147C40.8383 128.642 41.03 128.137 41.2448 127.632C41.6804 126.615 42.296 125.68 42.8186 124.728C43.4748 123.514 44.1078 122.283 44.7757 121.075C44.8356 120.933 44.8369 120.774 44.7792 120.631C44.7215 120.488 44.6095 120.375 44.4679 120.314C44.3974 120.284 44.3216 120.268 44.2447 120.266C44.1679 120.265 44.0916 120.28 44.0203 120.308C43.949 120.337 43.8841 120.379 43.8294 120.433C43.7746 120.487 43.7311 120.551 43.7013 120.622C42.958 121.952 42.2611 123.299 41.5294 124.629C40.933 125.632 40.394 126.667 39.915 127.73L39.5491 128.671C39.3981 129.02 39.2471 129.397 39.0845 129.763Z" fill="black"/>
<path d="M110.172 80.0052C110.691 80.8361 111.507 81.4383 112.454 81.6893C113.503 81.9353 114.572 82.0831 115.648 82.1307C116.96 82.2002 118.263 82.3808 119.545 82.6707C120.035 82.8854 120.565 82.9942 121.101 82.9901C121.216 82.9803 121.326 82.9364 121.416 82.864C121.506 82.7916 121.572 82.6939 121.606 82.5836C121.708 82.2756 121.694 81.9409 121.566 81.6428C121.493 81.4437 121.389 81.2574 121.258 81.0911L121.182 81.004C120.977 80.8243 120.756 80.6648 120.52 80.5278L120.416 80.4698L120.23 80.3652L119.783 80.1388C118.563 79.558 117.222 79.0179 116.165 78.1294C115.594 77.7026 115.196 77.084 115.044 76.3872C115.009 75.9897 115.057 75.5892 115.188 75.2119C115.318 74.8346 115.526 74.4891 115.799 74.1979C116.269 73.6172 117.193 74.3198 116.722 74.9122C116.505 75.158 116.343 75.447 116.246 75.7601C116.246 75.7601 116.217 75.8878 116.217 75.9052C116.217 75.9227 116.217 76.033 116.217 76.0446C116.217 76.0562 116.217 76.1375 116.217 76.184V76.2769C116.217 76.3582 116.269 76.4163 116.293 76.4802L116.327 76.5557C116.404 76.676 116.489 76.7905 116.583 76.8983L116.653 76.9738L116.815 77.1248C116.944 77.2371 117.08 77.3418 117.222 77.4384C118.296 78.2049 119.661 78.6869 120.869 79.349C121.43 79.618 121.919 80.016 122.297 80.5104C122.594 80.8929 122.782 81.3484 122.841 81.8288C122.9 82.3092 122.829 82.7967 122.634 83.2398C122.39 83.6531 122.01 83.9688 121.558 84.133C121.107 84.2971 120.613 84.2996 120.16 84.14C119.492 83.96 118.842 83.7625 118.151 83.6464C117.46 83.5302 116.792 83.4721 116.112 83.4141C113.586 83.1876 110.694 83.1411 109.179 80.7601C108.778 80.0865 109.748 79.349 110.172 80.0052Z" fill="black"/>
<path d="M115.909 74.3144C117.326 72.0554 120.421 70.3887 123.092 71.1146C125.613 71.794 126.577 74.3028 126.641 76.6896C126.653 77.2709 126.634 77.8526 126.582 78.4318C126.565 78.6754 126.565 78.9199 126.582 79.1635C126.584 79.3342 126.628 79.5017 126.71 79.6513C126.825 79.7874 126.979 79.8848 127.152 79.9301C127.43 80.024 127.728 80.046 128.017 79.9939C128.218 79.9312 128.4 79.82 128.548 79.6701C128.696 79.5202 128.805 79.3363 128.865 79.1345C129.365 77.8608 129.579 76.4929 129.492 75.1274C129.436 73.6349 129.009 72.1799 128.249 70.8939C127.395 69.4988 126.087 68.4406 124.544 67.8973C123.763 67.596 122.916 67.5019 122.088 67.6244C121.251 67.7638 120.462 68.089 119.637 68.2748C119.474 68.2933 119.311 68.2465 119.183 68.1446C119.055 68.0428 118.973 67.8943 118.955 67.7318C118.936 67.5693 118.983 67.4062 119.085 67.2782C119.187 67.1502 119.335 67.068 119.498 67.0495C120.282 66.8695 121.037 66.5675 121.82 66.4223C122.617 66.2747 123.437 66.3084 124.219 66.521C125.772 66.9164 127.182 67.7439 128.284 68.9078C130.479 71.2307 131.112 74.7964 130.485 77.8569C130.247 79.0183 129.904 80.5572 128.65 81.0741C127.488 81.5561 125.787 81.0741 125.427 79.8139C125.307 79.227 125.291 78.6235 125.38 78.0311C125.425 77.4512 125.425 76.8688 125.38 76.2889C125.351 75.1715 124.969 74.092 124.289 73.2052C123.383 72.1599 121.873 71.9799 120.595 72.3167C119.052 72.7307 117.712 73.6927 116.826 75.0229C116.78 75.0847 116.721 75.1365 116.654 75.1753C116.587 75.2142 116.513 75.2392 116.436 75.2489C116.359 75.2586 116.281 75.2529 116.206 75.2321C116.132 75.2112 116.062 75.1756 116.002 75.1274C115.882 75.0316 115.805 74.8924 115.788 74.7401C115.77 74.5878 115.814 74.4348 115.909 74.3144Z" fill="black"/>
<path d="M125.183 66.9744C127.513 66.9775 129.813 67.5014 131.914 68.5075C134.038 69.4219 135.97 70.7281 137.611 72.3578C138.39 73.1277 138.968 74.0769 139.295 75.122C139.63 76.1788 139.582 77.3196 139.161 78.3451C139.019 78.6831 138.76 78.9593 138.433 79.1242C138.105 79.2891 137.729 79.332 137.373 79.2452C136.657 79.0274 136.011 78.6271 135.497 78.0838C134.759 77.3695 134.161 76.5332 133.395 75.8422C132.496 74.9427 131.346 74.3355 130.096 74.1C129.936 74.0769 129.792 73.9911 129.695 73.8615C129.598 73.7319 129.556 73.5691 129.579 73.4089C129.602 73.2487 129.688 73.1043 129.818 73.0073C129.947 72.9104 130.11 72.8689 130.27 72.892C132.425 73.1998 134.173 74.7155 135.497 76.33C135.884 76.8169 136.327 77.2573 136.815 77.6424C137.028 77.8191 137.27 77.9585 137.529 78.0547L137.727 78.0954C137.761 78.1057 137.797 78.1057 137.831 78.0954C137.86 78.0804 137.885 78.0608 137.907 78.0373C137.936 78.0078 137.962 77.9746 137.982 77.9386C138.066 77.7822 138.125 77.6137 138.157 77.4392C138.272 76.9483 138.295 76.4403 138.226 75.9409C138.047 75.0125 137.61 74.1532 136.966 73.4612C135.558 71.9516 133.864 70.7358 131.984 69.8839C129.852 68.8485 127.533 68.2558 125.166 68.1417C124.51 68.0952 124.544 66.9976 125.183 66.9744Z" fill="black"/>
<path d="M125.183 66.649C127.848 66.6426 130.498 67.0341 133.046 67.8105C135.525 68.432 137.911 69.377 140.143 70.6212C141.863 71.5667 143.239 73.0324 144.074 74.8083C144.466 75.5447 144.597 76.3921 144.446 77.2125C144.352 77.5939 144.117 77.9256 143.789 78.141C143.46 78.3564 143.062 78.4396 142.675 78.374C141.802 78.1139 141.012 77.6316 140.381 76.9744C139.807 76.4053 139.205 75.8664 138.575 75.36C137.93 74.9128 138.679 73.9488 139.324 74.396C140.404 75.1393 141.246 76.2833 142.379 76.9105C142.514 76.9861 142.656 77.0502 142.803 77.1022C142.913 77.137 142.774 77.1022 142.878 77.1022H142.959C143.093 77.0615 143.035 77.1022 143.128 77.0325C143.177 76.9802 143.217 76.9191 143.244 76.8525C143.244 76.8525 143.244 76.8525 143.244 76.7595C143.244 76.6666 143.244 76.6144 143.244 76.6085C143.242 76.4386 143.223 76.2693 143.186 76.1033C143.104 75.7733 142.989 75.4523 142.843 75.1451C142.085 73.6347 140.881 72.394 139.394 71.591C137.4 70.5019 135.28 69.6632 133.081 69.0939C130.508 68.3316 127.848 67.9003 125.166 67.8105C124.51 67.7756 124.545 66.649 125.183 66.649Z" fill="black"/>
<path d="M125.474 66.6488C130.317 65.0808 135.3 63.1644 140.468 63.2515C142.083 63.2806 144.214 63.7103 144.4 65.6674C144.58 67.5199 142.658 68.089 141.171 68.1645C138.848 68.2865 136.421 67.6128 134.243 68.7452C134.091 68.8041 133.922 68.8006 133.773 68.7353C133.624 68.67 133.507 68.5483 133.447 68.3968C133.391 68.2449 133.397 68.0772 133.461 67.9289C133.526 67.7806 133.646 67.6632 133.796 67.6012C135.77 66.5617 137.965 66.8695 140.102 66.9334C140.756 66.9615 141.41 66.9187 142.054 66.8056C142.174 66.7798 142.292 66.7468 142.408 66.7069C142.478 66.7069 142.553 66.6546 142.623 66.6198L142.756 66.5559C142.817 66.5186 142.875 66.4779 142.931 66.4339L142.989 66.3817C143.081 66.3052 143.143 66.198 143.163 66.0797C143.163 66.161 143.163 65.981 143.163 65.9519C143.168 65.8998 143.168 65.8473 143.163 65.7951C143.155 65.6478 143.118 65.5036 143.052 65.3712C142.928 65.1741 142.754 65.0137 142.547 64.9066C141.887 64.6113 141.167 64.4741 140.445 64.5059C138.341 64.5041 136.245 64.7694 134.208 65.2957C131.397 65.981 128.691 67.0379 125.898 67.7696C125.826 67.8005 125.748 67.8164 125.669 67.8164C125.591 67.8163 125.513 67.8003 125.441 67.7694C125.369 67.7385 125.303 67.6932 125.249 67.6363C125.195 67.5795 125.153 67.5122 125.125 67.4386C125.092 67.3644 125.075 67.2839 125.074 67.2025C125.074 67.1211 125.091 67.0406 125.124 66.9661C125.157 66.8916 125.205 66.8249 125.265 66.7703C125.325 66.7156 125.396 66.6742 125.474 66.6488Z" fill="black"/>
<path d="M104.561 80.7956C104.695 83.072 105.049 85.3253 105.142 87.6017C105.345 92.2011 105.223 96.8469 105.38 101.493C105.415 102.602 105.467 103.711 105.525 104.826C105.525 105.291 105.572 105.755 105.601 106.22C105.769 109.28 105.961 112.341 105.996 115.407C106.002 115.491 106.026 115.573 106.064 115.649C106.103 115.724 106.157 115.79 106.222 115.844C106.287 115.899 106.362 115.939 106.443 115.964C106.523 115.988 106.608 115.997 106.693 115.988C106.862 115.972 107.018 115.889 107.126 115.759C107.235 115.628 107.288 115.46 107.273 115.291V115.001C107.273 112.323 107.099 109.687 106.948 107.045C106.948 106.574 106.896 106.11 106.867 105.639C106.762 103.769 106.669 101.899 106.634 100.024C106.553 95.4764 106.669 90.9293 106.379 86.388C106.24 84.1638 105.851 81.9628 105.798 79.7328C105.672 78.0366 105.965 76.3353 106.652 74.7792C107.813 72.4563 110.177 71.1032 112.517 70.1973C115.043 69.2216 117.703 68.6816 120.311 67.9789C120.454 67.9231 120.569 67.813 120.631 67.6726C120.693 67.5322 120.697 67.373 120.642 67.2297C120.587 67.0871 120.478 66.9718 120.339 66.9087C120.2 66.8457 120.042 66.84 119.898 66.8929C116.884 67.6653 113.801 68.2402 110.961 69.5526C108.47 70.6851 106.187 72.4563 105.154 75.0638C104.561 76.9127 104.36 78.8646 104.561 80.7956Z" fill="black"/>
<path d="M64.5611 96.2951C64.834 96.179 65.0954 96.0512 65.3683 95.9235C65.5367 95.8422 65.7109 95.7725 65.8852 95.7028C66.5247 95.4683 67.1783 95.2744 67.8422 95.1221C69.5539 94.6947 71.3057 94.4475 73.0688 94.3845C76.0073 94.2393 79.12 94.2452 81.9598 95.1279C83.4897 95.6462 84.9754 96.2871 86.4023 97.0443L87.2618 97.474L88.0806 97.8689C88.9866 98.3045 89.9099 98.7284 90.8449 99.1117C93.9751 100.412 96.9484 102.015 99.9798 103.519C101.53 104.286 103.139 104.936 104.684 105.715C104.986 105.871 105.264 106.04 105.584 106.22L106.908 107.015C106.908 106.545 106.856 106.08 106.827 105.61C106.391 105.349 105.956 105.076 105.508 104.826C105.184 104.638 104.851 104.468 104.509 104.315C102.721 103.508 100.955 102.677 99.2074 101.789C97.6859 101.011 96.1644 100.227 94.6255 99.4659C93.0865 98.7052 91.5302 98.1012 89.9796 97.4101C89.3524 97.1314 88.7369 96.8294 88.1213 96.5274L86.8727 95.9002C85.0628 94.9176 83.1427 94.1535 81.1525 93.6238C78.1122 93.0321 75.0026 92.8796 71.9189 93.1708C70.2995 93.2868 68.695 93.5591 67.1279 93.9838L66.9479 94.0303C66.2862 94.1976 65.6395 94.419 65.0141 94.6923C64.7678 95.1949 64.6143 95.7379 64.5611 96.2951Z" fill="black"/>
<path d="M119.242 82.9091C119.319 82.8985 119.398 82.9037 119.473 82.9241C119.548 82.9446 119.619 82.98 119.68 83.0283C119.741 83.0765 119.792 83.1366 119.83 83.2049C119.867 83.2732 119.891 83.3484 119.898 83.4259C120.09 84.3725 120.247 85.3249 120.421 86.2715C120.595 87.2181 120.793 88.1008 121.002 89.0183C121.153 89.6688 120.055 89.9475 119.84 89.3029C119.58 88.3671 119.375 87.417 119.225 86.4573C119.051 85.4933 118.894 84.5235 118.714 83.5537C118.705 83.4764 118.712 83.3982 118.734 83.3237C118.756 83.2491 118.792 83.1797 118.842 83.1196C118.891 83.0595 118.952 83.0099 119.021 82.9737C119.089 82.9375 119.165 82.9156 119.242 82.9091Z" fill="black"/>
<path d="M25.6812 90.2207C25.9021 90.8907 26.1941 91.5352 26.5523 92.1429C26.744 92.4571 26.9514 92.7614 27.1737 93.0547C27.362 93.3051 27.5346 93.5669 27.6905 93.8387C27.7732 94.0053 27.9106 94.1385 28.0796 94.2161C28.3003 93.8096 28.5326 93.4031 28.7649 92.9966C28.4978 92.5611 28.1842 92.1429 27.9403 91.7016L27.8706 91.5738C27.5606 91.0186 27.304 90.4352 27.104 89.8316C26.2445 87.3577 26.5697 84.6457 27.2898 82.1718C27.9099 79.7279 29.0422 77.4436 30.6116 75.4702C31.3792 74.5606 32.2845 73.7768 33.2946 73.1473C34.4873 72.4512 35.7295 71.8437 37.0113 71.3296C38.3063 70.7488 39.6187 70.2088 40.8615 69.5235C42.1042 68.8382 43.2425 68.153 44.4039 67.4038C46.7239 65.9238 48.945 64.2943 51.0533 62.5257C53.1752 60.7786 55.1009 58.8061 56.7967 56.6429C57.6155 55.5512 58.3589 54.4013 59.2125 53.3328C60.0871 52.2936 61.0258 51.3102 62.0233 50.3885C62.965 49.4343 64.0044 48.5817 65.1244 47.8449C66.153 47.2154 67.2499 46.7049 68.3939 46.3234C73.0107 44.7031 78.1559 45.0632 82.7786 46.4743C87.0469 47.781 91.1875 49.9239 94.2944 53.176C97.2759 56.3121 99.4816 60.1029 100.735 64.2447C101.896 68.1588 102.21 72.5201 100.735 76.4052C99.7841 78.74 98.4494 80.8992 96.7857 82.7932C95.936 83.8067 95.0346 84.7758 94.0854 85.6968C93.2201 86.5331 92.2967 87.2996 91.414 88.1069C90.0149 89.3599 88.8197 90.8235 87.8715 92.4449C87.217 93.4767 86.8556 94.6671 86.8262 95.8886C86.834 96.4286 86.9672 96.9595 87.2153 97.4392L88.0342 97.8341C88.0733 97.8172 88.1104 97.7958 88.1445 97.7702C88.2055 97.7244 88.2569 97.6671 88.2958 97.6015C88.3346 97.5359 88.3602 97.4632 88.3709 97.3877C88.3817 97.3122 88.3775 97.2354 88.3586 97.1615C88.3397 97.0876 88.3064 97.0182 88.2606 96.9572C88.1787 96.8193 88.1161 96.6708 88.0748 96.5158C87.945 95.9618 87.961 95.3835 88.1213 94.8375C88.5975 93.0024 89.9215 91.3531 91.1875 90.0117C91.7682 89.3728 92.4129 88.8502 93.0923 88.2695C94.1144 87.3751 95.0997 86.4382 96.0482 85.4587C98.0031 83.4943 99.676 81.2683 101.019 78.8442C102.034 76.9529 102.669 74.8815 102.889 72.7466C103.36 68.3679 102.308 63.8962 100.433 59.9705C98.6014 55.9699 95.83 52.4713 92.3548 49.7729C90.4463 48.3884 88.375 47.2435 86.1874 46.364C83.8478 45.3793 81.3962 44.6849 78.8877 44.2966C73.9166 43.5475 68.5623 44.1514 64.2707 46.9041C63.1574 47.652 62.1207 48.5079 61.1754 49.4593C60.138 50.4018 59.1569 51.4043 58.2369 52.4617C57.36 53.536 56.5934 54.6975 55.7514 55.8009C54.9032 56.8796 53.9877 57.9037 53.0104 58.8671C51.0208 60.8296 48.8726 62.6244 46.5875 64.2331C45.426 65.0461 44.2646 65.8243 43.1031 66.556C41.9416 67.2877 40.7802 68.031 39.5316 68.6466C37.0171 69.901 34.2412 70.7372 31.9299 72.3633C29.8604 73.8855 28.2265 75.924 27.1911 78.2751C26.6292 79.5426 26.1709 80.8535 25.8206 82.195C25.4462 83.4853 25.2202 84.8141 25.1469 86.1556C25.0826 87.5316 25.2635 88.9081 25.6812 90.2207Z" fill="black"/>
<path d="M55.5016 91.3588C56.7334 91.0603 57.9319 90.6381 59.0789 90.0987C60.1663 89.4718 61.0496 88.5442 61.6224 87.4273C62.2219 86.2789 62.7138 85.0775 63.0917 83.8384C63.5571 82.4388 63.8515 80.988 63.9686 79.5178C64.0181 78.7002 63.9713 77.8796 63.8292 77.0729C63.7073 76.2831 63.5214 75.4933 63.475 74.6919C63.4573 74.5379 63.5015 74.3831 63.5978 74.2617C63.6942 74.1403 63.8349 74.0621 63.9889 74.0444C64.1429 74.0267 64.2977 74.0709 64.4191 74.1673C64.5406 74.2636 64.6187 74.4043 64.6364 74.5583C64.9713 76.0487 65.1658 77.5672 65.2172 79.0938C65.1519 80.671 64.8806 82.2329 64.4099 83.7397C63.6376 86.3413 62.5632 89.3089 60.1997 90.8652C58.9046 91.7189 57.4005 92.0731 55.9371 92.5261C55.1938 92.7816 54.7234 91.6202 55.5016 91.3588Z" fill="black"/>
<path d="M11 123.99C11.0105 125.046 11.1174 126.1 11.3194 127.137C11.6097 126.319 11.9001 125.505 12.2195 124.698C12.7364 123.426 13.381 122.207 14.0023 120.993C15.2974 118.543 16.604 116.115 17.7713 113.601C20.0942 108.589 23.0269 103.885 25.5995 99.001C26.2499 97.7698 26.8481 96.5155 27.4985 95.2901C27.6901 94.9301 27.8818 94.57 28.0792 94.2158C28.2767 93.8615 28.5322 93.4028 28.7645 92.9962C28.9968 92.5897 29.2871 92.0787 29.5543 91.6199C30.2337 90.4585 30.919 89.2621 31.581 88.0717C32.1201 87.0443 32.7315 86.0566 33.4103 85.1157C34.1409 84.1804 35.0245 83.3754 36.0236 82.7347C37.076 82.0166 38.2011 81.4113 39.3802 80.9287C41.6907 79.9277 44.2971 79.8508 46.6626 80.7138C48.9008 81.5935 50.8453 83.0871 52.2724 85.0228C53.823 87.1715 54.1308 89.8545 55.0715 92.2703C55.1285 92.4166 55.2413 92.5343 55.3851 92.5975C55.5288 92.6607 55.6918 92.6641 55.8381 92.6071C55.9844 92.5502 56.1021 92.4374 56.1653 92.2936C56.2285 92.1499 56.2319 91.9869 56.1749 91.8406C55.9368 91.2018 55.7394 90.5456 55.5535 89.8951C55.2205 88.5603 54.7837 87.2536 54.2469 85.9868C53.6951 84.8438 52.9528 83.8029 52.0518 82.909C50.2819 81.0433 48.0148 79.7233 45.5185 79.1052C42.9486 78.6309 40.2939 79.0209 37.9691 80.2144C36.7466 80.7973 35.5802 81.4913 34.4847 82.2876C33.5053 83.0355 32.6541 83.9377 31.9643 84.9589C31.2832 85.9681 30.6532 87.0108 30.0769 88.0833C29.3801 89.3028 28.66 90.5107 27.9457 91.7244C27.9166 91.7767 27.8876 91.8348 27.8527 91.887C27.6205 92.2819 27.3998 92.6768 27.1791 93.0485C26.0176 95.1449 24.9491 97.2936 23.8051 99.4017C22.4462 101.899 21.0292 104.367 19.6645 106.858C18.2997 109.35 17.0686 111.858 15.8549 114.408C14.9083 116.388 13.8339 118.293 12.806 120.215C12.4924 120.796 12.1847 121.376 11.8885 121.992C11.5923 122.608 11.2729 123.322 11 123.99Z" fill="black"/>
<path d="M24.0082 119.281C26.1221 120.663 28.1895 122.121 30.2337 123.601C32.5101 125.257 34.7111 127.051 37.0747 128.578C37.7225 129.002 38.3933 129.39 39.084 129.74C39.1711 129.792 39.264 129.833 39.3511 129.879C39.6205 130.014 39.8978 130.132 40.1816 130.233C40.3442 129.868 40.4893 129.496 40.6345 129.124C40.4661 129.06 40.2977 128.979 40.1177 128.904L39.5369 128.625C37.7119 127.62 35.9803 126.454 34.3626 125.14C31.2383 122.765 28.0269 120.495 24.74 118.317C24.0779 117.905 23.3578 118.857 24.0082 119.281Z" fill="black"/>
<path d="M11 123.991C11.0106 125.047 11.1175 126.101 11.3195 127.138L11.3543 127.33C12.4635 132.655 17.5971 135.268 22.0571 137.469C24.7518 138.838 27.5181 140.062 30.3441 141.134C33.3003 142.305 36.3965 143.086 39.5545 143.457C40.3095 143.526 40.4837 142.359 39.7171 142.295C36.354 141.884 33.0622 141.019 29.9318 139.723C27.2721 138.695 24.7053 137.464 22.1442 136.198C19.9134 135.193 17.8116 133.924 15.884 132.417C14.9739 131.67 14.1896 130.782 13.5611 129.786C13.2548 129.286 13.0073 128.752 12.8235 128.195C12.6712 127.765 12.5584 127.322 12.4867 126.871C12.3522 126.161 12.2611 125.443 12.2138 124.722C12.2138 124.368 12.1847 124.014 12.2138 123.665C12.2147 123.133 12.277 122.603 12.3996 122.086C12.4511 121.885 12.5251 121.69 12.6203 121.505C12.6406 121.455 12.6702 121.41 12.7074 121.371C12.7351 121.33 12.7662 121.291 12.8003 121.255C12.8717 121.193 12.929 121.116 12.9682 121.03C13.0075 120.944 13.0278 120.851 13.0278 120.756C13.0278 120.661 13.0075 120.568 12.9682 120.482C12.929 120.395 12.8717 120.319 12.8003 120.257C12.4867 120.837 12.1789 121.418 11.8828 122.034C11.5866 122.649 11.273 123.323 11 123.991Z" fill="black"/>
<path d="M32.6152 119.402C33.3527 118.136 34.2238 116.957 35.0542 115.755C35.9602 114.443 36.6861 113.089 37.5049 111.69C38.5038 109.979 39.5239 108.279 40.5654 106.591C41.7268 104.715 42.9406 102.863 44.2124 101.051C44.6479 100.424 45.5829 101.155 45.1473 101.783C42.9522 104.942 40.937 108.223 38.9858 111.539C38.1437 112.968 37.3714 114.443 36.4596 115.836C35.6931 116.998 34.851 118.113 34.096 119.286C33.6872 119.912 33.3224 120.566 33.0043 121.243C32.8763 121.52 32.7677 121.805 32.6791 122.097C32.6185 122.339 32.5777 122.585 32.5571 122.834C32.5659 122.91 32.5595 122.988 32.5385 123.061C32.5174 123.135 32.482 123.204 32.4342 123.264C32.3865 123.324 32.3274 123.375 32.2603 123.412C32.1932 123.449 32.1194 123.473 32.0432 123.482C31.9669 123.49 31.8897 123.484 31.8158 123.463C31.742 123.442 31.6731 123.406 31.613 123.359C31.5528 123.311 31.5027 123.252 31.4654 123.185C31.4281 123.118 31.4044 123.044 31.3957 122.968C31.2969 121.702 31.988 120.465 32.6152 119.402Z" fill="black"/>
<path d="M32.9634 128.903C34.3835 127.995 36.0746 127.607 37.7486 127.806C37.8248 127.817 37.8982 127.843 37.9644 127.882C38.0306 127.922 38.0884 127.974 38.1345 128.036C38.1806 128.097 38.2141 128.168 38.2331 128.242C38.2521 128.317 38.2561 128.395 38.2451 128.471C38.234 128.547 38.2081 128.62 38.1687 128.687C38.1293 128.753 38.0772 128.811 38.0154 128.857C37.9537 128.903 37.8835 128.936 37.8088 128.955C37.7341 128.974 37.6564 128.978 37.5801 128.967C36.8971 128.933 36.2124 128.984 35.5418 129.118C35.2628 129.178 34.989 129.259 34.723 129.362C34.4783 129.456 34.2397 129.564 34.0087 129.687C33.7619 129.831 33.527 129.994 33.306 130.175L32.9924 130.448L32.9285 130.512L32.7775 130.675C32.4292 131.061 32.1414 131.497 31.9238 131.97C31.4206 133.137 31.2257 134.414 31.3579 135.678C31.4901 136.942 31.9449 138.151 32.6788 139.188C32.8774 139.463 33.0926 139.724 33.3234 139.972C33.7721 140.44 34.2843 140.843 34.8449 141.168C34.9279 141.205 35.0024 141.258 35.0632 141.325C35.1241 141.392 35.1701 141.471 35.198 141.557C35.2259 141.643 35.2353 141.734 35.2254 141.824C35.2154 141.914 35.1865 142.001 35.1405 142.079C35.0944 142.157 35.0324 142.224 34.9584 142.277C34.8844 142.329 34.8001 142.365 34.7112 142.382C34.6223 142.399 34.5308 142.397 34.4427 142.376C34.3546 142.355 34.272 142.316 34.2003 142.26C33.0366 141.554 32.0574 140.581 31.3436 139.422C30.6297 138.263 30.2016 136.951 30.0945 135.593C29.8855 133.073 30.7914 130.361 32.9634 128.903Z" fill="black"/>
<path d="M106.989 92.7301C108.284 94.1877 110.258 94.5245 112.093 94.3097C114.037 94.08 115.908 93.43 117.576 92.4049C117.638 92.3603 117.71 92.3285 117.785 92.3113C117.86 92.2942 117.938 92.292 118.014 92.305C118.09 92.3179 118.163 92.3457 118.228 92.3868C118.293 92.4278 118.35 92.4813 118.394 92.5443C118.439 92.6072 118.471 92.6783 118.488 92.7535C118.505 92.8287 118.507 92.9065 118.494 92.9825C118.481 93.0586 118.454 93.1313 118.412 93.1966C118.371 93.2619 118.318 93.3185 118.255 93.3631C116.796 94.2759 115.191 94.9301 113.51 95.2969C111.82 95.7251 110.042 95.6586 108.388 95.1053C107.471 94.7604 106.656 94.1891 106.019 93.4444C105.508 92.8695 106.478 92.1494 106.989 92.7301Z" fill="black"/>
<path d="M55.1355 90.7319C55.2952 90.7171 55.4544 90.7653 55.5792 90.8662C55.7039 90.9671 55.7843 91.1127 55.8033 91.272C55.8033 95.4126 57.3655 99.9306 60.966 102.306C64.4504 104.594 70.0951 104.338 72.5806 100.651C73.9163 98.653 73.6491 96.1385 72.5051 94.1175C72.4588 94.056 72.4251 93.9858 72.4061 93.9112C72.3871 93.8365 72.3832 93.7588 72.3946 93.6826C72.4059 93.6064 72.4323 93.5332 72.4722 93.4673C72.5122 93.4014 72.5648 93.3441 72.6271 93.2987C72.6883 93.252 72.7581 93.218 72.8326 93.1986C72.907 93.1791 72.9846 93.1747 73.0608 93.1855C73.137 93.1963 73.2102 93.2222 73.2763 93.2615C73.3425 93.3009 73.4001 93.353 73.4459 93.4149C74.6828 95.5403 75.1532 98.0607 74.1021 100.384C73.5942 101.414 72.8709 102.323 71.9812 103.049C71.0915 103.776 70.0562 104.302 68.9452 104.594C66.4322 105.295 63.7501 105.062 61.3958 103.938C59.2806 102.862 57.5562 101.15 56.4654 99.0421C55.2257 96.6945 54.5835 94.0777 54.5954 91.423C54.5788 91.2603 54.6257 91.0975 54.7264 90.9687C54.827 90.8399 54.9736 90.755 55.1355 90.7319Z" fill="black"/>
<path d="M49.4618 157.469C49.6072 158.123 49.9094 158.732 50.3424 159.242C50.7754 159.753 51.3262 160.151 51.9473 160.402C53.2453 160.894 54.6245 161.136 56.0124 161.116C57.6733 161.163 59.3342 161.116 60.9892 161.116C65.5538 161.174 70.1183 161.244 74.6829 161.354C79.2474 161.465 83.9281 161.633 88.5507 161.691C97.7901 161.807 107.059 161.801 116.263 160.959C118.511 160.756 120.77 160.675 123.023 160.605C125.09 160.541 127.169 160.402 129.242 160.408C130.956 160.408 132.675 160.489 134.388 160.408C135.619 160.369 136.836 160.144 138 159.74C140.642 159.711 143.464 159.229 144.678 156.796C145.445 155.262 144.73 153.654 143.517 152.62C142.304 151.607 140.741 151.113 139.167 151.244C139.105 151.169 139.023 151.113 138.93 151.084C138.837 151.056 138.738 151.054 138.644 151.081C138.064 151.209 137.483 151.331 136.902 151.43C131.914 152.272 126.838 152.097 121.803 152.155C116.432 152.219 111.054 152.591 105.688 152.841C100.212 153.102 94.7296 153.421 89.2476 153.474C83.7655 153.526 78.3414 153.363 72.8826 153.323C70.1822 153.323 67.4702 153.323 64.7524 153.323C63.1438 153.323 61.5409 153.323 59.9323 153.323C58.9044 153.201 57.8765 153.067 56.8545 152.91C55.6431 152.701 54.412 152.627 53.1842 152.69C52.0572 152.695 50.9724 153.119 50.1412 153.88C49.2179 154.844 49.1772 156.238 49.4618 157.469Z" fill="black"/>
<path d="M91.1586 58.5534C91.1586 58.5534 88.6731 68.391 79.4627 69.4886C70.2523 70.5862 69.3754 68.2691 69.3754 68.2691C69.3754 68.2691 69.7703 60.7196 63.603 64.6627C57.9757 68.2458 64.0385 74.3086 64.0385 74.3086C64.0385 74.3086 65.5717 86.0742 60.7516 89.8025C55.9316 93.5308 55.194 91.4866 55.194 91.4866C55.194 91.4866 53.597 79.5701 43.8233 79.3552C34.0497 79.1403 28.1146 92.8746 28.1146 92.8746C28.1146 92.8746 25.3387 88.9256 25.9949 85.3251C26.6512 81.7246 27.2377 75.1623 32.865 72.3167C38.4922 69.4712 48.4053 65.7603 54.6191 58.5186C60.8329 51.2769 63.9108 42.9551 77.4186 45.0747C90.9263 47.1944 100.073 54.4535 101.606 65.4874C103.139 76.5212 99.9973 80.8302 93.6441 86.8234C87.291 92.8165 87.5755 96.3241 87.5755 96.3241C87.5755 96.3241 83.6324 94.4251 80.6068 94.0593C77.5812 93.6934 65.7691 95.0117 65.7691 95.0117L71.2744 89.5296C71.2744 89.5296 78.9226 92.3055 83.2375 89.5993C87.5523 86.8931 88.9344 84.8489 88.9344 84.8489L90.3224 85.1451L90.032 83.5364C90.032 83.5364 98.2261 74.9765 96.7104 66.3468C95.4676 59.2561 91.1586 58.5534 91.1586 58.5534Z" fill="black"/>
<path d="M108.812 104.013C110.282 101.179 112.471 98.7865 114.504 96.3648C116.575 93.8288 118.474 91.1573 120.189 88.3682C121.629 86.0801 123.093 83.4436 125.671 82.2589C126.316 81.9611 127.019 81.8127 127.729 81.8248C128.439 81.8368 129.137 82.0091 129.771 82.3286C131.015 82.9979 132.184 83.8001 133.255 84.7212C133.298 84.7547 133.333 84.7961 133.36 84.8432C134.297 85.5511 135.298 86.1694 136.351 86.6899C137.573 87.4882 138.746 88.3589 139.864 89.2974C142.239 91.1499 144.864 92.654 147.413 94.2684C149.44 95.5518 152.059 97.0094 152.826 99.4485C153.592 101.888 151.792 104.054 150.433 105.837C149.626 106.893 148.889 107.991 148.11 109.054C147.193 110.204 146.298 111.365 145.451 112.596C144.581 113.82 143.788 115.096 143.075 116.417C142.39 117.678 141.734 118.955 140.938 120.152C139.516 122.306 137.483 124.443 134.794 124.797C132.268 125.146 129.887 123.636 127.75 122.503C122.587 119.695 117.695 116.414 113.139 112.701C112.558 112.259 112.012 111.806 111.449 111.353C111.352 111.312 111.258 111.261 111.17 111.202C108.963 109.623 107.453 106.621 108.812 104.013ZM126.159 120.146C127.32 120.796 128.482 121.406 129.643 122.021C130.666 122.61 131.761 123.063 132.901 123.369C134.021 123.642 135.203 123.489 136.217 122.939C137.277 122.363 138.205 121.572 138.941 120.616C140.683 118.485 141.688 115.889 143.157 113.589C144.725 111.133 146.612 108.897 148.285 106.516C148.935 105.587 149.661 104.71 150.323 103.787C150.996 102.962 151.468 101.992 151.699 100.953C152.042 98.7052 149.516 97.0966 147.907 96.0454C145.48 94.4484 142.948 93.0024 140.573 91.3241C139.376 90.4762 138.25 89.5355 137.088 88.6586C136.037 87.8688 134.876 87.2996 133.761 86.6086C133.233 86.2957 132.745 85.9193 132.309 85.4878C130.694 84.2508 128.824 82.4738 126.664 83.1649C125.49 83.6257 124.465 84.4013 123.702 85.4065C122.908 86.4095 122.188 87.4692 121.548 88.5773C119.969 91.1587 118.255 93.6555 116.414 96.057C114.585 98.4148 112.488 100.564 110.874 103.09C110.405 103.725 110.025 104.423 109.747 105.163C109.579 105.765 109.579 106.402 109.747 107.004C110.139 108.31 110.97 109.44 112.099 110.204C112.143 110.237 112.181 110.278 112.21 110.326C112.253 110.349 112.294 110.376 112.332 110.407C116.676 114.013 121.3 117.27 126.159 120.146Z" fill="#EF5026"/>
<path d="M127.837 95.2032C129.74 94.0348 131.473 92.6103 132.988 90.9697C133.435 90.5109 134.33 90.9058 134.028 91.5794C133.278 93.2519 133.069 95.1045 132.402 96.806C136.494 97.4402 140.507 98.513 144.37 100.006C145.532 100.428 146.676 100.879 147.803 101.359C147.92 101.404 148.022 101.483 148.093 101.587C148.165 101.691 148.203 101.814 148.203 101.94C148.203 102.066 148.165 102.189 148.093 102.292C148.022 102.396 147.92 102.476 147.803 102.52C144.655 103.966 141.287 105.203 137.814 105.563C138.859 107.48 140.491 109.048 141.821 110.755C142.228 111.272 141.641 111.864 141.095 111.69C139.428 111.156 137.843 110.209 136.118 109.855C136.467 110.767 136.914 111.638 137.28 112.538C137.321 112.651 137.328 112.772 137.301 112.889C137.274 113.006 137.215 113.112 137.129 113.196C137.043 113.279 136.935 113.336 136.817 113.359C136.7 113.383 136.578 113.372 136.467 113.328C135.265 112.898 134.213 112.102 132.982 111.719C132.836 111.654 132.721 111.535 132.661 111.386C132.602 111.238 132.602 111.072 132.663 110.924C132.729 110.778 132.848 110.664 132.996 110.603C133.144 110.543 133.309 110.541 133.459 110.598C134.151 110.849 134.822 111.158 135.462 111.522C135.125 110.818 134.847 110.088 134.632 109.338C134.583 109.235 134.564 109.121 134.576 109.008C134.588 108.895 134.631 108.788 134.699 108.697C134.768 108.607 134.861 108.537 134.966 108.495C135.072 108.454 135.187 108.442 135.299 108.461C136.698 108.611 138.06 109.004 139.324 109.623C138.096 108.306 137.071 106.815 136.281 105.198C136.246 105.11 136.233 105.016 136.24 104.922C136.248 104.828 136.277 104.738 136.325 104.657C136.374 104.576 136.44 104.507 136.518 104.456C136.597 104.405 136.687 104.373 136.78 104.361C139.981 104.096 143.111 103.276 146.031 101.94C141.369 99.9598 136.466 98.6046 131.449 97.9094C131.353 97.9 131.261 97.8685 131.179 97.8173C131.098 97.7661 131.029 97.6966 130.979 97.6144C130.929 97.5322 130.899 97.4394 130.891 97.3435C130.883 97.2475 130.897 97.151 130.932 97.0615C131.441 95.9162 131.831 94.7213 132.094 93.4958C131.007 94.5133 129.807 95.4019 128.516 96.144C128.455 96.1906 128.385 96.2247 128.311 96.2441C128.237 96.2635 128.159 96.268 128.083 96.2572C128.007 96.2464 127.933 96.2205 127.867 96.1811C127.801 96.1418 127.743 96.0897 127.698 96.0278C127.651 95.965 127.618 95.8935 127.6 95.8176C127.582 95.7417 127.579 95.6629 127.592 95.5859C127.605 95.5089 127.633 95.4353 127.676 95.3696C127.718 95.3038 127.773 95.2472 127.837 95.2032Z" fill="#EF5026" fill-opacity="0.3"/>
<path d="M115.131 107.23C116.911 105.282 118.559 103.216 120.061 101.046C120.828 99.9713 121.559 98.8679 122.338 97.7994C123.116 96.7308 123.964 95.6274 124.765 94.524C125.218 93.8736 125.346 92.7354 125.99 92.1547C125.932 92.0199 125.927 91.8681 125.977 91.7298C126.026 91.5915 126.126 91.477 126.256 91.4093C126.386 91.3416 126.537 91.3258 126.679 91.3649C126.82 91.4041 126.941 91.4954 127.018 91.6204C127.709 92.4973 127.889 93.6646 128.215 94.7041C128.668 96.1269 129.243 97.5206 129.759 98.9202C130.828 101.824 131.896 104.727 132.843 107.631C133.07 108.328 133.296 109.019 133.528 109.716C133.793 110.391 133.942 111.105 133.97 111.83C133.977 111.923 133.963 112.017 133.929 112.104C133.895 112.191 133.841 112.27 133.773 112.333C133.704 112.397 133.622 112.444 133.532 112.472C133.443 112.499 133.348 112.506 133.255 112.492C128.551 111.743 124.051 110.169 119.434 109.007C118.139 108.688 116.827 108.427 115.508 108.189C115.409 108.167 115.317 108.12 115.239 108.054C115.162 107.988 115.102 107.904 115.065 107.81C115.028 107.715 115.014 107.613 115.026 107.512C115.037 107.411 115.073 107.314 115.131 107.23ZM129.533 110.488C130.578 110.738 131.629 110.965 132.686 111.15C132.462 110.237 132.178 109.339 131.838 108.462C131.385 107.05 130.915 105.639 130.416 104.24C129.405 101.382 128.319 98.5485 127.291 95.6913C127.076 95.1106 126.92 94.4834 126.74 93.8794C126.699 93.7401 126.658 93.5949 126.612 93.4555C126.554 93.5833 126.501 93.7168 126.449 93.8504C126.29 94.2725 126.096 94.6805 125.868 95.0699C125.172 96.1733 124.318 97.1838 123.546 98.2291C121.983 100.349 120.549 102.561 118.935 104.617C118.249 105.494 117.541 106.359 116.798 107.178C121.118 108.038 125.282 109.46 129.533 110.488Z" fill="#EF5026"/>
<path d="M119.132 108.241C119.288 108.229 119.442 108.276 119.563 108.373C119.685 108.47 119.766 108.61 119.789 108.764C119.795 108.85 119.784 108.938 119.755 109.02C119.726 109.102 119.68 109.177 119.62 109.24C119.62 109.298 119.667 109.356 119.696 109.414C119.844 109.726 120.017 110.025 120.213 110.308C120.728 111.05 121.388 111.68 122.152 112.161C122.64 112.482 123.198 112.681 123.779 112.743C124.36 112.805 124.947 112.727 125.491 112.515C126.571 112.033 127.583 111.41 128.5 110.663C129.08 110.227 129.806 111.156 129.196 111.598C127.332 112.957 125.323 114.466 122.878 113.787C121.043 113.276 119.574 111.737 118.703 110.088C118.526 109.792 118.415 109.461 118.377 109.118C118.365 109.01 118.376 108.901 118.408 108.797C118.44 108.693 118.493 108.597 118.564 108.515C118.635 108.433 118.722 108.366 118.82 108.319C118.917 108.272 119.024 108.245 119.132 108.241Z" fill="#EF5026"/>
<path d="M23.0736 78.8445C23.384 77.6027 23.9065 76.4239 24.6183 75.3601C25.4562 74.2015 26.5337 73.237 27.7775 72.5319C30.4373 70.964 33.4977 70.3948 36.4885 69.7618C39.7696 69.0708 43.1552 68.2403 45.6524 65.8652C45.7137 65.8176 45.784 65.7828 45.859 65.7628C45.9341 65.7429 46.0123 65.7382 46.0892 65.749C46.1661 65.7599 46.24 65.786 46.3066 65.8259C46.3733 65.8658 46.4312 65.9186 46.477 65.9813C46.5246 66.0427 46.5594 66.1129 46.5793 66.188C46.5993 66.263 46.604 66.3413 46.5931 66.4182C46.5823 66.495 46.5562 66.569 46.5163 66.6356C46.4764 66.7022 46.4235 66.7601 46.3609 66.8059C41.9473 71.1033 35.2747 70.5168 29.9262 72.8223C28.6271 73.3671 27.4444 74.1556 26.4418 75.1452C25.6515 75.967 25.0439 76.9466 24.659 78.0198C23.8237 80.3862 23.6412 82.9338 24.1305 85.3951C24.3576 86.7004 24.8012 87.9585 25.443 89.1176C26.0564 90.1854 26.9242 91.0851 27.9692 91.7367C28.5499 92.1083 27.9692 93.0665 27.3884 92.7762C25.1468 91.7018 23.8286 89.1582 23.213 86.8643C22.4751 84.2479 22.4271 81.485 23.0736 78.8445Z" fill="black"/>
<path d="M136.409 153.178C136.769 152.972 137.166 152.839 137.578 152.787C137.99 152.736 138.407 152.766 138.807 152.876C139.134 152.966 139.442 153.112 139.719 153.306C140.013 153.391 140.286 153.539 140.517 153.739C140.749 153.94 140.934 154.188 141.061 154.467C141.265 155.03 141.265 155.647 141.061 156.209C140.855 156.803 140.488 157.328 140 157.725C139.513 158.121 138.925 158.375 138.302 158.457C137.631 158.504 136.963 158.329 136.401 157.96C135.838 157.591 135.413 157.047 135.189 156.413C135.005 155.814 135.025 155.172 135.246 154.587C135.467 154.001 135.876 153.506 136.409 153.178Z" fill="#EF5026"/>
<path d="M69.3749 155.1C69.8988 154.778 70.5026 154.611 71.1171 154.618C72.3192 154.618 73.8697 155.198 73.9394 156.54C74.0755 157.074 74.0594 157.635 73.893 158.16C73.6344 158.835 73.1462 159.397 72.5143 159.747C71.8823 160.098 71.147 160.214 70.4376 160.076C69.6544 159.931 68.9519 159.503 68.4631 158.874C68.2381 158.575 68.0844 158.229 68.014 157.862C67.9435 157.494 67.9581 157.116 68.0566 156.755C68.2806 156.061 68.7492 155.473 69.3749 155.1Z" fill="#EF5026"/>
<path d="M53.8461 156.15C54.1205 155.476 54.6447 154.933 55.3095 154.635C55.9567 154.29 56.6996 154.167 57.4234 154.286C57.7371 154.344 58.036 154.464 58.3024 154.64C58.5688 154.816 58.7971 155.043 58.9739 155.308C59.3479 155.761 59.598 156.304 59.6998 156.882C59.7725 157.154 59.7868 157.437 59.7418 157.715C59.6967 157.992 59.5933 158.256 59.4385 158.491C58.9791 159.075 58.3336 159.485 57.6092 159.652C56.9421 159.839 56.2345 159.823 55.5767 159.606C54.8786 159.346 54.3069 158.829 53.9796 158.16C53.8262 157.85 53.7354 157.513 53.7125 157.168C53.6896 156.824 53.735 156.478 53.8461 156.15Z" fill="#EF5026"/>
<path d="M107.396 155.93C107.12 156.516 107.056 157.179 107.216 157.806C107.325 158.17 107.506 158.508 107.747 158.801C107.988 159.094 108.285 159.336 108.621 159.514C109.343 159.956 110.179 160.176 111.025 160.147C111.808 160.11 112.551 159.79 113.116 159.246C113.366 158.997 113.563 158.7 113.695 158.373C113.827 158.045 113.89 157.694 113.882 157.342C113.875 156.768 113.67 156.214 113.302 155.774C112.971 154.554 111.559 153.95 110.398 153.944C109.805 153.916 109.218 154.068 108.714 154.38C108.136 154.761 107.679 155.299 107.396 155.93Z" fill="#EF5026"/>
<path d="M80.8094 157.713C80.8733 159.455 82.6387 160.402 84.2125 160.402C85.7863 160.402 87.5749 159.676 87.7898 157.963C87.8689 157.096 87.6087 156.232 87.0639 155.553C86.5586 154.507 84.9152 154.246 83.8408 154.391C83.0246 154.498 82.2724 154.89 81.7175 155.498C81.1626 156.106 80.8409 156.89 80.8094 157.713Z" fill="#EF5026"/>
<path d="M122.634 153.7C123.409 153.417 124.25 153.362 125.056 153.544C125.41 153.619 125.752 153.744 126.072 153.915C126.101 153.912 126.13 153.912 126.159 153.915C126.551 153.987 126.911 154.178 127.19 154.462C127.47 154.745 127.655 155.108 127.721 155.501C127.959 156.211 127.937 156.983 127.657 157.678C126.989 159.153 125.038 159.804 123.534 159.421C122.926 159.226 122.379 158.878 121.946 158.41C121.512 157.942 121.207 157.37 121.06 156.749C120.895 156.136 120.964 155.484 121.256 154.919C121.547 154.355 122.038 153.92 122.634 153.7Z" fill="#EF5026"/>
<path d="M94.2944 157.01C94.2635 157.622 94.4265 158.227 94.7603 158.74C95.094 159.253 95.5814 159.648 96.1528 159.867C97.5117 160.448 99.5326 160.216 100.288 158.805C100.793 157.87 100.868 156.035 99.9043 155.402C99.649 155.101 99.3398 154.851 98.9925 154.664C98.6022 154.441 98.1698 154.303 97.7228 154.257C97.2758 154.211 96.8241 154.258 96.3967 154.397C95.8232 154.569 95.3153 154.911 94.94 155.377C94.5647 155.844 94.3396 156.413 94.2944 157.01Z" fill="#EF5026"/>
<path d="M99.3011 142.58C99.8483 143.538 101.665 144.432 104.496 145.135C107.327 145.839 111.03 146.317 115.083 146.502C118.844 146.652 122.703 146.589 126.337 146.317C129.971 146.045 133.272 145.573 135.962 144.94C142.016 143.492 142.284 141.393 138.522 139.648C138.254 139.523 137.856 139.416 137.364 139.336C136.536 138.739 135.125 138.196 133.243 137.75C131.362 137.303 129.061 136.965 126.524 136.763C121.664 136.433 116.447 136.556 111.967 137.107C103.375 138.143 97.5872 140.289 99.3011 142.58Z" fill="#EF5026" fill-opacity="0.3"/>
</g>
<defs>
<clipPath id="clip0_266_1913">
<rect width="142" height="117.766" fill="white" transform="matrix(-1 0 0 1 153 44)"/>
</clipPath>
<clipPath id="clip1_266_1913">
<rect width="34.5989" height="29.9414" fill="white" transform="matrix(-0.962907 -0.269835 -0.269835 0.962907 97.2891 112.968)"/>
</clipPath>
<clipPath id="clip2_266_1913">
<rect width="19.2977" height="19.2977" fill="white" transform="matrix(-0.961573 -0.274549 -0.274549 0.961573 89.2402 116.376)"/>
</clipPath>
</defs>
</svg>
