<svg width="98" height="117" viewBox="0 0 98 117" fill="none" xmlns="http://www.w3.org/2000/svg">
<path d="M56.7277 76.7426C56.3474 76.7364 55.9834 76.5628 55.7096 76.2573L42.6916 61.2595C41.8203 60.179 41.3456 58.7491 41.3676 57.2714C41.3896 55.7936 41.9066 54.3834 42.8095 53.3383C43.7125 52.2932 44.9309 51.6948 46.2077 51.6693C47.4845 51.6438 48.72 52.1933 49.6535 53.2017L62.664 68.1909C62.9146 68.5097 63.0498 68.9278 63.0417 69.3587C63.0335 69.7896 62.8827 70.2004 62.6204 70.5062C62.3581 70.8121 62.0042 70.9896 61.632 71.0022C61.2598 71.0147 60.8977 70.8613 60.6204 70.5736L47.6099 55.5757C47.4221 55.3578 47.1991 55.1849 46.9536 55.0668C46.7081 54.9486 46.4448 54.8876 46.1789 54.8872C45.913 54.8868 45.6497 54.9471 45.4039 55.0645C45.1582 55.1819 44.9348 55.3541 44.7465 55.5714C44.5582 55.7887 44.4088 56.0468 44.3067 56.331C44.2047 56.6152 44.152 56.9198 44.1516 57.2276C44.1513 57.5353 44.2033 57.8401 44.3047 58.1246C44.4061 58.409 44.555 58.6676 44.7427 58.8855L57.7533 73.8746C57.8886 74.0301 57.9961 74.2151 58.0694 74.4188C58.1427 74.6225 58.1804 74.8409 58.1804 75.0616C58.1804 75.2823 58.1427 75.5009 58.0694 75.7046C57.9961 75.9083 57.8886 76.0933 57.7533 76.2487C57.6194 76.4061 57.4598 76.5308 57.2836 76.6156C57.1075 76.7005 56.9185 76.7436 56.7277 76.7426Z" fill="#253139"/>
<path d="M61.4222 70.8074C61.2328 70.8068 61.0453 70.7628 60.8706 70.678C60.6958 70.5933 60.5373 70.4694 60.4041 70.3135L50.4553 58.868C49.9982 58.3395 49.6355 57.712 49.3879 57.0213C49.1403 56.3305 49.0127 55.59 49.0124 54.8422C49.012 54.0944 49.139 53.3538 49.3859 52.6627C49.6329 51.9716 49.995 51.3436 50.4516 50.8146C50.9082 50.2855 51.4504 49.8657 52.0472 49.5791C52.644 49.2926 53.2838 49.1449 53.9299 49.1445C54.576 49.1441 55.2159 49.291 55.813 49.5768C56.41 49.8626 56.9526 50.2817 57.4097 50.8102L67.5232 62.5763C67.6574 62.7322 67.7638 62.9172 67.8362 63.1206C67.9086 63.3241 67.9457 63.542 67.9454 63.7621C67.9451 63.9821 67.9073 64.1999 67.8342 64.403C67.7611 64.6062 67.6542 64.7907 67.5195 64.946C67.3848 65.1013 67.225 65.2244 67.0492 65.3083C66.8734 65.3921 66.6851 65.435 66.495 65.4346C66.3049 65.4342 66.1167 65.3905 65.9412 65.3059C65.7657 65.2213 65.6063 65.0976 65.4721 64.9417L55.3586 53.1757C54.9784 52.7368 54.4632 52.4905 53.9262 52.4914C53.3892 52.4922 52.8745 52.7399 52.4953 53.18C52.1161 53.62 51.9034 54.2163 51.9041 54.8379C51.9048 55.4594 52.1188 56.0551 52.499 56.494L62.4478 67.9655C62.6504 68.2006 62.7883 68.4998 62.8441 68.8255C62.8999 69.1511 62.8711 69.4886 62.7614 69.7953C62.6517 70.1021 62.466 70.3644 62.2277 70.5491C61.9893 70.7339 61.7091 70.8328 61.4222 70.8334V70.8074Z" fill="#253139"/>
<path d="M68.5402 105.49C68.1588 105.49 67.7928 105.316 67.5221 105.005L67.4398 104.91C66.1446 103.428 64.4578 102.491 62.6488 102.25C58.1572 101.652 49.9227 99.5378 45.4311 92.2078C44.6227 90.8995 39.4424 87.4425 34.8311 84.8606C34.7545 84.8169 34.6818 84.7646 34.614 84.7046C33.7454 83.9684 33.1645 82.8636 32.9989 81.6323C32.8333 80.401 33.0965 79.144 33.7307 78.1371C36.216 74.1775 40.745 76.4822 43.1704 77.7126C43.1704 77.7126 45.1991 78.579 47.3101 79.2288L27.42 54.9689C26.5008 53.8969 25.9872 52.4462 25.9921 50.9359C25.997 49.4255 26.5201 47.9793 27.4463 46.9154C28.3724 45.8515 29.6258 45.257 30.9307 45.2627C32.2357 45.2684 33.4852 45.8738 34.4044 46.9458L57.753 73.9003C58.024 74.2139 58.1763 74.6393 58.1763 75.0829C58.1763 75.5265 58.024 75.9519 57.753 76.2656C57.482 76.5792 57.1144 76.7555 56.7312 76.7555C56.3479 76.7555 55.9804 76.5792 55.7093 76.2656L32.3608 49.3111C31.974 48.8857 31.4608 48.6485 30.9272 48.6485C30.3936 48.6485 29.8804 48.8857 29.4936 49.3111C29.1156 49.7525 28.9035 50.3488 28.9035 50.9703C28.9035 51.5918 29.1156 52.1882 29.4936 52.6296L50.8061 78.6223C51.1539 79.014 51.3827 79.5254 51.4583 80.0802C51.5339 80.635 51.4523 81.2032 51.2255 81.6998C50.9988 82.1963 50.6392 82.5945 50.2005 82.8347C49.7619 83.075 49.2679 83.1444 48.7924 83.0324C46.4976 82.5054 44.2442 81.7606 42.055 80.8056C37.9827 78.7436 36.7176 79.0728 36.0663 80.1039C35.894 80.3766 35.8168 80.7143 35.8501 81.05C35.8833 81.3856 36.0247 81.6943 36.246 81.9147C38.1923 83.0151 46.2022 87.6678 47.7892 90.2497C51.652 96.5313 58.9657 98.3768 62.9781 98.914C64.9829 99.1826 66.8858 100.082 68.4803 101.513L84.3804 83.0844L82.726 81.1696C81.4367 79.6842 80.5675 77.7807 80.2332 75.7111C79.5969 71.8295 78.5863 68.849 77.4634 67.5494L62.7087 50.4722C62.4097 50.1254 62.0245 49.8954 61.6071 49.8146C61.1896 49.7339 60.7607 49.8062 60.3806 50.0216C60.1798 50.1348 59.9974 50.2872 59.8415 50.4722C59.4639 50.9121 59.252 51.5069 59.252 52.127C59.252 52.7471 59.4639 53.342 59.8415 53.7819L67.4922 62.5761C67.6269 62.7309 67.7339 62.9148 67.8072 63.1174C67.8804 63.32 67.9185 63.5373 67.9191 63.757C67.9198 63.9766 67.8832 64.1943 67.8112 64.3975C67.7392 64.6007 67.6334 64.7856 67.4997 64.9414C67.366 65.0973 67.207 65.2212 67.032 65.306C66.8569 65.3908 66.6692 65.4349 66.4794 65.4357C66.2896 65.4365 66.1015 65.394 65.9259 65.3107C65.7504 65.2274 65.5907 65.1049 65.456 64.9501L57.7979 56.1559C57.3402 55.6272 56.9772 54.9992 56.7294 54.3079C56.4817 53.6165 56.3542 52.8754 56.3542 52.127C56.3542 51.3786 56.4817 50.6375 56.7294 49.9462C56.9772 49.2549 57.3402 48.6268 57.7979 48.0981C58.179 47.6584 58.6188 47.2927 59.1004 47.015C60.0225 46.4909 61.063 46.3136 62.0764 46.5078C63.0898 46.702 64.0255 47.258 64.7523 48.0981L79.5146 65.1754C81.4983 67.4714 82.5464 71.8382 83.0779 75.0873C83.3087 76.4932 83.901 77.7858 84.7772 78.7956L87.4496 81.8974C87.585 82.0528 87.6924 82.2378 87.7657 82.4415C87.839 82.6452 87.8768 82.8637 87.8768 83.0844C87.8768 83.305 87.839 83.5236 87.7657 83.7273C87.6924 83.931 87.585 84.1159 87.4496 84.2714L69.5433 104.996C69.277 105.305 68.9173 105.483 68.5402 105.49Z" fill="#253139"/>
<path d="M73.0398 116.269C72.8491 116.269 72.6602 116.226 72.4841 116.141C72.3081 116.056 72.1483 115.932 72.0142 115.775L65.1047 107.786C64.8436 107.465 64.6983 107.04 64.6983 106.599C64.6983 106.158 64.8436 105.734 65.1047 105.412L87.832 79.1075C88.1096 78.8054 88.4764 78.6372 88.8575 78.6372C89.2386 78.6372 89.6054 78.8054 89.8831 79.1075L96.7926 87.1046C97.0619 87.4194 97.2129 87.8444 97.2129 88.2873C97.2129 88.7302 97.0619 89.1552 96.7926 89.47L74.0653 115.775C73.7935 116.09 73.4247 116.268 73.0398 116.269ZM68.1814 106.599L73.0398 112.222L93.7159 88.2916L88.8725 82.6946L68.1814 106.599Z" fill="#253139"/>
<path d="M48.4489 101.063H1.4448C1.25443 101.063 1.06594 101.019 0.89016 100.935C0.714381 100.85 0.554767 100.726 0.420508 100.57C0.28625 100.414 0.179968 100.229 0.107803 100.025C0.0356377 99.8209 -0.000966922 99.6025 1.94147e-05 99.3821V16.8464C-0.000966922 16.6261 0.0356377 16.4077 0.107803 16.2038C0.179968 15.9999 0.28625 15.8146 0.420508 15.6584C0.554767 15.5022 0.714381 15.3783 0.89016 15.2937C1.06594 15.2091 1.25443 15.1656 1.4448 15.1656H48.4489C48.6433 15.1586 48.837 15.1969 49.0184 15.2782C49.1998 15.3596 49.3653 15.4823 49.5049 15.6391C49.6446 15.7959 49.7556 15.9835 49.8314 16.1909C49.9071 16.3983 49.9461 16.6212 49.946 16.8464V54.0074C49.9197 54.4312 49.7556 54.8277 49.4869 55.1172C49.2181 55.4067 48.8646 55.5677 48.4975 55.5677C48.1304 55.5677 47.7769 55.4067 47.5081 55.1172C47.2394 54.8277 47.0753 54.4312 47.049 54.0074V18.484H2.88208V97.7186H47.049V93.6811C47.0753 93.2573 47.2394 92.8607 47.5081 92.5712C47.7769 92.2817 48.1304 92.1207 48.4975 92.1207C48.8646 92.1207 49.2181 92.2817 49.4869 92.5712C49.7556 92.8607 49.9197 93.2573 49.946 93.6811V99.3908C49.9451 99.6152 49.9054 99.8372 49.8292 100.044C49.7529 100.25 49.6418 100.437 49.5022 100.593C49.3627 100.748 49.1976 100.87 49.0167 100.951C48.8358 101.032 48.6427 101.07 48.4489 101.063Z" fill="#253139"/>
<path d="M48.4489 18.4752H1.4448C1.25479 18.4764 1.06645 18.4339 0.890709 18.3503C0.714972 18.2667 0.555324 18.1435 0.420965 17.9879C0.286607 17.8324 0.180196 17.6477 0.10794 17.4443C0.0356847 17.2409 -0.000972617 17.0229 1.96171e-05 16.803V9.11777C0.00200137 6.85504 0.779467 4.68567 2.16186 3.08568C3.54426 1.48569 5.41863 0.58579 7.37363 0.583496H42.5574C44.5124 0.58579 46.3868 1.48569 47.7692 3.08568C49.1516 4.68567 49.9291 6.85504 49.9311 9.11777V16.8463C49.9262 17.0659 49.884 17.2823 49.8069 17.483C49.7298 17.6838 49.6192 17.8649 49.4815 18.0162C49.3439 18.1675 49.1819 18.2859 49.0047 18.3647C48.8275 18.4434 48.6386 18.481 48.4489 18.4752ZM2.89707 15.1135H47.064V9.10909C47.064 7.73035 46.5907 6.40815 45.7484 5.43324C44.9061 4.45832 43.7637 3.91054 42.5724 3.91054H7.38862C6.19738 3.91054 5.05491 4.45832 4.21258 5.43324C3.37026 6.40815 2.89707 7.73035 2.89707 9.10909V15.1135Z" fill="#253139"/>
<path d="M42.5574 115.255H7.37363C5.41863 115.253 3.54426 114.353 2.16186 112.753C0.779467 111.153 0.00200137 108.984 1.96171e-05 106.721V99.3822C-0.000972617 99.1623 0.0356847 98.9444 0.10794 98.741C0.180196 98.5376 0.286607 98.3527 0.420965 98.1972C0.555324 98.0417 0.714971 97.9186 0.890709 97.835C1.06645 97.7514 1.25479 97.7088 1.4448 97.71H48.4489C48.6392 97.7088 48.8279 97.7513 49.004 97.8348C49.1802 97.9183 49.3403 98.0413 49.4753 98.1967C49.6102 98.3521 49.7173 98.5368 49.7904 98.7402C49.8635 98.9437 49.9011 99.1619 49.9011 99.3822V106.721C49.8992 108.978 49.1258 111.142 47.7498 112.741C46.3739 114.34 44.5072 115.244 42.5574 115.255ZM2.88208 101.063V106.721C2.88208 108.1 3.35527 109.422 4.1976 110.397C5.03993 111.372 6.1824 111.919 7.37363 111.919H42.5574C43.7487 111.919 44.8911 111.372 45.7334 110.397C46.5758 109.422 47.049 108.1 47.049 106.721V101.063H2.88208Z" fill="#253139"/>
<path d="M28.7079 11.2058H21.222C21.023 11.2223 20.8232 11.1913 20.6351 11.1145C20.4469 11.0378 20.2745 10.917 20.1284 10.7597C19.9824 10.6024 19.8659 10.412 19.7863 10.2003C19.7066 9.98858 19.6655 9.7602 19.6655 9.5293C19.6655 9.29841 19.7066 9.06992 19.7863 8.85822C19.8659 8.64653 19.9824 8.45614 20.1284 8.29883C20.2745 8.14153 20.4469 8.02074 20.6351 7.94399C20.8232 7.86725 21.023 7.83615 21.222 7.85272H28.7079C29.0741 7.88321 29.4167 8.07313 29.6668 8.38419C29.917 8.69524 30.056 9.10439 30.056 9.5293C30.056 9.95422 29.917 10.3634 29.6668 10.6744C29.4167 10.9855 29.0741 11.1753 28.7079 11.2058Z" fill="#253139"/>
<path d="M22.9964 44.4072H8.51116C8.32079 44.4072 8.1323 44.3636 7.95652 44.279C7.78074 44.1945 7.62113 44.0706 7.48687 43.9144C7.35261 43.7582 7.24633 43.5728 7.17416 43.3689C7.102 43.165 7.06535 42.9466 7.06633 42.7263V25.935C7.06535 25.7146 7.102 25.4962 7.17416 25.2923C7.24633 25.0885 7.35261 24.9031 7.48687 24.7469C7.62113 24.5907 7.78074 24.4668 7.95652 24.3822C8.1323 24.2977 8.32079 24.2541 8.51116 24.2542H22.9964C23.1868 24.2541 23.3752 24.2977 23.551 24.3822C23.7268 24.4668 23.8864 24.5907 24.0207 24.7469C24.1549 24.9031 24.2612 25.0885 24.3333 25.2923C24.4055 25.4962 24.4422 25.7146 24.4412 25.935V42.7263C24.4422 42.9466 24.4055 43.165 24.3333 43.3689C24.2612 43.5728 24.1549 43.7582 24.0207 43.9144C23.8864 44.0706 23.7268 44.1945 23.551 44.279C23.3752 44.3636 23.1868 44.4072 22.9964 44.4072ZM9.93345 41.0541H21.574V27.6072H9.96343L9.93345 41.0541Z" fill="#EF5026"/>
<path d="M22.9964 68.0435H8.51116C8.32079 68.0435 8.1323 68 7.95652 67.9154C7.78074 67.8308 7.62113 67.7069 7.48687 67.5507C7.35261 67.3945 7.24633 67.2091 7.17416 67.0052C7.102 66.8013 7.06535 66.583 7.06633 66.3627V49.5627C7.06534 49.3427 7.10205 49.1248 7.1743 48.9214C7.24656 48.718 7.35297 48.5332 7.48733 48.3777C7.62168 48.2222 7.78133 48.099 7.95707 48.0154C8.13281 47.9318 8.32115 47.8893 8.51116 47.8904H22.9964C23.1864 47.8893 23.3747 47.9318 23.5505 48.0154C23.7262 48.099 23.8859 48.2222 24.0202 48.3777C24.1546 48.5332 24.2609 48.718 24.3332 48.9214C24.4055 49.1248 24.4422 49.3427 24.4412 49.5627V66.3627C24.4422 66.583 24.4055 66.8013 24.3333 67.0052C24.2612 67.2091 24.1549 67.3945 24.0207 67.5507C23.8864 67.7069 23.7268 67.8308 23.551 67.9154C23.3752 68 23.1868 68.0435 22.9964 68.0435ZM9.93345 64.6904H21.574V51.2435H9.96343L9.93345 64.6904Z" fill="#EF5026"/>
<path d="M22.9964 91.6709H8.51116C8.32115 91.6721 8.13281 91.6297 7.95707 91.546C7.78133 91.4624 7.62168 91.3393 7.48733 91.1838C7.35297 91.0283 7.24656 90.8434 7.1743 90.64C7.10205 90.4366 7.06534 90.2187 7.06633 89.9988V73.1641C7.06535 72.9438 7.102 72.7253 7.17416 72.5215C7.24633 72.3176 7.35261 72.1322 7.48687 71.976C7.62113 71.8198 7.78074 71.6959 7.95652 71.6114C8.1323 71.5268 8.32079 71.4833 8.51116 71.4833H22.9964C23.1911 71.4751 23.3853 71.5126 23.5672 71.5935C23.749 71.6744 23.9149 71.797 24.0548 71.954C24.1946 72.1111 24.3056 72.2992 24.381 72.5072C24.4564 72.7151 24.4947 72.9386 24.4936 73.1641V89.9641C24.4989 90.1921 24.4636 90.4189 24.3899 90.6305C24.3163 90.8421 24.2058 91.034 24.0654 91.194C23.925 91.3541 23.7576 91.4791 23.5737 91.5612C23.3898 91.6432 23.1933 91.6805 22.9964 91.6709ZM9.93345 88.3179H21.574V74.8969H9.96343L9.93345 88.3179Z" fill="#EF5026"/>
</svg>
