<svg width="104" height="99" viewBox="0 0 104 99" fill="none" xmlns="http://www.w3.org/2000/svg">
<path d="M46.4101 67.9601C46.2159 67.9616 46.0247 67.9054 45.8557 67.797C45.6891 67.6927 45.55 67.5402 45.4526 67.3551C45.3552 67.17 45.303 66.959 45.3013 66.7437V48.6417C45.3002 48.4283 45.3489 48.2184 45.4426 48.0333C45.5364 47.8481 45.6717 47.6943 45.8349 47.5873C45.9982 47.4804 46.1835 47.4242 46.3721 47.4243C46.5608 47.4245 46.746 47.481 46.9091 47.5883L60.7695 56.6424C60.9339 56.7496 61.0712 56.9028 61.1683 57.0872C61.2653 57.2717 61.3189 57.4812 61.3239 57.6958C61.323 57.9105 61.271 58.121 61.1735 58.3052C61.0759 58.4894 60.9364 58.6406 60.7695 58.7429L46.9091 67.797C46.7565 67.8953 46.5855 67.9512 46.4101 67.9601ZM47.4857 50.7422V64.6431L58.1305 57.7146L47.4857 50.7422Z" fill="#EF5026"/>
<path d="M73.1222 77.1896H31.663C31.3777 77.1896 31.1041 77.0614 30.9024 76.8333C30.7007 76.6051 30.5874 76.2958 30.5874 75.9732V39.4118C30.5874 39.2524 30.6153 39.0945 30.6694 38.9473C30.7235 38.8 30.8028 38.6663 30.9028 38.5539C31.0027 38.4414 31.1213 38.3524 31.2518 38.292C31.3822 38.2315 31.522 38.2009 31.663 38.2017H73.1222C73.2629 38.2008 73.4024 38.2316 73.5325 38.2921C73.6627 38.3526 73.7809 38.4417 73.8804 38.5543C73.9799 38.6668 74.0587 38.8006 74.1122 38.9478C74.1657 39.0949 74.1929 39.2527 74.1922 39.4118V75.9732C74.1929 76.1326 74.1658 76.2906 74.1123 76.4382C74.0589 76.5857 73.9802 76.7199 73.8807 76.8329C73.7813 76.946 73.6631 77.0356 73.5329 77.0968C73.4027 77.158 73.2631 77.1896 73.1222 77.1896ZM32.733 74.763H72.0466V40.6282H32.733V74.763Z" fill="#EF5026"/>
<path d="M102.506 98.4231H1.70257C1.50572 98.4231 1.31076 98.3878 1.12899 98.319C0.947219 98.2502 0.782213 98.1493 0.64338 98.0222C0.504547 97.8952 0.394644 97.7443 0.32002 97.5784C0.245396 97.4125 0.207496 97.2347 0.208516 97.0555V18.654C0.20749 18.4751 0.245491 18.2977 0.320209 18.1322C0.394926 17.9667 0.504916 17.8164 0.643852 17.6899C0.782789 17.5633 0.947829 17.4631 1.12955 17.395C1.31128 17.327 1.50609 17.2925 1.70257 17.2935H102.506C102.902 17.2935 103.282 17.4368 103.562 17.6919C103.842 17.9471 104 18.2932 104 18.654V97.0766C103.994 97.4345 103.834 97.7758 103.554 98.0276C103.275 98.2793 102.899 98.4213 102.506 98.4231ZM3.20427 95.6949H101.004V20.0005H3.20427V95.6949Z" fill="#253139"/>
<path d="M9.30977 12.4515C8.91253 12.4453 8.53265 12.2693 8.24863 11.9597C8.11006 11.8041 8.00045 11.6196 7.92602 11.4167C7.85159 11.2138 7.81375 10.9964 7.81483 10.7772C7.80652 10.671 7.80652 10.5642 7.81483 10.458C7.83643 10.3512 7.86756 10.247 7.90777 10.1472C7.93856 10.0411 7.98579 9.94169 8.04723 9.85367C8.09779 9.76025 8.15753 9.67357 8.22537 9.59491C8.40011 9.40326 8.6143 9.26204 8.84922 9.18381C9.08414 9.10558 9.33264 9.0927 9.5731 9.14609C9.67298 9.16673 9.77137 9.19546 9.86743 9.23227C9.95415 9.27548 10.0372 9.32763 10.1153 9.38778C10.199 9.4477 10.2768 9.51711 10.3477 9.59491C10.4179 9.6734 10.4802 9.76006 10.5335 9.85367C10.5907 9.9447 10.6376 10.0433 10.673 10.1472C10.7071 10.2487 10.7355 10.3526 10.7582 10.458C10.7666 10.5642 10.7666 10.671 10.7582 10.7772C10.7596 10.9972 10.7212 11.2153 10.6453 11.4184C10.5695 11.6216 10.4578 11.8057 10.3167 11.9597C10.0489 12.2596 9.68914 12.4352 9.30977 12.4515Z" fill="#253139"/>
<path d="M19.8979 10.7775C19.8979 10.558 19.9368 10.3407 20.0125 10.138C20.0881 9.93535 20.1988 9.75148 20.3385 9.59669C20.4781 9.4419 20.6439 9.31936 20.8262 9.23616C21.0084 9.15296 21.2036 9.1107 21.4006 9.11184C21.5972 9.11069 21.792 9.15306 21.9738 9.23637C22.1556 9.31968 22.3209 9.4422 22.4599 9.59711C22.5989 9.75202 22.709 9.93624 22.7837 10.1389C22.8585 10.3415 22.8965 10.5585 22.8955 10.7775C22.8965 10.997 22.8586 11.2146 22.7839 11.4177C22.7093 11.6208 22.5993 11.8055 22.4604 11.9611C22.3215 12.1167 22.1564 12.2401 21.9745 12.3244C21.7926 12.4086 21.5975 12.4519 21.4006 12.4519C21.002 12.4519 20.6198 12.2755 20.338 11.9615C20.0562 11.6475 19.8979 11.2216 19.8979 10.7775Z" fill="#253139"/>
<path d="M33.5148 12.4513C33.1175 12.445 32.7377 12.2691 32.4536 11.9595C32.1717 11.6462 32.0129 11.2208 32.0122 10.777C32.0038 10.6708 32.0038 10.564 32.0122 10.4578C32.0338 10.351 32.0649 10.2468 32.1051 10.147C32.1341 10.04 32.1814 9.94029 32.2445 9.85346C32.2925 9.75814 32.3525 9.67112 32.4226 9.5947C32.7103 9.29119 33.0915 9.12207 33.4877 9.12207C33.8838 9.12207 34.265 9.29119 34.5527 9.5947C34.6205 9.67336 34.6802 9.76004 34.7308 9.85346C34.7909 9.94244 34.838 10.0416 34.8703 10.147C34.9122 10.2447 34.9384 10.35 34.9477 10.4578C34.9599 10.5638 34.9599 10.671 34.9477 10.777C34.9508 10.9959 34.9139 11.2132 34.8393 11.4157C34.7295 11.7245 34.5382 11.9889 34.2906 12.1738C34.043 12.3588 33.7509 12.4555 33.4529 12.4513H33.5148Z" fill="#253139"/>
<path d="M102.358 20.6683H1.49497C1.298 20.6683 1.10292 20.625 0.921041 20.5408C0.739164 20.4565 0.57406 20.3329 0.435144 20.1773C0.296227 20.0217 0.186259 19.8372 0.11159 19.6341C0.0369215 19.431 -0.00100031 19.2134 2.02489e-05 18.9939V2.5954C-0.00100641 2.37633 0.0370171 2.15913 0.111779 1.95652C0.186542 1.7539 0.296597 1.56989 0.435616 1.41498C0.574636 1.26008 0.739775 1.13755 0.921608 1.05424C1.10344 0.970935 1.29836 0.928566 1.49497 0.92971H102.358C102.755 0.92971 103.135 1.10512 103.415 1.41751C103.696 1.7299 103.853 2.15361 103.853 2.5954V18.9939C103.853 19.4365 103.696 19.8612 103.416 20.175C103.136 20.4888 102.756 20.666 102.358 20.6683ZM2.99757 17.2937H100.856V4.20082H2.99757V17.2937Z" fill="#253139"/>
</svg>
