<svg width="102" height="115" viewBox="0 0 102 115" fill="none" xmlns="http://www.w3.org/2000/svg">
<path d="M77.9 25.3016L81.2414 28.7098C82.2384 29.7267 82.7418 31.0553 82.6407 32.4032C82.5397 33.7512 81.8426 35.0082 80.7027 35.8977L59.4381 52.4907C59.3172 52.5861 59.1764 52.6591 59.0237 52.7057C58.8711 52.7524 58.7097 52.7716 58.5487 52.7624C58.3877 52.7531 58.2303 52.7156 58.0856 52.6519C57.9409 52.5883 57.8118 52.4997 57.7056 52.3914L48.454 42.9549C48.3477 42.8466 48.2665 42.7206 48.2151 42.5842C48.1636 42.4478 48.1429 42.3037 48.154 42.1601C48.1652 42.0165 48.2081 41.8763 48.2802 41.7476C48.3523 41.6188 48.4522 41.504 48.5742 41.4098L69.8388 24.8168C70.4036 24.376 71.0603 24.0389 71.7712 23.8248C72.4821 23.6106 73.2334 23.5236 73.982 23.5686C74.7307 23.6136 75.4621 23.7898 76.1344 24.0872C76.8066 24.3845 77.4066 24.7972 77.9 25.3016ZM58.7248 50.1298L79.0678 34.2559C79.7198 33.7451 80.1184 33.0246 80.1763 32.2522C80.2341 31.4799 79.9466 30.7185 79.3766 30.1349L76.0351 26.7267C75.4626 26.145 74.6551 25.7893 73.7893 25.7377C72.9235 25.6861 72.0701 25.9426 71.4159 26.4511L51.0729 42.325L58.7248 50.1298Z" fill="#253139"/>
<path d="M46.9236 48.4197L51.4179 53.0037C51.5558 53.1426 51.6518 53.3106 51.6968 53.4917C51.7419 53.6729 51.7344 53.8613 51.6752 54.0392C51.616 54.217 51.507 54.3785 51.3584 54.5084C51.2098 54.6383 51.0266 54.7322 50.8261 54.7814L43.1541 56.7225C42.9305 56.7782 42.6937 56.7764 42.4712 56.7171C42.2487 56.6579 42.0495 56.5437 41.8966 56.3878C41.7438 56.2319 41.6434 56.0406 41.6072 55.8359C41.5711 55.6313 41.6006 55.4217 41.6923 55.2314L44.8699 48.7063C44.9513 48.5355 45.0801 48.386 45.2441 48.272C45.4082 48.1579 45.6021 48.083 45.8076 48.0543C46.0131 48.0257 46.2234 48.0441 46.4186 48.1081C46.6139 48.172 46.7877 48.2792 46.9236 48.4197ZM48.2917 53.1421L46.3537 51.1654L44.978 53.9834L48.2917 53.1421Z" fill="#253139"/>
<path d="M50.2869 41.5242L59.5344 50.9564C59.6697 51.0955 59.7635 51.2629 59.8073 51.443C59.8511 51.623 59.8435 51.81 59.785 51.9867C59.7265 52.1634 59.6191 52.3241 59.4727 52.4541C59.3263 52.584 59.1457 52.679 58.9473 52.7304L50.8361 54.7735C50.6126 54.8289 50.376 54.8268 50.1537 54.7674C49.9315 54.708 49.7326 54.5938 49.5799 54.4379L45.0857 49.8538C44.9328 49.6981 44.8324 49.507 44.796 49.3026C44.7596 49.0982 44.7887 48.8887 44.88 48.6984L48.2296 41.7986C48.313 41.63 48.4426 41.4829 48.6065 41.3708C48.7704 41.2587 48.9632 41.1851 49.1673 41.1569C49.3714 41.1287 49.5801 41.1468 49.7743 41.2095C49.9685 41.2722 50.142 41.3775 50.2786 41.5156L50.2869 41.5242ZM56.4166 51.1033L49.7337 44.2869L47.4588 48.9646L50.9339 52.5091L56.4166 51.1033Z" fill="#253139"/>
<path d="M32.241 55.0777C31.0952 55.0735 29.9668 54.8272 28.9483 54.3589C25.7318 52.893 23.6445 49.4687 23.6445 45.6256C23.6445 40.4185 27.5018 36.1792 32.241 36.1792C36.9802 36.1792 40.8375 40.4185 40.8375 45.6256C40.8375 49.4687 38.7566 52.8929 35.54 54.3532C34.5211 54.8266 33.3898 55.0751 32.241 55.0777ZM32.241 38.3696C28.8595 38.3696 26.0998 41.6241 26.0998 45.6256C26.0998 48.6028 27.6922 51.3252 30.0649 52.4176C30.737 52.7329 31.4849 52.8976 32.2442 52.8976C33.0035 52.8976 33.7514 52.7329 34.4234 52.4176C36.7898 51.3365 38.3822 48.6141 38.3822 45.6256C38.3822 41.6241 35.6288 38.3696 32.241 38.3696Z" fill="#EF5026"/>
<path d="M47.2645 69.3574H17.2245C17.0634 69.3582 16.9038 69.3304 16.7549 69.2758C16.6059 69.2211 16.4706 69.1406 16.3568 69.0391C16.2429 68.9375 16.1527 68.8168 16.0915 68.6839C16.0302 68.5511 15.9992 68.4086 16 68.265V62.8485C16.0017 61.1327 16.766 59.4874 18.1254 58.2736C19.4847 57.0598 21.3282 56.3765 23.2515 56.3735H29.5069C29.6686 56.3735 29.8286 56.402 29.9779 56.4571C30.1273 56.5123 30.2629 56.5932 30.3772 56.6952C30.4915 56.7971 30.5822 56.9182 30.644 57.0514C30.7059 57.1846 30.7377 57.3274 30.7377 57.4716V57.7376C30.7376 57.9255 30.7816 58.1114 30.8668 58.2833C30.952 58.4551 31.0766 58.6092 31.2326 58.7355C31.3885 58.8619 31.5724 58.9576 31.7723 59.0167C31.9723 59.0759 32.1839 59.0971 32.3936 59.0789C32.7784 59.0279 33.1291 58.8529 33.3792 58.587C33.6293 58.3211 33.7617 57.9828 33.7512 57.6358V57.4716C33.7512 57.3274 33.7831 57.1846 33.8449 57.0514C33.9068 56.9182 33.9975 56.7971 34.1117 56.6952C34.226 56.5932 34.3617 56.5123 34.511 56.4571C34.6603 56.402 34.8204 56.4571 34.982 56.4571L41.2311 56.3735C43.1555 56.375 45.0006 57.0577 46.3613 58.2717C47.722 59.4856 48.4873 61.1317 48.4889 62.8485V68.265C48.4889 68.4084 48.4573 68.5506 48.3957 68.6831C48.3342 68.8156 48.244 68.936 48.1303 69.0374C48.0166 69.1388 47.8816 69.2194 47.7331 69.2743C47.5845 69.3291 47.4253 69.3574 47.2645 69.3574ZM18.4552 67.167H46.0337V62.8485C46.032 61.7126 45.5255 60.6237 44.6252 59.8205C43.7249 59.0174 42.5043 56.375 41.2311 56.3735L34.982 56.4571C34.7785 57.2297 35.3795 60.0251 34.6822 60.518C33.9849 61.0108 33.1214 61.2789 32.2318 61.2789C31.3422 61.2789 30.4787 61.0108 29.7814 60.518C29.0841 60.0251 28.5939 59.3365 28.3903 58.5639H23.2515C21.9794 58.5669 20.7604 59.0195 19.8615 59.8225C18.9626 60.6255 18.4569 61.7136 18.4552 62.8485V67.167Z" fill="#EF5026"/>
<path d="M32.242 61.2752C31.1915 61.2737 30.1846 60.9003 29.4423 60.237C28.7001 59.5738 28.2832 58.6749 28.2832 57.7377V53.3796C28.283 53.1923 28.3366 53.0082 28.4391 52.8449C28.5416 52.6815 28.6894 52.5443 28.8684 52.4465C29.0474 52.3488 29.2515 52.2938 29.4612 52.2867C29.6709 52.2796 29.8792 52.3207 30.0659 52.4061C30.738 52.7214 31.4859 52.8861 32.2452 52.8861C33.0045 52.8861 33.7524 52.7214 34.4244 52.4061C34.6112 52.3207 34.8194 52.2796 35.0291 52.2867C35.2388 52.2938 35.443 52.3488 35.622 52.4465C35.801 52.5443 35.9488 52.6815 36.0512 52.8449C36.1537 53.0082 36.2074 53.1923 36.2072 53.3796V57.7377C36.2072 58.6759 35.7894 59.5757 35.0458 60.2391C34.3022 60.9025 33.2936 61.2752 32.242 61.2752ZM30.7384 54.9304V57.7604C30.725 57.9443 30.7541 58.1286 30.8238 58.3021C30.8934 58.4755 31.0022 58.6343 31.1435 58.7687C31.2847 58.9031 31.4553 59.0104 31.6448 59.0836C31.8343 59.1569 32.0387 59.1947 32.2452 59.1947C32.4517 59.1947 32.656 59.1569 32.8455 59.0836C33.035 59.0104 33.2057 58.9031 33.3469 58.7687C33.4881 58.6343 33.5969 58.4755 33.6666 58.3021C33.7363 58.1286 33.7653 57.9443 33.752 57.7604V54.9304C32.759 55.1228 31.7314 55.1228 30.7384 54.9304Z" fill="#EF5026"/>
<path d="M99.8019 87.8557H1.44657C1.25598 87.8557 1.06722 87.8121 0.891227 87.7274C0.715237 87.6427 0.555478 87.5186 0.421058 87.3622C0.286638 87.2058 0.18023 87.0203 0.107978 86.8161C0.0357263 86.612 -0.000967925 86.3934 1.95934e-05 86.1728V7.88418C-0.00097383 7.664 0.0358189 7.44578 0.108161 7.24214C0.180503 7.03849 0.286996 6.85347 0.421515 6.69777C0.556035 6.54208 0.715919 6.4188 0.891867 6.33507C1.06781 6.25134 1.25634 6.20883 1.44657 6.20998H99.8019C99.9925 6.20884 100.181 6.25131 100.358 6.33494C100.534 6.41856 100.695 6.54169 100.83 6.69727C100.965 6.85285 101.072 7.03778 101.145 7.24147C101.218 7.44516 101.256 7.66359 101.256 7.88418V86.1728C101.256 86.6191 101.103 87.0472 100.83 87.3628C100.557 87.6784 100.188 87.8557 99.8019 87.8557ZM2.93055 84.4986H98.303V9.56706H2.90054L2.93055 84.4986Z" fill="#253139"/>
<path d="M59.9296 9.56717H41.4022C41.0166 9.56717 40.6468 9.38987 40.3741 9.07427C40.1015 8.75867 39.9482 8.33062 39.9482 7.88429V1.67324C39.9482 1.45265 39.9859 1.23425 40.059 1.03056C40.1322 0.826871 40.2395 0.641911 40.3746 0.486332C40.5097 0.330754 40.67 0.207623 40.8464 0.123998C41.0228 0.0403731 41.2116 -0.00209705 41.4022 -0.000954092H59.9296C60.1202 -0.00209705 60.3091 0.0403731 60.4854 0.123998C60.6618 0.207623 60.8221 0.330754 60.9573 0.486332C61.0924 0.641911 61.1996 0.826871 61.2728 1.03056C61.346 1.23425 61.3836 1.45265 61.3836 1.67324V7.88429C61.3836 8.33062 61.2304 8.75867 60.9577 9.07427C60.685 9.38987 60.3153 9.56717 59.9296 9.56717ZM42.8413 6.21009H58.4756V3.35613H42.8413V6.21009Z" fill="#253139"/>
<path d="M34.0118 114.583H23.444C23.2157 114.582 22.9908 114.518 22.7876 114.398C22.5843 114.278 22.4085 114.104 22.2742 113.89C22.1399 113.676 22.051 113.429 22.0146 113.168C21.9783 112.907 21.9955 112.64 22.065 112.388L29.5598 85.6617C29.6536 85.3237 29.8377 85.0291 30.0856 84.8201C30.3334 84.6112 30.6322 84.4988 30.9389 84.4993H38.5911C38.8044 84.4989 39.0152 84.5532 39.2082 84.6582C39.4013 84.7631 39.5719 84.9163 39.7079 85.1065C39.8426 85.3002 39.9397 85.5252 39.9928 85.7661C40.0458 86.0071 40.0534 86.2584 40.0152 86.5031L35.4658 113.221C35.3928 113.605 35.2091 113.949 34.9449 114.197C34.6807 114.444 34.3516 114.58 34.0118 114.583ZM25.4377 111.226H32.8201L36.7998 87.8563H31.9657L25.4377 111.226Z" fill="#253139"/>
<path d="M77.5647 114.583H67.0044C66.6674 114.582 66.3413 114.446 66.0815 114.197C65.8218 113.949 65.6446 113.604 65.5803 113.221L61.031 86.503C60.9873 86.2592 60.9914 86.0073 61.0429 85.7657C61.0944 85.524 61.192 85.2988 61.3286 85.1065C61.4652 84.9143 61.6373 84.76 61.8323 84.6549C62.0272 84.5497 62.24 84.4965 62.455 84.4991H70.1073C70.4139 84.4987 70.7127 84.611 70.9606 84.82C71.2085 85.0289 71.3926 85.3236 71.4863 85.6615L78.9812 112.388C79.0508 112.64 79.068 112.908 79.0312 113.17C78.9945 113.431 78.9049 113.679 78.7698 113.893C78.6346 114.107 78.4578 114.281 78.2536 114.401C78.0494 114.521 77.8236 114.583 77.5947 114.583H77.5647ZM68.196 111.226H75.5786L69.073 87.8562H64.2388L68.196 111.226Z" fill="#253139"/>
</svg>
