<svg width="103" height="117" viewBox="0 0 103 117" fill="none" xmlns="http://www.w3.org/2000/svg">
<path d="M60.7913 96.4857C60.6009 96.4872 60.4132 96.4333 60.2452 96.3293C59.8955 96.1234 51.6548 91.1166 50.9859 84.1923C50.8977 83.2675 50.9788 82.3316 51.2241 81.4456C51.4694 80.5597 51.8733 79.7436 52.4095 79.0505C52.9177 78.3768 53.5423 77.8338 54.2431 77.4571C54.9439 77.0803 55.7051 76.8779 56.4777 76.863C57.3301 76.886 58.1652 77.1458 58.9127 77.6204C59.6602 78.095 60.2982 78.7706 60.7729 79.5902C61.2466 78.7693 61.8843 78.0927 62.6321 77.618C63.3798 77.1432 64.2155 76.8842 65.0682 76.863C65.8408 76.8779 66.602 77.0803 67.3028 77.4571C68.0036 77.8338 68.6282 78.3768 69.1364 79.0505C69.6712 79.7446 70.0743 80.5608 70.3195 81.4465C70.5647 82.3322 70.6467 83.2676 70.56 84.1923C69.8727 91.1166 61.6504 96.1234 61.3006 96.3293C61.1435 96.4259 60.9692 96.4795 60.7913 96.4857ZM56.4961 79.6116C56.0583 79.6278 55.6283 79.7492 55.2333 79.968C54.8382 80.1869 54.4867 80.4983 54.2012 80.8827C53.8844 81.2838 53.6454 81.7589 53.5004 82.2758C53.3554 82.7928 53.3077 83.3398 53.3606 83.8798C53.7778 88.0699 58.4474 91.9759 60.8036 93.5383C62.5278 92.3807 67.7987 88.4748 68.2528 83.8798C68.3069 83.3403 68.2603 82.7935 68.1164 82.2765C67.9724 81.7595 67.7344 81.2841 67.4183 80.8827C67.1323 80.4989 66.7807 80.188 66.3858 79.9693C65.9908 79.7505 65.561 79.6287 65.1234 79.6116C63.3992 79.6116 61.994 81.6001 61.994 84.036C62.0057 84.2248 61.9838 84.4143 61.9294 84.5928C61.8751 84.7713 61.7895 84.9349 61.6781 85.0734C61.5667 85.212 61.4318 85.3224 61.2819 85.398C61.132 85.4735 60.9702 85.5126 60.8067 85.5126C60.6432 85.5126 60.4814 85.4735 60.3315 85.398C60.1815 85.3224 60.0467 85.212 59.9353 85.0734C59.8239 84.9349 59.7383 84.7713 59.684 84.5928C59.6296 84.4143 59.6076 84.2248 59.6194 84.036C59.6194 81.6001 58.2019 79.6116 56.4777 79.6116H56.4961Z" fill="#EF5026"/>
<path d="M19.6893 87.5574H1.6651C1.22349 87.5574 0.799982 87.3544 0.487716 86.993C0.17545 86.6316 1.49e-10 86.1414 1.49098e-10 85.6302V1.92649C-2.92962e-06 1.67388 0.0431482 1.42368 0.126932 1.19042C0.210716 0.957157 0.333508 0.745527 0.48824 0.567362C0.642971 0.389198 0.826582 0.248161 1.02855 0.152395C1.23052 0.0566304 1.44684 0.00799455 1.6651 0.00930344H86.2159C86.4337 0.00798672 86.6497 0.0565106 86.8512 0.152395C87.0526 0.24828 87.2357 0.389551 87.3897 0.567847C87.5438 0.746144 87.6657 0.95794 87.7486 1.19115C87.8314 1.42435 87.8735 1.67435 87.8724 1.92649V20.4831C87.8735 20.7357 87.8315 20.9861 87.7487 21.2199C87.666 21.4537 87.5442 21.6663 87.3903 21.8454C87.2363 22.0245 87.0533 22.1665 86.8518 22.2635C86.6502 22.3605 86.4341 22.4105 86.2159 22.4105H21.3458V85.6402C21.3458 86.1487 21.1713 86.6364 20.8607 86.9959C20.55 87.3555 20.1287 87.5574 19.6893 87.5574ZM3.28729 83.713H18.0242V20.4831C18.0265 19.9737 18.203 19.4862 18.515 19.1269C18.827 18.7676 19.2492 18.5659 19.6893 18.5659H84.5508V3.85363H3.28729V83.713Z" fill="#253139"/>
<path d="M101.245 116.813H19.7066C19.4879 116.813 19.2714 116.763 19.0694 116.666C18.8674 116.57 18.6838 116.427 18.5292 116.249C18.3745 116.07 18.2519 115.857 18.1682 115.623C18.0845 115.389 18.0415 115.139 18.0415 114.886V20.5129C18.0438 20.0035 18.2202 19.5159 18.5322 19.1567C18.8442 18.7974 19.2665 18.5957 19.7066 18.5957H101.245C101.685 18.5957 102.107 18.7974 102.419 19.1567C102.731 19.5159 102.908 20.0035 102.91 20.5129V114.886C102.91 115.139 102.867 115.389 102.783 115.623C102.699 115.857 102.577 116.07 102.422 116.249C102.268 116.427 102.084 116.57 101.882 116.666C101.68 116.763 101.463 116.813 101.245 116.813ZM21.3459 112.969H99.5882V22.4104H21.3459V112.969Z" fill="#253139"/>
<path d="M36.2932 58.9328C35.931 58.9306 35.5842 58.7625 35.3287 58.4653C35.0732 58.1681 34.9298 57.7658 34.9298 57.3466V40.5447C34.9318 40.2682 34.9962 39.997 35.1166 39.7581C35.237 39.5193 35.4093 39.321 35.6164 39.183C35.8234 39.045 36.058 38.9721 36.2969 38.9714C36.5359 38.9708 36.7708 39.0424 36.9784 39.1792L49.5527 47.5761C49.7649 47.7122 49.9422 47.9111 50.0663 48.1524C50.1904 48.3938 50.2569 48.6689 50.2591 48.9498C50.2579 49.2298 50.1917 49.5042 50.0674 49.7444C49.9431 49.9846 49.7654 50.1817 49.5527 50.3151L36.9784 58.7202C36.7694 58.8574 36.5335 58.9305 36.2932 58.9328ZM37.6637 43.2919V54.6076L46.1407 48.9498L37.6637 43.2919Z" fill="#EF5026"/>
<path d="M76.9684 59.8321C73.8107 59.8321 71.4301 57.9925 71.4301 55.5478C71.4301 53.1032 73.8107 51.2717 76.9684 51.2717C80.1261 51.2717 82.5068 53.1113 82.5068 55.5478C82.5068 57.9843 80.1261 59.8321 76.9684 59.8321ZM76.9684 54.4359C75.1529 54.4359 74.2134 55.2535 74.1428 55.556C74.0721 55.8585 75.1317 56.668 76.9684 56.668C78.8051 56.668 79.7093 55.8503 79.7941 55.5478C79.7093 55.2698 78.791 54.4359 76.9684 54.4359Z" fill="#EF5026"/>
<path d="M87.4654 51.2311C87.304 51.2299 87.1438 51.1967 86.9921 51.1329C85.5086 50.487 82.8101 48.3041 83.1915 44.6411C83.4812 41.8531 81.7787 41.3134 81.2136 41.2153C80.8564 41.1508 80.5358 40.9255 80.3214 40.5886C80.1071 40.2517 80.0164 39.8305 80.0692 39.4166C80.1199 39.0047 80.3099 38.6329 80.5973 38.383C80.8848 38.1331 81.2462 38.0255 81.6021 38.0839C83.5871 38.3946 86.3704 40.5367 85.9042 45.0172C85.6852 47.1267 87.861 48.1323 87.9599 48.1732C88.2539 48.3099 88.498 48.5605 88.6504 48.882C88.8029 49.2036 88.8543 49.5763 88.796 49.9369C88.7377 50.2974 88.5733 50.6234 88.3307 50.8594C88.0881 51.0954 87.7823 51.2267 87.4654 51.2311Z" fill="#EF5026"/>
<path d="M81.1433 57.1339C80.7798 57.1339 80.4312 56.9669 80.1742 56.6694C79.9172 56.372 79.7728 55.9685 79.7728 55.5478V39.6453C79.7977 39.2453 79.9525 38.8711 80.2061 38.5979C80.4597 38.3248 80.7933 38.1729 81.1397 38.1729C81.4862 38.1729 81.8198 38.3248 82.0734 38.5979C82.327 38.8711 82.4818 39.2453 82.5067 39.6453V55.5478C82.5076 55.7557 82.473 55.9619 82.4049 56.1542C82.3368 56.3466 82.2365 56.5216 82.1098 56.6689C81.9831 56.8163 81.8325 56.9333 81.6667 57.0131C81.5008 57.0929 81.3229 57.1339 81.1433 57.1339Z" fill="#EF5026"/>
<path d="M56.4259 65.1794H26.1842C25.8219 65.1794 25.4744 65.0134 25.2176 64.7177C24.9608 64.422 24.8156 64.0206 24.8137 63.6014V34.2981C24.8137 33.8775 24.9581 33.474 25.2151 33.1765C25.4721 32.879 25.8207 32.7119 26.1842 32.7119H56.4259C56.6055 32.7119 56.7834 32.7531 56.9492 32.8329C57.1151 32.9127 57.2657 33.0296 57.3924 33.177C57.5191 33.3244 57.6194 33.4993 57.6875 33.6917C57.7556 33.8841 57.7902 34.0902 57.7893 34.2981V63.6014C57.7893 64.0199 57.6456 64.4213 57.3899 64.7172C57.1343 65.0131 56.7875 65.1794 56.4259 65.1794ZM27.5476 62.0152H55.0555V35.8516H27.5476V62.0152Z" fill="#253139"/>
<path d="M93.83 65.2205H63.5812C63.219 65.2184 62.8722 65.0504 62.6167 64.7532C62.3613 64.4559 62.2178 64.0537 62.2178 63.6344V34.3312C62.2197 33.9134 62.364 33.5132 62.6192 33.2178C62.8745 32.9223 63.2202 32.7553 63.5812 32.7532H93.83C94.191 32.7553 94.5367 32.9223 94.792 33.2178C95.0473 33.5132 95.1915 33.9134 95.1934 34.3312V63.6344C95.1934 64.0537 95.05 64.4559 94.7945 64.7532C94.539 65.0504 94.1923 65.2184 93.83 65.2205ZM64.9517 62.0564H92.4596V35.8928H64.9517V62.0564Z" fill="#253139"/>
<path d="M76.6709 103.379H43.9285C43.7492 103.38 43.5715 103.339 43.4056 103.261C43.2398 103.182 43.0891 103.066 42.9624 102.919C42.8356 102.772 42.7352 102.598 42.667 102.406C42.5988 102.214 42.5641 102.008 42.5651 101.801V72.0721C42.5641 71.8646 42.5988 71.6589 42.667 71.467C42.7352 71.275 42.8356 71.1006 42.9624 70.9539C43.0891 70.8071 43.2398 70.691 43.4056 70.612C43.5715 70.5331 43.7492 70.4931 43.9285 70.4942H76.6709C77.0325 70.4942 77.3793 70.6604 77.635 70.9564C77.8907 71.2523 78.0343 71.6536 78.0343 72.0721V101.801C78.0343 102.219 77.8907 102.62 77.635 102.916C77.3793 103.212 77.0325 103.379 76.6709 103.379ZM45.2848 100.214H75.3005V73.6582H45.299L45.2848 100.214Z" fill="#253139"/>
</svg>
