<svg width="123" height="104" viewBox="0 0 123 104" fill="none" xmlns="http://www.w3.org/2000/svg">
<path d="M18.6962 27.9608H13.3874C6.00978 27.9608 0 21.8594 0 14.3701C0 13.9354 -2.61142e-07 13.5007 0.0598411 13.0736C0.718096 6.0647 6.44577 0.779446 13.3874 0.779446C13.6146 0.764863 13.8428 0.792233 14.0576 0.85979C14.2725 0.927347 14.4694 1.03367 14.6362 1.17214C14.803 1.3106 14.936 1.47819 15.0269 1.66453C15.1179 1.85088 15.1648 2.05191 15.1648 2.25515C15.1648 2.4584 15.1179 2.65952 15.0269 2.84586C14.936 3.03221 14.803 3.1998 14.6362 3.33826C14.4694 3.47673 14.2725 3.58305 14.0576 3.65061C13.8428 3.71816 13.6146 3.74553 13.3874 3.73095C8.18117 3.73095 3.87259 7.85692 3.35967 13.3176C3.32547 13.6684 3.30837 14.0193 3.30837 14.3701C3.30837 20.235 7.83067 25.0474 13.3874 25.0474H18.6962C18.9234 25.0328 19.1515 25.0602 19.3664 25.1277C19.5813 25.1953 19.7782 25.3016 19.945 25.4401C20.1118 25.5785 20.2448 25.7461 20.3357 25.9325C20.4267 26.1188 20.4736 26.3199 20.4736 26.5232C20.4736 26.7264 20.4267 26.9274 20.3357 27.1138C20.2448 27.3001 20.1118 27.4678 19.945 27.6063C19.7782 27.7447 19.5813 27.8511 19.3664 27.9186C19.1515 27.9862 18.9234 28.0135 18.6962 27.9989V27.9608Z" fill="#253139"/>
<path d="M18.6962 100.925H13.3874C6.00978 100.925 0 94.8239 0 87.3346V14.3705C0.0300812 13.9974 0.217425 13.6484 0.524332 13.3936C0.83124 13.1388 1.23494 12.9971 1.65419 12.9971C2.07344 12.9971 2.47714 13.1388 2.78404 13.3936C3.09095 13.6484 3.27829 13.9974 3.30837 14.3705C3.30837 20.2353 7.83067 25.0478 13.3874 25.0478H18.6962C19.136 25.0478 19.5578 25.2037 19.8689 25.4811C20.1799 25.7586 20.3546 26.135 20.3546 26.5274V99.4838C20.3435 99.8695 20.1638 100.236 19.854 100.505C19.5442 100.775 19.1287 100.925 18.6962 100.925ZM3.30837 23.309V87.3727C3.30837 93.2376 7.83067 98.0119 13.3874 98.0119H17.0462V27.9993H13.3874C11.4151 27.9666 9.47826 27.526 7.7293 26.7121C5.98034 25.8982 4.46699 24.7332 3.30837 23.309Z" fill="#253139"/>
<path d="M70.9204 96.0665H59.619C59.1791 96.0665 58.7573 95.9106 58.4462 95.6332C58.1352 95.3557 57.9605 94.9793 57.9605 94.5869V76.8855C57.9605 76.4931 58.1352 76.1168 58.4462 75.8393C58.7573 75.5618 59.1791 75.406 59.619 75.406H70.9204C71.1382 75.406 71.3539 75.4441 71.5551 75.5185C71.7563 75.5928 71.9391 75.7019 72.0931 75.8393C72.2471 75.9767 72.3693 76.1398 72.4526 76.3193C72.536 76.4988 72.5789 76.6912 72.5789 76.8855V94.5869C72.5789 94.7812 72.536 94.9736 72.4526 95.1532C72.3693 95.3327 72.2471 95.4958 72.0931 95.6332C71.9391 95.7706 71.7563 95.8795 71.5551 95.9538C71.3539 96.0282 71.1382 96.0665 70.9204 96.0665ZM61.2689 93.115H69.2705V78.3727H61.2689V93.115Z" fill="#253139"/>
<path d="M84.0081 103.694H45.5386C45.0988 103.694 44.6769 103.538 44.3659 103.26C44.0549 102.983 43.8802 102.606 43.8802 102.214V94.5874C43.8802 94.3934 43.9231 94.2014 44.0066 94.0223C44.09 93.8432 44.2123 93.6807 44.3664 93.5439C44.5205 93.4072 44.7034 93.2989 44.9046 93.2254C45.1058 93.1518 45.3212 93.1145 45.5386 93.1155H84.0081C84.4457 93.1155 84.8653 93.2705 85.1747 93.5465C85.4842 93.8226 85.658 94.197 85.658 94.5874V102.214C85.658 102.605 85.4844 102.98 85.1753 103.257C84.8661 103.535 84.4464 103.692 84.0081 103.694ZM47.2484 100.742H82.2983V96.0669H47.1971L47.2484 100.742Z" fill="#253139"/>
<path d="M121.35 78.3729H10.2157C9.77731 78.3729 9.35676 78.218 9.04598 77.9422C8.73521 77.6664 8.55948 77.2921 8.55722 76.901V9.43566C8.55722 9.04326 8.73195 8.66689 9.04297 8.38942C9.35399 8.11195 9.77583 7.95614 10.2157 7.95614H26.7319C27.1717 7.95614 27.5936 8.11195 27.9046 8.38942C28.2156 8.66689 28.3904 9.04326 28.3904 9.43566V12.1279H43.3849V9.43566C43.3838 9.24172 43.4256 9.04955 43.508 8.87009C43.5904 8.69062 43.7118 8.52738 43.8651 8.38989C44.0184 8.25239 44.2007 8.14333 44.4014 8.06888C44.6022 7.99443 44.8174 7.95614 45.0348 7.95614H85.385C85.8248 7.95614 86.2467 8.11195 86.5577 8.38942C86.8687 8.66689 87.0435 9.04326 87.0435 9.43566V12.0211H102.038V9.39759C102.037 9.20365 102.079 9.01138 102.161 8.83192C102.244 8.65245 102.365 8.4893 102.518 8.35181C102.672 8.21432 102.854 8.10516 103.055 8.03071C103.255 7.95626 103.471 7.91797 103.688 7.91797H121.35C121.567 7.91797 121.782 7.95626 121.983 8.03071C122.184 8.10516 122.366 8.21432 122.519 8.35181C122.673 8.4893 122.794 8.65245 122.876 8.83192C122.959 9.01138 123.001 9.20365 123 9.39759V76.8628C123.005 77.0593 122.967 77.2548 122.886 77.4378C122.806 77.6208 122.685 77.7877 122.532 77.9284C122.378 78.0692 122.194 78.1809 121.991 78.2572C121.788 78.3336 121.57 78.3729 121.35 78.3729ZM11.9254 75.4213H119.691V10.9076H105.381V13.5464C105.381 13.9388 105.206 14.3152 104.895 14.5927C104.584 14.8701 104.162 15.026 103.722 15.026H85.385C85.1676 15.026 84.9524 14.9877 84.7516 14.9132C84.5509 14.8388 84.3686 14.7297 84.2153 14.5922C84.062 14.4547 83.9406 14.2916 83.8582 14.1121C83.7758 13.9326 83.7339 13.7404 83.7351 13.5464V10.9229H46.6933V13.615C46.6933 14.0075 46.5185 14.3838 46.2075 14.6613C45.8965 14.9388 45.4747 15.0947 45.0348 15.0947H26.7319C26.5145 15.0947 26.2993 15.0563 26.0985 14.9818C25.8978 14.9074 25.7155 14.7983 25.5622 14.6608C25.4089 14.5233 25.2875 14.3602 25.2051 14.1807C25.1227 14.0012 25.0809 13.809 25.082 13.615V10.9229H11.8998L11.9254 75.4213Z" fill="#253139"/>
<path d="M45.0347 15.0718H26.7318C26.5144 15.0718 26.2991 15.0335 26.0984 14.959C25.8976 14.8846 25.7154 14.7754 25.5621 14.6379C25.4087 14.5004 25.2874 14.3373 25.205 14.1578C25.1226 13.9783 25.0807 13.7862 25.0818 13.5922V4.44026C25.0807 4.24668 25.1226 4.05475 25.2051 3.87571C25.2876 3.69667 25.4091 3.53407 25.5626 3.39719C25.716 3.2603 25.8983 3.15185 26.099 3.07823C26.2997 3.00462 26.5148 2.96727 26.7318 2.96828H45.0347C45.2521 2.96728 45.4675 3.00462 45.6687 3.07814C45.8699 3.15166 46.0527 3.25994 46.2069 3.39672C46.361 3.5335 46.4833 3.69607 46.5667 3.87516C46.6502 4.05424 46.6931 4.24632 46.6931 4.44026V13.5922C46.6931 13.7865 46.6502 13.9789 46.5669 14.1584C46.4835 14.3379 46.3614 14.501 46.2074 14.6384C46.0534 14.7758 45.8705 14.8848 45.6693 14.9591C45.4681 15.0335 45.2525 15.0718 45.0347 15.0718ZM28.3902 12.1202H43.3848V5.91979H28.3902V12.1202Z" fill="#253139"/>
<path d="M103.67 14.9956H85.3846C85.1672 14.9956 84.952 14.9573 84.7513 14.8828C84.5505 14.8084 84.3683 14.6992 84.2149 14.5617C84.0616 14.4243 83.9403 14.2611 83.8579 14.0816C83.7754 13.9022 83.7336 13.7099 83.7347 13.516V4.364C83.7336 4.17042 83.7755 3.97858 83.858 3.79954C83.9405 3.6205 84.062 3.45781 84.2154 3.32092C84.3689 3.18404 84.5512 3.07567 84.7519 3.00206C84.9526 2.92845 85.1677 2.8911 85.3846 2.89211H103.67C103.888 2.8911 104.103 2.92844 104.304 3.00197C104.506 3.07549 104.689 3.18377 104.843 3.32055C104.997 3.45733 105.119 3.6199 105.203 3.79898C105.286 3.97807 105.329 4.17006 105.329 4.364V13.516C105.329 13.9084 105.154 14.2847 104.843 14.5622C104.532 14.8397 104.11 14.9956 103.67 14.9956ZM87.0431 12.0212H102.038V5.79018H87.0431V12.0212Z" fill="#253139"/>
<path d="M84.4333 46.2589C84.3254 46.2596 84.2183 46.2409 84.1187 46.2039C84.019 46.1668 83.9286 46.1123 83.853 46.0435L77.9825 40.81C77.9059 40.7422 77.8451 40.6616 77.8036 40.5727C77.7621 40.4839 77.7407 40.3885 77.7407 40.2923C77.7407 40.196 77.7621 40.1007 77.8036 40.0119C77.8451 39.923 77.9059 39.8424 77.9825 39.7746C79.9158 38.05 82.5379 37.0811 85.272 37.0811C88.006 37.0811 90.6281 38.05 92.5615 39.7746L98.3389 44.9288C98.4531 45.0306 98.5309 45.1603 98.5626 45.3015C98.5942 45.4427 98.5783 45.5892 98.5168 45.7224C98.4525 45.8541 98.3474 45.9666 98.2138 46.0469C98.0803 46.1272 97.9239 46.172 97.7629 46.1758L84.4376 46.2589H84.4333ZM79.7487 40.315L84.768 44.7928L95.7806 44.7247L91.3925 40.81C89.867 39.4481 87.8272 38.6426 85.6715 38.551C83.5159 38.4595 81.3995 39.0885 79.736 40.315H79.7487Z" fill="#253139"/>
<path d="M70.9038 70.1407C70.7969 70.1411 70.6909 70.1226 70.5921 70.0863C70.4932 70.05 70.4033 69.9965 70.3278 69.929L64.5503 64.7748C62.6172 63.05 61.5312 60.7108 61.5312 58.2716C61.5312 55.8325 62.6172 53.4932 64.5503 51.7684C64.7056 51.6329 64.9134 51.5557 65.1306 51.553C65.3478 51.5557 65.5556 51.6329 65.7109 51.7684L71.5773 57.0057C71.6545 57.0738 71.7157 57.1551 71.7571 57.2446C71.7986 57.3342 71.8195 57.4303 71.8187 57.5272L71.7255 69.4152C71.7212 69.5588 71.6711 69.6984 71.5811 69.8175C71.4911 69.9366 71.3649 70.0304 71.2172 70.0878C71.1177 70.1238 71.0112 70.1418 70.9038 70.1407ZM65.1561 53.3441C63.7843 54.8286 63.0813 56.7156 63.1838 58.6373C63.2864 60.5591 64.1873 62.3779 65.7109 63.7395L70.0991 67.658L70.1753 57.8332L65.1561 53.3441Z" fill="#253139"/>
<path d="M56.9182 36.3358C56.3126 36.3364 55.7162 36.2037 55.1819 35.9494C54.6476 35.6952 54.1918 35.3271 53.855 34.8781C53.5182 34.429 53.3109 33.9129 53.2513 33.3753C53.1917 32.8376 53.2817 32.2951 53.5134 31.7959C53.7451 31.2968 54.1112 30.8562 54.5793 30.5135C55.0475 30.1708 55.6032 29.9364 56.1972 29.8312C56.7912 29.726 57.4051 29.7531 57.9845 29.9103C58.564 30.0674 59.091 30.3496 59.5189 30.7319C60.0328 31.1911 60.3828 31.7759 60.5245 32.4124C60.6662 33.0489 60.5933 33.7086 60.315 34.3082C60.0368 34.9078 59.5656 35.4204 58.961 35.7813C58.3565 36.1421 57.6456 36.3351 56.9182 36.3358ZM56.9182 31.2345C56.4459 31.2348 55.9884 31.3812 55.6235 31.6487C55.2586 31.9162 55.0089 32.2884 54.9171 32.7017C54.8252 33.115 54.8969 33.544 55.1198 33.9155C55.3427 34.287 55.7031 34.578 56.1396 34.739C56.576 34.9 57.0616 34.921 57.5135 34.7985C57.9654 34.6759 58.3556 34.4174 58.6178 34.0669C58.88 33.7164 58.9979 33.2957 58.9513 32.8763C58.9048 32.457 58.6967 32.065 58.3626 31.7673C58.1734 31.5975 57.9483 31.463 57.7003 31.3716C57.4524 31.2801 57.1866 31.2335 56.9182 31.2345Z" fill="#EF5026"/>
<path d="M65.0457 43.5723C64.194 43.5723 63.3687 43.3088 62.7104 42.8267C62.0521 42.3445 61.6016 41.6737 61.4357 40.9284C61.2698 40.1832 61.3986 39.4097 61.8004 38.7397C62.2021 38.0697 62.8519 37.5447 63.6389 37.2543C64.4259 36.9638 65.3015 36.9258 66.1164 37.1468C66.9312 37.3678 67.635 37.834 68.1077 38.466C68.5804 39.0981 68.7928 39.8569 68.7087 40.613C68.6245 41.3691 68.2491 42.0758 67.6464 42.6126C67.3056 42.9181 66.9003 43.1603 66.4539 43.325C66.0075 43.4898 65.5288 43.5738 65.0457 43.5723ZM65.0457 38.471C64.5053 38.472 63.9873 38.6637 63.6048 39.0043C63.2223 39.3448 63.0064 39.8065 63.0042 40.2886C63.0033 40.649 63.1223 41.0016 63.3461 41.3016C63.5699 41.6016 63.8885 41.8356 64.2615 41.974C64.6345 42.1125 65.0451 42.1491 65.4414 42.0793C65.8377 42.0094 66.2019 41.8362 66.4878 41.5817C66.7737 41.3271 66.9686 41.0026 67.0478 40.6492C67.1269 40.2958 67.0867 39.9293 66.9323 39.5963C66.7779 39.2632 66.5162 38.9786 66.1804 38.7783C65.8445 38.578 65.4497 38.471 65.0457 38.471Z" fill="#EF5026"/>
<path d="M73.1403 50.7933C72.5347 50.7939 71.9383 50.6612 71.4039 50.407C70.8696 50.1527 70.4139 49.7846 70.0771 49.3356C69.7403 48.8866 69.5329 48.3704 69.4733 47.8328C69.4138 47.2951 69.5038 46.7526 69.7354 46.2535C69.9671 45.7543 70.3333 45.3137 70.8014 44.971C71.2696 44.6283 71.8253 44.394 72.4193 44.2887C73.0133 44.1835 73.6272 44.2107 74.2066 44.3678C74.7861 44.5249 75.3131 44.8071 75.741 45.1894C76.2549 45.6486 76.6048 46.2334 76.7465 46.8699C76.8882 47.5064 76.8153 48.1662 76.5371 48.7657C76.2588 49.3653 75.7877 49.8779 75.1831 50.2388C74.5786 50.5996 73.8677 50.7926 73.1403 50.7933ZM73.1403 45.692C72.7372 45.6925 72.3432 45.7995 72.0081 45.9994C71.673 46.1993 71.4118 46.4833 71.2573 46.8155C71.1028 47.1477 71.062 47.5132 71.1401 47.8661C71.2182 48.2189 71.4116 48.5432 71.6959 48.7981C72.0851 49.1294 72.6024 49.3142 73.1403 49.3142C73.6782 49.3142 74.1955 49.1294 74.5847 48.7981C74.9667 48.4567 75.1812 47.9939 75.1812 47.5114C75.1812 47.029 74.9667 46.5662 74.5847 46.2248C74.394 46.0579 74.1682 45.9263 73.9204 45.8375C73.6725 45.7486 73.4074 45.7043 73.1403 45.7071V45.692Z" fill="#EF5026"/>
<path d="M90.0028 68.8748C89.8965 68.8742 89.7914 68.8549 89.6935 68.818C88.7405 68.4704 80.3413 65.3794 78.7741 63.985C78.2491 63.5138 77.8584 62.9372 77.6347 62.3035C77.5885 62.1762 77.5826 62.04 77.6178 61.91C77.6529 61.78 77.7276 61.6611 77.8337 61.5666L88.9777 51.6285C89.077 51.5379 89.2014 51.4723 89.3383 51.4384C89.4752 51.4046 89.6196 51.4037 89.7571 51.4358C90.5715 51.6159 91.3155 51.9909 91.9088 52.5203C93.476 53.9147 96.9407 61.4117 97.3304 62.262C97.3926 62.3955 97.4089 62.5425 97.3772 62.6844C97.3455 62.8262 97.2673 62.9565 97.1524 63.0586C97.0376 63.1606 96.8913 63.2299 96.7322 63.2577C96.573 63.2854 96.4082 63.2702 96.2588 63.2142C96.2588 63.2142 95.2888 62.859 93.9546 62.3451C95.1829 64.7824 96.1783 66.9514 96.191 66.9778C96.2525 67.111 96.2684 67.2574 96.2367 67.3986C96.2051 67.5398 96.1273 67.6695 96.0131 67.7713C95.897 67.8703 95.7517 67.9378 95.5942 67.9659C95.4367 67.994 95.2735 67.9816 95.1236 67.9301C95.0898 67.9301 92.5823 67.008 89.8291 65.8971C90.384 67.0307 90.7567 67.8544 90.7609 67.8658C90.8224 67.9989 90.8383 68.1454 90.8067 68.2866C90.775 68.4279 90.6972 68.5575 90.583 68.6594C90.4277 68.7949 90.22 68.872 90.0028 68.8748ZM79.3755 62.262C79.5199 62.5162 79.7086 62.7482 79.9346 62.9496C80.7818 63.7054 85.0555 65.4739 88.4695 66.7775C88.1857 66.1805 87.8384 65.4701 87.4656 64.7257C87.3961 64.5894 87.3753 64.4373 87.4061 64.2902C87.4368 64.143 87.5175 64.0078 87.6373 63.903C87.7571 63.7982 87.9102 63.7288 88.0757 63.7043C88.2413 63.6797 88.4113 63.7013 88.5626 63.7659C90.4729 64.567 92.4933 65.3529 93.8995 65.8857C93.3108 64.6538 92.4509 62.893 91.5699 61.2152C91.4975 61.0802 91.4734 60.9285 91.5009 60.7808C91.5284 60.6331 91.6062 60.4966 91.7236 60.3897C91.8411 60.2828 91.9927 60.2108 92.1577 60.1834C92.3226 60.156 92.4931 60.1745 92.6458 60.2365C93.4929 60.5841 94.3401 60.9053 95.0389 61.1698C93.5819 58.1242 91.5911 54.3039 90.7482 53.5557C90.4731 53.307 90.1447 53.1104 89.7825 52.9775L79.3755 62.262Z" fill="#EF5026"/>
<path d="M77.3293 63.7773C77.2214 63.7776 77.1145 63.7586 77.0149 63.7216C76.9152 63.6846 76.8249 63.6304 76.749 63.5619L54.334 43.5685C50.4107 40.0599 47.4744 35.7725 45.7653 31.057L43.0629 23.5827C42.9115 23.162 42.893 22.7122 43.0095 22.2828C43.1259 21.8534 43.3728 21.4609 43.723 21.1485C44.0731 20.8361 44.5131 20.6158 44.9945 20.512C45.4758 20.4081 45.9799 20.4246 46.4515 20.5597L54.8296 22.9705C60.1172 24.4939 64.9247 27.1136 68.858 30.615L91.2688 50.6121C91.3452 50.6796 91.4059 50.7599 91.4473 50.8485C91.4887 50.937 91.5101 51.032 91.5101 51.1279C91.5101 51.2238 91.4887 51.3188 91.4473 51.4073C91.4059 51.4959 91.3452 51.5762 91.2688 51.6437L77.9096 63.5619C77.834 63.6307 77.7436 63.6852 77.644 63.7222C77.5443 63.7593 77.4373 63.778 77.3293 63.7773ZM45.6171 21.9049C45.4521 21.9068 45.2899 21.9431 45.1435 22.011C44.9972 22.0789 44.8707 22.1765 44.7743 22.296C44.6779 22.4154 44.6143 22.5534 44.5885 22.6988C44.5627 22.8441 44.5756 22.9929 44.6259 23.133L47.324 30.6074C48.9541 35.1023 51.754 39.189 55.4945 42.5331L77.3293 62.0126L89.5279 51.126L67.6932 31.6503C63.9448 28.3133 59.3639 25.8154 54.3255 24.3611L45.9517 21.954C45.8467 21.922 45.7365 21.9054 45.6255 21.9049H45.6171Z" fill="#253139"/>
</svg>
