<svg width="106" height="123" viewBox="0 0 106 123" fill="none" xmlns="http://www.w3.org/2000/svg">
<path d="M103.754 81.0276C103.576 81.0306 103.399 80.9965 103.231 80.9269C87.0615 74.2443 69.3917 74.2443 53.2218 80.9269C52.9907 81.0259 52.7422 81.0577 52.498 81.0193C52.2538 80.981 52.0216 80.8738 51.8216 80.7072C51.6192 80.5456 51.4537 80.3296 51.3393 80.0776C51.2249 79.8257 51.1652 79.5453 51.1651 79.2607V7.10556C51.1658 6.74113 51.2633 6.38576 51.4445 6.08768C51.6256 5.78959 51.8815 5.56321 52.1776 5.43923C69.0236 -1.51685 87.4296 -1.51685 104.276 5.43923C104.567 5.57114 104.817 5.79974 104.996 6.09628C105.175 6.39283 105.274 6.74403 105.28 7.10556V79.2607C105.282 79.5446 105.223 79.8247 105.11 80.0767C104.997 80.3288 104.833 80.5451 104.632 80.7072C104.373 80.9124 104.067 81.0239 103.754 81.0276ZM78.2266 72.3756C86.3747 72.3598 94.4732 73.8432 102.219 76.7704V8.35987C86.6603 2.22591 69.785 2.22591 54.2264 8.35987V76.7704C61.975 73.8439 70.076 72.3605 78.2266 72.3756Z" fill="#253139"/>
<path d="M52.5885 81.0276C52.4106 81.0315 52.2336 80.9973 52.0664 80.9269C35.8964 74.2443 18.2267 74.2443 2.05674 80.9269C1.82567 81.0259 1.57711 81.0577 1.33295 81.0193C1.08879 80.981 0.856519 80.8738 0.656578 80.7072C0.454131 80.5456 0.288613 80.3296 0.174247 80.0776C0.0598822 79.8257 7.70053e-05 79.5453 0 79.2607V7.10556C0.000695033 6.74113 0.0982249 6.38576 0.279356 6.08768C0.460487 5.78959 0.716475 5.56321 1.01256 5.43923C17.8586 -1.51685 36.2645 -1.51685 53.1106 5.43923C53.4015 5.57114 53.6521 5.79974 53.8309 6.09628C54.0097 6.39283 54.1086 6.74403 54.1152 7.10556V79.2607C54.1152 79.7293 53.9543 80.1788 53.668 80.5102C53.3817 80.8415 52.9934 81.0276 52.5885 81.0276ZM27.0616 72.3756C35.2097 72.3598 43.3082 73.8432 51.0539 76.7704V8.35987C35.4953 2.22591 18.6199 2.22591 3.06138 8.35987V76.7704C10.8099 73.8439 18.9109 72.3605 27.0616 72.3756Z" fill="#253139"/>
<path d="M9.76204 20.9762C9.45699 20.9785 9.15846 20.874 8.90573 20.6762C8.65299 20.4785 8.45789 20.1969 8.3461 19.8684C8.19489 19.4324 8.19905 18.9449 8.35768 18.5125C8.51631 18.0801 8.8165 17.738 9.19252 17.5611C14.8749 14.9291 20.9416 13.5863 27.0621 13.6059C27.4491 13.6381 27.8111 13.8388 28.0754 14.1675C28.3397 14.4962 28.4867 14.9285 28.4867 15.3775C28.4867 15.8265 28.3397 16.2589 28.0754 16.5876C27.8111 16.9163 27.4491 17.1169 27.0621 17.1491C21.3342 17.1198 15.6547 18.363 10.3316 20.8114C10.1536 20.9112 9.95969 20.9673 9.76204 20.9762Z" fill="#EF5026"/>
<path d="M44.3539 35.7716C44.1589 35.7699 43.9658 35.7264 43.7844 35.6434C33.0425 30.699 21.0732 30.699 10.3312 35.6434C9.95465 35.8182 9.53347 35.8127 9.16037 35.6281C8.78727 35.4436 8.49281 35.095 8.34176 34.6592C8.19071 34.2233 8.19542 33.7358 8.35489 33.304C8.51437 32.8722 8.81555 32.5313 9.19214 32.3565C20.6653 27.0739 33.4503 27.0739 44.9235 32.3565C45.2574 32.5059 45.5353 32.7864 45.7086 33.1489C45.882 33.5113 45.9398 33.9328 45.872 34.3396C45.8041 34.7464 45.6149 35.1126 45.3374 35.3744C45.06 35.6361 44.7118 35.7767 44.3539 35.7716Z" fill="#EF5026"/>
<path d="M44.3539 50.5578C44.1585 50.5597 43.9649 50.5161 43.7844 50.4296C33.0409 45.4945 21.0747 45.4945 10.3312 50.4296C10.1448 50.5162 9.94537 50.5594 9.74448 50.5568C9.54358 50.5542 9.34511 50.5058 9.16037 50.4144C8.97563 50.323 8.80826 50.1904 8.6678 50.0241C8.52734 49.8578 8.41655 49.6612 8.34176 49.4454C8.19071 49.0095 8.19542 48.5221 8.35489 48.0902C8.51437 47.6584 8.81555 47.3176 9.19214 47.1428C20.6669 41.8694 33.4488 41.8694 44.9235 47.1428C45.2574 47.2922 45.5353 47.5726 45.7086 47.935C45.882 48.2975 45.9398 48.719 45.872 49.1258C45.8041 49.5326 45.6149 49.8989 45.3374 50.1606C45.06 50.4224 44.7118 50.5629 44.3539 50.5578Z" fill="#EF5026"/>
<path d="M44.3543 65.3898C44.1589 65.3918 43.9653 65.3481 43.7848 65.2616C33.0413 60.3265 21.0751 60.3265 10.3316 65.2616C10.1459 65.3506 9.94668 65.3959 9.74568 65.3947C9.54467 65.3935 9.3459 65.3459 9.16099 65.2546C8.97608 65.1634 8.80879 65.0304 8.66886 64.8634C8.52893 64.6963 8.4192 64.4987 8.3461 64.282C8.19489 63.846 8.19905 63.3585 8.35768 62.9261C8.51631 62.4937 8.8165 62.1516 9.19252 61.9748C20.6672 56.7014 33.4491 56.7014 44.9239 61.9748C45.2577 62.1242 45.5356 62.4046 45.709 62.7671C45.8824 63.1296 45.9402 63.5511 45.8723 63.9579C45.8045 64.3647 45.6153 64.7309 45.3378 64.9927C45.0603 65.2544 44.7122 65.395 44.3543 65.3898Z" fill="#EF5026"/>
<path d="M59.7476 20.9762C59.3896 20.9814 59.0415 20.8408 58.764 20.5791C58.4865 20.3173 58.2973 19.9511 58.2295 19.5443C58.1616 19.1375 58.2195 18.716 58.3928 18.3535C58.5662 17.991 58.8441 17.7106 59.178 17.5612C70.6528 12.2879 83.4346 12.2879 94.9094 17.5612C95.2854 17.7381 95.5856 18.0801 95.7442 18.5125C95.9028 18.9449 95.907 19.4325 95.7558 19.8684C95.6827 20.0852 95.573 20.2828 95.433 20.4498C95.2931 20.6168 95.1258 20.7498 94.9408 20.8411C94.7559 20.9323 94.5572 20.9799 94.3562 20.9811C94.1552 20.9823 93.956 20.9371 93.7703 20.848C83.0262 15.9167 71.0611 15.9167 60.3171 20.848C60.1366 20.9346 59.9429 20.9782 59.7476 20.9762Z" fill="#EF5026"/>
<path d="M94.3556 35.7716C94.1606 35.7699 93.9675 35.7264 93.7861 35.6434C83.0442 30.699 71.0748 30.699 60.3329 35.6434C60.1464 35.73 59.9471 35.7732 59.7462 35.7706C59.5453 35.768 59.3468 35.7195 59.1621 35.6281C58.9773 35.5367 58.8099 35.4042 58.6695 35.2379C58.529 35.0717 58.4182 34.875 58.3434 34.6592C58.2686 34.4433 58.2313 34.2126 58.2336 33.9801C58.2358 33.7476 58.2776 33.5178 58.3566 33.304C58.4356 33.0902 58.5502 32.8965 58.6938 32.7339C58.8375 32.5713 59.0073 32.4431 59.1938 32.3565C70.667 27.0739 83.452 27.0739 94.9251 32.3565C95.2507 32.5139 95.5195 32.7962 95.6863 33.1561C95.853 33.5159 95.9075 33.9313 95.8407 34.3322C95.7738 34.7331 95.5896 35.0952 95.3191 35.3573C95.0486 35.6195 94.7084 35.7658 94.3556 35.7716Z" fill="#EF5026"/>
<path d="M94.3556 50.5578C94.1602 50.5605 93.9664 50.5169 93.7861 50.4296C83.0427 45.4945 71.0764 45.4945 60.3329 50.4296C60.1465 50.5162 59.9471 50.5594 59.7462 50.5568C59.5453 50.5542 59.3468 50.5058 59.1621 50.4144C58.9774 50.323 58.8099 50.1904 58.6695 50.0241C58.529 49.8579 58.4182 49.6612 58.3434 49.4454C58.1924 49.0095 58.1972 48.5221 58.3566 48.0902C58.5161 47.6584 58.8172 47.3176 59.1938 47.1428C70.6685 41.8694 83.4504 41.8694 94.9252 47.1428C95.2507 47.3001 95.5195 47.5825 95.6863 47.9423C95.853 48.3022 95.9075 48.7175 95.8407 49.1184C95.7738 49.5194 95.5896 49.8814 95.3191 50.1435C95.0487 50.4057 94.7084 50.552 94.3556 50.5578Z" fill="#EF5026"/>
<path d="M94.3556 65.3898C94.1602 65.3925 93.9664 65.3489 93.7861 65.2616C83.0427 60.3265 71.0764 60.3265 60.3329 65.2616C60.1464 65.3482 59.9471 65.3914 59.7462 65.3888C59.5453 65.3862 59.3468 65.3378 59.1621 65.2464C58.9773 65.155 58.8099 65.0224 58.6695 64.8561C58.529 64.6899 58.4182 64.4932 58.3434 64.2774C58.2686 64.0616 58.2313 63.8308 58.2336 63.5983C58.2358 63.3658 58.2776 63.1361 58.3566 62.9223C58.4356 62.7084 58.5502 62.5147 58.6938 62.3522C58.8375 62.1896 59.0073 62.0614 59.1938 61.9748C70.6685 56.7014 83.4504 56.7014 94.9251 61.9748C95.2507 62.1321 95.5195 62.4145 95.6863 62.7743C95.853 63.1342 95.9075 63.5495 95.8407 63.9504C95.7738 64.3513 95.5896 64.7134 95.3191 64.9756C95.0486 65.2377 94.7084 65.384 94.3556 65.3898Z" fill="#EF5026"/>
<path d="M52.5886 122.356C52.1829 122.356 51.7938 122.17 51.5062 121.839C51.2186 121.508 51.056 121.058 51.0539 120.589V75.5709C51.0388 75.3275 51.0672 75.0832 51.1372 74.853C51.2073 74.6229 51.3176 74.412 51.4612 74.2334C51.6048 74.0548 51.7787 73.9124 51.972 73.815C52.1652 73.7176 52.3738 73.6672 52.5846 73.6672C52.7954 73.6672 53.004 73.7176 53.1973 73.815C53.3905 73.9124 53.5644 74.0548 53.708 74.2334C53.8516 74.412 53.9619 74.6229 54.032 74.853C54.1021 75.0832 54.1304 75.3275 54.1153 75.5709V120.589C54.1132 121.057 53.9517 121.505 53.6658 121.836C53.38 122.167 52.9928 122.353 52.5886 122.356Z" fill="#253139"/>
<path d="M52.2963 122.466H52.0985C51.0227 122.301 25.7568 118.263 25.7568 103.239C25.7568 90.9338 21.3428 87.2991 21.3033 87.2624C21.022 87.0321 20.8134 86.7018 20.7092 86.3217C20.605 85.9417 20.6108 85.5325 20.7258 85.1566C20.845 84.7834 21.0707 84.4684 21.3655 84.2636C21.6604 84.0589 22.0067 83.9766 22.3474 84.0305C23.4232 84.1953 48.6891 88.2238 48.6891 103.257C48.6891 115.562 53.1031 119.197 53.1506 119.234C53.4287 119.465 53.6347 119.794 53.7374 120.172C53.8401 120.55 53.834 120.957 53.7201 121.33C53.6098 121.664 53.4147 121.951 53.1605 122.154C52.9063 122.356 52.6049 122.465 52.2963 122.466ZM25.9546 88.3611C27.3943 91.2634 28.8182 95.9694 28.8182 103.239C28.8182 111.479 40.7233 116.194 48.4914 118.117C47.0517 115.205 45.6278 110.499 45.6278 103.239C45.6278 94.9805 33.7226 90.2746 25.9546 88.3611Z" fill="#253139"/>
<path d="M52.3042 122.466C51.973 122.465 51.6508 122.341 51.3857 122.111C51.1207 121.882 50.9269 121.559 50.8335 121.191C50.74 120.823 50.7519 120.43 50.8672 120.071C50.9826 119.712 51.1953 119.405 51.4735 119.197C51.4735 119.197 55.9113 115.535 55.9113 103.239C55.9113 88.224 81.2247 84.1956 82.2609 84.0124C82.6053 83.9627 82.9539 84.0496 83.2502 84.2588C83.5464 84.4679 83.7726 84.7871 83.8919 85.1643C84.0112 85.5414 84.0166 85.9542 83.9072 86.3353C83.7977 86.7164 83.5799 87.0433 83.2893 87.2627C83.2893 87.2627 78.8515 90.9249 78.8515 103.221C78.8515 118.227 53.5778 122.264 52.5019 122.448L52.3042 122.466ZM78.6459 88.3613C70.8778 90.2749 58.9727 94.9808 58.9727 103.239C58.9727 110.5 57.5567 115.205 56.1091 118.117C63.885 116.194 75.7902 111.497 75.7902 103.239C75.7902 95.9696 77.2062 91.2637 78.6459 88.3613Z" fill="#253139"/>
</svg>
