<svg width="45" height="44" viewBox="0 0 45 44" fill="none" xmlns="http://www.w3.org/2000/svg">
<path fill-rule="evenodd" clip-rule="evenodd" d="M14.0859 1.95425C16.2364 1.85525 16.9221 1.83325 22.4001 1.83325C27.8781 1.83325 28.5637 1.85709 30.7124 1.95425C32.8611 2.05142 34.3277 2.39425 35.6111 2.89109C36.9549 3.39892 38.1741 4.19275 39.1824 5.21942C40.2091 6.22592 41.0011 7.44325 41.5071 8.78892C42.0057 10.0723 42.3467 11.5389 42.4457 13.6839C42.5447 15.8381 42.5667 16.5238 42.5667 21.9999C42.5667 27.4779 42.5429 28.1636 42.4457 30.3141C42.3486 32.4591 42.0057 33.9258 41.5071 35.2091C41.001 36.5549 40.2077 37.7743 39.1824 38.7822C38.1741 39.8089 36.9549 40.6009 35.6111 41.1069C34.3277 41.6056 32.8611 41.9466 30.7161 42.0456C28.5637 42.1446 27.8781 42.1666 22.4001 42.1666C16.9221 42.1666 16.2364 42.1428 14.0859 42.0456C11.9409 41.9484 10.4742 41.6056 9.1909 41.1069C7.84509 40.6009 6.62574 39.8076 5.61773 38.7822C4.59176 37.7751 3.79781 36.5564 3.29123 35.2109C2.7944 33.9276 2.4534 32.4609 2.3544 30.3159C2.2554 28.1617 2.2334 27.4761 2.2334 21.9999C2.2334 16.5219 2.25723 15.8363 2.3544 13.6876C2.45157 11.5389 2.7944 10.0723 3.29123 8.78892C3.79856 7.4434 4.59312 6.22466 5.61956 5.21759C6.62614 4.19184 7.84426 3.3979 9.18907 2.89109C10.4724 2.39425 11.9391 2.05325 14.0841 1.95425H14.0859ZM30.5492 5.58425C28.4226 5.48709 27.7846 5.46692 22.4001 5.46692C17.0156 5.46692 16.3776 5.48709 14.2509 5.58425C12.2837 5.67409 11.2167 6.00225 10.5054 6.27909C9.5649 6.64575 8.89207 7.08025 8.18623 7.78609C7.51715 8.43701 7.00223 9.22944 6.67923 10.1053C6.4024 10.8166 6.07423 11.8836 5.9844 13.8508C5.88723 15.9774 5.86707 16.6154 5.86707 21.9999C5.86707 27.3844 5.88723 28.0224 5.9844 30.1491C6.07423 32.1162 6.4024 33.1833 6.67923 33.8946C7.0019 34.7691 7.51707 35.5629 8.18623 36.2138C8.83707 36.8829 9.6309 37.3981 10.5054 37.7208C11.2167 37.9976 12.2837 38.3258 14.2509 38.4156C16.3776 38.5128 17.0137 38.5329 22.4001 38.5329C27.7864 38.5329 28.4226 38.5128 30.5492 38.4156C32.5164 38.3258 33.5834 37.9976 34.2947 37.7208C35.2352 37.3541 35.9081 36.9196 36.6139 36.2138C37.2831 35.5629 37.7982 34.7691 38.1209 33.8946C38.3977 33.1833 38.7259 32.1162 38.8157 30.1491C38.9129 28.0224 38.9331 27.3844 38.9331 21.9999C38.9331 16.6154 38.9129 15.9774 38.8157 13.8508C38.7259 11.8836 38.3977 10.8166 38.1209 10.1053C37.7542 9.16475 37.3197 8.49192 36.6139 7.78609C35.9629 7.11705 35.1705 6.60214 34.2947 6.27909C33.5834 6.00225 32.5164 5.67409 30.5492 5.58425V5.58425ZM19.8242 28.2168C21.2628 28.8156 22.8646 28.8964 24.3561 28.4454C25.8476 27.9944 27.1363 27.0396 28.002 25.744C28.8677 24.4485 29.2568 22.8925 29.1028 21.3419C28.9488 19.7914 28.2612 18.3424 27.1576 17.2424C26.454 16.5393 25.6033 16.0009 24.6667 15.666C23.7301 15.3311 22.7309 15.2081 21.741 15.3057C20.7511 15.4033 19.7952 15.7192 18.942 16.2307C18.0889 16.7421 17.3598 17.4363 16.8071 18.2633C16.2545 19.0903 15.8921 20.0296 15.746 21.0135C15.5999 21.9974 15.6738 23.0015 15.9624 23.9534C16.2509 24.9053 16.7469 25.7814 17.4147 26.5186C18.0825 27.2558 18.9054 27.8358 19.8242 28.2168ZM15.0704 14.6703C16.0329 13.7077 17.1757 12.9442 18.4333 12.4232C19.6909 11.9023 21.0388 11.6342 22.4001 11.6342C23.7613 11.6342 25.1092 11.9023 26.3669 12.4232C27.6245 12.9442 28.7672 13.7077 29.7297 14.6703C30.6923 15.6328 31.4558 16.7755 31.9767 18.0331C32.4977 19.2908 32.7658 20.6387 32.7658 21.9999C32.7658 23.3612 32.4977 24.7091 31.9767 25.9667C31.4558 27.2243 30.6923 28.367 29.7297 29.3296C27.7858 31.2735 25.1492 32.3656 22.4001 32.3656C19.6509 32.3656 17.0143 31.2735 15.0704 29.3296C13.1264 27.3856 12.0344 24.7491 12.0344 21.9999C12.0344 19.2508 13.1264 16.6142 15.0704 14.6703V14.6703ZM35.0647 13.1779C35.3033 12.9529 35.4942 12.6823 35.6263 12.3822C35.7584 12.0821 35.8289 11.7585 35.8337 11.4306C35.8384 11.1028 35.7774 10.7773 35.6541 10.4734C35.5308 10.1696 35.3479 9.89352 35.116 9.66166C34.8841 9.42979 34.6081 9.24681 34.3042 9.12353C34.0004 9.00026 33.6749 8.93921 33.347 8.94399C33.0192 8.94877 32.6956 9.01928 32.3954 9.15136C32.0953 9.28344 31.8247 9.47439 31.5997 9.71292C31.1621 10.1768 30.9226 10.793 30.9319 11.4306C30.9411 12.0683 31.1986 12.6772 31.6495 13.1281C32.1005 13.5791 32.7094 13.8365 33.347 13.8458C33.9847 13.8551 34.6008 13.6155 35.0647 13.1779V13.1779Z" fill="#EF5026"/>
</svg>
