<svg width="45" height="44" viewBox="0 0 45 44" fill="none" xmlns="http://www.w3.org/2000/svg">
<path fill-rule="evenodd" clip-rule="evenodd" d="M2.63294 5.20292C2.63294 4.30923 2.98795 3.45214 3.61989 2.82021C4.25182 2.18827 5.10891 1.83326 6.0026 1.83326H39.5929C40.0358 1.83253 40.4745 1.91917 40.8839 2.08821C41.2932 2.25725 41.6652 2.50537 41.9786 2.81837C42.2919 3.13137 42.5404 3.5031 42.7099 3.91227C42.8794 4.32145 42.9665 4.76004 42.9663 5.20292V38.7933C42.9667 39.2362 42.8799 39.6749 42.7106 40.0843C42.5414 40.4937 42.2931 40.8657 41.98 41.179C41.6668 41.4923 41.295 41.7408 40.8857 41.9103C40.4764 42.0797 40.0377 42.1668 39.5948 42.1666H6.0026C5.55994 42.1666 5.12161 42.0794 4.71266 41.9099C4.30372 41.7405 3.93217 41.4921 3.61924 41.179C3.30631 40.8659 3.05814 40.4942 2.88891 40.0852C2.71968 39.6761 2.63269 39.2378 2.63294 38.7951V5.20292ZM18.5976 17.2113H24.0591V19.9539C24.8474 18.3773 26.8641 16.9583 29.8946 16.9583C35.7044 16.9583 37.0813 20.0988 37.0813 25.8609V36.5346H31.2018V27.1736C31.2018 23.8919 30.4134 22.0403 28.4114 22.0403C25.6339 22.0403 24.4789 24.0368 24.4789 27.1736V36.5346H18.5976V17.2113ZM8.51427 36.2834H14.3956V16.9583H8.51427V36.2816V36.2834ZM15.2371 10.6553C15.2482 11.1588 15.1586 11.6595 14.9735 12.128C14.7885 12.5965 14.5117 13.0233 14.1595 13.3833C13.8073 13.7434 13.3867 14.0295 12.9224 14.2248C12.4582 14.4201 11.9595 14.5207 11.4559 14.5207C10.9522 14.5207 10.4535 14.4201 9.98927 14.2248C9.52499 14.0295 9.1044 13.7434 8.75218 13.3833C8.39996 13.0233 8.12321 12.5965 7.93816 12.128C7.75312 11.6595 7.66351 11.1588 7.6746 10.6553C7.69637 9.66682 8.10431 8.72621 8.81106 8.03485C9.51781 7.34349 10.4672 6.95636 11.4559 6.95636C12.4445 6.95636 13.3939 7.34349 14.1006 8.03485C14.8074 8.72621 15.2153 9.66682 15.2371 10.6553V10.6553Z" fill="#EF5026"/>
</svg>
