<svg width="40" height="40" viewBox="0 0 40 40" fill="none" xmlns="http://www.w3.org/2000/svg">
<path d="M20 4.01807C14.476 4.01807 10 8.47607 10 13.9981C10 23.5461 20 35.9981 20 35.9981C20 35.9981 30 23.5441 30 13.9981C30 8.47807 25.524 4.01807 20 4.01807V4.01807ZM20 19.5201C18.5678 19.5201 17.1943 18.9511 16.1816 17.9384C15.1689 16.9257 14.6 15.5522 14.6 14.1201C14.6 12.6879 15.1689 11.3144 16.1816 10.3017C17.1943 9.28899 18.5678 8.72007 20 8.72007C21.4322 8.72007 22.8057 9.28899 23.8184 10.3017C24.8311 11.3144 25.4 12.6879 25.4 14.1201C25.4 15.5522 24.8311 16.9257 23.8184 17.9384C22.8057 18.9511 21.4322 19.5201 20 19.5201Z" fill="#EF5026"/>
</svg>
