<svg width="40" height="40" viewBox="0 0 40 40" fill="none" xmlns="http://www.w3.org/2000/svg">
<path d="M36 14.746V29C36 30.3261 35.4732 31.5979 34.5355 32.5355C33.5979 33.4732 32.3261 34 31 34H9C7.67392 34 6.40215 33.4732 5.46447 32.5355C4.52678 31.5979 4 30.3261 4 29V14.746L19.492 23.862C19.6459 23.9528 19.8213 24.0006 20 24.0006C20.1787 24.0006 20.3541 23.9528 20.508 23.862L36 14.746ZM31 8C32.2303 7.99981 33.4175 8.45321 34.3344 9.27348C35.2514 10.0937 35.8337 11.2233 35.97 12.446L20 21.84L4.03 12.446C4.16632 11.2233 4.74865 10.0937 5.66559 9.27348C6.58253 8.45321 7.76971 7.99981 9 8H31Z" fill="#EF5026"/>
</svg>
