<svg width="583" height="407" viewBox="0 0 583 407" fill="none" xmlns="http://www.w3.org/2000/svg">
<path d="M162.812 180.517H420.706V341.86H162.812V180.517Z" fill="white"/>
<path d="M259.397 342.72H297.533C297.533 341.5 259.397 341.5 259.397 341.5C258.815 342.442 259.079 342.72 259.397 342.72Z" fill="#1A1A1A"/>
<path d="M176.558 342.72H223.274C223.274 341.499 176.558 341.499 176.558 341.499C173.046 341.499 169.678 340.038 167.194 337.436C164.711 334.834 163.316 331.306 163.316 327.626V278.793C162.151 278.793 162.151 327.626 162.151 327.626C162.151 329.609 162.523 331.571 163.247 333.403C163.971 335.234 165.033 336.898 166.37 338.299C167.708 339.701 169.296 340.813 171.044 341.571C172.792 342.33 174.666 342.72 176.558 342.72Z" fill="#1A1A1A"/>
<path d="M162.76 279.404C163.343 278.793 163.343 260.703 163.343 260.703C162.177 260.703 162.177 278.793 162.177 278.793C162.177 278.955 162.239 279.11 162.348 279.225C162.457 279.339 162.606 279.404 162.76 279.404Z" fill="#1A1A1A"/>
<path d="M353.519 46.8365H504.023C511.249 46.8365 517.106 52.9731 517.106 60.543V176.05C517.106 183.62 511.249 189.757 504.023 189.757H353.519C346.293 189.757 340.436 183.62 340.436 176.05V60.543C340.436 52.9731 346.293 46.8365 353.519 46.8365Z" fill="#EF5026" fill-opacity="0.3"/>
<path d="M162.866 283.593L110.164 286.978C110.164 286.978 102.219 290.086 106.457 336.228C110.694 382.369 114.905 405.593 114.905 405.593H137.574L163.369 301.878L162.866 283.593Z" fill="#EF5026" fill-opacity="0.3"/>
<path d="M178.597 293.554C169.106 295.903 160.833 301.969 155.477 310.507C148.055 322.821 142.347 336.181 138.527 350.184C135.641 361.477 130.741 381.565 132.993 393.024C135.244 404.483 135.641 405.482 135.641 405.482L269.885 405.621C269.885 405.621 277.829 400.072 284.291 381.01C290.753 361.948 297.533 329.569 297.533 329.569C297.533 329.569 294.885 322.577 282.623 318.803C270.361 315.03 265.17 314.669 263.582 318.11C261.993 321.55 252.723 346.494 252.723 346.494C252.723 346.494 249.943 320.468 241.362 308.842C233.975 298.901 223.467 292.02 211.701 289.42C210.41 290.68 208.859 291.611 207.169 292.14C205.478 292.67 203.694 292.783 201.955 292.472L203.968 302.516L186.754 291.418C186.754 291.418 184.794 296.079 178.597 293.554Z" fill="#1A1A1A"/>
<path d="M518.801 251.381C518.801 251.381 533.181 258.456 543.404 278.932C553.626 299.409 557.228 305.041 561.598 323.049C565.967 341.056 564.458 350.073 563.716 353.569C562.975 357.065 561.068 372.437 545.549 377.903V405.649H474.415C478.852 404.492 482.964 402.248 486.412 399.101C492.927 393.551 493.483 393.829 493.483 393.829C495.166 390.564 495.547 386.733 494.542 383.174C492.688 377.847 476.189 332.843 476.189 332.843L468.641 312.949C468.641 312.949 462.815 304.265 455.082 303.932C447.349 303.599 439.669 303.515 439.669 303.515C439.669 303.515 445.283 276.546 451.401 267.085C457.676 257.835 467.063 251.421 477.672 249.133C487.233 247.302 518.801 251.381 518.801 251.381Z" fill="#EF5026" fill-opacity="0.3"/>
<path d="M267.845 323.104C267.845 323.104 267.448 310.923 267.448 306.678C267.448 302.433 268.534 298.354 274.201 298.521L296.315 288.449C296.315 288.449 301.903 285.674 303.651 289.586C305.399 293.499 296.288 298.077 296.288 298.077C296.288 298.077 301.585 299.27 299.228 304.264C299.228 304.264 304.075 304.264 304.022 308.814C303.969 313.365 296.077 317.138 296.077 317.138L288.741 331.011C288.741 331.011 273.513 328.597 267.845 323.104Z" fill="white"/>
<path d="M186.754 291.529C187.993 290.025 188.877 288.237 189.337 286.31C189.797 284.382 189.819 282.369 189.402 280.431C188.658 275.928 186.583 271.784 183.47 268.583C182.133 268.282 180.928 267.53 180.038 266.443C179.148 265.355 178.623 263.992 178.544 262.562C178.536 261.518 178.76 260.487 179.198 259.55C179.635 258.612 180.274 257.794 181.065 257.159C181.856 256.524 182.776 256.09 183.754 255.892C184.732 255.693 185.741 255.735 186.701 256.014L191.997 252.046C191.997 252.046 193.004 246.497 195.705 246.025L198.353 245.554C198.353 245.554 206.298 240.005 206.298 236.259L208.761 244.749C209.592 244.547 210.46 244.599 211.263 244.899C212.065 245.199 212.769 245.735 213.29 246.442C215.276 248.911 218.745 259.344 212.893 263.089C212.416 263.922 214.852 279.043 203.094 278.71L201.982 292.583L203.994 302.627L186.754 291.529Z" fill="white"/>
<path d="M479.182 291.307L481.009 301.518C481.009 301.518 481.513 305.707 479.182 307.344C476.852 308.981 466.947 301.462 466.947 301.462C466.947 301.462 459.002 293.665 456.009 294.47C455.47 294.531 454.95 294.716 454.487 295.012C454.023 295.308 453.628 295.707 453.33 296.182C453.031 296.657 452.836 297.194 452.759 297.757C452.682 298.32 452.725 298.893 452.884 299.437L453.546 300.796C453.082 300.637 452.59 300.585 452.105 300.642C451.619 300.699 451.151 300.865 450.732 301.128C450.313 301.391 449.952 301.745 449.675 302.167C449.397 302.588 449.209 303.067 449.124 303.571L458.499 304.986C461.33 305.973 463.903 307.638 466.013 309.849C468.123 312.059 469.712 314.755 470.654 317.721C472.17 322.909 474.028 327.981 476.216 332.898L479.765 334.702C481.341 331.097 483.343 327.713 485.723 324.63C487.83 322.217 489.686 319.575 491.258 316.75C489.303 314.205 488.304 310.997 488.451 307.733C488.398 301.573 484.796 292.556 479.182 291.307Z" fill="white"/>
<path d="M211.251 244.222C211.251 244.222 213.396 230.571 204.233 229.212C197.09 227.559 189.702 227.445 182.516 228.879C171.102 231.32 166.494 237.924 166.441 244.555C166.441 244.555 171.473 269.693 171.738 272.773C172.003 275.853 172.267 277.712 168.533 279.099C164.799 280.486 156.669 288.533 153.676 301.768C152.156 307.479 151.18 313.334 150.763 319.248C150.763 319.248 155.424 307.733 163.422 301.962C171.42 296.191 172.241 294.887 177.458 294.11C182.675 293.333 186.727 294.11 188.21 289.032C189.722 285.038 189.816 280.607 188.475 276.546C187.527 273.509 185.838 270.783 183.576 268.639C182.185 268.349 180.934 267.563 180.036 266.414C179.137 265.266 178.647 263.826 178.65 262.34C178.65 257.041 184.529 255.598 186.807 256.07C188.672 254.9 190.443 253.573 192.103 252.102C192.103 252.102 192.871 246.83 195.281 246.081C197.691 245.332 198.195 246.081 198.195 246.081C200.555 244.079 202.688 241.798 204.551 239.283C205.238 238.133 205.798 236.904 206.219 235.621L208.523 245.166L211.251 244.222Z" fill="#EF5026"/>
<path d="M203.067 278.71L201.955 292.916C201.955 292.916 210.218 293.304 211.701 288.476C212.182 286.492 212.273 284.426 211.968 282.403C211.663 280.381 210.969 278.444 209.927 276.712C207.893 278.106 205.496 278.804 203.067 278.71Z" fill="#EF5026"/>
<path d="M474.971 252.657C477.229 249.836 479.7 247.211 482.36 244.805L482.016 238.063C480.511 238.294 478.974 238.034 477.614 237.32C476.255 236.605 475.138 235.47 474.415 234.067C472.75 229.836 472.034 225.26 472.323 220.694C472.323 216.587 472.694 204.629 472.694 204.629C476.937 204.946 481.202 204.495 485.3 203.297C488.844 201.877 492.25 200.102 495.469 197.997C495.469 197.997 492.556 207.486 497.747 213.369C497.747 213.369 504.791 211.954 505.957 218.918C507.122 225.882 500.21 226.409 498.012 225.632C498.012 225.632 490.358 230.377 489.616 237.147C489.329 239.465 489.673 241.821 490.611 243.942C491.548 246.064 493.04 247.863 494.913 249.133L497.164 249.993C499.574 250.854 506.883 253.351 508.499 252.768C506.383 258.063 503.905 263.191 501.084 268.112C497.641 273.661 494.887 274.993 491.205 274.41C489.81 274.258 488.5 273.634 487.472 272.633C486.445 271.632 485.757 270.308 485.511 268.861C485.078 266.436 484.998 263.957 485.273 261.508C485.273 261.508 478.096 272.218 472.508 267.279C466.92 262.34 473.409 255.099 474.971 252.657Z" fill="white"/>
<path d="M519.648 250.714C515.177 252.65 510.281 253.246 505.506 252.435C497.985 250.992 494.065 248.356 492.264 245.97C491.037 244.547 490.205 242.799 489.859 240.916C489.514 239.032 489.668 237.086 490.305 235.287C492.026 231.625 494.727 226.964 498.064 225.465C498.064 225.465 505.215 227.158 505.718 220.804C505.93 219.735 505.87 218.627 505.546 217.59C505.221 216.553 504.643 215.624 503.869 214.894C503.094 214.164 502.151 213.659 501.132 213.431C500.114 213.202 499.056 213.257 498.064 213.59C497.133 212.736 496.377 211.693 495.84 210.525C495.303 209.357 494.996 208.087 494.939 206.792C494.641 203.85 494.82 200.876 495.469 197.997C492.343 200.602 488.747 202.517 484.897 203.628C481.047 204.739 477.022 205.023 473.064 204.462C472.552 201.822 472.463 199.113 472.799 196.443C473.355 191.976 475.103 189.118 478.97 188.951C484.45 186.827 490.36 186.215 496.131 187.176C505.824 188.785 511.465 191.116 514.139 194.889C515.808 197.346 516.839 200.214 517.132 203.213L512.312 231.292C512.312 231.292 522.111 230.515 524.203 236.841C526.295 243.167 523.753 248.966 519.648 250.714Z" fill="#1A1A1A"/>
<path d="M481.963 238.34L482.36 244.805L477.725 249.133L476.083 249.494C475.368 248.593 474.843 247.544 474.542 246.415C474.241 245.287 474.17 244.105 474.335 242.946C475.05 240.862 475.936 238.848 476.984 236.925L481.963 238.34Z" fill="#1A1A1A"/>
<path d="M479.712 291.474L473.011 270.331H431.3C434.636 281.187 437.056 292.328 438.53 303.627L455.532 304.293C455.532 304.293 466.417 307.067 468.324 311.84L483.181 310.924L479.712 291.474Z" fill="white"/>
<path d="M242.819 312.866C244.388 313.036 245.873 313.691 247.085 314.749C248.297 315.806 249.181 317.218 249.625 318.804C250.261 320.272 250.59 321.866 250.59 323.479C250.59 325.091 250.261 326.685 249.625 328.154C249.175 330.179 246.739 335.312 249.387 338.697C252.035 342.082 255.293 351.544 249.387 356.927C243.481 362.309 234.212 357.787 232.676 356.288C230.81 354.327 229.394 351.946 228.536 349.326C227.678 346.706 227.4 343.916 227.724 341.167C228.942 333.648 230.796 332.843 229.71 329.07C228.856 326.7 228.689 324.119 229.231 321.651C229.773 319.182 230.999 316.937 232.755 315.197C234.133 313.994 235.766 313.156 237.517 312.75C239.268 312.345 241.086 312.384 242.819 312.866Z" fill="white"/>
<path d="M232.278 295.691C233.52 296.249 234.557 297.212 235.234 298.437C235.912 299.661 236.194 301.083 236.039 302.489C235.589 307.594 232.384 309.287 231.219 308.732C230.038 308.147 229.072 307.175 228.465 305.964C227.858 304.753 227.644 303.367 227.856 302.017C228.12 297.55 230.425 295.691 232.278 295.691Z" fill="white"/>
<path d="M223.804 375.766V367.193C223.804 367.193 227.141 364.418 239.032 364.779C250.923 365.14 254.604 367.248 254.604 367.248L254.392 402.957C249.334 404.751 243.988 405.477 238.661 405.094C228.385 404.789 228.438 404.483 228.438 404.483L224.89 404.012L223.804 375.766Z" fill="#EF5026" fill-opacity="0.5"/>
<path d="M223.804 370.022V375.572C226.781 376.059 229.798 376.226 232.808 376.071C237.045 375.738 241.071 375.433 242.051 378.707C242.37 379.607 242.5 380.569 242.432 381.527C242.363 382.485 242.098 383.416 241.653 384.256C242.306 384.665 242.853 385.235 243.245 385.918C243.638 386.6 243.864 387.373 243.904 388.168C243.57 390.283 242.595 392.228 241.124 393.718C242.191 395.176 242.717 396.989 242.607 398.823C242.289 401.598 237.84 404.011 229.709 403.873C224.699 403.772 219.743 402.758 215.064 400.876C213.38 395.513 212.679 389.865 212.998 384.228C212.998 372.769 214.058 372.908 214.058 372.908C214.058 372.908 220.679 368.524 223.804 370.022Z" fill="white"/>
<path d="M221.712 292.334C221.712 292.334 220.6 284.01 212.866 284.01L211.463 289.198L221.712 292.334Z" fill="#EF5026" fill-opacity="0.5"/>
<path d="M472.799 196.333C473.355 191.866 475.103 189.008 478.97 188.841C484.45 186.717 490.36 186.105 496.131 187.065C495.541 187.121 494.947 187.121 494.357 187.065C478.467 187.065 476.984 200.939 476.984 200.939C482.81 201.466 495.522 197.803 495.522 197.803C492.396 200.408 488.8 202.324 484.95 203.435C481.1 204.546 477.075 204.829 473.117 204.268C472.596 201.659 472.489 198.978 472.799 196.333Z" fill="white"/>
<path d="M501.957 251.519C498.233 250.744 494.818 248.81 492.158 245.97C490.951 244.54 490.14 242.792 489.813 240.914C489.486 239.036 489.656 237.1 490.305 235.315C492.026 231.625 494.727 226.992 498.064 225.466C498.832 225.466 500.951 226.215 500.951 226.215C498.79 227.492 496.995 229.352 495.752 231.601C494.508 233.85 493.862 236.407 493.88 239.006C494.079 241.645 494.928 244.185 496.343 246.378C497.759 248.572 499.693 250.343 501.957 251.519Z" fill="white"/>
<path d="M477.99 248.828C477.288 249.032 476.57 249.172 475.845 249.244C475.167 248.374 474.676 247.361 474.406 246.274C474.137 245.187 474.094 244.052 474.282 242.946C474.997 240.862 475.883 238.848 476.931 236.925L479.579 237.924C479.579 237.924 474.812 244.083 477.99 248.828Z" fill="white"/>
<path d="M140.726 68.7833H75.9212C71.5454 68.7833 67.3488 70.6045 64.2546 73.8462C61.1604 77.0879 59.4221 81.4846 59.4221 86.0691V119.142C59.4221 123.727 61.1604 128.124 64.2546 131.365C67.3488 134.607 71.5454 136.428 75.9212 136.428H140.726C145.102 136.428 149.298 134.607 152.392 131.365C155.487 128.124 157.225 123.727 157.225 119.142V86.0413C157.225 83.7727 156.798 81.5262 155.968 79.4306C155.139 77.3349 153.923 75.4312 152.391 73.8282C150.858 72.2253 149.039 70.9547 147.038 70.089C145.036 69.2233 142.891 68.7796 140.726 68.7833Z" fill="#EF5026"/>
<path d="M208.523 245.165L206.113 235.648C205.692 236.932 205.132 238.161 204.445 239.311C202.582 241.825 200.45 244.106 198.089 246.109C198.089 246.109 197.824 245.72 196.738 245.776C200.26 241.42 203.385 236.647 203.173 233.706C202.882 229.156 196.076 228.157 191.865 227.907C196.023 227.852 200.173 228.299 204.233 229.239C213.396 230.599 211.251 244.25 211.251 244.25L208.523 245.165Z" fill="white"/>
<path d="M192.209 250.992C191.997 252.101 187.31 256.097 187.31 256.097C187.31 256.097 189.481 253.988 192.209 250.992Z" fill="white"/>
<path d="M207.94 277.794C208.627 277.486 209.291 277.124 209.927 276.712C210.969 278.444 211.663 280.381 211.968 282.403C212.273 284.426 212.182 286.492 211.701 288.476C210.218 293.304 201.955 292.916 201.955 292.916C213.873 292.833 207.94 277.794 207.94 277.794Z" fill="white"/>
<path d="M178.57 293.971C193.613 290.835 180.742 267.251 180.742 267.251C181.527 267.895 182.427 268.367 183.39 268.638C185.691 270.769 187.417 273.496 188.396 276.546C189.736 280.607 189.642 285.037 188.131 289.032C186.78 293.749 183.099 293.443 178.57 293.971Z" fill="white"/>
<path d="M421.263 189.673H162.759V179.241C163.139 175.852 164.654 172.714 167.035 170.387C169.417 168.06 172.51 166.694 175.763 166.533C187.574 165.839 406.167 166.533 406.167 166.533C406.167 166.533 421.289 166.921 421.289 179.712L421.263 189.673Z" fill="#1A1A1A"/>
<path d="M503.546 80.0483H326.876V73.9996C326.876 73.9996 328.942 61.7636 339.35 61.7636H489.854C489.854 61.7636 505.479 63.2064 503.546 80.0483Z" fill="#1A1A1A"/>
<path d="M545.734 390.417C533.371 388.295 521.589 383.414 511.184 376.104C500.78 368.794 491.997 359.226 485.432 348.048C492.97 355.398 501.085 362.072 509.69 367.998C519.886 374.296 533.816 381.344 545.549 377.959L545.734 390.417Z" fill="#1A1A1A"/>
<path d="M197.479 177.992C197.479 179.09 197.79 180.163 198.372 181.075C198.954 181.988 199.781 182.699 200.749 183.119C201.717 183.539 202.782 183.649 203.809 183.435C204.837 183.221 205.78 182.692 206.521 181.916C207.262 181.14 207.766 180.151 207.971 179.075C208.175 177.998 208.07 176.883 207.669 175.869C207.269 174.855 206.59 173.988 205.719 173.378C204.848 172.769 203.824 172.443 202.776 172.443C201.371 172.443 200.024 173.028 199.031 174.068C198.037 175.109 197.479 176.521 197.479 177.992Z" fill="white"/>
<path d="M179.392 177.992C179.392 179.09 179.702 180.163 180.284 181.075C180.866 181.988 181.694 182.699 182.662 183.119C183.629 183.539 184.694 183.649 185.722 183.435C186.749 183.221 187.693 182.692 188.434 181.916C189.175 181.14 189.679 180.151 189.883 179.075C190.088 177.998 189.983 176.883 189.582 175.869C189.181 174.855 188.502 173.988 187.631 173.378C186.76 172.769 185.736 172.443 184.688 172.443C183.284 172.443 181.936 173.028 180.943 174.068C179.95 175.109 179.392 176.521 179.392 177.992Z" fill="#EF5026" fill-opacity="0.5"/>
<path d="M215.568 177.992C215.568 179.09 215.878 180.163 216.46 181.075C217.042 181.988 217.869 182.699 218.837 183.119C219.805 183.539 220.87 183.649 221.898 183.435C222.925 183.221 223.869 182.692 224.61 181.916C225.35 181.14 225.855 180.151 226.059 179.075C226.263 177.998 226.159 176.883 225.758 175.869C225.357 174.855 224.678 173.988 223.807 173.378C222.936 172.769 221.912 172.443 220.864 172.443C219.459 172.443 218.112 173.028 217.119 174.068C216.126 175.109 215.568 176.521 215.568 177.992Z" fill="white"/>
<path d="M107.913 101.246C108.146 100.57 108.573 99.9858 109.134 99.5729C109.696 99.1599 110.365 98.9383 111.051 98.9383C111.737 98.9383 112.407 99.1599 112.968 99.5729C113.53 99.9858 113.956 100.57 114.19 101.246L127.431 124.969C129.153 128.049 127.749 130.518 124.359 130.518H97.8759C94.4596 130.518 93.0825 127.993 94.8039 124.969L107.913 101.246Z" fill="white"/>
<path d="M196.95 266.53C196.975 266.218 197.075 265.918 197.239 265.657C197.402 265.395 197.626 265.181 197.888 265.032C198.151 264.884 198.445 264.806 198.743 264.806C199.041 264.806 199.335 264.883 199.598 265.031C201.796 266.114 201.452 268.555 203.597 267.806C205.742 267.057 207.066 265.753 207.914 267.418C208.761 269.082 205.663 272.578 203.067 272.662C200.472 272.745 202.485 272.662 202.485 272.662C202.485 272.662 202.273 269.61 201.028 268.694C199.731 267.851 198.366 267.127 196.95 266.53Z" fill="#1A1A1A"/>
<path d="M162.971 405.621C159.276 401.07 154.109 398.106 148.459 397.297C143.471 396.734 138.47 398.216 134.502 401.431L135.588 405.455L162.971 405.621Z" fill="#EF5026" fill-opacity="0.5"/>
<path d="M532.678 342.915C520.072 328.57 496.078 312.561 495.84 312.394C494.992 312.588 490.914 316.14 484.346 325.407C481.64 329.251 479.406 333.436 477.699 337.865C479.711 335.839 481.83 330.956 485.273 326.128C488.325 321.637 491.784 317.465 495.601 313.67C498.647 315.724 520.257 330.318 532.307 342.748C532.405 342.853 532.538 342.913 532.678 342.915Z" fill="#1A1A1A"/>
<path d="M538.583 379.65C542.584 379.735 546.528 378.65 549.971 376.515C553.48 374.285 556.518 371.329 558.899 367.827C561.281 364.325 562.956 360.352 563.822 356.149C569.542 330.9 553.626 295.108 543.324 277.739C540.366 272.586 537.046 267.671 533.393 263.033C529.307 258.185 524.462 254.104 519.065 250.964C523.853 254.884 528.35 259.178 532.519 263.81C536.134 268.404 539.419 273.273 542.344 278.377C552.567 295.469 568.324 331.095 562.683 355.872C561.889 359.937 560.303 363.787 558.025 367.181C555.746 370.575 552.824 373.441 549.442 375.599C532.704 386.254 502.619 366.304 480.241 341.805C493.35 357.842 518.959 379.65 538.583 379.65Z" fill="#1A1A1A"/>
<path d="M449.282 270.941C452.422 265.569 456.568 260.918 461.47 257.27C466.372 253.622 471.929 251.052 477.805 249.716C471.777 250.497 466.005 252.739 460.949 256.265C455.892 259.79 451.689 264.502 448.673 270.026C449.07 270.914 449.176 270.941 449.282 270.941Z" fill="#1A1A1A"/>
<path d="M481.591 238.534H483.286C485.543 238.341 487.788 238.026 490.013 237.591C487.773 237.041 485.452 236.956 483.18 237.341C481.619 237.494 480.045 237.324 478.546 236.841C477.494 236.451 476.55 235.793 475.802 234.926C475.053 234.059 474.521 233.011 474.256 231.875C473.124 227.352 472.712 222.665 473.037 218.002C473.037 214.617 473.196 210.316 473.302 206.903V204.545C472.137 204.545 472.084 206.876 472.084 206.876C472.084 210.233 471.846 214.534 471.793 217.28C471.441 222.306 471.879 227.359 473.09 232.236C473.404 233.554 474.03 234.768 474.909 235.767C475.788 236.766 476.893 237.517 478.122 237.951C479.241 238.338 480.413 238.535 481.591 238.534Z" fill="#1A1A1A"/>
<path d="M487.656 212.231C487.18 212.231 486.888 212.369 486.756 214.09C486.623 215.81 487.074 216.365 487.497 216.337C487.921 216.309 488.318 215.727 488.318 214.367C488.318 213.008 488.345 212.342 487.656 212.231Z" fill="#1A1A1A"/>
<path d="M474.415 211.87C473.938 211.87 473.62 211.87 473.435 213.702C473.249 215.533 473.7 215.977 474.123 215.977C474.547 215.977 474.971 215.394 474.997 214.007C475.024 212.619 475.077 211.87 474.415 211.87Z" fill="#1A1A1A"/>
<path d="M472.799 208.235C473.317 207.802 473.933 207.516 474.587 207.405C475.241 207.293 475.911 207.359 476.534 207.597C474.388 205.738 473.144 206.543 472.429 207.181C472.482 208.18 472.64 208.235 472.799 208.235Z" fill="#1A1A1A"/>
<path d="M489.749 208.624C489.209 207.71 488.401 207.003 487.447 206.608C486.493 206.213 485.443 206.151 484.452 206.432C484.796 207.569 487.445 206.792 489.325 208.485C489.381 208.54 489.448 208.582 489.522 208.606C489.595 208.63 489.673 208.636 489.749 208.624Z" fill="#1A1A1A"/>
<path d="M499.971 226.409C500.862 226.395 501.742 226.194 502.557 225.817C503.373 225.439 504.108 224.894 504.718 224.213C505.328 223.532 505.802 222.73 506.11 221.854C506.418 220.977 506.555 220.045 506.512 219.112C506.464 218.208 506.246 217.323 505.868 216.508C505.491 215.694 504.963 214.966 504.314 214.367C503.669 213.764 502.914 213.303 502.095 213.013C501.276 212.722 500.409 212.607 499.547 212.675C498.245 212.749 496.996 213.244 495.972 214.09C497.194 214.197 498.424 214.122 499.627 213.868C500.396 213.9 501.15 214.107 501.835 214.475C502.521 214.844 503.121 215.364 503.595 216.001C504.068 216.637 504.404 217.374 504.578 218.16C504.752 218.946 504.76 219.763 504.602 220.552C504.443 221.342 504.123 222.086 503.662 222.733C503.201 223.38 502.611 223.913 501.933 224.296C501.255 224.68 500.506 224.903 499.737 224.952C498.968 225.001 498.198 224.873 497.481 224.578C497.591 225.161 497.911 225.676 498.375 226.018C498.839 226.359 499.411 226.499 499.971 226.409Z" fill="#1A1A1A"/>
<path d="M501.295 223.329C501.639 222.247 498.197 219.445 498.197 219.445L502.063 216.476C501.375 215.505 496.899 218.973 496.899 218.973C496.899 219.917 500.924 223.191 500.924 223.191C501.031 223.277 501.161 223.325 501.295 223.329Z" fill="#1A1A1A"/>
<path d="M484.743 262.368C485.008 262.229 498.25 250.715 498.25 250.715C497.508 249.799 485.22 260.759 485.22 260.759L483.128 248.245L482.624 238.173C481.459 238.173 481.989 248.384 481.989 248.384L484.187 261.813C484.611 262.368 484.69 262.368 484.743 262.368Z" fill="#1A1A1A"/>
<path d="M475.845 249.549C474.895 247.577 474.55 245.345 474.858 243.159C475.166 240.973 476.112 238.941 477.566 237.341C476.692 236.564 470.998 242.89 475.368 249.299C475.421 249.379 475.493 249.444 475.576 249.488C475.659 249.532 475.752 249.553 475.845 249.549Z" fill="#1A1A1A"/>
<path d="M510.035 253.239C515.782 253.239 521.952 251.63 524.124 246.885C525.152 245.081 525.682 243.012 525.654 240.91C525.626 238.809 525.041 236.756 523.965 234.982C522.652 233.345 520.958 232.091 519.046 231.343C517.134 230.594 515.07 230.376 513.054 230.71C515.385 212.897 517.662 203.352 517.689 203.269C517.637 200.857 517.018 198.496 515.886 196.395C514.754 194.295 513.144 192.519 511.2 191.227C501.825 184.623 484.267 185.9 478.997 187.897C478.181 187.953 477.384 188.178 476.652 188.559C475.92 188.94 475.268 189.47 474.733 190.117C472.349 192.892 471.502 197.525 472.217 203.99C472.694 197.747 473.462 193.252 475.554 190.838C475.991 190.289 476.532 189.84 477.143 189.52C477.753 189.2 478.421 189.016 479.102 188.979C483.313 187.37 500.898 185.289 510.565 192.115C512.321 193.28 513.782 194.872 514.824 196.756C515.866 198.64 516.458 200.76 516.55 202.936C516.311 203.99 514.06 213.757 511.809 231.209C516.921 231.209 520.973 232.652 523.038 235.593C523.983 237.193 524.484 239.038 524.484 240.92C524.484 242.802 523.983 244.647 523.038 246.247C520.681 251.436 512.657 252.435 506.513 251.797C499.654 250.992 491.735 247.607 490.623 242.113C488.425 231.875 498.568 226.104 498.568 226.048C497.906 225.049 487.074 231.264 489.484 242.391C490.782 248.495 498.938 252.129 506.433 252.99C507.628 253.143 508.831 253.227 510.035 253.239Z" fill="#1A1A1A"/>
<path d="M449.124 304.098C449.706 302.6 450.103 301.934 450.792 301.546C451.199 301.318 451.654 301.198 452.116 301.198C452.578 301.198 453.033 301.318 453.44 301.546C453.096 299.853 451.534 299.826 450.342 300.436C449.82 300.729 449.383 301.165 449.08 301.698C448.777 302.23 448.618 302.84 448.62 303.46C449.097 304.098 449.097 304.098 449.124 304.098Z" fill="#1A1A1A"/>
<path d="M479.712 335.229C480.003 334.119 478.97 333.453 476.242 331.705C477.128 333.006 478.19 334.165 479.394 335.146C479.492 335.199 479.601 335.228 479.712 335.229Z" fill="#1A1A1A"/>
<path d="M480.983 301.406C479.76 290.704 477.278 280.201 473.594 270.137C473.064 269.776 449.282 269.776 449.282 269.776C449.282 270.997 472.667 270.997 472.667 270.997C476.254 280.669 478.846 290.714 480.4 300.962C480.439 301.092 480.517 301.205 480.622 301.284C480.727 301.364 480.853 301.407 480.983 301.406Z" fill="#1A1A1A"/>
<path d="M438.53 304.098C437.537 292.829 435.361 281.71 432.041 270.941H449.282C449.282 269.72 431.3 269.72 431.3 269.72C430.797 270.664 435.034 282.483 437.974 303.598C437.998 303.736 438.066 303.86 438.167 303.951C438.269 304.042 438.397 304.094 438.53 304.098Z" fill="#1A1A1A"/>
<path d="M525.156 335.84C516.205 315.308 515.013 283.677 514.987 283.372C513.848 283.733 514.987 315.613 524.627 335.507C524.676 335.609 524.752 335.694 524.846 335.753C524.94 335.812 525.047 335.842 525.156 335.84Z" fill="#1A1A1A"/>
<path d="M477.063 224.384C476.64 222.746 475.183 220.998 475.051 219.889C475.421 219.084 476.534 219.583 477.116 219.889C477.699 220.194 478.202 220.36 478.599 220.166C479.247 217.589 479.707 214.964 479.977 212.314C478.855 214.338 478.16 216.589 477.937 218.918C476.587 218.335 475.104 217.641 474.256 218.696C474.107 218.887 473.999 219.11 473.94 219.35C473.88 219.589 473.871 219.839 473.912 220.083C474.379 221.774 475.365 223.257 476.719 224.3C476.821 224.368 476.943 224.398 477.063 224.384Z" fill="#1A1A1A"/>
<path d="M482.068 228.851C482.91 228.871 483.736 228.608 484.425 228.102C484.985 227.634 485.452 227.055 485.797 226.398C486.142 225.741 486.36 225.018 486.438 224.273C485.299 224.273 485.088 226.159 483.79 227.047C483.32 227.33 482.797 227.501 482.257 227.549C481.717 227.597 481.173 227.52 480.665 227.325C480.956 228.74 481.539 228.851 482.068 228.851Z" fill="#1A1A1A"/>
<path d="M491.708 317.583C491.893 316.39 489.457 315.197 489.06 307.595C488.239 293.721 479.764 290.558 479.42 290.42C479.42 291.696 487.153 294.526 487.921 307.678C488.398 316.002 491.231 317.417 491.549 317.528L491.708 317.583Z" fill="#1A1A1A"/>
<path d="M477.831 308.344C481.777 307.567 481.618 302.989 481.539 300.769C480.479 303.543 480.294 306.651 478.202 307.095C477.652 307.163 477.094 307.077 476.586 306.845C475.121 306.179 473.727 305.351 472.428 304.376L470.76 303.266C468.615 301.879 466.337 300.491 464.139 298.688L462.947 297.745C461.941 296.968 460.908 296.135 459.822 295.414C458.715 294.531 457.394 293.993 456.009 293.86C455.489 293.874 454.979 294.014 454.52 294.269C454.06 294.524 453.663 294.888 453.36 295.331C452.116 296.912 451.401 299.715 455.055 304.098C454.208 301.324 452.407 298.299 454.234 296.08C454.434 295.813 454.681 295.59 454.963 295.423C455.245 295.256 455.555 295.15 455.876 295.109C457.043 295.246 458.152 295.716 459.081 296.468C460.114 297.162 461.147 297.967 462.126 298.743L463.318 299.687C465.543 301.407 467.873 302.933 470.045 304.32C470.575 304.653 471.131 305.042 471.66 305.43C473.03 306.435 474.494 307.291 476.03 307.983C476.602 308.227 477.214 308.349 477.831 308.344Z" fill="#1A1A1A"/>
<path d="M491.999 274.91C492.892 274.91 493.781 274.798 494.648 274.577C502.381 272.579 508.922 253.656 509.187 252.851C508.048 252.629 501.507 271.552 494.356 273.383C493.385 273.736 492.347 273.834 491.331 273.669C490.316 273.505 489.354 273.083 488.53 272.44C485.14 269.471 485.485 262.285 485.485 262.23C484.399 261.897 480.691 267.224 476.745 267.557C476.035 267.604 475.324 267.484 474.664 267.205C474.004 266.927 473.412 266.497 472.931 265.948C472.426 265.446 472.028 264.838 471.763 264.164C471.498 263.49 471.373 262.764 471.395 262.035C471.395 258.068 475.183 252.463 482.465 245.388C474.044 251.908 470.31 257.651 470.23 262.035C470.209 262.928 470.365 263.816 470.688 264.643C471.012 265.469 471.496 266.216 472.11 266.835C472.709 267.514 473.446 268.041 474.268 268.378C475.089 268.714 475.972 268.851 476.851 268.778C479.82 268.126 482.475 266.397 484.346 263.894C484.241 267.378 485.427 270.769 487.656 273.356C488.878 274.404 490.42 274.956 491.999 274.91Z" fill="#1A1A1A"/>
<path d="M202.75 184.124C203.908 184.124 205.039 183.764 206.002 183.091C206.964 182.417 207.714 181.459 208.157 180.339C208.6 179.218 208.716 177.985 208.49 176.796C208.265 175.606 207.707 174.514 206.889 173.656C206.07 172.799 205.027 172.215 203.892 171.978C202.757 171.742 201.58 171.863 200.51 172.327C199.441 172.791 198.527 173.577 197.884 174.586C197.241 175.594 196.897 176.779 196.897 177.992C196.897 179.619 197.514 181.178 198.611 182.328C199.709 183.478 201.198 184.124 202.75 184.124ZM202.75 173.026C203.676 173.031 204.58 173.324 205.347 173.867C206.114 174.41 206.711 175.179 207.062 176.077C207.413 176.974 207.502 177.961 207.318 178.912C207.134 179.863 206.685 180.735 206.029 181.419C205.372 182.103 204.537 182.568 203.628 182.755C202.72 182.943 201.779 182.844 200.924 182.471C200.069 182.099 199.338 181.469 198.824 180.662C198.31 179.855 198.036 178.907 198.036 177.937C198.036 177.289 198.158 176.649 198.395 176.051C198.633 175.453 198.98 174.911 199.418 174.454C199.856 173.998 200.376 173.637 200.948 173.392C201.52 173.146 202.132 173.022 202.75 173.026Z" fill="#1A1A1A"/>
<path d="M184.662 184.124C185.819 184.124 186.951 183.764 187.913 183.091C188.876 182.417 189.626 181.459 190.069 180.339C190.512 179.218 190.628 177.985 190.402 176.796C190.176 175.606 189.619 174.514 188.8 173.656C187.982 172.799 186.939 172.215 185.804 171.978C184.668 171.742 183.491 171.863 182.422 172.327C181.353 172.791 180.438 173.577 179.795 174.586C179.152 175.594 178.809 176.779 178.809 177.992C178.809 179.619 179.426 181.178 180.523 182.328C181.621 183.478 183.11 184.124 184.662 184.124ZM184.662 173.026C185.589 173.026 186.495 173.314 187.266 173.853C188.037 174.393 188.638 175.16 188.992 176.057C189.347 176.955 189.44 177.942 189.259 178.895C189.078 179.848 188.632 180.723 187.976 181.409C187.321 182.096 186.486 182.564 185.576 182.753C184.667 182.943 183.724 182.846 182.868 182.474C182.011 182.102 181.279 181.473 180.764 180.665C180.249 179.858 179.974 178.908 179.974 177.937C179.974 176.634 180.468 175.385 181.347 174.464C182.226 173.543 183.419 173.026 184.662 173.026Z" fill="#1A1A1A"/>
<path d="M220.837 184.124C221.99 184.102 223.111 183.724 224.06 183.037C225.008 182.35 225.742 181.385 226.169 180.263C226.595 179.141 226.696 177.911 226.459 176.729C226.221 175.547 225.655 174.465 224.833 173.618C224.01 172.772 222.967 172.199 221.835 171.971C220.703 171.743 219.531 171.871 218.468 172.338C217.405 172.806 216.497 173.591 215.858 174.597C215.22 175.603 214.879 176.784 214.879 177.992C214.875 178.808 215.027 179.616 215.327 180.369C215.626 181.122 216.067 181.805 216.622 182.376C217.178 182.948 217.837 183.397 218.561 183.697C219.285 183.997 220.059 184.143 220.837 184.124ZM220.837 173.026C221.763 173.031 222.667 173.324 223.434 173.867C224.202 174.41 224.799 175.179 225.149 176.076C225.5 176.974 225.589 177.961 225.405 178.912C225.221 179.862 224.773 180.735 224.116 181.419C223.46 182.103 222.624 182.568 221.716 182.755C220.807 182.942 219.866 182.844 219.011 182.471C218.156 182.099 217.426 181.469 216.912 180.662C216.398 179.855 216.123 178.907 216.123 177.937C216.123 177.289 216.246 176.648 216.483 176.051C216.72 175.453 217.068 174.911 217.506 174.454C217.944 173.998 218.464 173.637 219.036 173.391C219.607 173.146 220.22 173.022 220.837 173.026Z" fill="#1A1A1A"/>
<path d="M88.5535 152.077H150.895C155.676 152.07 160.259 150.077 163.64 146.535C167.021 142.993 168.923 138.191 168.93 133.182V102.134C168.923 97.1251 167.021 92.3233 163.64 88.7814C160.259 85.2394 155.676 83.2464 150.895 83.239H88.0238C83.2428 83.2464 78.6595 85.2394 75.2788 88.7814C71.8981 92.3233 69.9957 97.1251 69.9887 102.134V133.182C69.9555 136.796 70.9436 140.339 72.8287 143.366C74.7137 146.392 77.4114 148.767 80.582 150.19C77.7644 148.416 75.4172 145.929 73.756 142.958C72.0948 139.986 71.1727 136.624 71.0745 133.182V102.134C71.0745 97.444 72.851 92.9457 76.014 89.6267C79.1769 86.3077 83.4678 84.4394 87.9444 84.4321H150.895C155.376 84.4321 159.674 86.2971 162.843 89.6169C166.011 92.9367 167.791 97.4392 167.791 102.134V133.182C167.777 137.867 165.991 142.356 162.824 145.663C159.657 148.971 155.367 150.828 150.895 150.828H88.5535C87.9708 151.8 88.2357 152.077 88.5535 152.077Z" fill="#1A1A1A"/>
<path d="M106.297 133.626H132.781C133.549 133.754 134.337 133.634 135.039 133.283C135.742 132.931 136.325 132.364 136.713 131.657C137.101 130.95 137.274 130.136 137.21 129.323C137.147 128.51 136.849 127.737 136.356 127.106L123.114 103.383C122.83 102.617 122.331 101.959 121.684 101.495C121.036 101.031 120.27 100.783 119.486 100.783C118.702 100.783 117.936 101.031 117.288 101.495C116.641 101.959 116.142 102.617 115.858 103.383L102.616 127.106C102.111 127.744 101.806 128.53 101.743 129.357C101.68 130.183 101.863 131.01 102.266 131.724C102.669 132.438 103.272 133.003 103.994 133.344C104.716 133.684 105.52 133.783 106.297 133.626ZM119.539 101.968C120.111 102.033 120.657 102.254 121.122 102.609C121.586 102.965 121.954 103.442 122.187 103.993L135.429 127.716C135.775 128.188 135.995 128.748 136.065 129.338C136.135 129.928 136.052 130.528 135.826 131.073C135.487 131.548 135.034 131.921 134.513 132.155C133.993 132.389 133.422 132.475 132.86 132.405H106.377C105.814 132.475 105.244 132.389 104.724 132.155C104.203 131.921 103.75 131.548 103.411 131.073C103.198 130.525 103.123 129.928 103.192 129.341C103.262 128.753 103.474 128.194 103.808 127.716L117.05 103.993C117.271 103.465 117.615 103.004 118.049 102.65C118.484 102.297 118.996 102.062 119.539 101.968Z" fill="#1A1A1A"/>
<path d="M170.864 371.16C170.308 351.987 174.969 320.745 175.022 320.44C174.042 320.607 169.354 351.96 170.387 370.688C170.394 370.816 170.447 370.936 170.536 371.024C170.624 371.111 170.742 371.16 170.864 371.16Z" fill="#1A1A1A"/>
<path d="M161.913 372.52C190.329 370.522 216.124 370.605 216.415 370.605C216.177 369.606 190.329 369.523 161.886 371.521C161.41 372.325 161.621 372.52 161.913 372.52Z" fill="#1A1A1A"/>
<path d="M252.671 345.578C252.467 342.241 251.998 338.928 251.267 335.673L250.923 333.869C250.552 332.066 249.996 329.458 249.996 329.458L248.884 329.707C248.884 329.707 249.44 332.482 249.784 334.119L250.155 335.895C250.737 338.919 251.373 342.054 252.115 345.106C252.144 345.239 252.215 345.357 252.315 345.442C252.416 345.528 252.541 345.575 252.671 345.578Z" fill="#1A1A1A"/>
<path d="M244.01 313.67C242.618 309.296 240.042 305.44 236.595 302.572C238.952 306.345 241.203 308.87 243.507 313.254C243.54 313.369 243.606 313.471 243.696 313.546C243.786 313.62 243.896 313.664 244.01 313.67Z" fill="#1A1A1A"/>
<path d="M228.915 298.05L229.551 297.051C229.551 297.051 227.644 295.691 226.452 294.886C222.021 291.841 217.018 289.825 211.78 288.977C216.671 290.774 221.374 293.088 225.817 295.885C227.008 296.69 228.915 298.05 228.915 298.05Z" fill="#1A1A1A"/>
<path d="M201.638 279.32H203.041C204.754 279.339 206.454 279.009 208.046 278.349C209.229 277.78 210.255 276.907 211.028 275.81C211.801 274.714 212.297 273.43 212.469 272.079C212.99 269.246 213.133 266.351 212.893 263.477C211.966 266.835 211.834 269.443 211.357 271.801C211.233 272.985 210.823 274.116 210.164 275.088C209.506 276.059 208.622 276.838 207.596 277.35C206.139 277.955 204.581 278.247 203.015 278.211C200.786 278.234 198.559 278.132 196.341 277.905C197.878 279.049 199.766 279.553 201.638 279.32Z" fill="#1A1A1A"/>
<path d="M186.754 257.096C188.963 255.757 190.979 254.094 192.739 252.157C190.493 253.152 188.375 254.439 186.436 255.986C186.383 256.985 186.568 257.096 186.754 257.096Z" fill="#1A1A1A"/>
<path d="M184.582 269.221C185.871 269.217 187.131 268.822 188.21 268.084C187.093 267.835 185.938 267.835 184.82 268.084C183.388 268.118 181.998 267.582 180.927 266.585C180.398 266.086 179.97 265.479 179.67 264.802C179.37 264.125 179.203 263.392 179.179 262.646C179.132 261.887 179.234 261.126 179.479 260.411C179.724 259.696 180.107 259.04 180.603 258.486C181.1 257.932 181.7 257.491 182.366 257.19C183.032 256.889 183.75 256.734 184.476 256.736C185.548 256.683 186.61 256.974 187.522 257.568C187.358 256.873 186.944 256.271 186.366 255.889C185.789 255.506 185.093 255.372 184.423 255.515C182.667 255.552 180.997 256.318 179.78 257.645C178.563 258.971 177.899 260.75 177.935 262.59C177.97 264.43 178.701 266.179 179.967 267.454C181.234 268.729 182.932 269.425 184.688 269.388L184.582 269.221Z" fill="#1A1A1A"/>
<path d="M183.602 266.253C183.999 266.086 187.707 262.396 187.707 262.396C187.707 261.425 182.808 258.484 182.808 258.484C182.225 259.538 186.356 262.063 186.356 262.063L183.099 265.226C183.311 266.197 183.443 266.253 183.602 266.253Z" fill="#1A1A1A"/>
<path d="M203.968 303.265C204.551 302.544 202.67 292.888 202.67 292.888L203.65 278.765C202.511 278.765 201.532 292.888 201.532 292.888L203.147 301.406L187.072 291.001C186.463 292.028 203.677 303.182 203.677 303.182C203.764 303.239 203.865 303.268 203.968 303.265Z" fill="#1A1A1A"/>
<path d="M207.755 264.587C209.168 263.44 210.114 261.775 210.403 259.926C210.419 259.681 210.384 259.436 210.302 259.206C210.22 258.976 210.092 258.768 209.926 258.594C208.973 257.651 207.543 258.594 206.616 259.038C205.75 256.972 205.102 254.814 204.683 252.601C203.835 254.016 205.133 259.565 205.345 260.12C205.599 260.349 205.923 260.475 206.258 260.475C206.593 260.475 206.918 260.349 207.172 260.12C207.755 259.787 208.814 259.177 209.132 259.482C209.04 261.042 208.375 262.503 207.278 263.561C207.437 264.587 207.596 264.587 207.755 264.587Z" fill="#1A1A1A"/>
<path d="M252.962 347.077C257.067 336.311 264.403 317.86 264.482 317.694C263.343 317.416 256.007 335.867 252.406 346.272C252.829 347.077 252.882 347.077 252.962 347.077Z" fill="#1A1A1A"/>
<path d="M211.727 263.922C215.329 263.478 217.183 258.844 216.521 253.323C215.859 247.801 213.184 244.194 210.324 244.194C209.394 244.31 208.519 244.712 207.807 245.349C207.095 245.986 206.58 246.83 206.325 247.773C205.551 250.019 205.323 252.432 205.663 254.793C205.816 256.432 206.246 258.029 206.934 259.51C207.219 257.891 207.174 256.226 206.801 254.627C206.492 252.463 206.692 250.253 207.384 248.19C208.02 246.552 208.947 245.415 210.032 245.415C212.336 245.137 214.799 248.8 215.329 253.461C215.859 258.123 214.429 262.368 212.125 262.701C211.734 262.759 211.336 262.718 210.963 262.583C210.59 262.448 210.253 262.222 209.979 261.924C210.059 263.589 210.8 263.922 211.727 263.922Z" fill="#1A1A1A"/>
<path d="M197.956 264.893C201.425 264.477 203.253 259.815 202.591 254.321C201.929 248.828 199.28 245.165 196.341 245.165C192.871 245.581 191.044 250.243 191.706 255.737C192.368 261.23 195.069 264.893 197.956 264.893ZM196.394 246.386C198.618 246.386 200.896 249.965 201.452 254.46C202.008 258.955 200.551 263.367 198.247 263.672C195.943 263.977 193.48 260.287 192.951 255.626C192.421 250.964 193.851 246.719 196.155 246.414L196.394 246.386Z" fill="#1A1A1A"/>
<path d="M202.088 255.819C204.392 253.822 205.796 255.292 205.848 255.376C205.848 253.683 203.889 252.601 201.717 254.793C201.797 255.764 201.955 255.819 202.088 255.819Z" fill="#1A1A1A"/>
<path d="M344.646 308.815C349.172 306.027 354.225 304.313 359.451 303.793H451.665C459.955 303.793 467.264 308.454 469.78 315.279L494.092 381.62C494.879 383.748 495.153 386.046 494.889 388.311C494.626 390.576 493.833 392.738 492.582 394.606L483.498 401.57C480.148 404.12 476.166 405.603 472.031 405.843H461.941L361.304 354.818L344.646 308.815Z" fill="white"/>
<path d="M461.941 406.453H472.031C476.297 406.231 480.405 404.697 483.843 402.041L492.953 394.994C494.303 393.038 495.165 390.76 495.462 388.366C495.758 385.972 495.478 383.539 494.648 381.287L470.336 314.946C467.688 307.843 460.246 303.071 451.798 303.071H359.398C354.064 303.608 348.905 305.35 344.276 308.176C344.037 308.898 360.775 354.929 360.775 354.929L461.703 406.37C461.772 406.422 461.855 406.451 461.941 406.453ZM492.158 394.189L483.154 401.098C479.89 403.543 476.036 404.975 472.031 405.232H462.073L361.755 354.374L345.282 308.981C349.624 306.408 354.433 304.82 359.398 304.32H451.665C459.743 304.32 466.814 308.787 469.25 315.418L493.562 381.731C494.327 383.768 494.6 385.971 494.355 388.145C494.11 390.319 493.355 392.395 492.158 394.189Z" fill="#1A1A1A"/>
<path d="M378.466 406.454H394.356C394.356 405.233 378.466 405.233 378.466 405.233C370.521 405.233 363.317 400.766 360.907 394.134L354.075 375.544C353.015 375.988 359.822 394.578 359.822 394.578C362.417 401.681 369.912 406.454 378.466 406.454Z" fill="#1A1A1A"/>
<path d="M416.761 406.454H470.734C474.013 406.536 477.263 405.791 480.209 404.279C483.154 402.767 485.709 400.534 487.657 397.769C488.992 395.816 489.841 393.545 490.127 391.161C490.414 388.778 490.129 386.357 489.299 384.118L464.987 317.777C462.339 310.702 454.897 305.902 446.449 305.902H354.181C350.889 305.794 347.621 306.523 344.655 308.026C341.69 309.528 339.116 311.76 337.152 314.531C335.811 316.481 334.958 318.752 334.671 321.137C334.384 323.522 334.673 325.944 335.51 328.182L342.687 347.826C343.773 347.382 336.596 327.821 336.596 327.821C335.822 325.761 335.555 323.531 335.819 321.335C336.082 319.138 336.869 317.047 338.106 315.252C339.964 312.647 342.397 310.551 345.196 309.145C347.996 307.739 351.078 307.064 354.181 307.178H446.422C454.526 307.178 461.571 311.645 464.007 318.276L488.319 384.59C489.085 386.651 489.349 388.88 489.085 391.075C488.822 393.269 488.039 395.361 486.809 397.159C484.949 399.762 482.516 401.856 479.717 403.262C476.918 404.668 473.836 405.344 470.734 405.233H416.761C416.152 406.093 416.443 406.454 416.761 406.454Z" fill="#1A1A1A"/>
<path d="M135.588 406.092C127.643 381.121 139.826 343.775 148.353 325.434C150.775 320.049 153.554 314.848 156.669 309.869C159.279 306.042 162.537 302.751 166.282 300.158C169.835 297.161 174.103 295.242 178.624 294.609H180.107C181.522 294.698 182.941 294.51 184.291 294.054C185.373 293.574 186.351 292.869 187.166 291.982C187.981 291.095 188.616 290.044 189.032 288.893C190.501 284.873 190.501 280.427 189.032 276.407C188.205 274.427 187.147 272.563 185.88 270.858C185.117 270.149 184.48 269.303 184 268.361C183.099 269.498 183.761 270.22 184.344 270.858C185.804 272.676 187.024 274.692 187.972 276.851C189.336 280.575 189.336 284.697 187.972 288.421C187.624 289.427 187.082 290.348 186.381 291.125C185.679 291.903 184.833 292.522 183.894 292.944C182.677 293.336 181.404 293.496 180.133 293.415H178.597C173.858 294.061 169.378 296.057 165.647 299.187C161.793 301.859 158.444 305.255 155.769 309.203C152.604 314.228 149.79 319.486 147.347 324.935C138.74 343.442 126.478 381.26 135.085 405.732C135.123 405.839 135.192 405.931 135.282 405.995C135.372 406.06 135.479 406.094 135.588 406.092Z" fill="#1A1A1A"/>
<path d="M150.71 319.857C152.113 303.82 158.125 284.731 169.248 279.348C172.585 277.711 172.717 276.296 172.188 272.661C170.88 263.186 169.112 253.786 166.891 244.499C166.923 242.291 167.47 240.125 168.486 238.19C169.502 236.256 170.955 234.611 172.717 233.401C182.251 226.436 199.863 228.157 203.915 229.655C205.46 229.765 206.904 230.502 207.94 231.708C210.085 234.178 210.933 238.672 210.377 244.693C212.125 238.339 211.198 233.595 208.761 230.82C207.598 229.492 206 228.67 204.285 228.517C198.989 226.631 181.404 225.743 172.135 232.43C170.235 233.743 168.669 235.52 167.571 237.608C166.473 239.696 165.876 242.032 165.832 244.416C165.832 244.693 168.48 254.46 171.128 272.745C171.605 276.046 171.605 276.796 168.824 278.127C157.145 283.677 151.028 302.766 150.127 319.108C150.683 319.857 150.683 319.857 150.71 319.857Z" fill="#1A1A1A"/>
<path d="M162.389 405.704C161.793 403.868 160.603 402.307 159.026 401.292C150.286 394.827 139.799 394.938 134.078 401.487C140.249 396.187 149.968 396.187 158.363 402.263C159.666 403.225 160.881 404.312 161.992 405.51C162.04 405.571 162.1 405.621 162.169 405.655C162.238 405.688 162.313 405.705 162.389 405.704Z" fill="#1A1A1A"/>
<path d="M254.418 402.985C255.001 402.375 255.001 367.193 255.001 367.193C253.836 367.193 253.836 402.375 253.836 402.375C253.836 402.537 253.897 402.692 254.006 402.806C254.115 402.921 254.264 402.985 254.418 402.985Z" fill="#1A1A1A"/>
<path d="M242.157 359.867C248.248 359.867 250.949 356.843 252.141 354.318C253.129 351.681 253.436 348.818 253.031 346.017C252.627 343.217 251.525 340.577 249.837 338.364C249.837 338.364 247.771 335.423 250.208 328.958C250.994 327.128 251.381 325.138 251.34 323.131C251.299 321.125 250.83 319.153 249.969 317.36C249.096 315.834 247.899 314.54 246.47 313.577C245.042 312.615 243.421 312.01 241.733 311.811C239.998 311.469 238.21 311.573 236.521 312.114C234.833 312.655 233.295 313.618 232.04 314.919C230.757 316.231 229.778 317.833 229.176 319.603C228.575 321.373 228.368 323.263 228.571 325.129C229.445 331.095 229.657 332.676 227.909 337.671C227.093 340.329 226.835 343.14 227.15 345.912C227.465 348.684 228.347 351.353 229.736 353.736C231.093 355.701 232.895 357.283 234.98 358.338C237.065 359.394 239.367 359.891 241.68 359.784L242.157 359.867ZM239.694 312.921C240.32 312.869 240.948 312.869 241.574 312.921C243.077 313.088 244.524 313.612 245.805 314.454C247.085 315.295 248.165 316.432 248.963 317.777C249.737 319.41 250.155 321.203 250.187 323.027C250.219 324.85 249.864 326.658 249.148 328.32C246.5 335.59 248.831 338.808 248.937 338.947C250.478 340.983 251.489 343.403 251.869 345.971C252.25 348.539 251.988 351.167 251.108 353.597C250.252 355.257 248.943 356.613 247.35 357.493C245.756 358.372 243.948 358.735 242.157 358.536C239.954 358.7 237.747 358.277 235.742 357.307C233.737 356.337 231.999 354.85 230.69 352.986C229.414 350.761 228.604 348.277 228.312 345.699C228.02 343.121 228.252 340.508 228.995 338.031C230.549 334.091 230.837 329.728 229.816 325.601C229.55 323.82 229.687 321.998 230.216 320.282C230.745 318.567 231.651 317.005 232.861 315.723C233.764 314.803 234.834 314.081 236.008 313.599C237.181 313.118 238.434 312.888 239.694 312.921Z" fill="#1A1A1A"/>
<path d="M231.749 309.398C234.397 309.398 236.383 306.429 236.595 302.517C236.807 298.604 234.927 295.247 232.305 295.108C229.683 294.97 227.485 297.883 227.273 301.962C227.061 306.04 228.941 309.231 231.563 309.398H231.749ZM232.146 296.301C234.159 296.301 235.615 299.076 235.456 302.461C235.297 305.846 233.629 308.26 231.616 308.177C229.603 308.094 228.253 305.402 228.438 302.045C228.624 298.688 230.292 296.301 232.146 296.301Z" fill="#1A1A1A"/>
<path d="M239.111 370.688C239.773 370.688 255.001 370.688 255.001 367.414C255.001 364.14 239.773 364.168 239.111 364.168C238.449 364.168 223.221 364.168 223.221 367.414C223.221 370.661 238.475 370.688 239.111 370.688ZM239.111 365.361C248.274 365.361 253.491 366.721 253.836 367.47C253.491 368.136 248.274 369.495 239.111 369.495C229.948 369.495 224.942 368.191 224.413 367.414C224.942 366.665 230.133 365.361 239.111 365.361Z" fill="#1A1A1A"/>
<path d="M239.111 405.648C239.773 405.648 255.001 405.648 255.001 402.374C249.854 403.999 244.48 404.693 239.111 404.428C235.726 404.456 232.344 404.215 228.994 403.706C230.769 405.232 234.37 405.648 239.111 405.648Z" fill="#1A1A1A"/>
<path d="M241.363 384.922C241.735 384.786 242.065 384.546 242.317 384.229C242.569 383.911 242.733 383.527 242.793 383.119C243.265 381.709 243.23 380.167 242.693 378.782C242.157 377.398 241.156 376.266 239.88 375.6C238.698 375.259 237.46 375.193 236.251 375.406C233.613 375.704 230.958 375.796 228.306 375.683C226.694 375.716 225.087 375.491 223.539 375.017C224.061 375.685 224.735 376.205 225.498 376.53C226.262 376.855 227.091 376.974 227.909 376.876C230.674 376.993 233.444 376.909 236.198 376.626C237.279 376.37 238.401 376.37 239.482 376.626C241.919 377.57 242.131 380.788 241.68 382.73C241.23 384.673 241.045 384.922 241.363 384.922Z" fill="#1A1A1A"/>
<path d="M232.385 395.299C234.487 395.314 236.587 395.137 238.661 394.772C240.375 394.7 241.993 393.922 243.163 392.608C243.774 391.749 244.187 390.753 244.371 389.7C244.555 388.646 244.504 387.562 244.223 386.532C243.953 385.524 243.341 384.656 242.501 384.09C242.178 383.913 241.819 383.82 241.455 383.82C241.091 383.82 240.732 383.913 240.409 384.09C239.132 384.556 237.808 384.863 236.463 385.006C231.892 385.529 227.273 385.37 222.745 384.534C227.153 386.345 231.937 386.919 236.622 386.199C237.973 386.059 239.306 385.761 240.594 385.311C241.336 385.033 241.521 384.978 241.945 385.311C242.24 385.507 242.494 385.763 242.694 386.063C242.894 386.363 243.036 386.701 243.11 387.059C243.354 387.904 243.402 388.798 243.25 389.667C243.098 390.535 242.751 391.354 242.236 392.053C241.263 393.109 239.93 393.717 238.529 393.746C235.278 394.268 231.982 394.398 228.703 394.134C226.055 394.134 223.83 393.773 221.632 393.44C223.747 394.773 226.184 395.438 228.65 395.355C229.816 395.244 231.087 395.299 232.385 395.299Z" fill="#1A1A1A"/>
<path d="M228.385 404.566C231.955 404.57 235.512 404.123 238.979 403.234C240.315 402.964 241.505 402.179 242.314 401.033C243.123 399.887 243.492 398.464 243.348 397.047C243.163 394.911 241.971 393.274 240.541 393.163C241.394 394.325 241.967 395.686 242.21 397.13C242.321 398.266 242.021 399.405 241.368 400.32C240.716 401.235 239.759 401.859 238.687 402.069C237.257 402.458 224.333 405.732 214.852 400.071C218.681 403.265 223.5 404.866 228.385 404.566Z" fill="#1A1A1A"/>
<path d="M81.6153 406.23H162.866C162.866 405.038 81.6153 405.038 81.6153 405.038C81.0327 406.092 81.2975 406.23 81.6153 406.23Z" fill="#1A1A1A"/>
<path d="M162.866 406.23H582.996C582.996 405.038 162.866 405.038 162.866 405.038C162.283 406.092 162.548 406.23 162.866 406.23Z" fill="#1A1A1A"/>
<path d="M285.377 303.626L289.509 301.656C295.282 298.882 303.227 295.108 304.419 291.695C304.543 291.393 304.608 291.067 304.608 290.738C304.608 290.409 304.543 290.083 304.419 289.781C303.042 286.729 300.552 286.285 295.229 288.199C289.906 290.114 275.393 297.744 274.784 298.049C275.446 299.048 290.065 291.307 295.6 289.337C301.135 287.367 302.591 288.532 303.386 290.28C302.38 294.22 294.037 298.188 289.085 300.574C287.47 301.323 286.092 301.989 285.165 302.489C284.98 303.432 285.165 303.626 285.377 303.626Z" fill="#1A1A1A"/>
<path d="M267.846 323.715C268.084 318.165 267.475 304.681 268.614 302.406C270.971 297.716 274.387 298.993 277.115 300.019C281.591 301.526 285.696 304.045 289.138 307.4C291.786 309.869 293.243 312.228 292.952 313.726C292.952 314.503 292.184 315.085 291.071 315.474C288.079 316.501 279.79 310.924 276.85 308.676C277.3 310.507 287.443 318.054 291.442 316.612C292.089 316.46 292.682 316.118 293.151 315.627C293.62 315.136 293.946 314.515 294.09 313.837C294.461 311.867 292.978 309.203 289.906 306.373C286.463 303.029 282.384 300.485 277.936 298.91C274.864 297.772 270.414 296.135 267.581 301.684C266.098 304.681 267.157 321.106 267.263 322.993C267.252 323.081 267.258 323.171 267.282 323.256C267.306 323.342 267.347 323.421 267.402 323.489C267.457 323.557 267.524 323.612 267.601 323.651C267.677 323.69 267.761 323.711 267.846 323.715Z" fill="#1A1A1A"/>
<path d="M291.998 310.286C293.031 309.842 299.943 306.512 300.182 303.072C300.266 302.239 300.169 301.397 299.899 300.609C299.628 299.821 299.191 299.107 298.619 298.521C298.144 298.086 297.577 297.773 296.966 297.609C296.354 297.445 295.714 297.435 295.097 297.578C296.315 298.549 297.189 298.799 297.745 299.409C298.181 299.878 298.511 300.442 298.713 301.061C298.914 301.68 298.982 302.339 298.911 302.988C298.752 305.291 293.614 308.205 291.628 309.12C291.681 310.147 291.681 310.286 291.998 310.286Z" fill="#1A1A1A"/>
<path d="M290.833 319.414C291.803 319.393 292.762 319.196 293.667 318.831C296.147 317.817 298.462 316.403 300.526 314.642C301.605 313.955 302.525 313.027 303.221 311.923C303.917 310.82 304.372 309.569 304.552 308.26C304.556 307.562 304.405 306.873 304.111 306.247C303.816 305.621 303.387 305.075 302.857 304.653C302.309 304.217 301.675 303.916 301.001 303.772C300.327 303.628 299.631 303.644 298.964 303.821C300.261 304.708 301.347 304.958 302.168 305.596C302.571 305.922 302.894 306.344 303.11 306.826C303.327 307.309 303.431 307.838 303.413 308.371C303.231 309.514 302.815 310.601 302.193 311.559C301.571 312.517 300.758 313.323 299.811 313.92C297.853 315.617 295.644 316.966 293.27 317.916C292.571 318.231 291.819 318.394 291.058 318.394C290.298 318.394 289.545 318.231 288.847 317.916C288.225 317.617 287.668 317.187 287.212 316.652C286.756 316.118 286.411 315.49 286.199 314.808C285.978 315.683 286.092 316.615 286.518 317.403C286.944 318.191 287.646 318.773 288.476 319.025C289.229 319.321 290.031 319.453 290.833 319.414Z" fill="#1A1A1A"/>
<path d="M421.263 291.918C421.819 291.307 421.819 180.933 421.819 180.933C421.812 176.94 420.294 173.112 417.599 170.288C414.904 167.464 411.25 165.874 407.438 165.867H176.557C172.745 165.874 169.092 167.464 166.397 170.288C163.701 173.112 162.184 176.94 162.177 180.933V219.5C163.342 219.5 163.342 180.933 163.342 180.933C163.342 177.254 164.737 173.725 167.221 171.124C169.704 168.522 173.072 167.06 176.584 167.06H407.438C410.95 167.06 414.318 168.522 416.802 171.124C419.285 173.725 420.68 177.254 420.68 180.933V291.279C420.676 291.362 420.689 291.444 420.717 291.522C420.744 291.599 420.787 291.669 420.841 291.729C420.895 291.789 420.961 291.836 421.033 291.869C421.106 291.901 421.184 291.918 421.263 291.918Z" fill="#1A1A1A"/>
<path d="M297.533 342.72H329.313C329.313 341.5 297.533 341.5 297.533 341.5C296.977 342.442 297.215 342.72 297.533 342.72Z" fill="#1A1A1A"/>
<path d="M421.263 204.961H466.946C466.946 203.741 421.263 203.741 421.263 203.741C420.68 204.683 420.945 204.961 421.263 204.961Z" fill="#1A1A1A"/>
<path d="M326.876 166.838C327.459 166.228 327.459 76.136 327.459 76.136C327.459 74.3142 327.802 72.5102 328.467 70.827C329.132 69.1439 330.108 67.6145 331.337 66.3263C332.567 65.0381 334.027 64.0162 335.633 63.319C337.24 62.6218 338.962 62.263 340.701 62.263H489.749C493.26 62.263 496.628 63.7246 499.112 66.3263C501.595 68.928 502.99 72.4566 502.99 76.136V94.3374C504.155 94.3374 504.155 76.136 504.155 76.136C504.148 72.1425 502.631 68.3146 499.936 65.4908C497.24 62.6669 493.587 61.0772 489.775 61.0699H340.674C336.862 61.0772 333.209 62.6669 330.513 65.4908C327.818 68.3146 326.301 72.1425 326.294 76.136V166.228C326.294 166.308 326.309 166.387 326.338 166.461C326.367 166.535 326.41 166.602 326.464 166.659C326.519 166.716 326.583 166.761 326.653 166.791C326.724 166.822 326.8 166.838 326.876 166.838Z" fill="#1A1A1A"/>
<path d="M503.546 183.042C504.129 182.432 504.129 137.067 504.129 137.067C502.964 137.067 502.964 182.432 502.964 182.432C502.964 182.594 503.025 182.749 503.134 182.863C503.244 182.978 503.392 183.042 503.546 183.042Z" fill="#1A1A1A"/>
<path d="M283.259 320.08C283.796 317.578 283.516 314.96 282.465 312.644C281.458 313.199 283.047 316.64 282.676 319.386C283.206 320.08 283.233 320.08 283.259 320.08Z" fill="#1A1A1A"/>
<path d="M288.794 331.511L298.01 316.473C296.977 315.918 290.515 326.517 288.29 330.596C288.608 331.483 288.714 331.511 288.794 331.511Z" fill="#1A1A1A"/>
<path d="M114.905 406.287C115.302 404.539 99.0146 301.962 109.158 288.588C109.38 288.232 109.676 287.935 110.025 287.718C110.374 287.502 110.766 287.372 111.17 287.339C127.908 286.202 162.654 284.093 163.025 284.065C162.601 282.872 127.828 285.009 111.091 286.146C110.529 286.191 109.983 286.366 109.493 286.659C109.003 286.952 108.581 287.355 108.257 287.839C97.8228 301.712 113.554 401.598 114.322 405.787C114.352 405.927 114.425 406.052 114.531 406.143C114.636 406.233 114.768 406.284 114.905 406.287Z" fill="#1A1A1A"/>
<path d="M131.748 370.023C131.113 358.286 129.444 342.859 128.438 332.26C127.67 323.936 126.796 316.445 125.79 310.285C125.862 317.708 126.349 325.119 127.246 332.482C128.253 343.109 129.895 358.536 131.113 369.607C131.155 369.743 131.242 369.86 131.358 369.936C131.474 370.012 131.613 370.043 131.748 370.023Z" fill="#1A1A1A"/>
<path d="M123.856 303.155C122.903 292.694 119.937 290.197 119.831 290.086C119.195 291.113 121.87 293.554 123.3 302.627C123.319 302.77 123.385 302.901 123.486 302.997C123.588 303.094 123.719 303.149 123.856 303.155Z" fill="#1A1A1A"/>
<path d="M293.693 332.149C294.778 332.211 295.864 332.022 296.871 331.594C297.139 331.467 297.378 331.283 297.574 331.054C297.77 330.824 297.919 330.555 298.01 330.262C298.698 327.71 293.984 324.297 293.031 323.631C294.488 326.073 297.242 328.653 296.898 329.929C293.667 331.927 283.868 329.735 276.373 326.822C264.694 322.244 263.979 319.441 264.191 318.498C264.403 317.555 264.906 317 267.554 316.639C264.747 315.807 263.449 316.639 263.078 318.22C262.416 320.995 266.627 324.352 275.976 327.987C281.653 330.283 287.624 331.685 293.693 332.149Z" fill="#1A1A1A"/>
<path d="M218.136 406.286C218.796 406.205 219.427 405.962 219.979 405.576C220.532 405.19 220.989 404.673 221.314 404.067C219.46 404.677 218.666 405.26 217.766 405.038C214.058 404.011 213.714 390.693 213.608 385.616C213.263 372.575 215.488 370.799 216.468 370.66C216.698 370.625 216.933 370.642 217.157 370.709C217.38 370.776 217.588 370.892 217.766 371.049C217.766 369.551 217.077 369.356 216.282 369.467C213.449 369.911 212.178 375.211 212.442 385.671C212.681 395.16 213.475 405.093 217.474 406.148L218.136 406.286Z" fill="#1A1A1A"/>
<path d="M269.832 406.231C273.691 403.747 276.689 400.033 278.386 395.632C294.276 357.454 298.063 329.93 298.089 329.652C296.924 329.652 293.216 357.121 277.326 395.161C275.764 399.237 273.047 402.714 269.54 405.122C269.434 406.093 269.62 406.231 269.832 406.231Z" fill="#1A1A1A"/>
<path d="M221.897 293.527C222.426 292.75 221.738 290.475 221.738 290.475C221.215 288.459 220.073 286.679 218.489 285.411C216.905 284.142 214.966 283.455 212.972 283.455C214.73 283.918 216.351 284.833 217.687 286.116C219.023 287.4 220.033 289.012 220.626 290.808L221.341 293.111C221.38 293.233 221.455 293.338 221.554 293.413C221.654 293.488 221.774 293.528 221.897 293.527Z" fill="#1A1A1A"/>
<path d="M223.804 376.266C224.187 373.333 224.346 370.374 224.28 367.415C223.353 367.415 223.353 375.739 223.353 375.739C223.35 375.804 223.359 375.87 223.379 375.932C223.4 375.994 223.432 376.051 223.474 376.1C223.516 376.149 223.567 376.189 223.623 376.217C223.68 376.246 223.741 376.262 223.804 376.266Z" fill="#1A1A1A"/>
<path d="M213.793 374.406C219.46 369.135 223.618 370.577 223.645 370.577C223.777 369.579 219.275 367.969 213.475 373.574C213.528 374.351 213.661 374.406 213.793 374.406Z" fill="#1A1A1A"/>
<path d="M248.195 365.889C249.52 362.396 250.66 358.83 251.612 355.207C250.526 354.846 247.639 365.112 247.639 365.112C248.089 365.889 248.142 365.889 248.195 365.889Z" fill="#1A1A1A"/>
<path d="M239.8 365.361C240.04 364.228 240.04 363.054 239.8 361.921C239.641 361.005 239.482 360.062 239.217 358.813C238.906 359.291 238.696 359.832 238.6 360.401C238.504 360.971 238.525 361.555 238.661 362.115C238.82 363.003 238.952 363.863 239.191 364.89C239.222 365.031 239.3 365.157 239.412 365.243C239.524 365.33 239.661 365.372 239.8 365.361Z" fill="#1A1A1A"/>
<path d="M229.762 319.857C229.762 316.334 229.762 315.585 229.762 315.557C228.623 315.557 228.517 316.361 229.18 319.386C229.205 319.525 229.278 319.65 229.386 319.737C229.493 319.824 229.627 319.867 229.762 319.857Z" fill="#1A1A1A"/>
<path d="M202.088 293.526C207.225 293.526 210.615 292.084 212.151 289.226C214.958 284.065 210.615 276.324 210.43 275.991C209.476 276.685 213.634 284.093 211.145 288.643C209.821 291.085 206.775 292.333 202.088 292.333C201.637 293.249 201.637 293.526 202.088 293.526Z" fill="#1A1A1A"/>
<path d="M197.638 246.692C201.278 244.613 204.205 241.391 206.007 237.48L208.178 244.971C209.291 244.611 206.669 235.565 206.669 235.565C205.557 235.565 203.359 242.058 197.347 245.554C197.241 246.581 197.426 246.692 197.638 246.692Z" fill="#1A1A1A"/>
<path d="M545.549 406.232C546.502 397.325 546.131 378.125 546.131 377.931C544.966 378.153 545.363 397.353 544.966 405.677C545.148 405.876 545.342 406.061 545.549 406.232Z" fill="#1A1A1A"/>
<path d="M498.011 214.201C498.382 213.119 492.98 206.654 496.025 198.108C494.992 197.553 487.868 204.823 472.826 203.99C484.505 205.849 491.496 201.798 494.383 199.634C493.851 202.128 493.862 204.716 494.417 207.204C494.972 209.693 496.056 212.018 497.588 214.007C497.64 214.07 497.705 214.121 497.778 214.155C497.852 214.188 497.931 214.204 498.011 214.201Z" fill="#1A1A1A"/>
<path d="M440.993 95.5852H480.108C480.108 94.3931 440.993 94.3931 440.993 94.3931C440.41 95.3357 440.675 95.5852 440.993 95.5852Z" fill="#1A1A1A"/>
<path d="M440.993 108.792H480.108C480.108 107.6 440.993 107.6 440.993 107.6C440.41 108.515 440.675 108.792 440.993 108.792Z" fill="#1A1A1A"/>
<path d="M440.993 122H480.108C480.108 120.807 440.993 120.807 440.993 120.807C440.41 121.722 440.675 122 440.993 122Z" fill="#1A1A1A"/>
<path d="M440.993 146.555H480.108C480.108 145.335 440.993 145.335 440.993 145.335C440.41 146.278 440.675 146.555 440.993 146.555Z" fill="#1A1A1A"/>
<path d="M440.993 159.762H480.108C480.108 158.542 440.993 158.542 440.993 158.542C440.41 159.485 440.675 159.762 440.993 159.762Z" fill="#1A1A1A"/>
<path d="M440.993 173.025H480.108C480.108 171.833 440.993 171.833 440.993 171.833C440.41 172.692 440.675 173.025 440.993 173.025Z" fill="#1A1A1A"/>
<path d="M349.943 95.5852H389.006C389.006 94.3931 349.89 94.3931 349.89 94.3931C349.308 95.3357 349.573 95.5852 349.943 95.5852Z" fill="#1A1A1A"/>
<path d="M349.943 108.792H389.006C389.006 107.6 349.89 107.6 349.89 107.6C349.308 108.515 349.573 108.792 349.943 108.792Z" fill="#1A1A1A"/>
<path d="M349.943 122H389.006C389.006 120.807 349.89 120.807 349.89 120.807C349.308 121.722 349.573 122 349.943 122Z" fill="#1A1A1A"/>
<path d="M330.955 206.93H370.071C370.071 205.738 330.955 205.738 330.955 205.738C330.373 206.653 330.637 206.93 330.955 206.93Z" fill="#1A1A1A"/>
<path d="M330.955 220.193H370.071C370.071 218.973 330.955 218.973 330.955 218.973C330.373 219.86 330.637 220.193 330.955 220.193Z" fill="#1A1A1A"/>
<path d="M330.955 233.345H370.071C370.071 232.125 330.955 232.125 330.955 232.125C330.373 233.068 330.637 233.345 330.955 233.345Z" fill="#1A1A1A"/>
<path d="M238.899 225.992H278.015C278.015 224.8 238.899 224.8 238.899 224.8C238.317 225.742 238.582 225.992 238.899 225.992Z" fill="#1A1A1A"/>
<path d="M238.899 239.199H278.015C278.015 237.979 238.899 237.979 238.899 237.979C238.317 238.922 238.582 239.199 238.899 239.199Z" fill="#1A1A1A"/>
<path d="M238.899 252.406H278.015C278.015 251.186 238.899 251.186 238.899 251.186C238.317 252.129 238.582 252.406 238.899 252.406Z" fill="#1A1A1A"/>
<path d="M349.943 146.556H389.006C389.006 145.28 349.943 145.28 349.943 145.28C349.308 146.278 349.573 146.556 349.943 146.556Z" fill="#1A1A1A"/>
<path d="M349.943 159.762H389.006C389.006 158.542 349.89 158.542 349.89 158.542C349.308 159.485 349.573 159.762 349.943 159.762Z" fill="#1A1A1A"/>
<path d="M414.986 154.158C415.569 153.575 415.569 94.3374 415.569 94.3374C414.43 94.3374 414.43 153.575 414.43 153.575C414.43 153.73 414.489 153.878 414.593 153.987C414.698 154.097 414.839 154.158 414.986 154.158Z" fill="#1A1A1A"/>
<path d="M151.955 72.2515C153.147 69.7266 153.941 67.5624 154.842 65.3982C153.166 67.0285 151.971 69.1275 151.399 71.4469C151.822 72.2238 151.902 72.2515 151.955 72.2515ZM157.252 59.4883C158.788 57.1576 159.9 55.1322 161.065 53.1899C159.132 54.55 157.63 56.4817 156.748 58.7392C157.013 59.4606 157.093 59.4883 157.172 59.4883H157.252ZM164.323 47.7517C166.097 45.6708 167.474 43.8673 168.931 42.2025C166.858 43.2107 165.103 44.8183 163.872 46.8361C164.005 47.724 164.137 47.7517 164.243 47.7517H164.323ZM173.062 37.3469C175.022 35.5712 176.664 34.0451 178.359 32.5746C176.096 33.1722 174.058 34.4674 172.506 36.2926C172.665 37.2637 172.824 37.3469 172.983 37.3469H173.062ZM183.099 28.5237C185.218 27.1086 187.098 25.8878 188.978 24.7225C186.697 24.9893 184.542 25.9543 182.781 27.4971C182.808 28.4404 183.099 28.5237 183.099 28.5237ZM194.513 21.5594C196.738 20.5328 198.777 19.6172 200.816 18.7848C198.528 18.6648 196.256 19.2431 194.275 20.4496C194.196 21.4484 194.381 21.5594 194.593 21.5594H194.513ZM206.934 16.5374C209.159 15.816 211.304 15.2056 213.449 14.6784C211.2 14.2322 208.877 14.4631 206.749 15.3443C206.431 16.3709 206.669 16.5374 206.934 16.5374ZM219.805 13.3188C222.003 12.9026 224.201 12.5974 226.399 12.32C224.22 11.5945 221.891 11.5176 219.673 12.098C219.249 13.0969 219.487 13.3188 219.779 13.3188H219.805Z" fill="#1A1A1A"/>
<path d="M330.955 55.4654C331.431 54.4943 330.372 52.1636 327.936 48.5844C329.392 52.774 330.425 55.077 330.425 55.1047C330.473 55.2098 330.548 55.299 330.642 55.3626C330.735 55.4262 330.843 55.4618 330.955 55.4654ZM323.46 44.0895C322.539 41.7563 321.105 39.6839 319.276 38.0409C320.134 40.241 321.414 42.2335 323.036 43.8953C323.088 43.9591 323.153 44.0098 323.227 44.0434C323.3 44.0771 323.38 44.0928 323.46 44.0895ZM313.926 34.4894C312.688 32.351 310.982 30.5531 308.947 29.2454C310.094 31.24 311.628 32.9603 313.449 34.2951C313.547 34.4033 313.679 34.472 313.82 34.4894H313.926ZM303.015 26.665C301.547 24.7131 299.622 23.1931 297.427 22.2533C298.885 24.0678 300.689 25.5423 302.723 26.5817C302.78 26.6201 302.843 26.6482 302.909 26.665H303.015ZM291.15 20.5608C289.48 18.8166 287.396 17.5714 285.112 16.9538C286.761 18.524 288.711 19.7066 290.833 20.4221L291.15 20.5608ZM278.438 16.1215C276.612 14.623 274.435 13.6648 272.135 13.3469C273.97 14.7404 276.078 15.6883 278.306 16.1215H278.438ZM265.515 13.3469C263.564 12.0419 261.313 11.3133 259 11.2382C260.958 12.4365 263.148 13.1572 265.409 13.3469H265.515ZM252.273 11.8486C252.115 11.4338 251.835 11.083 251.472 10.8482C251.11 10.6134 250.685 10.5069 250.26 10.5445C250.42 10.952 250.697 11.2968 251.053 11.5307C251.41 11.7646 251.827 11.8758 252.246 11.8486H252.273Z" fill="#1A1A1A"/>
<path d="M202.935 273.244C204.43 273.242 205.878 272.703 207.04 271.718C207.552 271.354 207.977 270.872 208.285 270.31C208.592 269.747 208.773 269.119 208.815 268.472C208.82 268.057 208.72 267.648 208.525 267.287C208.329 266.926 208.045 266.626 207.702 266.419C207.21 266.166 206.663 266.051 206.115 266.085C205.568 266.119 205.038 266.301 204.577 266.613C203.2 267.39 203.041 267.362 202.67 267.251C202.3 267.14 202.114 267.251 201.267 265.725C200.998 265.23 200.614 264.812 200.152 264.512C199.689 264.211 199.162 264.037 198.619 264.005C198.214 264.007 197.818 264.124 197.473 264.344C197.128 264.564 196.846 264.879 196.659 265.254C196.425 265.824 196.318 266.442 196.346 267.062C196.373 267.682 196.535 268.288 196.818 268.833C197.209 269.826 197.814 270.711 198.586 271.419C199.357 272.126 200.275 272.637 201.267 272.911C201.809 273.091 202.369 273.203 202.935 273.244ZM206.378 267.362C207.464 267.751 207.649 268.111 207.676 268.583C207.612 269.046 207.457 269.49 207.22 269.887C206.982 270.284 206.669 270.624 206.299 270.886C205.646 271.444 204.875 271.831 204.05 272.015C203.226 272.198 202.371 272.172 201.558 271.94C200.735 271.698 199.976 271.258 199.342 270.656C198.708 270.054 198.215 269.307 197.903 268.472C197.701 268.09 197.577 267.668 197.541 267.233C197.504 266.798 197.556 266.36 197.692 265.947C197.776 265.76 197.906 265.6 198.069 265.483C198.232 265.366 198.422 265.296 198.619 265.281C198.97 265.319 199.307 265.444 199.602 265.647C199.897 265.85 200.141 266.124 200.313 266.447C201.24 268 201.611 268.306 202.379 268.5C203.147 268.694 203.518 268.694 205.027 267.723C205.442 267.488 205.906 267.364 206.378 267.362Z" fill="#1A1A1A"/>
<path d="M202.194 273.189C202.404 272.341 202.426 271.453 202.258 270.595C202.09 269.736 201.737 268.929 201.226 268.236C200.715 267.542 200.059 266.98 199.309 266.593C198.558 266.206 197.733 266.004 196.897 266.003C196.897 267.223 202.035 267.973 201.505 272.523C202.141 273.189 202.167 273.189 202.194 273.189Z" fill="#1A1A1A"/>
<path d="M98.2202 352.182C97.7418 351.729 97.1807 351.382 96.5707 351.163C95.9607 350.943 95.3146 350.856 94.6714 350.906C95.132 351.386 95.6908 351.751 96.3056 351.972C96.9203 352.193 97.575 352.265 98.2202 352.182ZM88.0241 351.516C86.0693 350.273 83.8848 349.478 81.6151 349.185C83.4793 350.579 85.6841 351.388 87.9711 351.516H88.0241ZM75.0738 348.741C73.2858 347.197 71.225 346.038 69.0091 345.329C70.6217 347.034 72.674 348.211 74.9149 348.714L75.0738 348.741ZM62.7326 343.747C61.146 341.947 59.2619 340.461 57.1711 339.363C58.487 341.325 60.331 342.832 62.4677 343.692L62.7326 343.747ZM51.2918 336.755C49.9575 334.726 48.3003 332.952 46.3924 331.511C47.4008 333.667 48.9948 335.462 50.974 336.672C51.0745 336.715 51.1832 336.734 51.2918 336.727V336.755ZM41.0693 327.987C39.9961 325.762 38.5927 323.73 36.9114 321.966C37.6015 324.256 38.9072 326.289 40.672 327.821C40.7872 327.907 40.9284 327.947 41.0693 327.932V327.987ZM32.1444 317.582C31.3484 315.221 30.2239 312.996 28.8075 310.979C29.1626 313.345 30.1654 315.552 31.6942 317.333C31.7448 317.409 31.8121 317.471 31.8904 317.515C31.9687 317.558 32.0558 317.581 32.1444 317.582ZM24.9145 305.985C24.3924 303.535 23.5922 301.16 22.531 298.909C22.4928 301.304 23.1484 303.655 24.4113 305.652C24.4635 305.776 24.5556 305.878 24.6717 305.938C24.7878 305.999 24.9205 306.016 25.0469 305.985H24.9145ZM19.6178 293.249C19.4405 290.74 19.0145 288.258 18.3466 285.841C17.9361 288.195 18.1844 290.623 19.0617 292.833C19.1105 292.989 19.2148 293.119 19.3529 293.197C19.491 293.274 19.6522 293.293 19.8032 293.249H19.6178ZM16.4663 279.792C16.5941 277.273 16.4965 274.746 16.175 272.245C15.4493 274.52 15.3484 276.962 15.8837 279.293C15.8989 279.381 15.9315 279.464 15.9794 279.538C16.0273 279.612 16.0894 279.674 16.1618 279.721C16.2342 279.768 16.3152 279.799 16.3996 279.811C16.4839 279.824 16.5698 279.817 16.6517 279.792H16.4663ZM15.2216 265.919C15.6216 265.217 15.8151 264.406 15.7778 263.589C15.7778 261.85 15.8307 260.13 15.9367 258.428C14.9208 259.926 14.4596 261.76 14.639 263.589C14.639 264.171 14.639 264.754 14.639 265.337C14.6211 265.44 14.6305 265.547 14.666 265.646C14.7015 265.744 14.7619 265.831 14.8407 265.896C14.9195 265.962 15.0138 266.004 15.1135 266.018C15.2132 266.031 15.3146 266.017 15.407 265.975L15.2216 265.919ZM16.0426 252.046C16.9165 249.272 17.3667 246.941 17.8699 244.777C16.4489 246.662 15.6084 248.955 15.4599 251.353C16.2544 252.157 16.2544 252.157 16.2544 252.157L16.0426 252.046ZM19.2735 238.617C20.6242 236.009 21.5511 233.928 22.5575 232.014C20.7504 233.507 19.4655 235.585 18.9028 237.924C19.3265 238.728 19.3795 238.728 19.4589 238.728L19.2735 238.617ZM39.083 230.46C37.3043 229.369 35.3874 228.547 33.3891 228.018C34.1232 228.879 35.033 229.555 36.0508 229.997C37.0686 230.439 38.1684 230.635 39.2684 230.571L39.083 230.46ZM45.5449 227.685C46.343 227.016 46.9931 226.173 47.4503 225.215C47.9075 224.257 48.161 223.207 48.1933 222.136C48.2002 221.602 48.1379 221.07 48.0079 220.554C47.0015 221.276 47.0545 221.692 47.0545 222.136C46.9757 223.839 46.2962 225.451 45.1477 226.659C45.3861 227.768 45.5979 227.824 45.7303 227.824L45.5449 227.685ZM25.7619 226.575C27.3335 224.789 29.0144 223.111 30.7938 221.553C29.9158 221.665 29.0702 221.97 28.3126 222.448C27.555 222.926 26.9024 223.567 26.3975 224.328C24.9183 223.372 23.4945 222.325 22.1337 221.193C22.7664 222.959 24.016 224.407 25.6295 225.244C25.6825 226.659 25.8149 226.714 25.9473 226.714L25.7619 226.575ZM36.0904 218.085C38.2063 217.23 40.5055 217 42.7377 217.419C41.7617 216.762 40.6359 216.39 39.4766 216.341C38.3173 216.292 37.1665 216.569 36.1434 217.142C35.8256 218.085 36.0374 218.224 36.2758 218.224L36.0904 218.085ZM16.8635 217.586C15.8491 215.347 14.558 213.257 13.0235 211.37C13.5243 213.714 14.7202 215.831 16.4398 217.419C16.5013 217.527 16.5919 217.614 16.7003 217.668C16.8087 217.723 16.93 217.742 17.049 217.724L16.8635 217.586ZM8.91857 206.487C8.35249 204.047 7.54482 201.676 6.50862 199.412C6.43928 201.824 7.10733 204.196 8.41538 206.182C8.45327 206.344 8.54775 206.485 8.68015 206.577C8.81254 206.67 8.97321 206.707 9.13044 206.681L8.91857 206.487ZM3.75434 193.724C3.62623 191.214 3.30742 188.718 2.80094 186.26C2.23639 188.596 2.37517 191.058 3.19821 193.308C3.19323 193.407 3.21152 193.507 3.25156 193.597C3.2916 193.687 3.35216 193.766 3.4279 193.826C3.50365 193.886 3.59229 193.926 3.68613 193.942C3.77996 193.958 3.87612 193.95 3.96621 193.918L3.75434 193.724ZM1.47678 180.101C1.85229 178.693 2.0132 177.232 1.9535 175.772C1.9535 174.246 1.9535 173.414 1.9535 172.581C1.53481 172.816 1.19261 173.177 0.97084 173.617C0.749069 174.057 0.657822 174.556 0.708778 175.051C0.708778 177.049 0.708778 178.297 0.708778 179.518C0.610443 179.654 0.567741 179.826 0.590096 179.995C0.612442 180.164 0.698006 180.317 0.82795 180.42C0.957886 180.523 1.12155 180.567 1.28297 180.544C1.44438 180.521 1.59032 180.431 1.68864 180.295L1.47678 180.101ZM2.16533 166.228C3.09224 163.453 3.59544 161.233 4.20455 159.041C2.69613 160.863 1.77001 163.133 1.55622 165.534C2.32423 166.45 2.35072 166.45 2.3772 166.45L2.16533 166.228ZM5.92599 152.993C7.3296 150.523 8.33593 148.47 9.44823 146.528C7.57416 147.885 6.1563 149.827 5.39629 152.077C5.97892 153.187 6.05836 153.215 6.13782 153.215L5.92599 152.993ZM12.6792 141.09C14.48 139.064 15.9631 137.344 17.4992 135.735C15.3366 136.574 13.4827 138.109 12.2025 140.119C12.6527 141.284 12.7851 141.312 12.8911 141.312L12.6792 141.09ZM22.2396 131.406C24.2789 129.88 26.0797 128.632 27.96 127.328C25.6815 127.657 23.5548 128.713 21.8689 130.352C21.8954 131.406 22.0807 131.406 22.2396 131.406ZM33.4421 124.081L37.1233 122.389L39.7716 121.307C39.3114 121.018 38.7851 120.866 38.2488 120.866C37.7125 120.866 37.1862 121.018 36.726 121.307C35.5607 121.806 34.3955 122.361 33.2302 122.944C33.0184 124.054 33.2302 124.192 33.4421 124.192V124.081ZM45.7833 119.115C47.9814 118.449 50.1 117.838 52.3246 117.256C50.0746 116.844 47.7604 117.074 45.6244 117.922C45.386 119.059 45.5449 119.226 45.7833 119.226V119.115ZM58.6277 115.841C60.9052 115.341 63.0769 114.897 65.222 114.481C63.0401 113.95 60.7619 114.046 58.6277 114.759C58.1245 115.647 58.3628 115.841 58.6277 115.841Z" fill="#1A1A1A"/>
<path d="M238.714 20.6998C240.455 20.7025 242.161 20.193 243.64 19.2292C245.577 17.9771 247.017 16.0328 247.693 13.7553C248.369 11.4778 248.236 9.02092 247.317 6.83842C246.399 4.65592 244.758 2.89518 242.698 1.88136C240.637 0.867539 238.296 0.669109 236.107 1.32271C233.917 1.97632 232.027 3.43781 230.786 5.4373C229.545 7.4368 229.037 9.83924 229.354 12.201C229.672 14.5627 230.795 16.7242 232.515 18.2864C234.236 19.8485 236.437 20.7057 238.714 20.6998ZM238.714 2.19313C239.357 2.19523 239.997 2.27909 240.621 2.44284C241.678 2.69673 242.677 3.16845 243.559 3.83056C244.441 4.49267 245.189 5.33194 245.758 6.29955C246.624 7.75299 247.059 9.44297 247.008 11.1555C246.956 12.868 246.421 14.5261 245.47 15.9197C244.518 17.3133 243.194 18.3798 241.663 18.9841C240.133 19.5884 238.466 19.7033 236.873 19.3144C235.281 18.9254 233.834 18.05 232.716 16.7991C231.599 15.5481 230.861 13.9779 230.596 12.2872C230.33 10.5965 230.55 8.86137 231.227 7.30156C231.904 5.74174 233.007 4.42739 234.397 3.52494C235.65 2.69025 237.097 2.22976 238.581 2.19313H238.714Z" fill="#1A1A1A"/>
<path d="M404.393 405.843H458.366C471.236 405.843 480.373 394.994 476.48 384.395L452.195 318.054C449.547 311.229 442.343 306.567 434.08 306.567H341.813C328.942 306.567 319.805 317.416 323.698 328.015L347.983 394.356C350.499 401.181 357.835 405.843 366.098 405.843H404.393Z" fill="#1A1A1A"/>
<path d="M411.226 353.625C414.086 358.841 413.874 364.724 410.484 366.694C407.094 368.664 402.195 366.055 399.308 360.811C396.421 355.567 396.66 349.713 400.05 347.743C403.44 345.773 408.207 348.381 411.226 353.625Z" fill="white"/>
<path d="M409.478 365.777C410.405 365.758 411.315 365.5 412.126 365.028C413.045 364.394 413.798 363.528 414.316 362.51C414.835 361.492 415.101 360.355 415.092 359.202C415.164 356.361 414.456 353.559 413.053 351.127C411.753 348.629 409.782 346.584 407.385 345.245C406.464 344.605 405.391 344.246 404.286 344.209C403.182 344.171 402.089 344.456 401.13 345.032C400.17 345.607 399.383 346.451 398.856 347.469C398.328 348.487 398.081 349.638 398.143 350.795C398.084 353.662 398.82 356.486 400.261 358.924C401.562 361.423 403.532 363.468 405.929 364.806C407.023 365.416 408.239 365.748 409.478 365.777ZM403.969 345.495C405.023 345.526 406.056 345.81 406.988 346.327C409.146 347.613 410.937 349.479 412.175 351.732C413.414 353.986 414.055 356.546 414.033 359.146C414.064 360.097 413.861 361.041 413.444 361.887C413.026 362.732 412.408 363.451 411.649 363.974C410.82 364.41 409.897 364.616 408.97 364.573C408.042 364.529 407.141 364.237 406.353 363.724C404.195 362.439 402.404 360.573 401.165 358.319C399.927 356.065 399.286 353.506 399.308 350.906C399.277 349.954 399.479 349.01 399.897 348.165C400.314 347.319 400.932 346.601 401.691 346.078C402.384 345.664 403.173 345.462 403.969 345.495Z" fill="#1A1A1A"/>
<path d="M344.647 243.778C344.647 252.284 342.239 260.599 337.729 267.671C333.218 274.744 326.807 280.256 319.306 283.511C311.806 286.766 303.552 287.618 295.589 285.958C287.627 284.299 280.312 280.203 274.572 274.189C268.831 268.174 264.921 260.511 263.337 252.169C261.753 243.826 262.566 235.179 265.673 227.321C268.78 219.462 274.042 212.745 280.792 208.02C287.543 203.294 295.479 200.772 303.598 200.772C308.988 200.772 314.326 201.884 319.306 204.046C324.287 206.207 328.812 209.375 332.624 213.368C336.436 217.362 339.459 222.103 341.522 227.321C343.585 232.538 344.647 238.131 344.647 243.778Z" fill="white"/>
<path d="M324.671 256.826C323.819 263.253 318.921 267.993 311.749 269.361C310.968 269.508 310.21 269.703 309.265 269.911V276.949H303.131V269.875C294.315 268.86 289.301 264.034 287.446 255.751L297.056 253.307C297.312 253.991 297.557 254.602 297.767 255.238C298.196 256.448 298.854 257.555 299.703 258.491C300.551 259.427 301.571 260.174 302.703 260.685C303.834 261.197 305.053 261.463 306.285 261.467C307.517 261.472 308.737 261.215 309.872 260.711C310.892 260.355 311.783 259.679 312.424 258.774C313.064 257.869 313.423 256.779 313.452 255.653C313.559 254.655 313.342 253.648 312.837 252.795C312.331 251.942 311.566 251.292 310.665 250.949C308.053 249.801 305.359 248.823 302.688 247.773C301.289 247.223 299.843 246.746 298.467 246.135C291.563 243.032 288.519 237.84 289.382 230.717C290.222 223.777 294.42 219.489 301.849 217.974C302.152 217.913 302.443 217.803 302.933 217.668V212.268H308.986L309.126 217.595C310.77 217.912 312.383 218.39 313.942 219.024C318.886 220.845 321.662 224.437 323.271 229.422L314.77 232.818C313.821 231.193 312.789 229.623 311.679 228.114C310.804 227.089 309.666 226.35 308.4 225.984C307.135 225.618 305.796 225.641 304.542 226.05C303.552 226.245 302.645 226.758 301.945 227.518C301.245 228.277 300.788 229.245 300.636 230.289C300.372 231.337 300.492 232.45 300.971 233.41C301.45 234.371 302.253 235.109 303.225 235.482C305.452 236.496 307.761 237.375 310.047 238.304C311.959 239.086 313.918 239.77 315.784 240.638C322.886 243.973 325.697 249.104 324.671 256.826Z" fill="#EF5026"/>
<path d="M304.146 283.742C293.875 283.557 284.086 279.152 276.885 271.477C269.685 263.802 265.65 253.471 265.65 242.709C265.65 231.948 269.685 221.616 276.885 213.941C284.086 206.266 293.875 201.862 304.146 201.676C310.139 201.504 316.077 202.924 321.405 205.806C321.445 205.827 321.48 205.857 321.509 205.893C321.538 205.929 321.56 205.97 321.573 206.015C321.587 206.06 321.592 206.107 321.588 206.154C321.584 206.201 321.571 206.246 321.551 206.288C321.53 206.33 321.502 206.367 321.467 206.397C321.433 206.427 321.393 206.45 321.351 206.464C321.308 206.479 321.263 206.484 321.218 206.48C321.173 206.476 321.13 206.463 321.09 206.441C315.854 203.629 310.027 202.242 304.146 202.409C298.429 202.404 292.783 203.734 287.619 206.301C282.454 208.869 277.9 212.609 274.288 217.251C270.675 221.893 268.096 227.32 266.736 233.137C265.376 238.955 265.271 245.016 266.427 250.882C267.583 256.747 269.972 262.269 273.42 267.046C276.868 271.823 281.288 275.735 286.36 278.499C291.432 281.262 297.028 282.806 302.741 283.02C308.454 283.234 314.14 282.112 319.388 279.735C319.429 279.715 319.473 279.704 319.519 279.702C319.564 279.7 319.61 279.708 319.652 279.725C319.695 279.742 319.733 279.768 319.766 279.802C319.799 279.835 319.825 279.874 319.842 279.918C319.862 279.962 319.873 280.01 319.874 280.059C319.876 280.107 319.869 280.156 319.852 280.201C319.836 280.246 319.811 280.288 319.78 280.323C319.748 280.359 319.71 280.387 319.667 280.407C314.766 282.62 309.483 283.755 304.146 283.742Z" fill="#1A1A1A"/>
<path d="M329.183 274.481C328.787 274.188 328.81 273.968 328.962 273.833C332.485 270.794 335.466 267.125 337.766 262.996C337.788 262.955 337.818 262.918 337.853 262.889C337.889 262.86 337.93 262.839 337.974 262.828C338.018 262.816 338.064 262.815 338.108 262.823C338.153 262.831 338.195 262.848 338.233 262.874C338.272 262.897 338.307 262.928 338.335 262.965C338.363 263.002 338.383 263.045 338.395 263.09C338.407 263.136 338.41 263.183 338.404 263.23C338.399 263.277 338.384 263.322 338.361 263.363C336.02 267.554 332.988 271.277 329.405 274.359C329.348 274.427 329.269 274.47 329.183 274.481Z" fill="#1A1A1A"/>
<path d="M306.444 276.486H300.834C300.741 276.486 300.652 276.448 300.587 276.379C300.521 276.31 300.484 276.217 300.484 276.12V269.363C292.578 268.264 287.866 263.56 286.117 254.983C286.096 254.892 286.11 254.797 286.156 254.716C286.202 254.636 286.276 254.578 286.362 254.555L295.167 252.112C295.252 252.088 295.342 252.099 295.42 252.142C295.498 252.185 295.557 252.257 295.586 252.344C295.68 252.637 295.785 252.906 295.878 253.187C295.971 253.468 296.123 253.908 296.24 254.274C296.558 255.401 297.099 256.445 297.829 257.338C298.558 258.23 299.459 258.952 300.473 259.455C301.475 259.938 302.563 260.194 303.666 260.206C304.77 260.219 305.863 259.988 306.875 259.528C307.78 259.149 308.556 258.496 309.102 257.651C309.649 256.806 309.942 255.808 309.942 254.788C310.056 253.894 309.89 252.986 309.47 252.199C309.049 251.413 308.397 250.791 307.61 250.426C305.989 249.656 304.298 248.947 302.665 248.263L300.333 247.274C299.901 247.078 299.458 246.907 299.027 246.736C298.175 246.394 297.289 246.04 296.438 245.612C289.966 242.448 287.108 237.133 287.913 229.827C288.706 222.716 292.648 218.33 299.575 216.766C300.298 216.558 300.298 211.415 300.298 211.415C300.298 211.367 300.307 211.32 300.325 211.276C300.342 211.232 300.368 211.193 300.401 211.16C300.434 211.127 300.472 211.101 300.515 211.084C300.557 211.067 300.602 211.059 300.648 211.06H306.187C306.231 211.06 306.275 211.069 306.316 211.087C306.357 211.105 306.395 211.131 306.426 211.164C306.457 211.197 306.482 211.236 306.499 211.279C306.516 211.322 306.525 211.368 306.525 211.415L306.665 216.448C308.097 216.797 309.501 217.263 310.863 217.841C313.179 218.746 315.201 220.323 316.694 222.386C316.722 222.423 316.743 222.465 316.755 222.51C316.767 222.555 316.77 222.603 316.765 222.649C316.76 222.696 316.745 222.741 316.723 222.782C316.701 222.823 316.671 222.858 316.636 222.887C316.563 222.947 316.471 222.974 316.379 222.962C316.287 222.951 316.203 222.902 316.146 222.826C314.713 220.866 312.781 219.371 310.572 218.513C309.173 217.899 307.72 217.432 306.234 217.12C305.953 215.356 305.809 213.57 305.802 211.781H301.044V216.827C300.66 217.115 300.235 217.338 299.785 217.487C293.138 218.965 289.382 223.156 288.624 229.912C287.855 236.876 290.584 241.934 296.788 244.964C297.616 245.368 298.49 245.71 299.33 246.052L300.648 246.589L302.98 247.591C304.624 248.275 306.315 248.984 307.96 249.766C308.878 250.189 309.641 250.911 310.137 251.824C310.633 252.737 310.834 253.794 310.712 254.836C310.703 255.993 310.365 257.121 309.742 258.076C309.119 259.031 308.239 259.771 307.213 260.2C306.106 260.701 304.911 260.952 303.706 260.937C302.501 260.922 301.312 260.642 300.216 260.114C299.118 259.566 298.141 258.783 297.35 257.815C296.558 256.847 295.97 255.716 295.621 254.494C295.517 254.14 295.4 253.798 295.272 253.431C295.213 253.26 295.143 253.077 295.085 252.894L286.922 255.154C288.694 263.279 293.277 267.689 300.916 268.667C300.999 268.676 301.077 268.717 301.133 268.783C301.189 268.848 301.22 268.933 301.219 269.021V275.729H306.14V269.058C306.342 268.823 306.606 268.657 306.898 268.581C307.54 268.41 308.064 268.264 308.694 268.142C315.166 266.81 319.493 262.228 320.263 255.924C321.172 248.373 318.63 243.364 312.251 240.138C311.143 239.576 309.977 239.076 308.846 238.611L307.003 237.805L305.312 237.072C303.808 236.412 302.245 235.74 300.741 234.995C299.763 234.518 298.973 233.702 298.505 232.684C298.038 231.666 297.921 230.509 298.175 229.411C298.295 228.335 298.727 227.323 299.413 226.513C300.099 225.702 301.006 225.132 302.012 224.879C303.241 224.446 304.567 224.424 305.808 224.815C307.049 225.207 308.143 225.993 308.939 227.065C309.68 228.09 310.35 229.167 310.945 230.291C311.166 230.706 311.4 231.11 311.633 231.513L314.257 230.377C314.343 230.339 314.441 230.34 314.527 230.377C314.613 230.415 314.682 230.487 314.717 230.578C314.753 230.669 314.753 230.771 314.717 230.861C314.681 230.952 314.612 231.023 314.525 231.061L311.633 232.282C311.101 231.823 310.661 231.259 310.338 230.621C309.769 229.522 309.117 228.473 308.391 227.481C307.672 226.537 306.693 225.849 305.587 225.51C304.48 225.171 303.301 225.198 302.21 225.587C301.335 225.804 300.545 226.3 299.95 227.007C299.355 227.714 298.983 228.596 298.887 229.533C298.638 230.474 298.718 231.476 299.114 232.359C299.51 233.242 300.195 233.948 301.044 234.347C302.525 235.093 304.076 235.765 305.581 236.412L307.283 237.157L309.114 237.939C310.28 238.428 311.446 238.917 312.613 239.491C319.295 242.875 321.942 248.129 321.009 256.034C320.216 262.57 315.563 267.494 308.881 268.887C308.321 269.009 307.715 269.143 307.12 269.314C306.927 271.577 306.849 273.849 306.887 276.12C306.889 276.177 306.878 276.235 306.855 276.287C306.832 276.339 306.797 276.385 306.754 276.421C306.711 276.456 306.66 276.481 306.606 276.492C306.552 276.504 306.497 276.502 306.444 276.486Z" fill="#1A1A1A"/>
</svg>
