<svg width="250" height="287" viewBox="0 0 163 167" fill="none" xmlns="http://www.w3.org/2000/svg">
<!-- <path d="M4.79793 24.145H2.79793V26.145H4.79793V24.145ZM26.1829 24.145L27.9339 25.1116L29.5715 22.145H26.1829V24.145ZM5.83793 61L4.087 60.0334L2.44937 63H5.83793V61ZM17.1479 61V63H18.3434L18.9095 61.9471L17.1479 61ZM37.5579 23.04L39.3195 23.9871L39.5579 23.5436V23.04H37.5579ZM37.5579 15.5H39.5579V13.5H37.5579V15.5ZM4.79793 15.5V13.5H2.79793V15.5H4.79793ZM4.79793 26.145H26.1829V22.145H4.79793V26.145ZM24.432 23.1784L4.087 60.0334L7.58886 61.9666L27.9339 25.1116L24.432 23.1784ZM5.83793 63H17.1479V59H5.83793V63ZM18.9095 61.9471L39.3195 23.9871L35.7964 22.0929L15.3864 60.0529L18.9095 61.9471ZM39.5579 23.04V15.5H35.5579V23.04H39.5579ZM37.5579 13.5H4.79793V17.5H37.5579V13.5ZM2.79793 15.5V24.145H6.79793V15.5H2.79793Z" fill="black" fill-opacity="0.1"/> -->
<g clip-path="url(#clip0_266_1914)">
<path d="M140.99 86.9787C141.14 86.6733 136.298 60.7501 133.835 60.1393C131.372 59.5285 118.69 55.3966 113.457 63.5047C108.223 71.6128 105.917 82.5773 105.917 82.5773L104.387 81.703C104.387 81.703 68.7063 51.2707 68.2546 50.6598C67.8029 50.049 64.7196 43.7733 65.099 41.7074C65.4784 39.6414 65.8698 34.1382 65.2556 33.5274C64.6413 32.9166 63.178 33.755 62.5637 35.9766C61.9494 38.1983 61.7929 40.6415 61.1786 41.6355C60.8125 42.224 60.527 42.8583 60.3295 43.5218C60.3295 43.5218 47.7854 31.4615 46.7737 31.4615C45.762 31.4615 44.6961 31.7669 45.2381 32.7609C45.7801 33.755 52.0792 40.2582 51.6938 40.5457C51.3084 40.8331 48.5442 40.6235 46.3883 39.6295C44.2324 38.6354 40.9323 37.1024 40.318 37.7911C39.7038 38.4797 40.9202 40.1864 40.9202 40.1864C40.9202 40.1864 39.764 41.384 40.1494 42.3302C40.5348 43.2763 46.6111 45.5399 47.4542 46.4561C48.2973 47.3723 49.4536 47.9891 48.3033 48.9831C47.1531 49.9772 40.4746 50.588 40.2277 51.4263C39.9808 52.2647 40.8299 53.0312 42.8413 52.8036C44.8527 52.5761 48.5804 52.5581 50.941 53.8696C53.3017 55.181 55.7045 57.3847 57.3967 57.8458C59.0889 58.3069 59.5527 58.3787 59.5527 58.3787L107.242 109.153C107.242 109.153 76.0833 135.382 69.0134 139.208C61.9434 143.035 57.7822 143.029 56.7042 141.957C55.6262 140.885 52.4887 138.963 50.941 138.669C49.3933 138.376 47.4 138.903 46.7858 138.442C46.1715 137.981 43.8651 136.681 43.0942 137.142C42.3234 137.604 41.5586 137.909 43.0159 139.208C44.4733 140.508 49.038 142.113 48.8634 143.4C48.6888 144.688 44.7864 147.76 41.0347 150.892C37.2829 154.023 34.579 155.083 35.4221 156.55C36.2652 158.018 36.9637 157.748 38.0357 157.239C39.1076 156.73 45.0333 152.269 45.0333 152.269C45.0333 152.269 37.8068 160.455 38.6559 161.449C39.5051 162.443 41.1912 161.449 41.1912 161.449C41.1912 161.449 41.113 163.203 42.8052 162.898C44.4974 162.593 51.1096 156.401 51.1096 156.401C51.1096 156.401 47.653 164.659 48.4178 164.964C49.1826 165.269 50.0377 165.12 51.8805 162.748C53.7232 160.377 56.0357 157.012 56.0357 157.012C56.0357 157.012 76.8722 147.604 79.793 145.921C82.7137 144.239 109.922 129.268 109.922 129.268C109.922 129.268 111.999 131.945 114.92 132.939C116.456 133.499 118.06 133.855 119.689 133.999C119.689 133.999 121.075 142.412 122.839 142.718C124.603 143.023 138.683 140.322 142.525 139.125C146.367 137.927 153.365 136.394 153.6 135.46C153.835 134.526 150.45 127.735 149.83 126.591C149.21 125.447 140.195 103.8 140.195 103.8L140.99 86.9787Z" fill="white"/>
<path d="M135.461 81.3017C135.431 81.2261 135.387 81.1573 135.329 81.0995C135.272 81.0416 135.204 80.9959 135.128 80.9651C135.053 80.9343 134.972 80.919 134.89 80.9203C134.809 80.9215 134.728 80.9393 134.654 80.9724L132.209 82.3377C132.094 82.3894 131.996 82.4738 131.929 82.5803C131.861 82.6868 131.827 82.8107 131.83 82.9365C131.829 83.0642 131.866 83.1892 131.937 83.2958C132.008 83.4023 132.109 83.4857 132.227 83.5353C132.829 83.8408 133.431 84.1342 134.064 84.4096C134.139 84.4412 134.221 84.457 134.303 84.4562C134.385 84.4554 134.466 84.4379 134.541 84.4048C134.616 84.3717 134.683 84.3237 134.739 84.2638C134.795 84.2039 134.837 84.1333 134.865 84.0563C134.919 83.9043 134.913 83.7373 134.849 83.5894C134.784 83.4414 134.665 83.3236 134.515 83.2599L133.793 82.9066L135.13 82.1521C135.281 82.0839 135.401 81.9622 135.467 81.8107C135.504 81.7307 135.522 81.6435 135.521 81.5556C135.52 81.4676 135.499 81.3809 135.461 81.3017Z" fill="#253139"/>
<path d="M132.625 78.4273C131.708 77.8743 131.006 77.0305 130.631 76.032C130.194 74.9069 129.889 73.7355 129.722 72.5409C129.323 69.9684 129.411 67.3444 129.981 64.804C130.308 63.3596 130.791 61.9542 131.42 60.6122C131.751 59.8936 130.607 59.4505 130.264 60.1631C129.053 62.7159 128.361 65.4816 128.229 68.3012C128.056 71.0598 128.466 73.8238 129.433 76.4153C129.933 77.6608 130.752 78.9363 132.041 79.4933C132.655 79.7807 133.233 78.7986 132.625 78.4273Z" fill="#253139"/>
<path d="M130.39 61.2706C126.523 60.3085 122.437 60.7657 118.882 62.558C116.088 64.0044 113.784 66.2371 112.258 68.9775C110.608 71.9716 109.969 75.5047 109.849 78.8701C109.71 81.0678 109.959 83.2727 110.584 85.3853C110.858 86.2811 111.234 87.1429 111.704 87.9543L111.758 88.0441C112.495 89.4159 113.616 90.5455 114.986 91.2957C115.212 91.4021 115.445 91.4921 115.684 91.5652C116.417 91.79 117.176 91.9168 117.943 91.9425C118.689 91.9844 119.442 91.9425 120.183 91.9844C121.032 91.9844 121.038 93.3976 120.183 93.4515L119.274 93.4934C118.671 93.5144 118.068 93.5005 117.467 93.4515C116.175 93.3827 114.918 93.0157 113.793 92.3796C112.123 91.2761 110.807 89.7167 110.005 87.8884C109.719 87.2948 109.474 86.6826 109.271 86.056C109.054 85.373 108.881 84.677 108.753 83.9721C108.404 81.943 108.331 79.8765 108.536 77.8281C108.801 74.1753 109.68 70.4865 111.686 67.3846C113.578 64.4704 116.305 62.1866 119.514 60.8274C123.056 59.3455 126.994 59.082 130.703 60.0789C131.372 60.2645 131.083 61.4322 130.39 61.2706Z" fill="#253139"/>
<path d="M139.014 79.7265C138.691 79.0454 138.198 78.4584 137.581 78.022C136.964 77.5857 136.244 77.3148 135.491 77.2354C134.644 77.1643 133.794 77.3254 133.033 77.7013C132.271 78.0772 131.628 78.6533 131.173 79.3672C130.746 80.0259 131.715 80.7625 132.161 80.1038C132.464 79.6342 132.875 79.2428 133.359 78.9617C133.844 78.6806 134.389 78.5179 134.949 78.4869C135.489 78.4739 136.022 78.5999 136.498 78.8528C136.974 79.1057 137.376 79.4769 137.665 79.9301C137.975 80.5096 138.16 81.1474 138.208 81.8022C138.256 82.4571 138.165 83.1147 137.942 83.7326C137.741 84.2287 137.434 84.6753 137.042 85.0414C136.65 85.4075 136.182 85.6843 135.672 85.8525C135.012 86.0432 134.318 86.0885 133.639 85.9851C132.96 85.8816 132.311 85.632 131.739 85.2537C131.599 85.1555 131.425 85.1145 131.255 85.139C131.085 85.1634 130.931 85.2516 130.824 85.3854C130.722 85.5253 130.679 85.6992 130.703 85.8702C130.728 86.0412 130.819 86.196 130.956 86.3016C133.528 88.2538 137.581 87.4514 139.002 84.553C139.338 83.7927 139.513 82.9716 139.515 82.141C139.517 81.3105 139.346 80.4885 139.014 79.7265Z" fill="#253139"/>
<path d="M132.926 86.799C132.803 88.329 132.167 89.7737 131.119 90.9009C130.057 91.9577 128.756 92.7462 127.325 93.2004C126.121 93.6675 124.754 94.1585 123.941 95.2484C123.756 95.4947 123.613 95.7699 123.519 96.0628C123.448 96.386 123.319 96.6941 123.14 96.973C122.89 97.2463 122.587 97.4664 122.249 97.6198C121.621 97.9862 121.113 98.5247 120.785 99.1707C120.538 99.6486 120.394 100.173 120.364 100.71C119.936 100.889 119.515 101.087 119.099 101.309C119.033 100.416 119.204 99.5216 119.595 98.7154C119.986 97.9092 120.583 97.2195 121.327 96.7155C121.602 96.594 121.865 96.4456 122.11 96.2724C122.297 96.0808 122.315 95.7095 122.411 95.464C122.539 95.1412 122.707 94.8354 122.911 94.5538C123.816 93.4766 125.011 92.6788 126.356 92.2543C127.711 91.7273 129.12 91.2602 130.132 90.1703C131.016 89.2095 131.562 87.9881 131.685 86.6912C131.7 86.5276 131.779 86.3764 131.905 86.2708C132.032 86.1653 132.195 86.114 132.36 86.1283C132.524 86.1426 132.676 86.2213 132.783 86.347C132.889 86.4728 132.94 86.6354 132.926 86.799Z" fill="#253139"/>
<path d="M129.548 68.5046C128.743 67.9818 127.83 67.6471 126.876 67.5258C125.923 67.4044 124.954 67.4995 124.043 67.8039C123.969 67.835 123.902 67.8803 123.845 67.9373C123.788 67.9943 123.743 68.0618 123.713 68.1361C123.682 68.2103 123.667 68.2898 123.667 68.3699C123.668 68.4501 123.684 68.5294 123.715 68.6034C123.746 68.6773 123.792 68.7444 123.849 68.8008C123.907 68.8572 123.975 68.9018 124.049 68.9321C124.124 68.9624 124.204 68.9778 124.284 68.9774C124.365 68.977 124.445 68.9608 124.519 68.9297C125.234 68.7221 125.985 68.6681 126.722 68.7714C127.459 68.8746 128.166 69.1327 128.795 69.5285C128.93 69.6223 129.096 69.6615 129.259 69.6382C129.423 69.6148 129.571 69.5307 129.674 69.4028C129.726 69.3359 129.764 69.2594 129.786 69.1777C129.807 69.0961 129.812 69.0109 129.801 68.9272C129.789 68.8436 129.76 68.7631 129.717 68.6905C129.674 68.6179 129.616 68.5547 129.548 68.5046Z" fill="#253139"/>
<path d="M127.072 73.457C127.062 73.3764 127.035 73.2987 126.994 73.2287C126.952 73.1587 126.897 73.0978 126.831 73.0498L126.687 72.9719C126.588 72.9304 126.479 72.9179 126.374 72.936C126.157 72.9525 125.949 73.027 125.771 73.1516C125.589 73.2829 125.445 73.4608 125.356 73.6666C125.33 73.7647 125.33 73.8678 125.356 73.966C125.212 74.2844 125.113 74.6209 125.061 74.966C125.042 75.0744 125.054 75.1858 125.094 75.2881C125.135 75.3903 125.203 75.4794 125.292 75.5456C125.38 75.6118 125.485 75.6526 125.595 75.6633C125.705 75.6741 125.816 75.6545 125.916 75.6068C126.315 75.4189 126.643 75.1086 126.851 74.7216C127.059 74.3345 127.136 73.8912 127.072 73.457Z" fill="#253139"/>
<path d="M117.587 71.6068C117.551 71.5113 117.494 71.4246 117.422 71.3524C117.349 71.2801 117.262 71.224 117.166 71.1876H117.063C116.907 71.1247 116.732 71.1247 116.576 71.1876C116.426 71.2561 116.308 71.3779 116.244 71.5289C116.081 71.9244 115.979 72.3425 115.943 72.7685C115.933 72.9011 115.964 73.0338 116.033 73.1477C116.102 73.2616 116.206 73.351 116.329 73.4033C116.429 73.439 116.536 73.4513 116.642 73.4392C116.722 73.4282 116.799 73.4013 116.868 73.3602C116.937 73.319 116.998 73.2644 117.045 73.1997C117.148 73.0808 117.239 72.9525 117.316 72.8164C117.428 72.6429 117.517 72.4557 117.581 72.2595C117.609 72.18 117.627 72.0976 117.635 72.014C117.656 71.8764 117.639 71.7359 117.587 71.6068Z" fill="#253139"/>
<path d="M119.316 69.1453C119.331 67.9503 119.027 66.7727 118.437 65.732C118.075 65.2185 117.581 64.8109 117.007 64.5518C116.433 64.2927 115.799 64.1915 115.173 64.2588C114.384 64.3367 114.57 65.5343 115.353 65.4565C115.894 65.4208 116.43 65.5734 116.87 65.8882C117.309 66.2029 117.625 66.6601 117.762 67.1811C117.923 67.7673 118.014 68.3703 118.033 68.9776C118.072 69.6178 118.072 70.2597 118.033 70.8998C118.021 72.0796 117.593 73.2177 116.823 74.1155C116.09 74.8862 115.106 75.3741 114.046 75.4928C113.95 75.508 113.858 75.5447 113.778 75.6003C113.698 75.6559 113.632 75.7288 113.584 75.8136C113.537 75.8984 113.509 75.9928 113.504 76.0897C113.498 76.1867 113.515 76.2836 113.553 76.3731C113.89 76.9719 114.239 77.6247 114.576 78.2534C114.646 78.4052 114.772 78.5245 114.928 78.5868C115.083 78.6492 115.257 78.6499 115.413 78.5888C115.569 78.5228 115.692 78.3981 115.755 78.242C115.819 78.0859 115.817 77.9113 115.751 77.7564C115.54 77.3612 115.323 76.966 115.106 76.5588C116.001 76.3079 116.821 75.8458 117.497 75.2119C118.174 74.578 118.686 73.791 118.991 72.9179C119.331 71.6908 119.441 70.412 119.316 69.1453Z" fill="#253139"/>
<path d="M121.448 81.5771C121.339 83.2718 119.683 84.3556 118.075 84.2419C116.269 84.1161 114.992 82.7867 114.155 81.3256C114.136 81.2919 114.121 81.2555 114.113 81.2178C114.038 81.1211 113.992 81.0052 113.98 80.8836C113.968 80.762 113.992 80.6395 114.047 80.5305C114.102 80.4215 114.188 80.3303 114.293 80.2675C114.399 80.2047 114.52 80.173 114.643 80.1758C116.745 80.279 118.839 80.515 120.912 80.8824C121.073 80.909 121.218 80.9955 121.318 81.1245C121.417 81.2535 121.464 81.4153 121.448 81.5771ZM120.044 82.0142C118.623 81.7807 117.19 81.607 115.757 81.4873C116.016 81.8707 116.349 82.1993 116.737 82.4541C117.124 82.709 117.559 82.8851 118.015 82.9723C118.414 83.044 118.826 82.9903 119.193 82.8186C119.56 82.6469 119.864 82.3657 120.063 82.0142H120.044Z" fill="#253139"/>
<path d="M79.2027 109.542C76.2599 112.309 73.2207 114.981 70.0852 117.56C66.9497 120.139 63.7178 122.625 60.3896 125.016C57.0774 127.411 53.681 129.689 50.2002 131.848C48.5501 132.878 46.6411 133.902 44.6056 133.399C42.7689 132.938 41.5163 131.375 40.3601 130.046C40.3119 129.998 40.2697 129.944 40.2215 129.89L40.9803 125.842C41.4079 123.555 41.7572 121.231 42.3594 118.986C42.7701 117.15 43.535 115.411 44.6117 113.866C45.1258 113.17 45.7802 112.589 46.533 112.159C47.2858 111.729 48.1204 111.46 48.9837 111.369C50.8867 111.135 52.868 111.44 54.7408 110.961C55.6838 110.737 56.5413 110.246 57.2099 109.548C57.9367 108.663 58.4165 107.604 58.601 106.476C59.2032 103.835 59.6308 101.147 60.1427 98.4878C60.6686 95.7332 61.1966 92.9786 61.7265 90.224L64.581 75.3132C68.9089 80.3513 73.1464 85.4593 77.2936 90.6372C78.4619 92.0983 79.6242 93.5635 80.7805 95.0326C81.3586 95.7711 81.9347 96.5097 82.5088 97.2482C83.0753 97.9218 83.5964 98.632 84.0685 99.3741C86.4171 103.338 81.8825 107.051 79.2027 109.542Z" fill="#EF5026" fill-opacity="0.3"/>
<path d="M64.5811 75.3136L61.7266 90.2303C61.1966 92.9849 60.6687 95.7395 60.1428 98.4941C59.6309 101.153 59.1913 103.842 58.6011 106.482C58.4165 107.61 57.9368 108.67 57.21 109.554C56.5414 110.253 55.6839 110.743 54.7409 110.968C52.868 111.447 50.8868 111.141 48.9838 111.375C48.1205 111.466 47.2859 111.735 46.5331 112.165C45.7803 112.595 45.1259 113.176 44.6117 113.872C43.5351 115.418 42.7702 117.157 42.3595 118.992C41.7573 121.238 41.408 123.561 40.9804 125.849L40.2216 129.897L39.2641 128.795C36.8854 126.022 34.597 123.184 32.3688 120.297C29.7974 116.968 27.3162 113.585 24.8713 110.177C23.6669 108.489 22.4624 106.794 21.258 105.093C20.6558 104.231 20.0536 103.381 19.4514 102.518C18.8492 101.656 18.247 100.877 17.7652 100.003C17.255 99.1882 16.9916 98.2444 17.0064 97.2845C17.0712 96.4333 17.3806 95.6185 17.8977 94.9371C18.9877 93.4221 20.6919 92.3143 22.1734 91.1705C25.5859 88.5237 29.0466 85.9288 32.5555 83.3857C36.0644 80.8427 39.6214 78.3336 43.2267 75.8585C43.2764 75.8297 43.3289 75.8056 43.3832 75.7866C43.4196 75.7029 43.4805 75.632 43.5579 75.583L48.2852 72.4272C49.863 71.3793 51.4167 70.2834 53.0246 69.2834C53.0685 69.2584 53.1149 69.2384 53.1631 69.2235C53.2045 69.1878 53.2542 69.1631 53.3077 69.1516C55.03 68.5528 57.0655 67.954 58.7637 68.966C59.5427 69.521 60.2295 70.1939 60.7992 70.9601L62.8949 73.3554C63.1357 73.6249 63.3706 73.9063 63.6115 74.1818C63.9307 74.553 64.2378 74.9303 64.5811 75.3136Z" fill="#EF5026"/>
<path d="M152.859 134.531L151.377 131.19C149.595 127.198 147.814 123.196 146.036 119.183C145.855 118.764 145.668 118.351 145.482 117.932C145.482 117.932 145.482 117.878 145.452 117.854C143.892 114.321 142.44 110.704 140.363 107.422C138.556 104.494 136.177 101.752 132.968 100.29C129.18 98.5718 124.85 98.967 121.05 100.44C120.827 100.524 120.61 100.614 120.388 100.71C119.96 100.889 119.538 101.087 119.123 101.308C115.907 102.913 113.101 105.225 110.385 107.578C106.91 110.644 103.465 113.686 99.9123 116.632C96.263 119.662 92.5533 122.621 88.8257 125.567C86.5372 127.363 84.2488 129.202 81.9303 130.956C81.6051 131.214 81.2739 131.459 80.9427 131.711C80.0514 132.394 79.1501 133.066 78.2388 133.729C74.8489 136.275 71.2068 138.47 67.3689 140.28C65.4576 141.154 63.4727 141.86 61.4371 142.388C59.5823 142.855 57.4926 143.017 55.8606 141.843C55.2102 141.376 55.951 140.406 56.5953 140.855C57.3876 141.364 58.3311 141.588 59.2691 141.49C61.3157 141.243 63.3121 140.685 65.1889 139.837C67.1478 139.049 69.0476 138.122 70.8737 137.064C74.1552 135.125 77.3018 132.968 80.2923 130.609L81.2739 129.855L81.4305 129.735C88.8738 123.956 96.281 118.117 103.411 111.974C106.79 109.105 110.005 105.979 113.558 103.303C115.324 101.964 117.225 100.812 119.231 99.8653C119.749 99.6257 120.279 99.4042 120.809 99.2006C122.197 98.6636 123.641 98.2839 125.115 98.0688C127.056 97.7582 129.039 97.8361 130.949 98.2978C132.859 98.7595 134.657 99.5957 136.238 100.758C139.11 102.913 141.17 105.955 142.862 109.063C144.368 111.848 145.65 114.764 146.927 117.668C147.102 118.088 147.288 118.501 147.469 118.92C147.71 119.471 147.951 120.022 148.198 120.573C150.185 125.032 152.178 129.507 154.178 133.998C154.224 134.167 154.207 134.346 154.13 134.503C154.052 134.66 153.919 134.783 153.757 134.848C153.594 134.914 153.413 134.918 153.247 134.86C153.081 134.801 152.943 134.684 152.859 134.531Z" fill="#253139"/>
<path d="M56.499 140.927C55.2151 139.528 53.5355 138.549 51.6813 138.118C50.7627 137.944 49.828 137.867 48.8931 137.891C48.3965 137.899 47.9004 137.859 47.4117 137.771C46.9454 137.645 46.5037 137.443 46.1049 137.172C45.3833 136.633 44.5023 136.346 43.5997 136.358C43.2091 136.378 42.8332 136.512 42.5185 136.743C42.2038 136.974 41.9641 137.292 41.8292 137.657C41.522 138.711 42.3531 139.549 43.0818 140.19C43.8003 140.819 44.5954 141.357 45.4485 141.789C46.2012 142.172 47.0563 142.388 47.785 142.789C48.0388 142.916 48.2394 143.128 48.3511 143.388C48.3779 143.574 48.3578 143.764 48.2926 143.941C48.2274 144.117 48.1193 144.275 47.9777 144.4C47.6897 144.712 47.3709 144.995 47.0262 145.244L45.605 146.37L42.877 148.526L37.5354 152.747C36.2166 153.789 34.1028 155.245 34.982 157.227C35.2141 157.694 35.6172 158.056 36.1087 158.237C36.6003 158.419 37.143 158.406 37.6257 158.203C38.7218 157.849 39.6251 157.005 40.5224 156.293L46.6288 151.604C46.6952 151.553 46.7509 151.489 46.7926 151.416C46.8343 151.344 46.8612 151.264 46.8718 151.181C46.8825 151.098 46.8766 151.014 46.8545 150.934C46.8324 150.853 46.7946 150.778 46.7432 150.711C46.6918 150.645 46.6278 150.59 46.5549 150.549C46.482 150.507 46.4016 150.48 46.3183 150.47C46.2349 150.459 46.1503 150.465 46.0693 150.487C45.9882 150.509 45.9123 150.547 45.8459 150.598L40.8114 154.454C39.9804 155.095 39.1614 155.748 38.3183 156.364C37.8606 156.706 36.8971 157.406 36.325 156.963C35.7529 156.52 36.2105 155.7 36.5478 155.298C37.1811 154.653 37.877 154.071 38.6254 153.562L43.5455 149.664L46.0386 147.693C46.8335 147.095 47.6646 146.496 48.4173 145.789C48.7662 145.535 49.057 145.211 49.2708 144.837C49.4846 144.464 49.6165 144.049 49.6579 143.621C49.6429 143.233 49.5232 142.856 49.3113 142.529C49.0995 142.203 48.8032 141.939 48.4535 141.765C47.779 141.376 47.0202 141.166 46.3096 140.849C45.5252 140.487 44.7922 140.024 44.1296 139.471C43.8165 139.214 42.7265 138.412 43.1179 137.95C43.5093 137.489 44.3585 137.735 44.8282 137.95C45.2979 138.166 45.6652 138.459 46.1109 138.675C46.5763 138.896 47.0745 139.042 47.5863 139.106C48.6161 139.238 49.6639 139.106 50.6937 139.244C52.5351 139.485 54.2365 140.35 55.5114 141.693C55.6203 141.821 55.7745 141.901 55.9418 141.918C56.1091 141.935 56.2765 141.886 56.4087 141.783C56.5292 141.678 56.6054 141.531 56.6222 141.372C56.6389 141.214 56.5949 141.055 56.499 140.927Z" fill="#253139"/>
<path d="M48.0442 153.514C47.0445 154.8 45.9907 156.043 44.8826 157.245C43.8351 158.423 42.7106 159.531 41.5162 160.562C41.0125 161.057 40.3663 161.384 39.6674 161.496C39.6132 161.496 39.3904 161.496 39.282 161.461C39.2866 161.074 39.3771 160.694 39.547 160.347C39.9048 159.672 40.3348 159.037 40.8297 158.454C41.3175 157.826 41.8294 157.209 42.3473 156.592C43.5322 155.255 44.6439 153.856 45.6775 152.4C46.1171 151.754 45.1415 151.023 44.6959 151.67C43.6407 153.139 42.5111 154.554 41.3115 155.909C40.7093 156.586 40.1552 157.275 39.6193 157.987C39.0458 158.665 38.5807 159.426 38.2402 160.245C37.9873 160.958 37.7765 162.071 38.5654 162.538C38.9388 162.697 39.3434 162.77 39.7491 162.752C40.1548 162.733 40.551 162.623 40.908 162.431C41.6834 162.038 42.3876 161.52 42.9917 160.898C43.6621 160.271 44.3165 159.626 44.9549 158.963C46.3982 157.473 47.7572 155.903 49.0258 154.263C49.5377 153.622 48.538 152.879 48.0442 153.514Z" fill="#253139"/>
<path d="M51.1214 155.514L46.0809 160.113C45.411 160.783 44.6583 161.364 43.8407 161.844C43.4474 162.072 43.0142 162.225 42.564 162.293C42.3893 162.293 41.8112 162.293 41.9618 161.976C42.2629 161.251 41.1427 160.82 40.8236 161.533C40.723 161.777 40.6951 162.046 40.7432 162.306C40.7912 162.566 40.9131 162.807 41.0946 163C41.3102 163.213 41.5746 163.371 41.865 163.461C42.1555 163.551 42.4635 163.569 42.7627 163.515C43.9364 163.293 45.0237 162.747 45.9002 161.94C46.8999 161.113 47.8393 160.203 48.7968 159.329L51.8982 156.491C52.4703 155.958 51.7116 154.958 51.1214 155.514Z" fill="#253139"/>
<path d="M55.572 156.155C54.1026 158.347 52.5369 160.472 50.8748 162.532C50.7122 162.736 49.026 165.059 48.6707 164.473C48.6104 164.377 48.749 164.161 48.7911 164.071C48.9236 163.748 49.0681 163.425 49.2066 163.107L50.0437 161.179C50.6459 159.76 51.2481 158.335 51.8925 156.915C52.2056 156.191 51.0675 155.748 50.7483 156.466C50.11 157.931 49.4676 159.398 48.8212 160.868L47.8637 163.065C47.5927 163.664 47.1953 164.401 47.5807 165.071C47.7412 165.328 47.9758 165.532 48.254 165.654C48.5321 165.777 48.8409 165.814 49.1404 165.76C49.7729 165.608 50.3276 165.231 50.7001 164.7C51.6998 163.544 52.6453 162.335 53.5666 161.107C54.6065 159.73 55.6101 158.323 56.5777 156.885C57.0113 156.257 56.0176 155.508 55.572 156.155Z" fill="#253139"/>
<path d="M129.559 122.722C128.867 122.806 128.174 122.926 127.494 123.069C124.846 123.723 122.251 124.574 119.731 125.614C117.292 126.555 114.913 127.591 112.505 128.686C107.687 130.914 103.05 133.411 98.437 135.98C94.9682 137.908 91.5236 139.879 88.0488 141.807L86.9528 142.406C86.1739 142.837 85.3931 143.264 84.6102 143.687C79.9611 146.22 75.2458 148.591 70.404 150.729C65.5623 152.867 60.4977 154.987 56.0534 158.023C55.403 158.472 54.6442 157.514 55.2946 157.059C55.8546 156.664 56.4267 156.286 57.0049 155.927C61.5696 153.047 66.6402 151.053 71.5362 148.837C76.4322 146.621 81.0993 144.178 85.7845 141.615C85.9832 141.513 86.1759 141.4 86.3867 141.292C86.7541 141.094 87.1154 140.891 87.4767 140.693C91.5718 138.411 95.6307 136.076 99.7377 133.824C104.381 131.267 109.084 128.806 113.932 126.638C116.341 125.567 118.78 124.567 121.261 123.644C123.892 122.698 126.596 121.746 129.397 121.423C129.57 121.401 129.745 121.449 129.882 121.556C130.02 121.663 130.11 121.819 130.131 121.992C130.153 122.164 130.105 122.338 129.997 122.475C129.89 122.612 129.733 122.701 129.559 122.722Z" fill="#253139"/>
<path d="M119.286 133.31C117.439 133.023 115.635 132.512 113.914 131.789C112.71 131.286 111.222 130.543 110.867 129.184C110.839 129.024 110.75 128.881 110.619 128.784C110.488 128.687 110.324 128.644 110.162 128.663C110.082 128.673 110.004 128.699 109.934 128.74C109.864 128.781 109.803 128.836 109.754 128.9C109.706 128.965 109.671 129.039 109.652 129.118C109.633 129.196 109.631 129.278 109.644 129.358C110.054 131.094 111.559 132.118 113.107 132.819C115.026 133.67 117.052 134.261 119.129 134.573C119.954 134.699 120.099 133.436 119.286 133.31Z" fill="#253139"/>
<path d="M153.847 134.519C153.748 134.397 153.607 134.315 153.451 134.289C153.296 134.263 153.136 134.295 153.002 134.378C152.868 134.462 152.77 134.591 152.726 134.742C152.682 134.892 152.695 135.054 152.763 135.196C152.714 135.232 152.642 135.31 152.612 135.327C152.365 135.464 152.099 135.563 151.823 135.621L149.932 136.22L146.066 137.375C143.495 138.13 140.911 138.861 138.316 139.531C135.72 140.202 133.1 140.813 130.487 141.328C129.17 141.587 127.849 141.819 126.524 142.022L124.567 142.31C124.17 142.358 123.447 142.579 123.146 142.22C122.997 142.002 122.89 141.758 122.833 141.501C122.7 141.124 122.568 140.741 122.441 140.364C122.194 139.645 121.953 138.932 121.707 138.22C121.195 136.723 120.683 135.226 120.159 133.729C119.9 132.98 118.78 133.465 119.027 134.208C119.502 135.639 119.984 137.064 120.472 138.495C120.713 139.208 120.954 139.926 121.201 140.639C121.386 141.3 121.615 141.948 121.887 142.579C122.017 142.865 122.217 143.114 122.47 143.302C122.723 143.489 123.02 143.609 123.333 143.651C124.002 143.682 124.672 143.626 125.326 143.483C126.777 143.28 128.223 143.04 129.662 142.777C135.42 141.647 141.117 140.224 146.728 138.513C148.324 138.046 149.914 137.567 151.504 137.088C152.215 136.953 152.894 136.689 153.509 136.31C153.657 136.22 153.783 136.1 153.881 135.959C153.979 135.818 154.046 135.658 154.078 135.489C154.11 135.32 154.105 135.147 154.066 134.98C154.026 134.813 153.951 134.656 153.847 134.519Z" fill="#253139"/>
<path d="M120.779 92.8288C120.751 92.6673 120.662 92.5226 120.53 92.4245C120.397 92.3265 120.233 92.2826 120.069 92.3019C119.986 92.3104 119.906 92.3359 119.833 92.3768C119.761 92.4177 119.698 92.4731 119.648 92.5395C119.598 92.6059 119.563 92.6819 119.544 92.7626C119.525 92.8433 119.523 92.9271 119.539 93.0085C119.732 93.8169 119.9 94.6373 120.033 95.4577C120.165 96.2781 120.243 97.1164 120.358 97.9428C120.37 98.0215 120.397 98.097 120.438 98.1651C120.479 98.2333 120.534 98.2927 120.598 98.3399C120.662 98.3872 120.735 98.4214 120.813 98.4406C120.891 98.4598 120.971 98.4636 121.05 98.4518C121.129 98.44 121.205 98.4128 121.274 98.3719C121.342 98.3309 121.402 98.2769 121.45 98.2129C121.497 98.149 121.532 98.0763 121.551 97.9992C121.57 97.922 121.574 97.8418 121.562 97.7632C121.461 96.0972 121.199 94.4448 120.779 92.8288Z" fill="#253139"/>
<path d="M88.0673 141.783L86.9713 142.382C86.7726 142.005 86.5738 141.633 86.3691 141.262C84.6146 138.068 82.808 134.887 80.9492 131.717C80.7384 131.351 80.5156 130.986 80.2988 130.615L81.2804 129.86C81.5032 130.226 81.72 130.591 81.9368 130.962C82.1536 131.334 82.4788 131.872 82.7438 132.328C84.3497 135.074 85.9235 137.851 87.4651 140.657C87.6398 140.963 87.8024 141.256 87.971 141.579C88.0011 141.675 88.0372 141.735 88.0673 141.783Z" fill="#253139"/>
<path d="M68.9107 50.4258C67.622 48.0305 66.1948 45.6352 65.7973 42.8686C65.6587 41.4566 65.7135 40.0323 65.9599 38.6349C66.1595 37.172 66.1878 35.691 66.0442 34.2216C66.0504 33.935 65.9938 33.6505 65.8784 33.3879C65.763 33.1252 65.5914 32.8907 65.3758 32.7005C64.7735 32.2993 64.1713 32.6167 63.6896 33.0239C62.7953 33.8551 62.1669 34.9298 61.8829 36.1139C61.5096 37.4253 61.4192 38.7906 61.1482 40.12C60.8437 41.3648 60.3416 42.5535 59.6608 43.6411C58.8885 44.8115 58.4437 46.1654 58.372 47.5634C58.3913 48.2637 58.5533 48.9528 58.8483 49.5889C59.1434 50.225 59.5652 50.795 60.0884 51.2642C60.1523 51.3152 60.226 51.3526 60.3051 51.3743C60.3841 51.3959 60.4667 51.4013 60.5479 51.3901C60.6291 51.3789 60.7071 51.3513 60.7772 51.3091C60.8473 51.2668 60.908 51.2108 60.9555 51.1444C61.0512 51.013 61.0921 50.8499 61.0697 50.6892C61.0472 50.5285 60.9632 50.3826 60.8351 50.2821C60.4572 49.923 60.1558 49.4919 59.9488 49.0146C59.7419 48.5372 59.6337 48.0233 59.6307 47.5035C59.7016 46.4155 60.043 45.362 60.6243 44.4375C61.2304 43.4638 61.7291 42.4278 62.1118 41.3476C62.421 40.0945 62.6583 38.8249 62.8224 37.545C62.9603 36.4898 63.3393 35.4799 63.9305 34.5928C64.0629 34.4062 64.2142 34.2337 64.3821 34.0778C64.4785 33.988 64.5989 33.9162 64.6892 33.8263C64.7045 33.8455 64.7149 33.8681 64.7194 33.8922C64.7496 34.0058 64.7678 34.1222 64.7735 34.2395C64.8398 34.5928 64.8398 34.9282 64.8398 35.2695C64.9783 37.8984 64.1352 40.4853 64.5327 43.1141C64.9542 45.9047 66.3092 48.5036 67.7244 50.8989C67.7943 51.0492 67.919 51.1674 68.0733 51.2297C68.2276 51.292 68.4 51.2936 68.5554 51.2342C68.7075 51.1704 68.8292 51.0509 68.8953 50.9005C68.9614 50.7501 68.9669 50.5802 68.9107 50.4258Z" fill="#253139"/>
<path d="M111.752 88.0444C111.451 87.7929 111.15 87.5474 110.849 87.3078C110.325 86.8827 109.795 86.4635 109.259 86.0443C106.248 83.6849 103.201 81.4154 100.226 79.056C96.5243 76.1617 92.8689 73.2174 89.2596 70.2233C88.0552 69.2213 86.8508 68.2232 85.6464 67.2292C85.3272 66.9657 85.002 66.6962 84.6828 66.4148C79.01 61.6241 73.4496 56.6938 68.0016 51.6237C67.9325 51.5788 67.8735 51.5202 67.8281 51.4516C67.7828 51.3831 67.7521 51.3059 67.738 51.2251C67.7239 51.1442 67.7266 51.0613 67.7461 50.9816C67.7655 50.9018 67.8012 50.8269 67.851 50.7614C67.8986 50.6959 67.9589 50.6407 68.0285 50.599C68.0981 50.5573 68.1755 50.53 68.2559 50.5188C68.3364 50.5076 68.4183 50.5128 68.4967 50.5339C68.5751 50.555 68.6484 50.5916 68.7122 50.6416C72.6426 54.2107 76.6112 57.7437 80.6179 61.2409C82.2198 62.6242 83.8217 64.0015 85.4356 65.3728L86.3991 66.1872C91.6986 70.6065 97.0583 74.9341 102.478 79.1698C104.55 80.7806 106.657 82.3555 108.741 83.9604C109.343 84.4275 109.946 84.9005 110.548 85.3856C110.822 86.2814 111.198 87.1432 111.668 87.9546L111.752 88.0444Z" fill="#253139"/>
<path d="M121.327 97.4101C121.182 97.5201 120.999 97.5692 120.818 97.5468C120.637 97.5244 120.471 97.4323 120.358 97.2903C119.496 95.9363 118.527 94.6527 117.461 93.4518C116.889 92.8051 116.299 92.1763 115.654 91.5655C116.387 91.7903 117.146 91.9171 117.913 91.9428C118.382 92.4458 118.834 92.9608 119.268 93.4937C120.055 94.4322 120.783 95.4182 121.448 96.446C121.557 96.591 121.605 96.7724 121.583 96.9521C121.56 97.1319 121.469 97.296 121.327 97.4101Z" fill="#253139"/>
<path d="M60.1908 42.6353C58.4082 40.9227 56.6116 39.226 54.801 37.5453C53.0305 35.9045 51.2841 34.2098 49.4353 32.6588C48.6444 31.9137 47.6897 31.3622 46.6471 31.048C46.4096 30.9737 46.1578 30.9567 45.9124 30.9985C45.6671 31.0403 45.4353 31.1397 45.2363 31.2884C45.0373 31.4371 44.8768 31.6309 44.7682 31.8536C44.6595 32.0763 44.6059 32.3216 44.6116 32.569C44.6116 33.5691 45.3463 34.4074 45.9244 35.1679C46.5753 36.0122 47.273 36.8199 48.0141 37.5872C49.6939 39.3471 51.5826 40.8975 53.6387 42.2041C54.3012 42.6233 55.0479 41.6592 54.3795 41.2281C52.7238 40.165 51.1749 38.9457 49.7545 37.5872C49.0881 36.9407 48.455 36.2612 47.8575 35.5512C47.2199 34.8566 46.6456 34.1071 46.1412 33.3116C46.0268 33.1139 45.7859 32.7127 45.8762 32.4313C45.9666 32.1498 46.4423 32.2936 46.6591 32.3774C47.5144 32.7626 48.2966 33.2913 48.9716 33.9403C50.6578 35.4134 52.2898 36.9345 53.9278 38.4734C55.7746 40.1861 57.6073 41.9167 59.426 43.6653C59.5618 43.765 59.7319 43.8072 59.899 43.7825C60.066 43.7578 60.2164 43.6683 60.3173 43.5335C60.4189 43.3972 60.4626 43.2267 60.4389 43.0587C60.4152 42.8906 60.3261 42.7386 60.1908 42.6353Z" fill="#253139"/>
<path d="M51.0248 40.3896C51.0248 40.4256 51.0248 40.4615 51.0248 40.4974C49.4692 40.2435 47.9531 39.7907 46.5143 39.1501C44.9787 38.4674 43.5032 37.4853 41.8291 37.2458C41.0522 37.132 39.896 37.0781 39.5226 37.9165C39.3869 38.3088 39.3717 38.7325 39.4789 39.1335C39.5862 39.5344 39.811 39.8946 40.1248 40.1681C40.7807 40.7359 41.5148 41.2078 42.3048 41.5693C43.0817 41.9885 43.8706 42.3777 44.6715 42.767C46.4827 43.603 48.3574 44.2958 50.2781 44.8389C50.4325 44.8945 50.6025 44.8889 50.7528 44.8231C50.9031 44.7573 51.0221 44.6364 51.0851 44.4856C51.1169 44.4107 51.1332 44.3302 51.1327 44.2489C51.1323 44.1676 51.1152 44.0873 51.0825 44.0128C51.0498 43.9382 51.0022 43.8711 50.9426 43.8155C50.883 43.7599 50.8126 43.7169 50.7358 43.6892C47.7013 42.7857 44.7799 41.5421 42.0278 39.9824C41.522 39.689 40.727 39.3177 40.6488 38.659V38.4973C40.7933 38.4973 40.9378 38.4614 41.0884 38.4554C41.461 38.4593 41.8315 38.5116 42.1904 38.6111C43.6357 38.9944 44.9124 39.8627 46.2734 40.4495C47.9103 41.1492 49.6371 41.6188 51.4042 41.8448C51.5725 41.8587 51.7398 41.8082 51.8719 41.7035C52.004 41.5989 52.0909 41.4481 52.1148 41.2819C52.163 41.0843 52.2052 40.8867 52.2413 40.6831C52.3798 39.9824 51.2176 39.701 51.0248 40.3896Z" fill="#253139"/>
<path d="M58.8838 57.3483C56.2461 56.5938 54.2227 54.7733 51.8741 53.4559C50.6219 52.7256 49.2322 52.2588 47.7911 52.0846C46.1206 52.0088 44.447 52.0408 42.7807 52.1804C42.3832 52.1804 41.9858 52.1804 41.5763 52.1804C41.4197 52.1804 40.8657 52.1804 40.7513 52.0427C40.6368 51.905 40.8054 51.7972 40.8898 51.7313C41.1677 51.5674 41.4886 51.4902 41.8111 51.5097C43.4503 51.4183 45.0702 51.1123 46.6288 50.5995C47.767 50.2163 49.929 49.5635 49.8266 48.0186C49.7724 47.2341 49.0738 46.8209 48.4776 46.4257C47.8814 46.0305 47.1166 45.5873 46.406 45.228C45.6241 44.817 44.8199 44.4491 43.9972 44.1262C43.2564 43.8388 42.4856 43.6292 41.763 43.3118C41.2752 43.0962 40.6368 42.713 40.6248 42.1141C40.6248 41.7548 40.7934 41.3177 41.1306 41.3596C41.2904 41.3779 41.4508 41.3323 41.5768 41.2329C41.7027 41.1335 41.7837 40.9885 41.8021 40.8297C41.8205 40.6708 41.7746 40.5113 41.6747 40.3861C41.5747 40.2608 41.4289 40.1802 41.2692 40.162C39.9383 39.9823 39.1494 41.4674 39.4204 42.6172C39.7696 44.0963 41.4498 44.5693 42.7084 45.0125C44.2777 45.5628 45.7836 46.2774 47.2009 47.1443C47.5442 47.3599 47.8874 47.5814 48.2187 47.815C48.4234 47.9587 48.6342 48.0545 48.4836 48.294C48.3051 48.5221 48.0679 48.6979 47.7971 48.803C47.4057 48.9887 46.9902 49.1504 46.5927 49.3001C44.9659 49.8138 43.2761 50.1039 41.5703 50.1624C41.188 50.157 40.8105 50.2474 40.4727 50.4254C40.1348 50.6033 39.8475 50.8629 39.6372 51.1804C39.4441 51.4965 39.3851 51.8759 39.4732 52.2352C39.5612 52.5945 39.7892 52.9043 40.1069 53.0966C40.8115 53.5158 41.7931 53.432 42.588 53.426C43.4793 53.426 44.3645 53.3421 45.2558 53.3002C46.8908 53.1458 48.5396 53.3692 50.0735 53.953C53.0484 55.2225 55.3488 57.8094 58.5827 58.528C59.2813 58.7076 59.5824 57.5279 58.8838 57.3483Z" fill="#253139"/>
<path d="M107.241 109.153C107.107 109.253 106.939 109.297 106.772 109.276C106.606 109.255 106.454 109.17 106.35 109.039L95.9198 97.9188L78.016 78.8222L77.4138 78.1635L77.1549 77.882C71.0404 71.3788 64.928 64.8655 58.8176 58.3423C58.2816 57.7435 59.2572 57.0249 59.7931 57.5938C63.2819 61.2945 66.7708 65.0053 70.2596 68.726L77.7932 76.7562L78.6905 77.7084L88.7775 88.4873L107.356 108.249C107.409 108.315 107.449 108.391 107.472 108.473C107.495 108.555 107.502 108.64 107.491 108.725C107.48 108.809 107.453 108.89 107.41 108.964C107.367 109.037 107.31 109.102 107.241 109.153Z" fill="#253139"/>
<path d="M86.4351 66.163C86.1701 66.5043 85.9111 66.8516 85.6462 67.1989C83.1333 70.571 80.8112 74.0795 78.6906 77.7084C78.4678 78.0856 78.245 78.4629 78.0342 78.8401L77.432 78.1814L77.1731 77.9C77.3838 77.5227 77.6067 77.1455 77.8295 76.7742C78.0523 76.4029 78.2209 76.0975 78.4317 75.7682C80.3704 72.5435 82.4708 69.4177 84.7248 66.4025C84.9837 66.0552 85.2427 65.7079 85.5137 65.3665L86.4351 66.163Z" fill="#253139"/>
<path d="M159.646 150.843C158.821 148.948 157.882 147.104 156.834 145.322C155.954 143.744 154.913 142.261 153.726 140.897C152.38 139.321 150.657 138.108 148.716 137.37C148.64 137.34 148.559 137.326 148.478 137.327C148.396 137.329 148.316 137.347 148.241 137.379C148.166 137.412 148.099 137.459 148.042 137.517C147.986 137.575 147.942 137.644 147.912 137.72C147.882 137.795 147.868 137.876 147.87 137.957C147.871 138.038 147.889 138.118 147.922 138.192C147.954 138.266 148.001 138.334 148.06 138.39C148.119 138.446 148.188 138.49 148.264 138.519C151.595 139.759 153.811 142.711 155.563 145.651C157.6 149.005 159.18 152.614 160.26 156.382C160.858 158.533 161.224 160.741 161.35 162.969C161.376 163.136 161.466 163.285 161.601 163.386C161.736 163.487 161.906 163.531 162.073 163.508C162.239 163.48 162.387 163.39 162.488 163.257C162.589 163.123 162.634 162.956 162.615 162.79C162.334 158.666 161.329 154.623 159.646 150.843Z" fill="#253139"/>
<path d="M162.272 161.94C162.201 161.887 162.121 161.849 162.036 161.828C161.951 161.806 161.862 161.802 161.775 161.814C161.688 161.827 161.605 161.856 161.529 161.901C161.454 161.945 161.388 162.004 161.335 162.074C161.283 162.144 161.244 162.224 161.223 162.309C161.201 162.393 161.196 162.481 161.209 162.568C161.221 162.654 161.251 162.738 161.296 162.813C161.341 162.888 161.4 162.953 161.471 163.006C161.559 163.054 161.627 163.133 161.66 163.229C161.694 163.324 161.691 163.428 161.651 163.521C161.604 163.66 161.525 163.786 161.421 163.89C161.316 163.994 161.189 164.073 161.049 164.119C160.662 164.259 160.256 164.342 159.845 164.365C159.242 164.419 158.64 164.455 158.086 164.491C155.786 164.628 153.485 164.676 151.185 164.718C146.53 164.808 141.869 164.844 137.214 164.862C134.913 164.862 132.613 164.862 130.312 164.862C128.1 164.901 125.888 164.805 123.688 164.575C123.164 164.515 122.634 164.437 122.116 164.341C121.602 164.29 121.097 164.167 120.617 163.976C120.291 163.802 120.46 163.377 120.514 163.101C120.607 162.598 120.715 162.101 120.839 161.61C121.358 159.675 122.006 157.777 122.779 155.927C124.465 151.736 126.452 147.664 127.247 143.202C127.385 142.43 126.169 142.298 126.043 143.065C125.248 147.256 123.387 151.167 121.767 155.101C120.919 157.078 120.208 159.111 119.641 161.185C119.509 161.7 119.388 162.215 119.286 162.736C119.109 163.265 119.096 163.835 119.25 164.371C119.677 165.359 121.056 165.473 121.954 165.646C124.3 166.028 126.676 166.205 129.054 166.173C131.517 166.173 133.974 166.173 136.437 166.173C141.411 166.173 146.383 166.131 151.353 166.048C154.106 166.006 156.858 165.97 159.604 165.742C160.664 165.652 161.952 165.527 162.615 164.545C163.169 163.784 163.181 162.497 162.272 161.94Z" fill="#253139"/>
<path d="M151.342 96.3501C150.757 94.9967 149.958 93.7452 148.975 92.6434C148.483 92.0391 148.078 91.37 147.77 90.6553C147.475 89.9061 147.263 89.127 147.138 88.3318C146.831 86.5953 146.68 84.8287 146.536 83.0682C146.247 79.5231 146.042 75.9361 145.271 72.451C144.025 66.8579 140.953 61.187 135.299 59.0133C132.257 57.8156 128.933 57.7498 125.717 57.9114C122.502 58.0731 119.093 58.4683 116.112 59.9115C112.923 61.4231 110.253 63.8342 108.432 66.8444C106.612 69.8547 105.722 73.331 105.875 76.8404C105.884 76.921 105.91 76.999 105.951 77.0694C105.991 77.1398 106.046 77.2012 106.111 77.25C106.177 77.2987 106.251 77.3337 106.331 77.3528C106.41 77.372 106.493 77.3749 106.573 77.3613C106.735 77.3347 106.881 77.2471 106.979 77.1166C107.078 76.9861 107.122 76.8229 107.103 76.6607C107.033 73.7171 107.739 70.8064 109.15 68.218C110.562 65.6295 112.63 63.4533 115.149 61.9056C117.781 60.3855 120.739 59.5072 123.778 59.3426C126.874 59.0792 130.108 58.9354 133.149 59.69C135.848 60.3521 138.252 61.88 139.99 64.0374C141.641 66.1519 142.842 68.5786 143.519 71.1695C144.404 74.3612 144.633 77.6727 144.868 80.9543C144.988 82.6789 145.097 84.4035 145.277 86.1222C145.388 87.7502 145.698 89.3589 146.199 90.9128C146.765 92.4578 147.837 93.6075 148.812 94.901C149.547 95.8729 150.053 96.9963 150.294 98.1885C150.759 100.544 150.281 102.987 148.963 104.997C148.654 105.497 148.288 105.959 147.873 106.375C147.736 106.487 147.649 106.647 147.627 106.822C147.606 106.997 147.653 107.173 147.758 107.315C148.321 107.964 148.721 108.737 148.925 109.569C149.129 110.402 149.132 111.271 148.933 112.105C148.731 112.863 148.368 113.569 147.868 114.176C147.368 114.782 146.744 115.275 146.036 115.62C145.277 115.986 145.777 117.183 146.548 116.818C147.438 116.415 148.228 115.82 148.86 115.077C149.492 114.334 149.95 113.461 150.203 112.521C150.455 111.581 150.494 110.597 150.319 109.64C150.143 108.683 149.756 107.776 149.186 106.985C149.53 106.665 149.844 106.314 150.125 105.937C150.507 105.4 150.834 104.827 151.101 104.225C151.634 103.006 151.928 101.697 151.968 100.368C152.022 99.0012 151.81 97.6367 151.342 96.3501Z" fill="#253139"/>
<path d="M109.825 105.853C108.307 105.53 107.681 103.632 107.5 102.308C107.264 100.566 107.634 98.7952 108.548 97.2901C108.646 97.1557 108.687 96.9888 108.663 96.8246C108.64 96.6605 108.553 96.5118 108.422 96.4099C107.196 95.7457 106.112 94.8508 105.23 93.775C104.412 92.5664 103.978 91.1417 103.983 89.685C103.947 88.9425 103.983 88.194 103.983 87.4454C103.965 86.6582 104.056 85.8723 104.254 85.11C104.682 83.7147 105.742 82.6249 106.362 81.3194C107.098 79.7572 107.348 78.0117 107.079 76.3073C107.056 76.1484 106.97 76.0053 106.841 75.9092C106.711 75.8132 106.549 75.7722 106.389 75.7953C106.229 75.8183 106.085 75.9035 105.989 76.032C105.892 76.1606 105.851 76.3221 105.874 76.4809C106.106 78.0028 105.867 79.5589 105.188 80.9422C104.519 82.3135 103.429 83.4333 103.038 84.9423C102.709 86.5453 102.619 88.1879 102.773 89.8168C102.771 91.3627 103.187 92.8807 103.977 94.2122C104.824 95.4059 105.918 96.4046 107.187 97.1404C106.28 98.8612 105.959 100.828 106.272 102.745C106.591 104.638 107.609 106.68 109.662 107.105C109.745 107.118 109.829 107.113 109.909 107.092C109.99 107.07 110.065 107.032 110.13 106.981C110.195 106.929 110.249 106.864 110.287 106.791C110.326 106.717 110.349 106.637 110.355 106.554C110.374 106.392 110.33 106.229 110.231 106.098C110.132 105.968 109.987 105.88 109.825 105.853Z" fill="#253139"/>
<path d="M121.327 97.4099C121.327 97.4099 122.531 96.5955 122.67 96.2481C122.808 95.9008 123.941 93.7271 125.783 93.1522C127.626 92.5773 129.939 91.4336 130.601 90.1581C131.263 88.8826 132.329 86.601 132.329 86.601C132.329 86.601 139.285 87.643 138.677 80.984C138.213 75.9359 132.215 78.8043 132.215 78.8043C132.215 78.8043 127.975 74.4568 128.674 69.0674C128.999 66.1916 129.579 63.35 130.408 60.576C130.408 60.576 117.232 58.5101 112.523 67.1152C107.813 75.7204 108.801 85.583 110.903 88.1041C113.004 90.6252 114.137 92.236 116.094 92.3498C117.266 92.4158 118.425 92.6373 119.538 93.0085L120.743 98.2003L120.05 99.9189C120.05 99.9189 116.124 101.871 114.51 103.248C112.896 104.626 109.897 106.686 109.897 106.686C109.897 106.686 106.784 105.308 106.886 102.56C106.991 100.703 107.261 98.8596 107.693 97.0506C107.693 97.0506 102.984 96.0445 103.544 88.9065C104.104 81.7685 105.85 82.1398 106.079 80.5229C106.308 78.9061 105.73 71.3489 109.307 66.8757C112.884 62.4024 117.136 58.7316 127.072 58.4921C137.009 58.2526 141.128 62.8695 142.97 67.8039C144.813 72.7382 145.163 80.4211 145.855 83.8644C146.548 87.3077 145.969 90.17 147.355 91.8887C148.74 93.6073 151.624 96.5955 151.161 100.033C150.697 103.47 148.276 106.799 148.276 106.799C148.276 106.799 150.354 110.129 149.203 112.536C148.401 114.077 147.207 115.381 145.741 116.321C145.741 116.321 141.128 105.428 136.165 101.069C133.54 98.7572 126.247 98.4279 124.284 98.889C123.065 99.177 121.871 99.5594 120.713 100.033L121.327 97.4099Z" fill="#253139"/>
<path d="M151.938 108.632C152.507 109.735 152.782 110.966 152.736 112.205C152.689 113.445 152.323 114.652 151.673 115.71C150.699 117.24 149.202 118.37 147.457 118.89C146.99 119.033 146.51 119.131 146.024 119.183C145.843 118.764 145.656 118.351 145.47 117.932C145.47 117.932 145.47 117.878 145.44 117.854C145.939 117.849 146.435 117.776 146.915 117.638C147.559 117.464 148.17 117.185 148.722 116.812C149.584 116.255 150.284 115.484 150.752 114.573C151.221 113.663 151.44 112.647 151.389 111.626C151.326 110.619 151.014 109.644 150.483 108.785C149.952 107.925 149.217 107.209 148.342 106.698C147.77 106.374 148.144 105.578 148.655 105.458C149.484 105.24 150.253 104.84 150.904 104.286C151.556 103.732 152.074 103.04 152.419 102.26C154.033 98.8531 152.347 95.0745 149.818 92.6792C148.433 91.3438 146.885 90.1461 145.873 88.4874C144.847 86.8113 144.334 84.8738 144.398 82.9123C144.405 82.8312 144.429 82.7525 144.468 82.6809C144.507 82.6093 144.56 82.5464 144.624 82.4959C144.689 82.4455 144.763 82.4086 144.842 82.3875C144.921 82.3665 145.003 82.3616 145.084 82.3734C145.245 82.3972 145.391 82.481 145.491 82.6079C145.592 82.7347 145.64 82.895 145.626 83.056C145.621 85.2589 146.424 87.3881 147.885 89.0443C149.228 90.5833 150.95 91.751 152.184 93.3918C153.39 94.9421 154.136 96.7961 154.34 98.7453C154.487 100.284 154.169 101.831 153.428 103.19C152.687 104.549 151.556 105.657 150.179 106.374C150.902 107.011 151.499 107.776 151.938 108.632Z" fill="#253139"/>
<path d="M108.952 97.2063C108.705 97.847 107.982 97.8051 107.428 97.7033C106.364 97.5187 105.343 97.139 104.417 96.5835C102.796 95.6142 101.541 94.1411 100.846 92.3917C100.35 91.0315 100.207 89.5688 100.43 88.139C100.654 86.7093 101.236 85.3585 102.123 84.2117C102.788 83.423 103.56 82.7297 104.417 82.1518C105.235 81.582 105.863 80.7838 106.224 79.8583C106.558 78.9039 106.787 77.9159 106.904 76.912C107.025 76.1216 108.259 76.2593 108.145 77.0498C107.85 79.0439 107.458 81.1218 105.935 82.5769C105.278 83.2117 104.465 83.6548 103.803 84.2836C103.246 84.8231 102.786 85.4529 102.442 86.146C101.72 87.5758 101.479 89.1986 101.756 90.7749C102.058 92.2911 102.861 93.6633 104.038 94.6733C104.622 95.1849 105.282 95.603 105.995 95.9128C106.358 96.0735 106.735 96.2017 107.121 96.2961C107.278 96.3372 107.437 96.3692 107.597 96.3919H107.687C107.755 96.3121 107.837 96.2451 107.928 96.1943C108.524 95.8529 109.175 96.6194 108.952 97.2063Z" fill="#253139"/>
<path d="M110.271 106.117C109.65 106.148 109.031 106.033 108.464 105.782C107.907 105.61 107.383 105.349 106.91 105.009C106.502 104.683 106.17 104.272 105.939 103.804C105.708 103.336 105.583 102.824 105.573 102.303C105.417 99.7755 107.253 97.7874 108.747 95.967C108.844 95.8376 108.885 95.6753 108.861 95.5158C108.837 95.3563 108.751 95.2127 108.621 95.1167C108.49 95.0206 108.327 94.9798 108.167 95.0034C108.006 95.027 107.862 95.113 107.765 95.2424C106.194 96.8832 104.664 98.8354 104.327 101.141C104.137 102.174 104.276 103.24 104.722 104.192C105.169 105.143 105.902 105.933 106.82 106.452C107.361 106.74 107.933 106.967 108.524 107.129C109.185 107.405 109.916 107.468 110.614 107.309C110.736 107.237 110.831 107.126 110.884 106.994C110.936 106.863 110.944 106.717 110.905 106.581C110.865 106.445 110.782 106.326 110.667 106.242C110.552 106.158 110.413 106.114 110.271 106.117Z" fill="#253139"/>
<path d="M140.044 60.4262C139.412 60.9204 138.733 61.3497 138.014 61.7077C137.858 61.772 137.683 61.7728 137.527 61.7101C137.37 61.6474 137.245 61.5261 137.177 61.3724C137.128 61.2592 137.116 61.1337 137.141 61.0131C137.092 60.9444 137.063 60.8636 137.057 60.7795C137.003 60.2526 136.96 59.7316 136.912 59.2046C136.901 59.0593 136.94 58.9144 137.023 58.7945C137.107 58.6745 137.229 58.5867 137.37 58.5459C137.501 58.5038 137.642 58.5038 137.773 58.5459C137.852 58.5753 137.924 58.6209 137.985 58.6797C138.045 58.7385 138.092 58.8092 138.123 58.8873C138.138 58.9385 138.15 58.9904 138.159 59.0429C138.227 59.2724 138.277 59.5066 138.309 59.7436L139.423 59.3783C139.565 59.3236 139.722 59.32 139.866 59.3681C140.01 59.4163 140.133 59.5131 140.212 59.6418C140.281 59.7716 140.301 59.921 140.27 60.0642C140.239 60.2074 140.159 60.3355 140.044 60.4262Z" fill="#253139"/>
<path d="M126.711 142.513C126.711 142.513 124.862 149.101 123.634 152.149C122.405 155.197 118.557 163.466 119.942 164.383C121.327 165.299 136.858 165.76 142.826 165.58C148.794 165.401 161.874 165.137 162.073 163.532C162.271 161.927 159.158 147.867 155.009 143.43C150.86 138.992 147.782 137.316 147.782 137.316L126.711 142.513Z" fill="#253139"/>
<path d="M45.9123 100.799C45.478 102.497 44.516 104.016 43.1633 105.138C41.8106 106.261 40.1363 106.93 38.3786 107.051C32.5854 107.387 27.2076 100.692 30.0019 95.2423C32.0193 91.308 36.6684 90.3918 40.5707 91.9847C42.4927 92.7006 44.1172 94.0376 45.1836 95.7813C46.0648 97.2992 46.3256 99.0957 45.9123 100.799Z" fill="white"/>
<path d="M65.5924 72.0317C65.46 72.7143 65.3275 73.403 65.195 74.0797C65.0986 74.5946 65.0023 75.1096 64.8999 75.6246L62.0454 90.5414C61.5155 93.296 60.9875 96.0506 60.4616 98.8052C59.9497 101.464 59.5101 104.153 58.9199 106.794C58.737 107.923 58.2571 108.985 57.5288 109.872C56.8582 110.566 56.0013 111.054 55.0598 111.279C53.1869 111.758 51.2056 111.458 49.3026 111.686C48.4394 111.777 47.6047 112.046 46.8519 112.476C46.0991 112.906 45.4448 113.488 44.9306 114.183C43.854 115.729 43.0891 117.468 42.6783 119.303C42.0761 121.555 41.7268 123.872 41.2993 126.16L40.5405 130.208C40.2815 131.609 40.0165 133.004 39.7516 134.399C39.6191 135.118 38.499 134.998 38.6315 134.268C38.7639 133.537 38.8844 132.902 39.0048 132.226L39.607 129.1C39.9262 127.417 40.2394 125.728 40.5525 124.046C40.8846 121.891 41.3532 119.759 41.9557 117.662C42.4688 115.843 43.3844 114.162 44.6355 112.74C45.9467 111.379 47.7294 110.566 49.6218 110.464C50.5974 110.387 51.579 110.41 52.5546 110.375C53.473 110.389 54.3879 110.258 55.2645 109.985C56.1127 109.687 56.8133 109.076 57.2217 108.279C57.6776 107.17 57.9834 106.006 58.1311 104.817C59.1789 99.3242 60.2287 93.8369 61.2806 88.3557L63.9364 74.4988C64.099 73.6305 64.2676 72.7622 64.4302 71.8939C64.5687 71.1214 65.731 71.2771 65.5924 72.0317Z" fill="white"/>
<path d="M100.635 57.4743C99.2402 58.2413 98.0218 59.2897 97.0581 60.5523C96.3362 61.4137 95.8213 62.4275 95.5525 63.5165C95.6405 64.1111 95.6768 64.7121 95.6609 65.3129C95.6389 65.446 95.5749 65.5686 95.4781 65.663C95.3813 65.7575 95.2568 65.8188 95.1226 65.8382C94.9885 65.8575 94.8516 65.8339 94.7318 65.7706C94.612 65.7074 94.5156 65.608 94.4565 65.4866C94.2651 64.8708 94.2117 64.2208 94.2999 63.5823C93.9096 61.1606 92.5717 58.9906 90.5783 57.5462C90.4836 57.4742 90.4089 57.3794 90.3615 57.2707L90.0544 57.127C89.9042 57.0644 89.7842 56.9467 89.7191 56.7984C89.6541 56.6501 89.649 56.4825 89.7051 56.3305C89.7329 56.2541 89.7762 56.1841 89.8321 56.1248C89.8881 56.0656 89.9556 56.0182 90.0305 55.9857C90.1054 55.9533 90.1862 55.9363 90.268 55.9358C90.3497 55.9354 90.4307 55.9515 90.506 55.9832C92.2524 56.9054 93.9928 54.9472 94.8901 53.6717C95.7071 52.5166 96.3182 51.2303 96.6967 49.8692C96.7858 49.1736 96.9247 48.4852 97.1123 47.8092C97.305 47.1086 98.3889 47.426 98.3167 48.1026C98.2363 48.7967 98.1014 49.4835 97.9132 50.1566C97.7997 51.2031 97.822 52.2597 97.9794 53.3005C98.1661 54.4981 98.7924 56.3665 100.346 56.2946C100.483 56.3024 100.613 56.3536 100.718 56.4406C100.823 56.5276 100.897 56.6459 100.93 56.7781C100.962 56.9102 100.951 57.0491 100.898 57.1745C100.845 57.2998 100.753 57.4049 100.635 57.4743ZM98.8286 57.1449C98.2808 56.792 97.8134 56.3288 97.4566 55.7852C97.0998 55.2417 96.8615 54.6298 96.757 53.9891C96.7028 53.7196 96.6546 53.4502 96.6184 53.1747C96.3243 53.7137 95.9902 54.2301 95.6188 54.7197C94.8067 55.913 93.6466 56.8304 92.2946 57.3485C93.5058 58.4835 94.4337 59.884 95.0045 61.4385C95.2652 60.9438 95.5631 60.4693 95.8958 60.0193C96.7113 58.9123 97.6993 57.942 98.8225 57.1449H98.8286Z" fill="#EF5026"/>
<path d="M39.5949 69.1813C38.6115 69.7737 37.7906 70.5987 37.2054 71.5829C36.6201 72.5671 36.2887 73.6799 36.2406 74.8222C36.3633 75.3966 36.4018 75.9855 36.355 76.5708C36.3008 77.3134 35.2349 77.2595 35.1024 76.5708C34.9958 76.0044 34.9513 75.4281 34.9699 74.8522C34.7554 73.958 34.3165 73.1326 33.6941 72.4529C33.0717 71.7733 32.2861 71.2616 31.4109 70.9658C31.3771 70.9534 31.3447 70.9374 31.3145 70.9179C31.218 70.8941 31.129 70.847 31.0553 70.7806C30.9816 70.7143 30.9255 70.6309 30.8921 70.5378C30.8587 70.4447 30.849 70.3448 30.8639 70.2471C30.8788 70.1494 30.9177 70.0568 30.9773 69.9777C32.8016 67.7525 34.1998 65.2134 35.1024 62.4864C35.1558 62.2422 35.2324 62.0036 35.3313 61.7738C35.392 61.6197 35.5117 61.496 35.6642 61.4297C35.8166 61.3635 35.9893 61.3601 36.1443 61.4205C36.2992 61.4808 36.4236 61.5999 36.4903 61.7515C36.5569 61.9031 36.5602 62.0748 36.4996 62.2289C36.4393 62.4325 36.3671 62.6361 36.3008 62.8277C35.795 65.0853 37.975 66.9656 39.7274 68.0794C40.149 68.3848 39.9683 68.9657 39.5949 69.1813ZM38.2339 68.6124C37.2413 67.9551 36.3982 67.0983 35.7588 66.0973C35.6024 65.8381 35.4694 65.5655 35.3614 65.2829C34.5951 66.9832 33.6353 68.5906 32.5009 70.0735C33.6928 70.6313 34.6923 71.5272 35.3734 72.6485C35.8978 71.0481 36.8946 69.6417 38.2339 68.6124Z" fill="#EF5026"/>
<path d="M85.0016 117.746C82.936 118.68 82.8698 121.339 82.8216 123.279C82.7915 124.082 81.563 123.932 81.5811 123.141C81.5925 122.264 81.3338 121.405 80.8397 120.678C80.3457 119.951 79.6398 119.392 78.8169 119.075C78.7175 119.038 78.63 118.974 78.5632 118.892C78.4965 118.809 78.4529 118.71 78.437 118.606C78.4211 118.501 78.4334 118.394 78.4726 118.296C78.5118 118.197 78.5766 118.111 78.6603 118.045C78.6842 117.893 78.7662 117.756 78.8892 117.662C79.7441 116.987 80.4466 116.141 80.9508 115.179C81.4551 114.216 81.7498 113.159 81.8159 112.075C81.8343 111.916 81.9154 111.771 82.0413 111.672C82.1672 111.573 82.3277 111.527 82.4874 111.545C82.6471 111.563 82.793 111.644 82.8929 111.769C82.9929 111.895 83.0387 112.054 83.0204 112.213C82.8638 113.854 83.0625 116.063 84.9655 116.596C85.5436 116.752 85.4533 117.542 85.0016 117.746ZM83.5081 117.231C82.9613 116.822 82.5248 116.285 82.2375 115.668C82.2375 115.608 82.1893 115.548 82.1652 115.494C81.6536 116.546 80.9395 117.488 80.0635 118.267C80.8235 118.704 81.4629 119.321 81.9243 120.064C82.1348 118.976 82.6898 117.983 83.5081 117.231Z" fill="#EF5026"/>
</g>
<defs>
<clipPath id="clip0_266_1914">
<rect width="146" height="135.185" fill="white" transform="matrix(-1 0 0 1 163 31)"/>
</clipPath>
</defs>
</svg>
