<svg width="70" height="70" viewBox="0 0 70 70" fill="none" xmlns="http://www.w3.org/2000/svg">
<circle cx="35" cy="35" r="27.5" stroke="#EF5026" stroke-opacity="0.3" stroke-width="15"/>
<path d="M60 35C60 41.6304 57.3661 47.9893 52.6777 52.6777C47.9893 57.3661 41.6304 60 35 60C28.3696 60 22.0107 57.3661 17.3223 52.6777C12.6339 47.9893 10 41.6304 10 35C10 28.3696 12.6339 22.0107 17.3223 17.3223C22.0107 12.6339 28.3696 10 35 10C41.6304 10 47.9893 12.6339 52.6777 17.3223C57.3661 22.0107 60 28.3696 60 35ZM31.2188 25.9156C30.9851 25.7493 30.7102 25.6504 30.4241 25.63C30.1381 25.6095 29.8519 25.6681 29.5969 25.7995C29.3419 25.9308 29.1281 26.1298 28.9787 26.3746C28.8293 26.6195 28.7502 26.9007 28.75 27.1875V42.8125C28.7502 43.0993 28.8293 43.3805 28.9787 43.6254C29.1281 43.8702 29.3419 44.0692 29.5969 44.2005C29.8519 44.3319 30.1381 44.3905 30.4241 44.37C30.7102 44.3496 30.9851 44.2507 31.2188 44.0844L42.1562 36.2719C42.3588 36.1273 42.5239 35.9365 42.6378 35.7153C42.7517 35.4941 42.8111 35.2488 42.8111 35C42.8111 34.7512 42.7517 34.5059 42.6378 34.2847C42.5239 34.0635 42.3588 33.8727 42.1562 33.7281L31.2188 25.9156Z" fill="#EF5026"/>
</svg>
