<svg width="38" height="39" viewBox="0 0 38 39" fill="none" xmlns="http://www.w3.org/2000/svg">
<g clip-path="url(#clip0_250_2730)">
<path d="M22.7649 29.6219V25.767C22.7649 24.9486 22.5276 24.5393 22.0529 24.5393C21.7746 24.5393 21.5045 24.6703 21.2426 24.9322V30.4322C21.5045 30.6941 21.7746 30.8251 22.0529 30.8251C22.5276 30.8251 22.7649 30.424 22.7649 29.6219ZM27.2828 26.6264H28.9033V25.7916C28.9033 24.9568 28.6332 24.5393 28.0931 24.5393C27.5529 24.5393 27.2828 24.9568 27.2828 25.7916V26.6264ZM13.2627 20.0951V21.8139H11.2984V32.2001H9.48145V21.8139H7.56627V20.0951H13.2627ZM18.198 23.1889V32.2001H16.5529V31.2179C15.9145 31.9545 15.2925 32.3228 14.6868 32.3228C14.1466 32.3228 13.8029 32.0937 13.6556 31.6353C13.5573 31.3571 13.5082 30.9151 13.5082 30.3094V23.1889H15.1288V29.8184C15.1288 30.2112 15.137 30.424 15.1533 30.4568C15.1697 30.7023 15.2925 30.8251 15.5216 30.8251C15.849 30.8251 16.1928 30.5713 16.5529 30.0639V23.1889H18.198ZM24.3855 25.9143V29.4992C24.3855 30.3504 24.3282 30.9478 24.2136 31.2916C24.0172 31.9791 23.5834 32.3228 22.9123 32.3228C22.3393 32.3228 21.7828 31.9873 21.2426 31.3161V32.2001H19.5975V20.0951H21.2426V24.0483C21.7664 23.3935 22.323 23.0661 22.9123 23.0661C23.5834 23.0661 24.0172 23.4099 24.2136 24.0974C24.3282 24.4411 24.3855 25.0468 24.3855 25.9143ZM30.5484 29.0818V29.3027C30.5484 29.7774 30.532 30.1294 30.4993 30.3585C30.4502 30.7187 30.3274 31.046 30.131 31.3407C29.689 31.9954 29.0343 32.3228 28.1667 32.3228C27.3155 32.3228 26.6526 32.0118 26.1779 31.3898C25.8341 30.9478 25.6623 30.244 25.6623 29.2782V26.1108C25.6623 25.145 25.8259 24.4411 26.1533 23.9992C26.628 23.3771 27.2828 23.0661 28.1176 23.0661C28.9524 23.0661 29.5908 23.3771 30.0328 23.9992C30.3765 24.4739 30.5484 25.1777 30.5484 26.1108V27.9768H27.2828V29.5728C27.2828 30.4076 27.5611 30.8251 28.1176 30.8251C28.5105 30.8251 28.756 30.6123 28.8542 30.1867C28.8542 30.1703 28.8583 30.113 28.8665 30.0148C28.8747 29.9166 28.8788 29.7815 28.8788 29.6097V29.0818H30.5484ZM19.4747 8.84961V12.68C19.4747 13.5148 19.2128 13.9322 18.689 13.9322C18.1652 13.9322 17.9033 13.5148 17.9033 12.68V8.84961C17.9033 7.99842 18.1652 7.57282 18.689 7.57282C19.2128 7.57282 19.4747 7.99842 19.4747 8.84961ZM32.5618 26.3563C32.5618 23.459 32.4063 21.331 32.0953 19.9724C31.9316 19.2521 31.5797 18.6506 31.0395 18.1677C30.4993 17.6848 29.8773 17.4024 29.1734 17.3206C26.9472 17.0751 23.5752 16.9523 19.0573 16.9523C14.5559 16.9523 11.192 17.0751 8.96582 17.3206C8.24558 17.4024 7.61947 17.6848 7.08747 18.1677C6.55548 18.6506 6.20764 19.2521 6.04395 19.9724C5.71656 21.3965 5.55287 23.5245 5.55287 26.3563C5.55287 29.2373 5.71656 31.3652 6.04395 32.7402C6.20764 33.4441 6.55548 34.0416 7.08747 34.5326C7.61947 35.0237 8.2374 35.3102 8.94127 35.392C11.1838 35.6376 14.5559 35.7603 19.0573 35.7603C23.5588 35.7603 26.9309 35.6376 29.1734 35.392C29.8773 35.3102 30.4952 35.0237 31.0272 34.5326C31.5592 34.0416 31.907 33.4441 32.0707 32.7402C32.3981 31.3652 32.5618 29.2373 32.5618 26.3563ZM14.0239 10.3719L16.2337 3.10407H14.3922L13.1399 7.89202L11.8386 3.10407H9.92341C10.038 3.48056 10.2262 4.04529 10.4881 4.79827L11.0774 6.49247C11.6503 8.17848 12.0268 9.47163 12.2069 10.3719V15.3072H14.0239V10.3719ZM21.1198 12.3608V9.16881C21.1198 8.2194 20.948 7.50735 20.6042 7.03265C20.1295 6.41062 19.4911 6.09961 18.689 6.09961C17.8542 6.09961 17.2158 6.41062 16.7739 7.03265C16.4301 7.50735 16.2582 8.2194 16.2582 9.16881V12.3608C16.2582 13.3102 16.4301 14.0222 16.7739 14.4969C17.2158 15.119 17.8542 15.43 18.689 15.43C19.4911 15.43 20.1295 15.119 20.6042 14.4969C20.948 14.055 21.1198 13.3429 21.1198 12.3608ZM25.564 15.3072H27.2091V6.22238H25.564V13.171C25.2039 13.6785 24.8602 13.9322 24.5328 13.9322C24.2873 13.9322 24.1563 13.8012 24.1399 13.5393C24.1236 13.5066 24.1154 13.2938 24.1154 12.9009V6.22238H22.4703V13.4166C22.4703 14.0222 22.5194 14.4724 22.6176 14.767C22.7977 15.209 23.1496 15.43 23.6734 15.43C24.2627 15.43 24.8929 15.0617 25.564 14.3251V15.3072ZM37.9145 7.84291V31.4143C37.9145 33.3623 37.2229 35.0278 35.8397 36.411C34.4565 37.7942 32.791 38.4858 30.8431 38.4858H7.27162C5.32371 38.4858 3.65816 37.7942 2.27497 36.411C0.891788 35.0278 0.200195 33.3623 0.200195 31.4143V7.84291C0.200195 5.895 0.891788 4.22945 2.27497 2.84626C3.65816 1.46308 5.32371 0.771484 7.27162 0.771484H30.8431C32.791 0.771484 34.4565 1.46308 35.8397 2.84626C37.2229 4.22945 37.9145 5.895 37.9145 7.84291Z" fill="#EF5026"/>
</g>
<defs>
<clipPath id="clip0_250_2730">
<rect width="37.7143" height="37.7143" fill="white" transform="translate(0.200195 0.771484)"/>
</clipPath>
</defs>
</svg>
